%TF.GenerationSoftware,KiCad,Pcbnew,10.0.0*%
%TF.CreationDate,2026-04-14T22:13:58+03:00*%
%TF.ProjectId,RADR,52414452-2e6b-4696-9361-645f70636258,rev?*%
%TF.SameCoordinates,Original*%
%TF.FileFunction,Legend,Bot*%
%TF.FilePolarity,Positive*%
%FSLAX46Y46*%
G04 Gerber Fmt 4.6, Leading zero omitted, Abs format (unit mm)*
G04 Created by KiCad (PCBNEW 10.0.0) date 2026-04-14 22:13:58*
%MOMM*%
%LPD*%
G01*
G04 APERTURE LIST*
%ADD10C,0.200000*%
%ADD11C,0.130000*%
%ADD12C,0.125000*%
%ADD13C,0.180000*%
%ADD14C,0.100000*%
%ADD15C,0.150000*%
%ADD16C,0.120000*%
%ADD17C,0.254000*%
G04 APERTURE END LIST*
D10*
X150091070Y-105032235D02*
G75*
G02*
X146891070Y-105032235I-1600000J0D01*
G01*
X146891070Y-105032235D02*
G75*
G02*
X150091070Y-105032235I1600000J0D01*
G01*
D11*
X152232686Y-104478094D02*
X151566020Y-105478094D01*
X151566020Y-104478094D02*
X152232686Y-105478094D01*
X151185067Y-105097141D02*
X150423163Y-105097141D01*
X150804115Y-105478094D02*
X150804115Y-104716189D01*
X149453450Y-104478094D02*
X148786784Y-104478094D01*
X148786784Y-104478094D02*
X149453450Y-105478094D01*
X149453450Y-105478094D02*
X148786784Y-105478094D01*
X148405831Y-105097141D02*
X147643927Y-105097141D01*
X148930117Y-102416903D02*
X148930117Y-102893094D01*
X149263450Y-101893094D02*
X148930117Y-102416903D01*
X148930117Y-102416903D02*
X148596784Y-101893094D01*
X148263450Y-102512141D02*
X147501546Y-102512141D01*
X147882498Y-102893094D02*
X147882498Y-102131189D01*
D10*
X173716634Y-94234692D02*
X173859492Y-94163263D01*
X173859492Y-94163263D02*
X174073777Y-94163263D01*
X174073777Y-94163263D02*
X174288063Y-94234692D01*
X174288063Y-94234692D02*
X174430920Y-94377549D01*
X174430920Y-94377549D02*
X174502349Y-94520406D01*
X174502349Y-94520406D02*
X174573777Y-94806120D01*
X174573777Y-94806120D02*
X174573777Y-95020406D01*
X174573777Y-95020406D02*
X174502349Y-95306120D01*
X174502349Y-95306120D02*
X174430920Y-95448977D01*
X174430920Y-95448977D02*
X174288063Y-95591835D01*
X174288063Y-95591835D02*
X174073777Y-95663263D01*
X174073777Y-95663263D02*
X173930920Y-95663263D01*
X173930920Y-95663263D02*
X173716634Y-95591835D01*
X173716634Y-95591835D02*
X173645206Y-95520406D01*
X173645206Y-95520406D02*
X173645206Y-95020406D01*
X173645206Y-95020406D02*
X173930920Y-95020406D01*
X173002349Y-95663263D02*
X173002349Y-94163263D01*
X173002349Y-94163263D02*
X172145206Y-95663263D01*
X172145206Y-95663263D02*
X172145206Y-94163263D01*
X171430920Y-95663263D02*
X171430920Y-94163263D01*
X171430920Y-94163263D02*
X171073777Y-94163263D01*
X171073777Y-94163263D02*
X170859491Y-94234692D01*
X170859491Y-94234692D02*
X170716634Y-94377549D01*
X170716634Y-94377549D02*
X170645205Y-94520406D01*
X170645205Y-94520406D02*
X170573777Y-94806120D01*
X170573777Y-94806120D02*
X170573777Y-95020406D01*
X170573777Y-95020406D02*
X170645205Y-95306120D01*
X170645205Y-95306120D02*
X170716634Y-95448977D01*
X170716634Y-95448977D02*
X170859491Y-95591835D01*
X170859491Y-95591835D02*
X171073777Y-95663263D01*
X171073777Y-95663263D02*
X171430920Y-95663263D01*
X174502349Y-87082549D02*
X174002349Y-87082549D01*
X173788063Y-87868263D02*
X174502349Y-87868263D01*
X174502349Y-87868263D02*
X174502349Y-86368263D01*
X174502349Y-86368263D02*
X173788063Y-86368263D01*
X173216634Y-87796835D02*
X173002349Y-87868263D01*
X173002349Y-87868263D02*
X172645206Y-87868263D01*
X172645206Y-87868263D02*
X172502349Y-87796835D01*
X172502349Y-87796835D02*
X172430920Y-87725406D01*
X172430920Y-87725406D02*
X172359491Y-87582549D01*
X172359491Y-87582549D02*
X172359491Y-87439692D01*
X172359491Y-87439692D02*
X172430920Y-87296835D01*
X172430920Y-87296835D02*
X172502349Y-87225406D01*
X172502349Y-87225406D02*
X172645206Y-87153977D01*
X172645206Y-87153977D02*
X172930920Y-87082549D01*
X172930920Y-87082549D02*
X173073777Y-87011120D01*
X173073777Y-87011120D02*
X173145206Y-86939692D01*
X173145206Y-86939692D02*
X173216634Y-86796835D01*
X173216634Y-86796835D02*
X173216634Y-86653977D01*
X173216634Y-86653977D02*
X173145206Y-86511120D01*
X173145206Y-86511120D02*
X173073777Y-86439692D01*
X173073777Y-86439692D02*
X172930920Y-86368263D01*
X172930920Y-86368263D02*
X172573777Y-86368263D01*
X172573777Y-86368263D02*
X172359491Y-86439692D01*
X171716635Y-87868263D02*
X171716635Y-86368263D01*
X171716635Y-86368263D02*
X171145206Y-86368263D01*
X171145206Y-86368263D02*
X171002349Y-86439692D01*
X171002349Y-86439692D02*
X170930920Y-86511120D01*
X170930920Y-86511120D02*
X170859492Y-86653977D01*
X170859492Y-86653977D02*
X170859492Y-86868263D01*
X170859492Y-86868263D02*
X170930920Y-87011120D01*
X170930920Y-87011120D02*
X171002349Y-87082549D01*
X171002349Y-87082549D02*
X171145206Y-87153977D01*
X171145206Y-87153977D02*
X171716635Y-87153977D01*
X169216635Y-86368263D02*
X168288063Y-86368263D01*
X168288063Y-86368263D02*
X168788063Y-86939692D01*
X168788063Y-86939692D02*
X168573778Y-86939692D01*
X168573778Y-86939692D02*
X168430921Y-87011120D01*
X168430921Y-87011120D02*
X168359492Y-87082549D01*
X168359492Y-87082549D02*
X168288063Y-87225406D01*
X168288063Y-87225406D02*
X168288063Y-87582549D01*
X168288063Y-87582549D02*
X168359492Y-87725406D01*
X168359492Y-87725406D02*
X168430921Y-87796835D01*
X168430921Y-87796835D02*
X168573778Y-87868263D01*
X168573778Y-87868263D02*
X169002349Y-87868263D01*
X169002349Y-87868263D02*
X169145206Y-87796835D01*
X169145206Y-87796835D02*
X169216635Y-87725406D01*
X167788064Y-86868263D02*
X167430921Y-87868263D01*
X167430921Y-87868263D02*
X167073778Y-86868263D01*
X166645207Y-86368263D02*
X165716635Y-86368263D01*
X165716635Y-86368263D02*
X166216635Y-86939692D01*
X166216635Y-86939692D02*
X166002350Y-86939692D01*
X166002350Y-86939692D02*
X165859493Y-87011120D01*
X165859493Y-87011120D02*
X165788064Y-87082549D01*
X165788064Y-87082549D02*
X165716635Y-87225406D01*
X165716635Y-87225406D02*
X165716635Y-87582549D01*
X165716635Y-87582549D02*
X165788064Y-87725406D01*
X165788064Y-87725406D02*
X165859493Y-87796835D01*
X165859493Y-87796835D02*
X166002350Y-87868263D01*
X166002350Y-87868263D02*
X166430921Y-87868263D01*
X166430921Y-87868263D02*
X166573778Y-87796835D01*
X166573778Y-87796835D02*
X166645207Y-87725406D01*
X165365355Y-126764335D02*
X165151070Y-126835763D01*
X165151070Y-126835763D02*
X164793927Y-126835763D01*
X164793927Y-126835763D02*
X164651070Y-126764335D01*
X164651070Y-126764335D02*
X164579641Y-126692906D01*
X164579641Y-126692906D02*
X164508212Y-126550049D01*
X164508212Y-126550049D02*
X164508212Y-126407192D01*
X164508212Y-126407192D02*
X164579641Y-126264335D01*
X164579641Y-126264335D02*
X164651070Y-126192906D01*
X164651070Y-126192906D02*
X164793927Y-126121477D01*
X164793927Y-126121477D02*
X165079641Y-126050049D01*
X165079641Y-126050049D02*
X165222498Y-125978620D01*
X165222498Y-125978620D02*
X165293927Y-125907192D01*
X165293927Y-125907192D02*
X165365355Y-125764335D01*
X165365355Y-125764335D02*
X165365355Y-125621477D01*
X165365355Y-125621477D02*
X165293927Y-125478620D01*
X165293927Y-125478620D02*
X165222498Y-125407192D01*
X165222498Y-125407192D02*
X165079641Y-125335763D01*
X165079641Y-125335763D02*
X164722498Y-125335763D01*
X164722498Y-125335763D02*
X164508212Y-125407192D01*
X163865356Y-126835763D02*
X163865356Y-125835763D01*
X163865356Y-125335763D02*
X163936784Y-125407192D01*
X163936784Y-125407192D02*
X163865356Y-125478620D01*
X163865356Y-125478620D02*
X163793927Y-125407192D01*
X163793927Y-125407192D02*
X163865356Y-125335763D01*
X163865356Y-125335763D02*
X163865356Y-125478620D01*
X162936784Y-126835763D02*
X163079641Y-126764335D01*
X163079641Y-126764335D02*
X163151070Y-126621477D01*
X163151070Y-126621477D02*
X163151070Y-125335763D01*
X162508213Y-125835763D02*
X162151070Y-126835763D01*
X162151070Y-126835763D02*
X161793927Y-125835763D01*
X160651070Y-126764335D02*
X160793927Y-126835763D01*
X160793927Y-126835763D02*
X161079642Y-126835763D01*
X161079642Y-126835763D02*
X161222499Y-126764335D01*
X161222499Y-126764335D02*
X161293927Y-126621477D01*
X161293927Y-126621477D02*
X161293927Y-126050049D01*
X161293927Y-126050049D02*
X161222499Y-125907192D01*
X161222499Y-125907192D02*
X161079642Y-125835763D01*
X161079642Y-125835763D02*
X160793927Y-125835763D01*
X160793927Y-125835763D02*
X160651070Y-125907192D01*
X160651070Y-125907192D02*
X160579642Y-126050049D01*
X160579642Y-126050049D02*
X160579642Y-126192906D01*
X160579642Y-126192906D02*
X161293927Y-126335763D01*
X159936785Y-126835763D02*
X159936785Y-125835763D01*
X159936785Y-126121477D02*
X159865356Y-125978620D01*
X159865356Y-125978620D02*
X159793928Y-125907192D01*
X159793928Y-125907192D02*
X159651070Y-125835763D01*
X159651070Y-125835763D02*
X159508213Y-125835763D01*
X157865357Y-126835763D02*
X157865357Y-125335763D01*
X157865357Y-125335763D02*
X157293928Y-125335763D01*
X157293928Y-125335763D02*
X157151071Y-125407192D01*
X157151071Y-125407192D02*
X157079642Y-125478620D01*
X157079642Y-125478620D02*
X157008214Y-125621477D01*
X157008214Y-125621477D02*
X157008214Y-125835763D01*
X157008214Y-125835763D02*
X157079642Y-125978620D01*
X157079642Y-125978620D02*
X157151071Y-126050049D01*
X157151071Y-126050049D02*
X157293928Y-126121477D01*
X157293928Y-126121477D02*
X157865357Y-126121477D01*
X156151071Y-126835763D02*
X156293928Y-126764335D01*
X156293928Y-126764335D02*
X156365357Y-126621477D01*
X156365357Y-126621477D02*
X156365357Y-125335763D01*
X154936786Y-126835763D02*
X154936786Y-126050049D01*
X154936786Y-126050049D02*
X155008214Y-125907192D01*
X155008214Y-125907192D02*
X155151071Y-125835763D01*
X155151071Y-125835763D02*
X155436786Y-125835763D01*
X155436786Y-125835763D02*
X155579643Y-125907192D01*
X154936786Y-126764335D02*
X155079643Y-126835763D01*
X155079643Y-126835763D02*
X155436786Y-126835763D01*
X155436786Y-126835763D02*
X155579643Y-126764335D01*
X155579643Y-126764335D02*
X155651071Y-126621477D01*
X155651071Y-126621477D02*
X155651071Y-126478620D01*
X155651071Y-126478620D02*
X155579643Y-126335763D01*
X155579643Y-126335763D02*
X155436786Y-126264335D01*
X155436786Y-126264335D02*
X155079643Y-126264335D01*
X155079643Y-126264335D02*
X154936786Y-126192906D01*
X154436785Y-125835763D02*
X153865357Y-125835763D01*
X154222500Y-125335763D02*
X154222500Y-126621477D01*
X154222500Y-126621477D02*
X154151071Y-126764335D01*
X154151071Y-126764335D02*
X154008214Y-126835763D01*
X154008214Y-126835763D02*
X153865357Y-126835763D01*
X152793928Y-126764335D02*
X152936785Y-126835763D01*
X152936785Y-126835763D02*
X153222500Y-126835763D01*
X153222500Y-126835763D02*
X153365357Y-126764335D01*
X153365357Y-126764335D02*
X153436785Y-126621477D01*
X153436785Y-126621477D02*
X153436785Y-126050049D01*
X153436785Y-126050049D02*
X153365357Y-125907192D01*
X153365357Y-125907192D02*
X153222500Y-125835763D01*
X153222500Y-125835763D02*
X152936785Y-125835763D01*
X152936785Y-125835763D02*
X152793928Y-125907192D01*
X152793928Y-125907192D02*
X152722500Y-126050049D01*
X152722500Y-126050049D02*
X152722500Y-126192906D01*
X152722500Y-126192906D02*
X153436785Y-126335763D01*
X152151071Y-126764335D02*
X152008214Y-126835763D01*
X152008214Y-126835763D02*
X151722500Y-126835763D01*
X151722500Y-126835763D02*
X151579643Y-126764335D01*
X151579643Y-126764335D02*
X151508214Y-126621477D01*
X151508214Y-126621477D02*
X151508214Y-126550049D01*
X151508214Y-126550049D02*
X151579643Y-126407192D01*
X151579643Y-126407192D02*
X151722500Y-126335763D01*
X151722500Y-126335763D02*
X151936786Y-126335763D01*
X151936786Y-126335763D02*
X152079643Y-126264335D01*
X152079643Y-126264335D02*
X152151071Y-126121477D01*
X152151071Y-126121477D02*
X152151071Y-126050049D01*
X152151071Y-126050049D02*
X152079643Y-125907192D01*
X152079643Y-125907192D02*
X151936786Y-125835763D01*
X151936786Y-125835763D02*
X151722500Y-125835763D01*
X151722500Y-125835763D02*
X151579643Y-125907192D01*
X150793928Y-126764335D02*
X150793928Y-126835763D01*
X150793928Y-126835763D02*
X150865357Y-126978620D01*
X150865357Y-126978620D02*
X150936785Y-127050049D01*
X149151071Y-125835763D02*
X148865357Y-126835763D01*
X148865357Y-126835763D02*
X148579642Y-126121477D01*
X148579642Y-126121477D02*
X148293928Y-126835763D01*
X148293928Y-126835763D02*
X148008214Y-125835763D01*
X147222499Y-126835763D02*
X147365356Y-126764335D01*
X147365356Y-126764335D02*
X147436785Y-126692906D01*
X147436785Y-126692906D02*
X147508213Y-126550049D01*
X147508213Y-126550049D02*
X147508213Y-126121477D01*
X147508213Y-126121477D02*
X147436785Y-125978620D01*
X147436785Y-125978620D02*
X147365356Y-125907192D01*
X147365356Y-125907192D02*
X147222499Y-125835763D01*
X147222499Y-125835763D02*
X147008213Y-125835763D01*
X147008213Y-125835763D02*
X146865356Y-125907192D01*
X146865356Y-125907192D02*
X146793928Y-125978620D01*
X146793928Y-125978620D02*
X146722499Y-126121477D01*
X146722499Y-126121477D02*
X146722499Y-126550049D01*
X146722499Y-126550049D02*
X146793928Y-126692906D01*
X146793928Y-126692906D02*
X146865356Y-126764335D01*
X146865356Y-126764335D02*
X147008213Y-126835763D01*
X147008213Y-126835763D02*
X147222499Y-126835763D01*
X146079642Y-126835763D02*
X146079642Y-125835763D01*
X146079642Y-126121477D02*
X146008213Y-125978620D01*
X146008213Y-125978620D02*
X145936785Y-125907192D01*
X145936785Y-125907192D02*
X145793927Y-125835763D01*
X145793927Y-125835763D02*
X145651070Y-125835763D01*
X145151071Y-126835763D02*
X145151071Y-125335763D01*
X145008214Y-126264335D02*
X144579642Y-126835763D01*
X144579642Y-125835763D02*
X145151071Y-126407192D01*
X143008213Y-125835763D02*
X142436785Y-125835763D01*
X142793928Y-125335763D02*
X142793928Y-126621477D01*
X142793928Y-126621477D02*
X142722499Y-126764335D01*
X142722499Y-126764335D02*
X142579642Y-126835763D01*
X142579642Y-126835763D02*
X142436785Y-126835763D01*
X141936785Y-126835763D02*
X141936785Y-125335763D01*
X141293928Y-126835763D02*
X141293928Y-126050049D01*
X141293928Y-126050049D02*
X141365356Y-125907192D01*
X141365356Y-125907192D02*
X141508213Y-125835763D01*
X141508213Y-125835763D02*
X141722499Y-125835763D01*
X141722499Y-125835763D02*
X141865356Y-125907192D01*
X141865356Y-125907192D02*
X141936785Y-125978620D01*
X140579642Y-126835763D02*
X140579642Y-125835763D01*
X140579642Y-125335763D02*
X140651070Y-125407192D01*
X140651070Y-125407192D02*
X140579642Y-125478620D01*
X140579642Y-125478620D02*
X140508213Y-125407192D01*
X140508213Y-125407192D02*
X140579642Y-125335763D01*
X140579642Y-125335763D02*
X140579642Y-125478620D01*
X139936784Y-126764335D02*
X139793927Y-126835763D01*
X139793927Y-126835763D02*
X139508213Y-126835763D01*
X139508213Y-126835763D02*
X139365356Y-126764335D01*
X139365356Y-126764335D02*
X139293927Y-126621477D01*
X139293927Y-126621477D02*
X139293927Y-126550049D01*
X139293927Y-126550049D02*
X139365356Y-126407192D01*
X139365356Y-126407192D02*
X139508213Y-126335763D01*
X139508213Y-126335763D02*
X139722499Y-126335763D01*
X139722499Y-126335763D02*
X139865356Y-126264335D01*
X139865356Y-126264335D02*
X139936784Y-126121477D01*
X139936784Y-126121477D02*
X139936784Y-126050049D01*
X139936784Y-126050049D02*
X139865356Y-125907192D01*
X139865356Y-125907192D02*
X139722499Y-125835763D01*
X139722499Y-125835763D02*
X139508213Y-125835763D01*
X139508213Y-125835763D02*
X139365356Y-125907192D01*
X137722498Y-125835763D02*
X137151070Y-125835763D01*
X137508213Y-125335763D02*
X137508213Y-126621477D01*
X137508213Y-126621477D02*
X137436784Y-126764335D01*
X137436784Y-126764335D02*
X137293927Y-126835763D01*
X137293927Y-126835763D02*
X137151070Y-126835763D01*
X136651070Y-126835763D02*
X136651070Y-125835763D01*
X136651070Y-125335763D02*
X136722498Y-125407192D01*
X136722498Y-125407192D02*
X136651070Y-125478620D01*
X136651070Y-125478620D02*
X136579641Y-125407192D01*
X136579641Y-125407192D02*
X136651070Y-125335763D01*
X136651070Y-125335763D02*
X136651070Y-125478620D01*
X135936784Y-126835763D02*
X135936784Y-125835763D01*
X135936784Y-125978620D02*
X135865355Y-125907192D01*
X135865355Y-125907192D02*
X135722498Y-125835763D01*
X135722498Y-125835763D02*
X135508212Y-125835763D01*
X135508212Y-125835763D02*
X135365355Y-125907192D01*
X135365355Y-125907192D02*
X135293927Y-126050049D01*
X135293927Y-126050049D02*
X135293927Y-126835763D01*
X135293927Y-126050049D02*
X135222498Y-125907192D01*
X135222498Y-125907192D02*
X135079641Y-125835763D01*
X135079641Y-125835763D02*
X134865355Y-125835763D01*
X134865355Y-125835763D02*
X134722498Y-125907192D01*
X134722498Y-125907192D02*
X134651069Y-126050049D01*
X134651069Y-126050049D02*
X134651069Y-126835763D01*
X133365355Y-126764335D02*
X133508212Y-126835763D01*
X133508212Y-126835763D02*
X133793927Y-126835763D01*
X133793927Y-126835763D02*
X133936784Y-126764335D01*
X133936784Y-126764335D02*
X134008212Y-126621477D01*
X134008212Y-126621477D02*
X134008212Y-126050049D01*
X134008212Y-126050049D02*
X133936784Y-125907192D01*
X133936784Y-125907192D02*
X133793927Y-125835763D01*
X133793927Y-125835763D02*
X133508212Y-125835763D01*
X133508212Y-125835763D02*
X133365355Y-125907192D01*
X133365355Y-125907192D02*
X133293927Y-126050049D01*
X133293927Y-126050049D02*
X133293927Y-126192906D01*
X133293927Y-126192906D02*
X134008212Y-126335763D01*
X132651070Y-126692906D02*
X132579641Y-126764335D01*
X132579641Y-126764335D02*
X132651070Y-126835763D01*
X132651070Y-126835763D02*
X132722498Y-126764335D01*
X132722498Y-126764335D02*
X132651070Y-126692906D01*
X132651070Y-126692906D02*
X132651070Y-126835763D01*
X168806786Y-120267073D02*
X168425833Y-120267073D01*
X168425833Y-120267073D02*
X168235357Y-120362311D01*
X168235357Y-120362311D02*
X168044881Y-120552787D01*
X168044881Y-120552787D02*
X167949643Y-120933739D01*
X167949643Y-120933739D02*
X167949643Y-121600406D01*
X167949643Y-121600406D02*
X168044881Y-121981358D01*
X168044881Y-121981358D02*
X168235357Y-122171835D01*
X168235357Y-122171835D02*
X168425833Y-122267073D01*
X168425833Y-122267073D02*
X168806786Y-122267073D01*
X168806786Y-122267073D02*
X168997262Y-122171835D01*
X168997262Y-122171835D02*
X169187738Y-121981358D01*
X169187738Y-121981358D02*
X169282976Y-121600406D01*
X169282976Y-121600406D02*
X169282976Y-120933739D01*
X169282976Y-120933739D02*
X169187738Y-120552787D01*
X169187738Y-120552787D02*
X168997262Y-120362311D01*
X168997262Y-120362311D02*
X168806786Y-120267073D01*
X167187738Y-122171835D02*
X166902024Y-122267073D01*
X166902024Y-122267073D02*
X166425833Y-122267073D01*
X166425833Y-122267073D02*
X166235357Y-122171835D01*
X166235357Y-122171835D02*
X166140119Y-122076596D01*
X166140119Y-122076596D02*
X166044881Y-121886120D01*
X166044881Y-121886120D02*
X166044881Y-121695644D01*
X166044881Y-121695644D02*
X166140119Y-121505168D01*
X166140119Y-121505168D02*
X166235357Y-121409930D01*
X166235357Y-121409930D02*
X166425833Y-121314692D01*
X166425833Y-121314692D02*
X166806786Y-121219454D01*
X166806786Y-121219454D02*
X166997262Y-121124215D01*
X166997262Y-121124215D02*
X167092500Y-121028977D01*
X167092500Y-121028977D02*
X167187738Y-120838501D01*
X167187738Y-120838501D02*
X167187738Y-120648025D01*
X167187738Y-120648025D02*
X167092500Y-120457549D01*
X167092500Y-120457549D02*
X166997262Y-120362311D01*
X166997262Y-120362311D02*
X166806786Y-120267073D01*
X166806786Y-120267073D02*
X166330595Y-120267073D01*
X166330595Y-120267073D02*
X166044881Y-120362311D01*
X165282976Y-122171835D02*
X164997262Y-122267073D01*
X164997262Y-122267073D02*
X164521071Y-122267073D01*
X164521071Y-122267073D02*
X164330595Y-122171835D01*
X164330595Y-122171835D02*
X164235357Y-122076596D01*
X164235357Y-122076596D02*
X164140119Y-121886120D01*
X164140119Y-121886120D02*
X164140119Y-121695644D01*
X164140119Y-121695644D02*
X164235357Y-121505168D01*
X164235357Y-121505168D02*
X164330595Y-121409930D01*
X164330595Y-121409930D02*
X164521071Y-121314692D01*
X164521071Y-121314692D02*
X164902024Y-121219454D01*
X164902024Y-121219454D02*
X165092500Y-121124215D01*
X165092500Y-121124215D02*
X165187738Y-121028977D01*
X165187738Y-121028977D02*
X165282976Y-120838501D01*
X165282976Y-120838501D02*
X165282976Y-120648025D01*
X165282976Y-120648025D02*
X165187738Y-120457549D01*
X165187738Y-120457549D02*
X165092500Y-120362311D01*
X165092500Y-120362311D02*
X164902024Y-120267073D01*
X164902024Y-120267073D02*
X164425833Y-120267073D01*
X164425833Y-120267073D02*
X164140119Y-120362311D01*
X163282976Y-122267073D02*
X163282976Y-120267073D01*
X163282976Y-120267073D02*
X162616309Y-121695644D01*
X162616309Y-121695644D02*
X161949643Y-120267073D01*
X161949643Y-120267073D02*
X161949643Y-122267073D01*
X159663928Y-120267073D02*
X159187738Y-122267073D01*
X159187738Y-122267073D02*
X158806785Y-120838501D01*
X158806785Y-120838501D02*
X158425833Y-122267073D01*
X158425833Y-122267073D02*
X157949643Y-120267073D01*
X157187738Y-122267073D02*
X157187738Y-120933739D01*
X157187738Y-120267073D02*
X157282976Y-120362311D01*
X157282976Y-120362311D02*
X157187738Y-120457549D01*
X157187738Y-120457549D02*
X157092500Y-120362311D01*
X157092500Y-120362311D02*
X157187738Y-120267073D01*
X157187738Y-120267073D02*
X157187738Y-120457549D01*
X156235357Y-122267073D02*
X156235357Y-120933739D01*
X156235357Y-121314692D02*
X156140119Y-121124215D01*
X156140119Y-121124215D02*
X156044881Y-121028977D01*
X156044881Y-121028977D02*
X155854405Y-120933739D01*
X155854405Y-120933739D02*
X155663928Y-120933739D01*
X154235357Y-122171835D02*
X154425833Y-122267073D01*
X154425833Y-122267073D02*
X154806786Y-122267073D01*
X154806786Y-122267073D02*
X154997262Y-122171835D01*
X154997262Y-122171835D02*
X155092500Y-121981358D01*
X155092500Y-121981358D02*
X155092500Y-121219454D01*
X155092500Y-121219454D02*
X154997262Y-121028977D01*
X154997262Y-121028977D02*
X154806786Y-120933739D01*
X154806786Y-120933739D02*
X154425833Y-120933739D01*
X154425833Y-120933739D02*
X154235357Y-121028977D01*
X154235357Y-121028977D02*
X154140119Y-121219454D01*
X154140119Y-121219454D02*
X154140119Y-121409930D01*
X154140119Y-121409930D02*
X155092500Y-121600406D01*
X152997262Y-122267073D02*
X153187738Y-122171835D01*
X153187738Y-122171835D02*
X153282976Y-121981358D01*
X153282976Y-121981358D02*
X153282976Y-120267073D01*
X151473452Y-122171835D02*
X151663928Y-122267073D01*
X151663928Y-122267073D02*
X152044881Y-122267073D01*
X152044881Y-122267073D02*
X152235357Y-122171835D01*
X152235357Y-122171835D02*
X152330595Y-121981358D01*
X152330595Y-121981358D02*
X152330595Y-121219454D01*
X152330595Y-121219454D02*
X152235357Y-121028977D01*
X152235357Y-121028977D02*
X152044881Y-120933739D01*
X152044881Y-120933739D02*
X151663928Y-120933739D01*
X151663928Y-120933739D02*
X151473452Y-121028977D01*
X151473452Y-121028977D02*
X151378214Y-121219454D01*
X151378214Y-121219454D02*
X151378214Y-121409930D01*
X151378214Y-121409930D02*
X152330595Y-121600406D01*
X150616309Y-122171835D02*
X150425833Y-122267073D01*
X150425833Y-122267073D02*
X150044881Y-122267073D01*
X150044881Y-122267073D02*
X149854404Y-122171835D01*
X149854404Y-122171835D02*
X149759166Y-121981358D01*
X149759166Y-121981358D02*
X149759166Y-121886120D01*
X149759166Y-121886120D02*
X149854404Y-121695644D01*
X149854404Y-121695644D02*
X150044881Y-121600406D01*
X150044881Y-121600406D02*
X150330595Y-121600406D01*
X150330595Y-121600406D02*
X150521071Y-121505168D01*
X150521071Y-121505168D02*
X150616309Y-121314692D01*
X150616309Y-121314692D02*
X150616309Y-121219454D01*
X150616309Y-121219454D02*
X150521071Y-121028977D01*
X150521071Y-121028977D02*
X150330595Y-120933739D01*
X150330595Y-120933739D02*
X150044881Y-120933739D01*
X150044881Y-120933739D02*
X149854404Y-121028977D01*
X148997261Y-122171835D02*
X148806785Y-122267073D01*
X148806785Y-122267073D02*
X148425833Y-122267073D01*
X148425833Y-122267073D02*
X148235356Y-122171835D01*
X148235356Y-122171835D02*
X148140118Y-121981358D01*
X148140118Y-121981358D02*
X148140118Y-121886120D01*
X148140118Y-121886120D02*
X148235356Y-121695644D01*
X148235356Y-121695644D02*
X148425833Y-121600406D01*
X148425833Y-121600406D02*
X148711547Y-121600406D01*
X148711547Y-121600406D02*
X148902023Y-121505168D01*
X148902023Y-121505168D02*
X148997261Y-121314692D01*
X148997261Y-121314692D02*
X148997261Y-121219454D01*
X148997261Y-121219454D02*
X148902023Y-121028977D01*
X148902023Y-121028977D02*
X148711547Y-120933739D01*
X148711547Y-120933739D02*
X148425833Y-120933739D01*
X148425833Y-120933739D02*
X148235356Y-121028977D01*
X144616308Y-122267073D02*
X145282975Y-121314692D01*
X145759165Y-122267073D02*
X145759165Y-120267073D01*
X145759165Y-120267073D02*
X144997260Y-120267073D01*
X144997260Y-120267073D02*
X144806784Y-120362311D01*
X144806784Y-120362311D02*
X144711546Y-120457549D01*
X144711546Y-120457549D02*
X144616308Y-120648025D01*
X144616308Y-120648025D02*
X144616308Y-120933739D01*
X144616308Y-120933739D02*
X144711546Y-121124215D01*
X144711546Y-121124215D02*
X144806784Y-121219454D01*
X144806784Y-121219454D02*
X144997260Y-121314692D01*
X144997260Y-121314692D02*
X145759165Y-121314692D01*
X142997260Y-122171835D02*
X143187736Y-122267073D01*
X143187736Y-122267073D02*
X143568689Y-122267073D01*
X143568689Y-122267073D02*
X143759165Y-122171835D01*
X143759165Y-122171835D02*
X143854403Y-121981358D01*
X143854403Y-121981358D02*
X143854403Y-121219454D01*
X143854403Y-121219454D02*
X143759165Y-121028977D01*
X143759165Y-121028977D02*
X143568689Y-120933739D01*
X143568689Y-120933739D02*
X143187736Y-120933739D01*
X143187736Y-120933739D02*
X142997260Y-121028977D01*
X142997260Y-121028977D02*
X142902022Y-121219454D01*
X142902022Y-121219454D02*
X142902022Y-121409930D01*
X142902022Y-121409930D02*
X143854403Y-121600406D01*
X142044879Y-122267073D02*
X142044879Y-120933739D01*
X142044879Y-121124215D02*
X141949641Y-121028977D01*
X141949641Y-121028977D02*
X141759165Y-120933739D01*
X141759165Y-120933739D02*
X141473450Y-120933739D01*
X141473450Y-120933739D02*
X141282974Y-121028977D01*
X141282974Y-121028977D02*
X141187736Y-121219454D01*
X141187736Y-121219454D02*
X141187736Y-122267073D01*
X141187736Y-121219454D02*
X141092498Y-121028977D01*
X141092498Y-121028977D02*
X140902022Y-120933739D01*
X140902022Y-120933739D02*
X140616308Y-120933739D01*
X140616308Y-120933739D02*
X140425831Y-121028977D01*
X140425831Y-121028977D02*
X140330593Y-121219454D01*
X140330593Y-121219454D02*
X140330593Y-122267073D01*
X139092498Y-122267073D02*
X139282974Y-122171835D01*
X139282974Y-122171835D02*
X139378212Y-122076596D01*
X139378212Y-122076596D02*
X139473450Y-121886120D01*
X139473450Y-121886120D02*
X139473450Y-121314692D01*
X139473450Y-121314692D02*
X139378212Y-121124215D01*
X139378212Y-121124215D02*
X139282974Y-121028977D01*
X139282974Y-121028977D02*
X139092498Y-120933739D01*
X139092498Y-120933739D02*
X138806783Y-120933739D01*
X138806783Y-120933739D02*
X138616307Y-121028977D01*
X138616307Y-121028977D02*
X138521069Y-121124215D01*
X138521069Y-121124215D02*
X138425831Y-121314692D01*
X138425831Y-121314692D02*
X138425831Y-121886120D01*
X138425831Y-121886120D02*
X138521069Y-122076596D01*
X138521069Y-122076596D02*
X138616307Y-122171835D01*
X138616307Y-122171835D02*
X138806783Y-122267073D01*
X138806783Y-122267073D02*
X139092498Y-122267073D01*
X137854402Y-120933739D02*
X137092498Y-120933739D01*
X137568688Y-120267073D02*
X137568688Y-121981358D01*
X137568688Y-121981358D02*
X137473450Y-122171835D01*
X137473450Y-122171835D02*
X137282974Y-122267073D01*
X137282974Y-122267073D02*
X137092498Y-122267073D01*
X135663926Y-122171835D02*
X135854402Y-122267073D01*
X135854402Y-122267073D02*
X136235355Y-122267073D01*
X136235355Y-122267073D02*
X136425831Y-122171835D01*
X136425831Y-122171835D02*
X136521069Y-121981358D01*
X136521069Y-121981358D02*
X136521069Y-121219454D01*
X136521069Y-121219454D02*
X136425831Y-121028977D01*
X136425831Y-121028977D02*
X136235355Y-120933739D01*
X136235355Y-120933739D02*
X135854402Y-120933739D01*
X135854402Y-120933739D02*
X135663926Y-121028977D01*
X135663926Y-121028977D02*
X135568688Y-121219454D01*
X135568688Y-121219454D02*
X135568688Y-121409930D01*
X135568688Y-121409930D02*
X136521069Y-121600406D01*
X133378211Y-120933739D02*
X132902021Y-122267073D01*
X132902021Y-122267073D02*
X132425830Y-120933739D01*
X131282973Y-120267073D02*
X131092496Y-120267073D01*
X131092496Y-120267073D02*
X130902020Y-120362311D01*
X130902020Y-120362311D02*
X130806782Y-120457549D01*
X130806782Y-120457549D02*
X130711544Y-120648025D01*
X130711544Y-120648025D02*
X130616306Y-121028977D01*
X130616306Y-121028977D02*
X130616306Y-121505168D01*
X130616306Y-121505168D02*
X130711544Y-121886120D01*
X130711544Y-121886120D02*
X130806782Y-122076596D01*
X130806782Y-122076596D02*
X130902020Y-122171835D01*
X130902020Y-122171835D02*
X131092496Y-122267073D01*
X131092496Y-122267073D02*
X131282973Y-122267073D01*
X131282973Y-122267073D02*
X131473449Y-122171835D01*
X131473449Y-122171835D02*
X131568687Y-122076596D01*
X131568687Y-122076596D02*
X131663925Y-121886120D01*
X131663925Y-121886120D02*
X131759163Y-121505168D01*
X131759163Y-121505168D02*
X131759163Y-121028977D01*
X131759163Y-121028977D02*
X131663925Y-120648025D01*
X131663925Y-120648025D02*
X131568687Y-120457549D01*
X131568687Y-120457549D02*
X131473449Y-120362311D01*
X131473449Y-120362311D02*
X131282973Y-120267073D01*
X129759163Y-122076596D02*
X129663925Y-122171835D01*
X129663925Y-122171835D02*
X129759163Y-122267073D01*
X129759163Y-122267073D02*
X129854401Y-122171835D01*
X129854401Y-122171835D02*
X129759163Y-122076596D01*
X129759163Y-122076596D02*
X129759163Y-122267073D01*
X127949639Y-120933739D02*
X127949639Y-122267073D01*
X128425830Y-120171835D02*
X128902020Y-121600406D01*
X128902020Y-121600406D02*
X127663925Y-121600406D01*
D12*
G36*
X114014389Y-90746303D02*
G01*
X114014389Y-90969052D01*
X114185176Y-90969052D01*
X114185176Y-91852235D01*
X114472772Y-91852235D01*
X114472772Y-90969052D01*
X114642887Y-90969052D01*
X114642887Y-90746303D01*
X114014389Y-90746303D01*
G37*
G36*
X113287645Y-90746303D02*
G01*
X113287645Y-91852235D01*
X113575241Y-91852235D01*
X113575241Y-91387196D01*
X113661275Y-91387196D01*
X113661275Y-91852235D01*
X113948871Y-91852235D01*
X113948871Y-90746303D01*
X113661275Y-90746303D01*
X113661275Y-91140999D01*
X113575241Y-91140999D01*
X113575241Y-90746303D01*
X113287645Y-90746303D01*
G37*
G36*
X113172179Y-90746303D02*
G01*
X112692669Y-90746303D01*
X112692669Y-90969052D01*
X112884583Y-90969052D01*
X112884583Y-91176170D01*
X112704942Y-91176170D01*
X112704942Y-91387196D01*
X112884583Y-91387196D01*
X112884583Y-91629485D01*
X112673496Y-91629485D01*
X112673496Y-91852235D01*
X113172179Y-91852235D01*
X113172179Y-90746303D01*
G37*
G36*
X112344684Y-91852235D02*
G01*
X112057088Y-91852235D01*
X112057088Y-91406736D01*
X111979908Y-91406736D01*
X111917219Y-91403434D01*
X111867060Y-91394422D01*
X111827256Y-91380785D01*
X111791241Y-91360162D01*
X111764998Y-91335442D01*
X111746961Y-91306352D01*
X111736012Y-91272948D01*
X111728164Y-91223211D01*
X111725101Y-91151990D01*
X111725101Y-91055698D01*
X111726136Y-91025778D01*
X111965558Y-91025778D01*
X111965558Y-91117613D01*
X111970399Y-91173991D01*
X111980946Y-91199495D01*
X112000635Y-91213601D01*
X112035900Y-91219157D01*
X112057088Y-91218485D01*
X112057088Y-90933881D01*
X112006688Y-90939210D01*
X111983327Y-90951162D01*
X111971073Y-90974327D01*
X111965558Y-91025778D01*
X111726136Y-91025778D01*
X111728457Y-90958675D01*
X111736397Y-90902374D01*
X111752974Y-90856147D01*
X111779445Y-90818049D01*
X111817016Y-90788452D01*
X111874395Y-90764743D01*
X111944365Y-90751638D01*
X112055073Y-90746303D01*
X112344684Y-90746303D01*
X112344684Y-91852235D01*
G37*
G36*
X111642242Y-90746303D02*
G01*
X111162732Y-90746303D01*
X111162732Y-90969052D01*
X111354646Y-90969052D01*
X111354646Y-91176170D01*
X111175005Y-91176170D01*
X111175005Y-91387196D01*
X111354646Y-91387196D01*
X111354646Y-91629485D01*
X111143559Y-91629485D01*
X111143559Y-91852235D01*
X111642242Y-91852235D01*
X111642242Y-90746303D01*
G37*
G36*
X111126523Y-91852235D02*
G01*
X110828669Y-91852235D01*
X110811633Y-91652932D01*
X110708440Y-91652932D01*
X110694152Y-91852235D01*
X110399717Y-91852235D01*
X110458468Y-91457538D01*
X110716684Y-91457538D01*
X110815052Y-91457538D01*
X110798458Y-91289106D01*
X110760403Y-90989691D01*
X110737495Y-91257704D01*
X110716684Y-91457538D01*
X110458468Y-91457538D01*
X110564337Y-90746303D01*
X110980344Y-90746303D01*
X111126523Y-91852235D01*
G37*
G36*
X109679201Y-91226973D02*
G01*
X109966797Y-91226973D01*
X109966797Y-91035425D01*
X109969908Y-90959582D01*
X109976017Y-90931195D01*
X109989861Y-90916118D01*
X110016684Y-90910434D01*
X110038683Y-90913633D01*
X110052986Y-90922096D01*
X110061807Y-90935713D01*
X110068229Y-90968188D01*
X110071333Y-91044951D01*
X110071333Y-91558349D01*
X110068240Y-91632027D01*
X110061807Y-91663557D01*
X110053123Y-91676848D01*
X110039407Y-91685036D01*
X110018699Y-91688103D01*
X109998947Y-91685069D01*
X109985513Y-91676853D01*
X109976689Y-91663313D01*
X109970083Y-91630255D01*
X109966797Y-91546748D01*
X109966797Y-91406736D01*
X109679201Y-91406736D01*
X109679201Y-91450028D01*
X109682703Y-91566751D01*
X109691520Y-91645123D01*
X109703442Y-91694881D01*
X109724941Y-91739189D01*
X109759807Y-91781182D01*
X109810726Y-91821399D01*
X109868343Y-91850796D01*
X109935803Y-91869189D01*
X110015279Y-91875682D01*
X110098578Y-91870033D01*
X110167169Y-91854329D01*
X110223618Y-91829886D01*
X110273017Y-91794620D01*
X110308655Y-91752672D01*
X110332245Y-91703124D01*
X110345680Y-91647995D01*
X110355202Y-91568970D01*
X110358868Y-91459492D01*
X110358868Y-91136298D01*
X110356465Y-91024220D01*
X110350686Y-90956901D01*
X110341862Y-90918287D01*
X110325808Y-90880074D01*
X110301837Y-90841802D01*
X110271923Y-90808144D01*
X110234696Y-90779127D01*
X110189119Y-90754668D01*
X110140122Y-90737381D01*
X110085221Y-90726609D01*
X110023461Y-90722856D01*
X109939918Y-90728876D01*
X109870883Y-90745667D01*
X109813779Y-90771948D01*
X109763231Y-90808889D01*
X109727807Y-90849459D01*
X109705152Y-90894192D01*
X109692144Y-90944239D01*
X109682823Y-91017876D01*
X109679201Y-91122071D01*
X109679201Y-91226973D01*
G37*
G36*
X108914721Y-90746303D02*
G01*
X108914721Y-91852235D01*
X109202317Y-91852235D01*
X109202317Y-91387196D01*
X109288351Y-91387196D01*
X109288351Y-91852235D01*
X109575947Y-91852235D01*
X109575947Y-90746303D01*
X109288351Y-90746303D01*
X109288351Y-91140999D01*
X109202317Y-91140999D01*
X109202317Y-90746303D01*
X108914721Y-90746303D01*
G37*
G36*
X108201288Y-90746303D02*
G01*
X108201288Y-91485443D01*
X108204707Y-91698911D01*
X108214200Y-91744103D01*
X108235787Y-91784640D01*
X108268160Y-91816812D01*
X108310953Y-91837580D01*
X108364445Y-91847921D01*
X108454018Y-91852235D01*
X108598182Y-91852235D01*
X108598182Y-91658733D01*
X108560630Y-91660748D01*
X108532229Y-91656715D01*
X108512087Y-91645727D01*
X108498017Y-91628867D01*
X108491631Y-91608847D01*
X108488884Y-91524155D01*
X108488884Y-90746303D01*
X108201288Y-90746303D01*
G37*
G36*
X107802378Y-90746303D02*
G01*
X107802378Y-91852235D01*
X108089974Y-91852235D01*
X108089974Y-90746303D01*
X107802378Y-90746303D01*
G37*
G36*
X107027579Y-91152723D02*
G01*
X107315175Y-91152723D01*
X107315175Y-91052706D01*
X107317953Y-90966686D01*
X107323418Y-90934248D01*
X107336673Y-90916738D01*
X107362313Y-90910434D01*
X107385141Y-90915804D01*
X107398583Y-90930950D01*
X107404881Y-90959256D01*
X107408109Y-91036036D01*
X107408109Y-91566592D01*
X107405039Y-91634659D01*
X107398583Y-91664534D01*
X107384548Y-91682006D01*
X107360298Y-91688103D01*
X107341092Y-91684967D01*
X107327326Y-91676245D01*
X107317617Y-91661481D01*
X107309897Y-91628471D01*
X107306321Y-91557556D01*
X107306321Y-91426275D01*
X107364389Y-91426275D01*
X107364389Y-91258236D01*
X107027579Y-91258236D01*
X107027579Y-91852235D01*
X107208624Y-91852235D01*
X107235246Y-91772978D01*
X107269084Y-91818484D01*
X107309374Y-91849975D01*
X107357055Y-91868990D01*
X107414887Y-91875682D01*
X107462258Y-91871754D01*
X107507253Y-91860083D01*
X107550503Y-91840511D01*
X107590303Y-91814361D01*
X107621967Y-91785351D01*
X107646490Y-91753377D01*
X107673288Y-91699719D01*
X107687462Y-91644384D01*
X107693241Y-91580112D01*
X107695644Y-91473170D01*
X107695644Y-91144480D01*
X107690527Y-90996800D01*
X107678608Y-90914220D01*
X107661355Y-90869945D01*
X107629736Y-90826377D01*
X107580544Y-90782695D01*
X107538953Y-90757422D01*
X107490974Y-90738764D01*
X107435494Y-90727003D01*
X107371167Y-90722856D01*
X107288306Y-90729164D01*
X107219235Y-90746853D01*
X107161485Y-90774757D01*
X107110295Y-90813394D01*
X107074972Y-90854284D01*
X107052858Y-90897917D01*
X107039986Y-90946375D01*
X107031002Y-91013767D01*
X107027579Y-91104974D01*
X107027579Y-91152723D01*
G37*
G36*
X106255771Y-91152723D02*
G01*
X106543367Y-91152723D01*
X106543367Y-91052706D01*
X106546145Y-90966686D01*
X106551610Y-90934248D01*
X106564866Y-90916738D01*
X106590506Y-90910434D01*
X106613334Y-90915804D01*
X106626776Y-90930950D01*
X106633074Y-90959256D01*
X106636302Y-91036036D01*
X106636302Y-91566592D01*
X106633232Y-91634659D01*
X106626776Y-91664534D01*
X106612740Y-91682006D01*
X106588491Y-91688103D01*
X106569285Y-91684967D01*
X106555519Y-91676245D01*
X106545810Y-91661481D01*
X106538090Y-91628471D01*
X106534513Y-91557556D01*
X106534513Y-91426275D01*
X106592582Y-91426275D01*
X106592582Y-91258236D01*
X106255771Y-91258236D01*
X106255771Y-91852235D01*
X106436816Y-91852235D01*
X106463439Y-91772978D01*
X106497276Y-91818484D01*
X106537566Y-91849975D01*
X106585247Y-91868990D01*
X106643079Y-91875682D01*
X106690450Y-91871754D01*
X106735445Y-91860083D01*
X106778695Y-91840511D01*
X106818496Y-91814361D01*
X106850159Y-91785351D01*
X106874683Y-91753377D01*
X106901481Y-91699719D01*
X106915654Y-91644384D01*
X106921434Y-91580112D01*
X106923836Y-91473170D01*
X106923836Y-91144480D01*
X106918720Y-90996800D01*
X106906800Y-90914220D01*
X106889548Y-90869945D01*
X106857929Y-90826377D01*
X106808737Y-90782695D01*
X106767146Y-90757422D01*
X106719167Y-90738764D01*
X106663687Y-90727003D01*
X106599360Y-90722856D01*
X106516498Y-90729164D01*
X106447427Y-90746853D01*
X106389677Y-90774757D01*
X106338487Y-90813394D01*
X106303164Y-90854284D01*
X106281050Y-90897917D01*
X106268179Y-90946375D01*
X106259194Y-91013767D01*
X106255771Y-91104974D01*
X106255771Y-91152723D01*
G37*
G36*
X105856251Y-90746303D02*
G01*
X105856251Y-91629485D01*
X105681373Y-91629485D01*
X105681373Y-91852235D01*
X106143847Y-91852235D01*
X106143847Y-90746303D01*
X105856251Y-90746303D01*
G37*
G36*
X105611397Y-90746303D02*
G01*
X105131888Y-90746303D01*
X105131888Y-90969052D01*
X105323802Y-90969052D01*
X105323802Y-91176170D01*
X105144161Y-91176170D01*
X105144161Y-91387196D01*
X105323802Y-91387196D01*
X105323802Y-91629485D01*
X105112715Y-91629485D01*
X105112715Y-91852235D01*
X105611397Y-91852235D01*
X105611397Y-90746303D01*
G37*
G36*
X105030100Y-91852235D02*
G01*
X104742504Y-91852235D01*
X104742504Y-91352025D01*
X104703173Y-91355237D01*
X104680721Y-91362915D01*
X104669109Y-91373274D01*
X104659795Y-91403052D01*
X104655065Y-91483611D01*
X104655065Y-91852235D01*
X104387985Y-91852235D01*
X104387985Y-91559815D01*
X104390471Y-91438165D01*
X104395190Y-91395806D01*
X104406921Y-91366319D01*
X104431705Y-91330410D01*
X104454023Y-91310575D01*
X104490537Y-91291415D01*
X104546438Y-91273562D01*
X104485401Y-91262218D01*
X104445237Y-91243995D01*
X104420103Y-91220439D01*
X104404459Y-91188503D01*
X104392754Y-91134087D01*
X104387985Y-91047393D01*
X104389838Y-91019366D01*
X104655065Y-91019366D01*
X104655065Y-91080244D01*
X104658255Y-91129665D01*
X104665518Y-91155339D01*
X104674543Y-91166767D01*
X104698060Y-91176077D01*
X104742504Y-91180078D01*
X104742504Y-90933881D01*
X104697252Y-90938794D01*
X104673871Y-90950307D01*
X104660776Y-90972350D01*
X104655065Y-91019366D01*
X104389838Y-91019366D01*
X104394175Y-90953747D01*
X104410242Y-90887567D01*
X104433414Y-90842046D01*
X104467257Y-90803993D01*
X104506083Y-90777704D01*
X104550895Y-90761995D01*
X104639276Y-90751257D01*
X104826523Y-90746303D01*
X105030100Y-90746303D01*
X105030100Y-91852235D01*
G37*
D13*
X145717067Y-113845242D02*
X145645638Y-113702385D01*
X145645638Y-113702385D02*
X145645638Y-113488099D01*
X145645638Y-113488099D02*
X145717067Y-113273813D01*
X145717067Y-113273813D02*
X145859924Y-113130956D01*
X145859924Y-113130956D02*
X146002781Y-113059527D01*
X146002781Y-113059527D02*
X146288495Y-112988099D01*
X146288495Y-112988099D02*
X146502781Y-112988099D01*
X146502781Y-112988099D02*
X146788495Y-113059527D01*
X146788495Y-113059527D02*
X146931352Y-113130956D01*
X146931352Y-113130956D02*
X147074210Y-113273813D01*
X147074210Y-113273813D02*
X147145638Y-113488099D01*
X147145638Y-113488099D02*
X147145638Y-113630956D01*
X147145638Y-113630956D02*
X147074210Y-113845242D01*
X147074210Y-113845242D02*
X147002781Y-113916670D01*
X147002781Y-113916670D02*
X146502781Y-113916670D01*
X146502781Y-113916670D02*
X146502781Y-113630956D01*
X147145638Y-114559527D02*
X145645638Y-114559527D01*
X145645638Y-114559527D02*
X147145638Y-115416670D01*
X147145638Y-115416670D02*
X145645638Y-115416670D01*
X147145638Y-116130956D02*
X145645638Y-116130956D01*
X145645638Y-116130956D02*
X145645638Y-116488099D01*
X145645638Y-116488099D02*
X145717067Y-116702385D01*
X145717067Y-116702385D02*
X145859924Y-116845242D01*
X145859924Y-116845242D02*
X146002781Y-116916671D01*
X146002781Y-116916671D02*
X146288495Y-116988099D01*
X146288495Y-116988099D02*
X146502781Y-116988099D01*
X146502781Y-116988099D02*
X146788495Y-116916671D01*
X146788495Y-116916671D02*
X146931352Y-116845242D01*
X146931352Y-116845242D02*
X147074210Y-116702385D01*
X147074210Y-116702385D02*
X147145638Y-116488099D01*
X147145638Y-116488099D02*
X147145638Y-116130956D01*
X142735638Y-108059528D02*
X142735638Y-108988100D01*
X142735638Y-108988100D02*
X143307067Y-108488100D01*
X143307067Y-108488100D02*
X143307067Y-108702385D01*
X143307067Y-108702385D02*
X143378495Y-108845243D01*
X143378495Y-108845243D02*
X143449924Y-108916671D01*
X143449924Y-108916671D02*
X143592781Y-108988100D01*
X143592781Y-108988100D02*
X143949924Y-108988100D01*
X143949924Y-108988100D02*
X144092781Y-108916671D01*
X144092781Y-108916671D02*
X144164210Y-108845243D01*
X144164210Y-108845243D02*
X144235638Y-108702385D01*
X144235638Y-108702385D02*
X144235638Y-108273814D01*
X144235638Y-108273814D02*
X144164210Y-108130957D01*
X144164210Y-108130957D02*
X144092781Y-108059528D01*
X144092781Y-109630956D02*
X144164210Y-109702385D01*
X144164210Y-109702385D02*
X144235638Y-109630956D01*
X144235638Y-109630956D02*
X144164210Y-109559528D01*
X144164210Y-109559528D02*
X144092781Y-109630956D01*
X144092781Y-109630956D02*
X144235638Y-109630956D01*
X142735638Y-110202385D02*
X142735638Y-111130957D01*
X142735638Y-111130957D02*
X143307067Y-110630957D01*
X143307067Y-110630957D02*
X143307067Y-110845242D01*
X143307067Y-110845242D02*
X143378495Y-110988100D01*
X143378495Y-110988100D02*
X143449924Y-111059528D01*
X143449924Y-111059528D02*
X143592781Y-111130957D01*
X143592781Y-111130957D02*
X143949924Y-111130957D01*
X143949924Y-111130957D02*
X144092781Y-111059528D01*
X144092781Y-111059528D02*
X144164210Y-110988100D01*
X144164210Y-110988100D02*
X144235638Y-110845242D01*
X144235638Y-110845242D02*
X144235638Y-110416671D01*
X144235638Y-110416671D02*
X144164210Y-110273814D01*
X144164210Y-110273814D02*
X144092781Y-110202385D01*
X142735638Y-111559528D02*
X144235638Y-112059528D01*
X144235638Y-112059528D02*
X142735638Y-112559528D01*
X144235638Y-114202384D02*
X142735638Y-114202384D01*
X144235638Y-114916670D02*
X142735638Y-114916670D01*
X142735638Y-114916670D02*
X144235638Y-115773813D01*
X144235638Y-115773813D02*
X142735638Y-115773813D01*
X142735638Y-116273814D02*
X142735638Y-117130957D01*
X144235638Y-116702385D02*
X142735638Y-116702385D01*
D14*
X159957519Y-93243725D02*
X159981328Y-93267535D01*
X159981328Y-93267535D02*
X160052757Y-93291344D01*
X160052757Y-93291344D02*
X160100376Y-93291344D01*
X160100376Y-93291344D02*
X160171804Y-93267535D01*
X160171804Y-93267535D02*
X160219423Y-93219915D01*
X160219423Y-93219915D02*
X160243233Y-93172296D01*
X160243233Y-93172296D02*
X160267042Y-93077058D01*
X160267042Y-93077058D02*
X160267042Y-93005630D01*
X160267042Y-93005630D02*
X160243233Y-92910392D01*
X160243233Y-92910392D02*
X160219423Y-92862773D01*
X160219423Y-92862773D02*
X160171804Y-92815154D01*
X160171804Y-92815154D02*
X160100376Y-92791344D01*
X160100376Y-92791344D02*
X160052757Y-92791344D01*
X160052757Y-92791344D02*
X159981328Y-92815154D01*
X159981328Y-92815154D02*
X159957519Y-92838963D01*
X159767042Y-92838963D02*
X159743233Y-92815154D01*
X159743233Y-92815154D02*
X159695614Y-92791344D01*
X159695614Y-92791344D02*
X159576566Y-92791344D01*
X159576566Y-92791344D02*
X159528947Y-92815154D01*
X159528947Y-92815154D02*
X159505138Y-92838963D01*
X159505138Y-92838963D02*
X159481328Y-92886582D01*
X159481328Y-92886582D02*
X159481328Y-92934201D01*
X159481328Y-92934201D02*
X159505138Y-93005630D01*
X159505138Y-93005630D02*
X159790852Y-93291344D01*
X159790852Y-93291344D02*
X159481328Y-93291344D01*
X159314662Y-92791344D02*
X159005138Y-92791344D01*
X159005138Y-92791344D02*
X159171805Y-92981820D01*
X159171805Y-92981820D02*
X159100376Y-92981820D01*
X159100376Y-92981820D02*
X159052757Y-93005630D01*
X159052757Y-93005630D02*
X159028948Y-93029439D01*
X159028948Y-93029439D02*
X159005138Y-93077058D01*
X159005138Y-93077058D02*
X159005138Y-93196106D01*
X159005138Y-93196106D02*
X159028948Y-93243725D01*
X159028948Y-93243725D02*
X159052757Y-93267535D01*
X159052757Y-93267535D02*
X159100376Y-93291344D01*
X159100376Y-93291344D02*
X159243233Y-93291344D01*
X159243233Y-93291344D02*
X159290852Y-93267535D01*
X159290852Y-93267535D02*
X159314662Y-93243725D01*
D15*
X113034403Y-116377054D02*
X113034403Y-117091339D01*
X113034403Y-117091339D02*
X113082022Y-117234196D01*
X113082022Y-117234196D02*
X113177260Y-117329435D01*
X113177260Y-117329435D02*
X113320117Y-117377054D01*
X113320117Y-117377054D02*
X113415355Y-117377054D01*
X112082022Y-116377054D02*
X112558212Y-116377054D01*
X112558212Y-116377054D02*
X112605831Y-116853244D01*
X112605831Y-116853244D02*
X112558212Y-116805625D01*
X112558212Y-116805625D02*
X112462974Y-116758006D01*
X112462974Y-116758006D02*
X112224879Y-116758006D01*
X112224879Y-116758006D02*
X112129641Y-116805625D01*
X112129641Y-116805625D02*
X112082022Y-116853244D01*
X112082022Y-116853244D02*
X112034403Y-116948482D01*
X112034403Y-116948482D02*
X112034403Y-117186577D01*
X112034403Y-117186577D02*
X112082022Y-117281815D01*
X112082022Y-117281815D02*
X112129641Y-117329435D01*
X112129641Y-117329435D02*
X112224879Y-117377054D01*
X112224879Y-117377054D02*
X112462974Y-117377054D01*
X112462974Y-117377054D02*
X112558212Y-117329435D01*
X112558212Y-117329435D02*
X112605831Y-117281815D01*
D14*
X129231519Y-106499344D02*
X129398185Y-106261249D01*
X129517233Y-106499344D02*
X129517233Y-105999344D01*
X129517233Y-105999344D02*
X129326757Y-105999344D01*
X129326757Y-105999344D02*
X129279138Y-106023154D01*
X129279138Y-106023154D02*
X129255328Y-106046963D01*
X129255328Y-106046963D02*
X129231519Y-106094582D01*
X129231519Y-106094582D02*
X129231519Y-106166011D01*
X129231519Y-106166011D02*
X129255328Y-106213630D01*
X129255328Y-106213630D02*
X129279138Y-106237439D01*
X129279138Y-106237439D02*
X129326757Y-106261249D01*
X129326757Y-106261249D02*
X129517233Y-106261249D01*
X128755328Y-106499344D02*
X129041042Y-106499344D01*
X128898185Y-106499344D02*
X128898185Y-105999344D01*
X128898185Y-105999344D02*
X128945804Y-106070773D01*
X128945804Y-106070773D02*
X128993423Y-106118392D01*
X128993423Y-106118392D02*
X129041042Y-106142201D01*
D15*
X137442974Y-113347054D02*
X137442974Y-114156577D01*
X137442974Y-114156577D02*
X137395355Y-114251815D01*
X137395355Y-114251815D02*
X137347736Y-114299435D01*
X137347736Y-114299435D02*
X137252498Y-114347054D01*
X137252498Y-114347054D02*
X137062022Y-114347054D01*
X137062022Y-114347054D02*
X136966784Y-114299435D01*
X136966784Y-114299435D02*
X136919165Y-114251815D01*
X136919165Y-114251815D02*
X136871546Y-114156577D01*
X136871546Y-114156577D02*
X136871546Y-113347054D01*
X136347736Y-114347054D02*
X136157260Y-114347054D01*
X136157260Y-114347054D02*
X136062022Y-114299435D01*
X136062022Y-114299435D02*
X136014403Y-114251815D01*
X136014403Y-114251815D02*
X135919165Y-114108958D01*
X135919165Y-114108958D02*
X135871546Y-113918482D01*
X135871546Y-113918482D02*
X135871546Y-113537530D01*
X135871546Y-113537530D02*
X135919165Y-113442292D01*
X135919165Y-113442292D02*
X135966784Y-113394673D01*
X135966784Y-113394673D02*
X136062022Y-113347054D01*
X136062022Y-113347054D02*
X136252498Y-113347054D01*
X136252498Y-113347054D02*
X136347736Y-113394673D01*
X136347736Y-113394673D02*
X136395355Y-113442292D01*
X136395355Y-113442292D02*
X136442974Y-113537530D01*
X136442974Y-113537530D02*
X136442974Y-113775625D01*
X136442974Y-113775625D02*
X136395355Y-113870863D01*
X136395355Y-113870863D02*
X136347736Y-113918482D01*
X136347736Y-113918482D02*
X136252498Y-113966101D01*
X136252498Y-113966101D02*
X136062022Y-113966101D01*
X136062022Y-113966101D02*
X135966784Y-113918482D01*
X135966784Y-113918482D02*
X135919165Y-113870863D01*
X135919165Y-113870863D02*
X135871546Y-113775625D01*
D14*
X172828199Y-121660164D02*
X172994865Y-121422069D01*
X173113913Y-121660164D02*
X173113913Y-121160164D01*
X173113913Y-121160164D02*
X172923437Y-121160164D01*
X172923437Y-121160164D02*
X172875818Y-121183974D01*
X172875818Y-121183974D02*
X172852008Y-121207783D01*
X172852008Y-121207783D02*
X172828199Y-121255402D01*
X172828199Y-121255402D02*
X172828199Y-121326831D01*
X172828199Y-121326831D02*
X172852008Y-121374450D01*
X172852008Y-121374450D02*
X172875818Y-121398259D01*
X172875818Y-121398259D02*
X172923437Y-121422069D01*
X172923437Y-121422069D02*
X173113913Y-121422069D01*
X172661532Y-121160164D02*
X172352008Y-121160164D01*
X172352008Y-121160164D02*
X172518675Y-121350640D01*
X172518675Y-121350640D02*
X172447246Y-121350640D01*
X172447246Y-121350640D02*
X172399627Y-121374450D01*
X172399627Y-121374450D02*
X172375818Y-121398259D01*
X172375818Y-121398259D02*
X172352008Y-121445878D01*
X172352008Y-121445878D02*
X172352008Y-121564926D01*
X172352008Y-121564926D02*
X172375818Y-121612545D01*
X172375818Y-121612545D02*
X172399627Y-121636355D01*
X172399627Y-121636355D02*
X172447246Y-121660164D01*
X172447246Y-121660164D02*
X172590103Y-121660164D01*
X172590103Y-121660164D02*
X172637722Y-121636355D01*
X172637722Y-121636355D02*
X172661532Y-121612545D01*
X171899628Y-121160164D02*
X172137723Y-121160164D01*
X172137723Y-121160164D02*
X172161532Y-121398259D01*
X172161532Y-121398259D02*
X172137723Y-121374450D01*
X172137723Y-121374450D02*
X172090104Y-121350640D01*
X172090104Y-121350640D02*
X171971056Y-121350640D01*
X171971056Y-121350640D02*
X171923437Y-121374450D01*
X171923437Y-121374450D02*
X171899628Y-121398259D01*
X171899628Y-121398259D02*
X171875818Y-121445878D01*
X171875818Y-121445878D02*
X171875818Y-121564926D01*
X171875818Y-121564926D02*
X171899628Y-121612545D01*
X171899628Y-121612545D02*
X171923437Y-121636355D01*
X171923437Y-121636355D02*
X171971056Y-121660164D01*
X171971056Y-121660164D02*
X172090104Y-121660164D01*
X172090104Y-121660164D02*
X172137723Y-121636355D01*
X172137723Y-121636355D02*
X172161532Y-121612545D01*
X146316233Y-82440844D02*
X146316233Y-81940844D01*
X146316233Y-81940844D02*
X146197185Y-81940844D01*
X146197185Y-81940844D02*
X146125757Y-81964654D01*
X146125757Y-81964654D02*
X146078138Y-82012273D01*
X146078138Y-82012273D02*
X146054328Y-82059892D01*
X146054328Y-82059892D02*
X146030519Y-82155130D01*
X146030519Y-82155130D02*
X146030519Y-82226558D01*
X146030519Y-82226558D02*
X146054328Y-82321796D01*
X146054328Y-82321796D02*
X146078138Y-82369415D01*
X146078138Y-82369415D02*
X146125757Y-82417035D01*
X146125757Y-82417035D02*
X146197185Y-82440844D01*
X146197185Y-82440844D02*
X146316233Y-82440844D01*
X145578138Y-81940844D02*
X145816233Y-81940844D01*
X145816233Y-81940844D02*
X145840042Y-82178939D01*
X145840042Y-82178939D02*
X145816233Y-82155130D01*
X145816233Y-82155130D02*
X145768614Y-82131320D01*
X145768614Y-82131320D02*
X145649566Y-82131320D01*
X145649566Y-82131320D02*
X145601947Y-82155130D01*
X145601947Y-82155130D02*
X145578138Y-82178939D01*
X145578138Y-82178939D02*
X145554328Y-82226558D01*
X145554328Y-82226558D02*
X145554328Y-82345606D01*
X145554328Y-82345606D02*
X145578138Y-82393225D01*
X145578138Y-82393225D02*
X145601947Y-82417035D01*
X145601947Y-82417035D02*
X145649566Y-82440844D01*
X145649566Y-82440844D02*
X145768614Y-82440844D01*
X145768614Y-82440844D02*
X145816233Y-82417035D01*
X145816233Y-82417035D02*
X145840042Y-82393225D01*
D15*
X142764290Y-81477054D02*
X142764290Y-80477054D01*
X142764290Y-80477054D02*
X142383338Y-80477054D01*
X142383338Y-80477054D02*
X142288100Y-80524673D01*
X142288100Y-80524673D02*
X142240481Y-80572292D01*
X142240481Y-80572292D02*
X142192862Y-80667530D01*
X142192862Y-80667530D02*
X142192862Y-80810387D01*
X142192862Y-80810387D02*
X142240481Y-80905625D01*
X142240481Y-80905625D02*
X142288100Y-80953244D01*
X142288100Y-80953244D02*
X142383338Y-81000863D01*
X142383338Y-81000863D02*
X142764290Y-81000863D01*
X141621433Y-81477054D02*
X141716671Y-81429435D01*
X141716671Y-81429435D02*
X141764290Y-81381815D01*
X141764290Y-81381815D02*
X141811909Y-81286577D01*
X141811909Y-81286577D02*
X141811909Y-81000863D01*
X141811909Y-81000863D02*
X141764290Y-80905625D01*
X141764290Y-80905625D02*
X141716671Y-80858006D01*
X141716671Y-80858006D02*
X141621433Y-80810387D01*
X141621433Y-80810387D02*
X141478576Y-80810387D01*
X141478576Y-80810387D02*
X141383338Y-80858006D01*
X141383338Y-80858006D02*
X141335719Y-80905625D01*
X141335719Y-80905625D02*
X141288100Y-81000863D01*
X141288100Y-81000863D02*
X141288100Y-81286577D01*
X141288100Y-81286577D02*
X141335719Y-81381815D01*
X141335719Y-81381815D02*
X141383338Y-81429435D01*
X141383338Y-81429435D02*
X141478576Y-81477054D01*
X141478576Y-81477054D02*
X141621433Y-81477054D01*
X140954766Y-80810387D02*
X140764290Y-81477054D01*
X140764290Y-81477054D02*
X140573814Y-81000863D01*
X140573814Y-81000863D02*
X140383338Y-81477054D01*
X140383338Y-81477054D02*
X140192862Y-80810387D01*
X139430957Y-81429435D02*
X139526195Y-81477054D01*
X139526195Y-81477054D02*
X139716671Y-81477054D01*
X139716671Y-81477054D02*
X139811909Y-81429435D01*
X139811909Y-81429435D02*
X139859528Y-81334196D01*
X139859528Y-81334196D02*
X139859528Y-80953244D01*
X139859528Y-80953244D02*
X139811909Y-80858006D01*
X139811909Y-80858006D02*
X139716671Y-80810387D01*
X139716671Y-80810387D02*
X139526195Y-80810387D01*
X139526195Y-80810387D02*
X139430957Y-80858006D01*
X139430957Y-80858006D02*
X139383338Y-80953244D01*
X139383338Y-80953244D02*
X139383338Y-81048482D01*
X139383338Y-81048482D02*
X139859528Y-81143720D01*
X138954766Y-81477054D02*
X138954766Y-80810387D01*
X138954766Y-81000863D02*
X138907147Y-80905625D01*
X138907147Y-80905625D02*
X138859528Y-80858006D01*
X138859528Y-80858006D02*
X138764290Y-80810387D01*
X138764290Y-80810387D02*
X138669052Y-80810387D01*
D14*
X134344498Y-113586225D02*
X134368307Y-113610035D01*
X134368307Y-113610035D02*
X134439736Y-113633844D01*
X134439736Y-113633844D02*
X134487355Y-113633844D01*
X134487355Y-113633844D02*
X134558783Y-113610035D01*
X134558783Y-113610035D02*
X134606402Y-113562415D01*
X134606402Y-113562415D02*
X134630212Y-113514796D01*
X134630212Y-113514796D02*
X134654021Y-113419558D01*
X134654021Y-113419558D02*
X134654021Y-113348130D01*
X134654021Y-113348130D02*
X134630212Y-113252892D01*
X134630212Y-113252892D02*
X134606402Y-113205273D01*
X134606402Y-113205273D02*
X134558783Y-113157654D01*
X134558783Y-113157654D02*
X134487355Y-113133844D01*
X134487355Y-113133844D02*
X134439736Y-113133844D01*
X134439736Y-113133844D02*
X134368307Y-113157654D01*
X134368307Y-113157654D02*
X134344498Y-113181463D01*
X134154021Y-113181463D02*
X134130212Y-113157654D01*
X134130212Y-113157654D02*
X134082593Y-113133844D01*
X134082593Y-113133844D02*
X133963545Y-113133844D01*
X133963545Y-113133844D02*
X133915926Y-113157654D01*
X133915926Y-113157654D02*
X133892117Y-113181463D01*
X133892117Y-113181463D02*
X133868307Y-113229082D01*
X133868307Y-113229082D02*
X133868307Y-113276701D01*
X133868307Y-113276701D02*
X133892117Y-113348130D01*
X133892117Y-113348130D02*
X134177831Y-113633844D01*
X134177831Y-113633844D02*
X133868307Y-113633844D01*
X133558784Y-113133844D02*
X133511165Y-113133844D01*
X133511165Y-113133844D02*
X133463546Y-113157654D01*
X133463546Y-113157654D02*
X133439736Y-113181463D01*
X133439736Y-113181463D02*
X133415927Y-113229082D01*
X133415927Y-113229082D02*
X133392117Y-113324320D01*
X133392117Y-113324320D02*
X133392117Y-113443368D01*
X133392117Y-113443368D02*
X133415927Y-113538606D01*
X133415927Y-113538606D02*
X133439736Y-113586225D01*
X133439736Y-113586225D02*
X133463546Y-113610035D01*
X133463546Y-113610035D02*
X133511165Y-113633844D01*
X133511165Y-113633844D02*
X133558784Y-113633844D01*
X133558784Y-113633844D02*
X133606403Y-113610035D01*
X133606403Y-113610035D02*
X133630212Y-113586225D01*
X133630212Y-113586225D02*
X133654022Y-113538606D01*
X133654022Y-113538606D02*
X133677831Y-113443368D01*
X133677831Y-113443368D02*
X133677831Y-113324320D01*
X133677831Y-113324320D02*
X133654022Y-113229082D01*
X133654022Y-113229082D02*
X133630212Y-113181463D01*
X133630212Y-113181463D02*
X133606403Y-113157654D01*
X133606403Y-113157654D02*
X133558784Y-113133844D01*
X172019468Y-93478025D02*
X172043277Y-93501835D01*
X172043277Y-93501835D02*
X172114706Y-93525644D01*
X172114706Y-93525644D02*
X172162325Y-93525644D01*
X172162325Y-93525644D02*
X172233753Y-93501835D01*
X172233753Y-93501835D02*
X172281372Y-93454215D01*
X172281372Y-93454215D02*
X172305182Y-93406596D01*
X172305182Y-93406596D02*
X172328991Y-93311358D01*
X172328991Y-93311358D02*
X172328991Y-93239930D01*
X172328991Y-93239930D02*
X172305182Y-93144692D01*
X172305182Y-93144692D02*
X172281372Y-93097073D01*
X172281372Y-93097073D02*
X172233753Y-93049454D01*
X172233753Y-93049454D02*
X172162325Y-93025644D01*
X172162325Y-93025644D02*
X172114706Y-93025644D01*
X172114706Y-93025644D02*
X172043277Y-93049454D01*
X172043277Y-93049454D02*
X172019468Y-93073263D01*
X171852801Y-93025644D02*
X171543277Y-93025644D01*
X171543277Y-93025644D02*
X171709944Y-93216120D01*
X171709944Y-93216120D02*
X171638515Y-93216120D01*
X171638515Y-93216120D02*
X171590896Y-93239930D01*
X171590896Y-93239930D02*
X171567087Y-93263739D01*
X171567087Y-93263739D02*
X171543277Y-93311358D01*
X171543277Y-93311358D02*
X171543277Y-93430406D01*
X171543277Y-93430406D02*
X171567087Y-93478025D01*
X171567087Y-93478025D02*
X171590896Y-93501835D01*
X171590896Y-93501835D02*
X171638515Y-93525644D01*
X171638515Y-93525644D02*
X171781372Y-93525644D01*
X171781372Y-93525644D02*
X171828991Y-93501835D01*
X171828991Y-93501835D02*
X171852801Y-93478025D01*
X171352801Y-93073263D02*
X171328992Y-93049454D01*
X171328992Y-93049454D02*
X171281373Y-93025644D01*
X171281373Y-93025644D02*
X171162325Y-93025644D01*
X171162325Y-93025644D02*
X171114706Y-93049454D01*
X171114706Y-93049454D02*
X171090897Y-93073263D01*
X171090897Y-93073263D02*
X171067087Y-93120882D01*
X171067087Y-93120882D02*
X171067087Y-93168501D01*
X171067087Y-93168501D02*
X171090897Y-93239930D01*
X171090897Y-93239930D02*
X171376611Y-93525644D01*
X171376611Y-93525644D02*
X171067087Y-93525644D01*
D15*
X171173440Y-117074274D02*
X171125820Y-116931417D01*
X171125820Y-116931417D02*
X171125820Y-116693322D01*
X171125820Y-116693322D02*
X171173440Y-116598084D01*
X171173440Y-116598084D02*
X171221059Y-116550465D01*
X171221059Y-116550465D02*
X171316297Y-116502846D01*
X171316297Y-116502846D02*
X171411535Y-116502846D01*
X171411535Y-116502846D02*
X171506773Y-116550465D01*
X171506773Y-116550465D02*
X171554392Y-116598084D01*
X171554392Y-116598084D02*
X171602011Y-116693322D01*
X171602011Y-116693322D02*
X171649630Y-116883798D01*
X171649630Y-116883798D02*
X171697249Y-116979036D01*
X171697249Y-116979036D02*
X171744868Y-117026655D01*
X171744868Y-117026655D02*
X171840106Y-117074274D01*
X171840106Y-117074274D02*
X171935344Y-117074274D01*
X171935344Y-117074274D02*
X172030582Y-117026655D01*
X172030582Y-117026655D02*
X172078201Y-116979036D01*
X172078201Y-116979036D02*
X172125820Y-116883798D01*
X172125820Y-116883798D02*
X172125820Y-116645703D01*
X172125820Y-116645703D02*
X172078201Y-116502846D01*
X172125820Y-116169512D02*
X171125820Y-115931417D01*
X171125820Y-115931417D02*
X171840106Y-115740941D01*
X171840106Y-115740941D02*
X171125820Y-115550465D01*
X171125820Y-115550465D02*
X172125820Y-115312370D01*
X171125820Y-114407608D02*
X171125820Y-114979036D01*
X171125820Y-114693322D02*
X172125820Y-114693322D01*
X172125820Y-114693322D02*
X171982963Y-114788560D01*
X171982963Y-114788560D02*
X171887725Y-114883798D01*
X171887725Y-114883798D02*
X171840106Y-114979036D01*
X171125820Y-113455227D02*
X171125820Y-114026655D01*
X171125820Y-113740941D02*
X172125820Y-113740941D01*
X172125820Y-113740941D02*
X171982963Y-113836179D01*
X171982963Y-113836179D02*
X171887725Y-113931417D01*
X171887725Y-113931417D02*
X171840106Y-114026655D01*
D14*
X176130199Y-121660164D02*
X176296865Y-121422069D01*
X176415913Y-121660164D02*
X176415913Y-121160164D01*
X176415913Y-121160164D02*
X176225437Y-121160164D01*
X176225437Y-121160164D02*
X176177818Y-121183974D01*
X176177818Y-121183974D02*
X176154008Y-121207783D01*
X176154008Y-121207783D02*
X176130199Y-121255402D01*
X176130199Y-121255402D02*
X176130199Y-121326831D01*
X176130199Y-121326831D02*
X176154008Y-121374450D01*
X176154008Y-121374450D02*
X176177818Y-121398259D01*
X176177818Y-121398259D02*
X176225437Y-121422069D01*
X176225437Y-121422069D02*
X176415913Y-121422069D01*
X175963532Y-121160164D02*
X175654008Y-121160164D01*
X175654008Y-121160164D02*
X175820675Y-121350640D01*
X175820675Y-121350640D02*
X175749246Y-121350640D01*
X175749246Y-121350640D02*
X175701627Y-121374450D01*
X175701627Y-121374450D02*
X175677818Y-121398259D01*
X175677818Y-121398259D02*
X175654008Y-121445878D01*
X175654008Y-121445878D02*
X175654008Y-121564926D01*
X175654008Y-121564926D02*
X175677818Y-121612545D01*
X175677818Y-121612545D02*
X175701627Y-121636355D01*
X175701627Y-121636355D02*
X175749246Y-121660164D01*
X175749246Y-121660164D02*
X175892103Y-121660164D01*
X175892103Y-121660164D02*
X175939722Y-121636355D01*
X175939722Y-121636355D02*
X175963532Y-121612545D01*
X175225437Y-121160164D02*
X175320675Y-121160164D01*
X175320675Y-121160164D02*
X175368294Y-121183974D01*
X175368294Y-121183974D02*
X175392104Y-121207783D01*
X175392104Y-121207783D02*
X175439723Y-121279212D01*
X175439723Y-121279212D02*
X175463532Y-121374450D01*
X175463532Y-121374450D02*
X175463532Y-121564926D01*
X175463532Y-121564926D02*
X175439723Y-121612545D01*
X175439723Y-121612545D02*
X175415913Y-121636355D01*
X175415913Y-121636355D02*
X175368294Y-121660164D01*
X175368294Y-121660164D02*
X175273056Y-121660164D01*
X175273056Y-121660164D02*
X175225437Y-121636355D01*
X175225437Y-121636355D02*
X175201628Y-121612545D01*
X175201628Y-121612545D02*
X175177818Y-121564926D01*
X175177818Y-121564926D02*
X175177818Y-121445878D01*
X175177818Y-121445878D02*
X175201628Y-121398259D01*
X175201628Y-121398259D02*
X175225437Y-121374450D01*
X175225437Y-121374450D02*
X175273056Y-121350640D01*
X175273056Y-121350640D02*
X175368294Y-121350640D01*
X175368294Y-121350640D02*
X175415913Y-121374450D01*
X175415913Y-121374450D02*
X175439723Y-121398259D01*
X175439723Y-121398259D02*
X175463532Y-121445878D01*
X149516233Y-82440844D02*
X149516233Y-81940844D01*
X149516233Y-81940844D02*
X149397185Y-81940844D01*
X149397185Y-81940844D02*
X149325757Y-81964654D01*
X149325757Y-81964654D02*
X149278138Y-82012273D01*
X149278138Y-82012273D02*
X149254328Y-82059892D01*
X149254328Y-82059892D02*
X149230519Y-82155130D01*
X149230519Y-82155130D02*
X149230519Y-82226558D01*
X149230519Y-82226558D02*
X149254328Y-82321796D01*
X149254328Y-82321796D02*
X149278138Y-82369415D01*
X149278138Y-82369415D02*
X149325757Y-82417035D01*
X149325757Y-82417035D02*
X149397185Y-82440844D01*
X149397185Y-82440844D02*
X149516233Y-82440844D01*
X148801947Y-81940844D02*
X148897185Y-81940844D01*
X148897185Y-81940844D02*
X148944804Y-81964654D01*
X148944804Y-81964654D02*
X148968614Y-81988463D01*
X148968614Y-81988463D02*
X149016233Y-82059892D01*
X149016233Y-82059892D02*
X149040042Y-82155130D01*
X149040042Y-82155130D02*
X149040042Y-82345606D01*
X149040042Y-82345606D02*
X149016233Y-82393225D01*
X149016233Y-82393225D02*
X148992423Y-82417035D01*
X148992423Y-82417035D02*
X148944804Y-82440844D01*
X148944804Y-82440844D02*
X148849566Y-82440844D01*
X148849566Y-82440844D02*
X148801947Y-82417035D01*
X148801947Y-82417035D02*
X148778138Y-82393225D01*
X148778138Y-82393225D02*
X148754328Y-82345606D01*
X148754328Y-82345606D02*
X148754328Y-82226558D01*
X148754328Y-82226558D02*
X148778138Y-82178939D01*
X148778138Y-82178939D02*
X148801947Y-82155130D01*
X148801947Y-82155130D02*
X148849566Y-82131320D01*
X148849566Y-82131320D02*
X148944804Y-82131320D01*
X148944804Y-82131320D02*
X148992423Y-82155130D01*
X148992423Y-82155130D02*
X149016233Y-82178939D01*
X149016233Y-82178939D02*
X149040042Y-82226558D01*
D15*
X159809278Y-81381815D02*
X159856897Y-81429435D01*
X159856897Y-81429435D02*
X159999754Y-81477054D01*
X159999754Y-81477054D02*
X160094992Y-81477054D01*
X160094992Y-81477054D02*
X160237849Y-81429435D01*
X160237849Y-81429435D02*
X160333087Y-81334196D01*
X160333087Y-81334196D02*
X160380706Y-81238958D01*
X160380706Y-81238958D02*
X160428325Y-81048482D01*
X160428325Y-81048482D02*
X160428325Y-80905625D01*
X160428325Y-80905625D02*
X160380706Y-80715149D01*
X160380706Y-80715149D02*
X160333087Y-80619911D01*
X160333087Y-80619911D02*
X160237849Y-80524673D01*
X160237849Y-80524673D02*
X160094992Y-80477054D01*
X160094992Y-80477054D02*
X159999754Y-80477054D01*
X159999754Y-80477054D02*
X159856897Y-80524673D01*
X159856897Y-80524673D02*
X159809278Y-80572292D01*
X159380706Y-81477054D02*
X159380706Y-80477054D01*
X158952135Y-81477054D02*
X158952135Y-80953244D01*
X158952135Y-80953244D02*
X158999754Y-80858006D01*
X158999754Y-80858006D02*
X159094992Y-80810387D01*
X159094992Y-80810387D02*
X159237849Y-80810387D01*
X159237849Y-80810387D02*
X159333087Y-80858006D01*
X159333087Y-80858006D02*
X159380706Y-80905625D01*
X158047373Y-81477054D02*
X158047373Y-80953244D01*
X158047373Y-80953244D02*
X158094992Y-80858006D01*
X158094992Y-80858006D02*
X158190230Y-80810387D01*
X158190230Y-80810387D02*
X158380706Y-80810387D01*
X158380706Y-80810387D02*
X158475944Y-80858006D01*
X158047373Y-81429435D02*
X158142611Y-81477054D01*
X158142611Y-81477054D02*
X158380706Y-81477054D01*
X158380706Y-81477054D02*
X158475944Y-81429435D01*
X158475944Y-81429435D02*
X158523563Y-81334196D01*
X158523563Y-81334196D02*
X158523563Y-81238958D01*
X158523563Y-81238958D02*
X158475944Y-81143720D01*
X158475944Y-81143720D02*
X158380706Y-81096101D01*
X158380706Y-81096101D02*
X158142611Y-81096101D01*
X158142611Y-81096101D02*
X158047373Y-81048482D01*
X157571182Y-81477054D02*
X157571182Y-80810387D01*
X157571182Y-81000863D02*
X157523563Y-80905625D01*
X157523563Y-80905625D02*
X157475944Y-80858006D01*
X157475944Y-80858006D02*
X157380706Y-80810387D01*
X157380706Y-80810387D02*
X157285468Y-80810387D01*
X156523563Y-80810387D02*
X156523563Y-81619911D01*
X156523563Y-81619911D02*
X156571182Y-81715149D01*
X156571182Y-81715149D02*
X156618801Y-81762768D01*
X156618801Y-81762768D02*
X156714039Y-81810387D01*
X156714039Y-81810387D02*
X156856896Y-81810387D01*
X156856896Y-81810387D02*
X156952134Y-81762768D01*
X156523563Y-81429435D02*
X156618801Y-81477054D01*
X156618801Y-81477054D02*
X156809277Y-81477054D01*
X156809277Y-81477054D02*
X156904515Y-81429435D01*
X156904515Y-81429435D02*
X156952134Y-81381815D01*
X156952134Y-81381815D02*
X156999753Y-81286577D01*
X156999753Y-81286577D02*
X156999753Y-81000863D01*
X156999753Y-81000863D02*
X156952134Y-80905625D01*
X156952134Y-80905625D02*
X156904515Y-80858006D01*
X156904515Y-80858006D02*
X156809277Y-80810387D01*
X156809277Y-80810387D02*
X156618801Y-80810387D01*
X156618801Y-80810387D02*
X156523563Y-80858006D01*
X156047372Y-81477054D02*
X156047372Y-80810387D01*
X156047372Y-80477054D02*
X156094991Y-80524673D01*
X156094991Y-80524673D02*
X156047372Y-80572292D01*
X156047372Y-80572292D02*
X155999753Y-80524673D01*
X155999753Y-80524673D02*
X156047372Y-80477054D01*
X156047372Y-80477054D02*
X156047372Y-80572292D01*
X155571182Y-80810387D02*
X155571182Y-81477054D01*
X155571182Y-80905625D02*
X155523563Y-80858006D01*
X155523563Y-80858006D02*
X155428325Y-80810387D01*
X155428325Y-80810387D02*
X155285468Y-80810387D01*
X155285468Y-80810387D02*
X155190230Y-80858006D01*
X155190230Y-80858006D02*
X155142611Y-80953244D01*
X155142611Y-80953244D02*
X155142611Y-81477054D01*
X154237849Y-80810387D02*
X154237849Y-81619911D01*
X154237849Y-81619911D02*
X154285468Y-81715149D01*
X154285468Y-81715149D02*
X154333087Y-81762768D01*
X154333087Y-81762768D02*
X154428325Y-81810387D01*
X154428325Y-81810387D02*
X154571182Y-81810387D01*
X154571182Y-81810387D02*
X154666420Y-81762768D01*
X154237849Y-81429435D02*
X154333087Y-81477054D01*
X154333087Y-81477054D02*
X154523563Y-81477054D01*
X154523563Y-81477054D02*
X154618801Y-81429435D01*
X154618801Y-81429435D02*
X154666420Y-81381815D01*
X154666420Y-81381815D02*
X154714039Y-81286577D01*
X154714039Y-81286577D02*
X154714039Y-81000863D01*
X154714039Y-81000863D02*
X154666420Y-80905625D01*
X154666420Y-80905625D02*
X154618801Y-80858006D01*
X154618801Y-80858006D02*
X154523563Y-80810387D01*
X154523563Y-80810387D02*
X154333087Y-80810387D01*
X154333087Y-80810387D02*
X154237849Y-80858006D01*
D14*
X150170519Y-83611844D02*
X150337185Y-83373749D01*
X150456233Y-83611844D02*
X150456233Y-83111844D01*
X150456233Y-83111844D02*
X150265757Y-83111844D01*
X150265757Y-83111844D02*
X150218138Y-83135654D01*
X150218138Y-83135654D02*
X150194328Y-83159463D01*
X150194328Y-83159463D02*
X150170519Y-83207082D01*
X150170519Y-83207082D02*
X150170519Y-83278511D01*
X150170519Y-83278511D02*
X150194328Y-83326130D01*
X150194328Y-83326130D02*
X150218138Y-83349939D01*
X150218138Y-83349939D02*
X150265757Y-83373749D01*
X150265757Y-83373749D02*
X150456233Y-83373749D01*
X149694328Y-83611844D02*
X149980042Y-83611844D01*
X149837185Y-83611844D02*
X149837185Y-83111844D01*
X149837185Y-83111844D02*
X149884804Y-83183273D01*
X149884804Y-83183273D02*
X149932423Y-83230892D01*
X149932423Y-83230892D02*
X149980042Y-83254701D01*
X149265757Y-83111844D02*
X149360995Y-83111844D01*
X149360995Y-83111844D02*
X149408614Y-83135654D01*
X149408614Y-83135654D02*
X149432424Y-83159463D01*
X149432424Y-83159463D02*
X149480043Y-83230892D01*
X149480043Y-83230892D02*
X149503852Y-83326130D01*
X149503852Y-83326130D02*
X149503852Y-83516606D01*
X149503852Y-83516606D02*
X149480043Y-83564225D01*
X149480043Y-83564225D02*
X149456233Y-83588035D01*
X149456233Y-83588035D02*
X149408614Y-83611844D01*
X149408614Y-83611844D02*
X149313376Y-83611844D01*
X149313376Y-83611844D02*
X149265757Y-83588035D01*
X149265757Y-83588035D02*
X149241948Y-83564225D01*
X149241948Y-83564225D02*
X149218138Y-83516606D01*
X149218138Y-83516606D02*
X149218138Y-83397558D01*
X149218138Y-83397558D02*
X149241948Y-83349939D01*
X149241948Y-83349939D02*
X149265757Y-83326130D01*
X149265757Y-83326130D02*
X149313376Y-83302320D01*
X149313376Y-83302320D02*
X149408614Y-83302320D01*
X149408614Y-83302320D02*
X149456233Y-83326130D01*
X149456233Y-83326130D02*
X149480043Y-83349939D01*
X149480043Y-83349939D02*
X149503852Y-83397558D01*
X169606468Y-93478025D02*
X169630277Y-93501835D01*
X169630277Y-93501835D02*
X169701706Y-93525644D01*
X169701706Y-93525644D02*
X169749325Y-93525644D01*
X169749325Y-93525644D02*
X169820753Y-93501835D01*
X169820753Y-93501835D02*
X169868372Y-93454215D01*
X169868372Y-93454215D02*
X169892182Y-93406596D01*
X169892182Y-93406596D02*
X169915991Y-93311358D01*
X169915991Y-93311358D02*
X169915991Y-93239930D01*
X169915991Y-93239930D02*
X169892182Y-93144692D01*
X169892182Y-93144692D02*
X169868372Y-93097073D01*
X169868372Y-93097073D02*
X169820753Y-93049454D01*
X169820753Y-93049454D02*
X169749325Y-93025644D01*
X169749325Y-93025644D02*
X169701706Y-93025644D01*
X169701706Y-93025644D02*
X169630277Y-93049454D01*
X169630277Y-93049454D02*
X169606468Y-93073263D01*
X169415991Y-93073263D02*
X169392182Y-93049454D01*
X169392182Y-93049454D02*
X169344563Y-93025644D01*
X169344563Y-93025644D02*
X169225515Y-93025644D01*
X169225515Y-93025644D02*
X169177896Y-93049454D01*
X169177896Y-93049454D02*
X169154087Y-93073263D01*
X169154087Y-93073263D02*
X169130277Y-93120882D01*
X169130277Y-93120882D02*
X169130277Y-93168501D01*
X169130277Y-93168501D02*
X169154087Y-93239930D01*
X169154087Y-93239930D02*
X169439801Y-93525644D01*
X169439801Y-93525644D02*
X169130277Y-93525644D01*
X168844563Y-93239930D02*
X168892182Y-93216120D01*
X168892182Y-93216120D02*
X168915992Y-93192311D01*
X168915992Y-93192311D02*
X168939801Y-93144692D01*
X168939801Y-93144692D02*
X168939801Y-93120882D01*
X168939801Y-93120882D02*
X168915992Y-93073263D01*
X168915992Y-93073263D02*
X168892182Y-93049454D01*
X168892182Y-93049454D02*
X168844563Y-93025644D01*
X168844563Y-93025644D02*
X168749325Y-93025644D01*
X168749325Y-93025644D02*
X168701706Y-93049454D01*
X168701706Y-93049454D02*
X168677897Y-93073263D01*
X168677897Y-93073263D02*
X168654087Y-93120882D01*
X168654087Y-93120882D02*
X168654087Y-93144692D01*
X168654087Y-93144692D02*
X168677897Y-93192311D01*
X168677897Y-93192311D02*
X168701706Y-93216120D01*
X168701706Y-93216120D02*
X168749325Y-93239930D01*
X168749325Y-93239930D02*
X168844563Y-93239930D01*
X168844563Y-93239930D02*
X168892182Y-93263739D01*
X168892182Y-93263739D02*
X168915992Y-93287549D01*
X168915992Y-93287549D02*
X168939801Y-93335168D01*
X168939801Y-93335168D02*
X168939801Y-93430406D01*
X168939801Y-93430406D02*
X168915992Y-93478025D01*
X168915992Y-93478025D02*
X168892182Y-93501835D01*
X168892182Y-93501835D02*
X168844563Y-93525644D01*
X168844563Y-93525644D02*
X168749325Y-93525644D01*
X168749325Y-93525644D02*
X168701706Y-93501835D01*
X168701706Y-93501835D02*
X168677897Y-93478025D01*
X168677897Y-93478025D02*
X168654087Y-93430406D01*
X168654087Y-93430406D02*
X168654087Y-93335168D01*
X168654087Y-93335168D02*
X168677897Y-93287549D01*
X168677897Y-93287549D02*
X168701706Y-93263739D01*
X168701706Y-93263739D02*
X168749325Y-93239930D01*
D15*
X109356896Y-85367054D02*
X109356896Y-84367054D01*
X109356896Y-84367054D02*
X109023563Y-85081339D01*
X109023563Y-85081339D02*
X108690230Y-84367054D01*
X108690230Y-84367054D02*
X108690230Y-85367054D01*
X107690230Y-85367054D02*
X108261658Y-85367054D01*
X107975944Y-85367054D02*
X107975944Y-84367054D01*
X107975944Y-84367054D02*
X108071182Y-84509911D01*
X108071182Y-84509911D02*
X108166420Y-84605149D01*
X108166420Y-84605149D02*
X108261658Y-84652768D01*
D14*
X165926519Y-117119725D02*
X165950328Y-117143535D01*
X165950328Y-117143535D02*
X166021757Y-117167344D01*
X166021757Y-117167344D02*
X166069376Y-117167344D01*
X166069376Y-117167344D02*
X166140804Y-117143535D01*
X166140804Y-117143535D02*
X166188423Y-117095915D01*
X166188423Y-117095915D02*
X166212233Y-117048296D01*
X166212233Y-117048296D02*
X166236042Y-116953058D01*
X166236042Y-116953058D02*
X166236042Y-116881630D01*
X166236042Y-116881630D02*
X166212233Y-116786392D01*
X166212233Y-116786392D02*
X166188423Y-116738773D01*
X166188423Y-116738773D02*
X166140804Y-116691154D01*
X166140804Y-116691154D02*
X166069376Y-116667344D01*
X166069376Y-116667344D02*
X166021757Y-116667344D01*
X166021757Y-116667344D02*
X165950328Y-116691154D01*
X165950328Y-116691154D02*
X165926519Y-116714963D01*
X165736042Y-116714963D02*
X165712233Y-116691154D01*
X165712233Y-116691154D02*
X165664614Y-116667344D01*
X165664614Y-116667344D02*
X165545566Y-116667344D01*
X165545566Y-116667344D02*
X165497947Y-116691154D01*
X165497947Y-116691154D02*
X165474138Y-116714963D01*
X165474138Y-116714963D02*
X165450328Y-116762582D01*
X165450328Y-116762582D02*
X165450328Y-116810201D01*
X165450328Y-116810201D02*
X165474138Y-116881630D01*
X165474138Y-116881630D02*
X165759852Y-117167344D01*
X165759852Y-117167344D02*
X165450328Y-117167344D01*
X164997948Y-116667344D02*
X165236043Y-116667344D01*
X165236043Y-116667344D02*
X165259852Y-116905439D01*
X165259852Y-116905439D02*
X165236043Y-116881630D01*
X165236043Y-116881630D02*
X165188424Y-116857820D01*
X165188424Y-116857820D02*
X165069376Y-116857820D01*
X165069376Y-116857820D02*
X165021757Y-116881630D01*
X165021757Y-116881630D02*
X164997948Y-116905439D01*
X164997948Y-116905439D02*
X164974138Y-116953058D01*
X164974138Y-116953058D02*
X164974138Y-117072106D01*
X164974138Y-117072106D02*
X164997948Y-117119725D01*
X164997948Y-117119725D02*
X165021757Y-117143535D01*
X165021757Y-117143535D02*
X165069376Y-117167344D01*
X165069376Y-117167344D02*
X165188424Y-117167344D01*
X165188424Y-117167344D02*
X165236043Y-117143535D01*
X165236043Y-117143535D02*
X165259852Y-117119725D01*
D15*
X171059403Y-107808054D02*
X171059403Y-108522339D01*
X171059403Y-108522339D02*
X171107022Y-108665196D01*
X171107022Y-108665196D02*
X171202260Y-108760435D01*
X171202260Y-108760435D02*
X171345117Y-108808054D01*
X171345117Y-108808054D02*
X171440355Y-108808054D01*
X170630831Y-107903292D02*
X170583212Y-107855673D01*
X170583212Y-107855673D02*
X170487974Y-107808054D01*
X170487974Y-107808054D02*
X170249879Y-107808054D01*
X170249879Y-107808054D02*
X170154641Y-107855673D01*
X170154641Y-107855673D02*
X170107022Y-107903292D01*
X170107022Y-107903292D02*
X170059403Y-107998530D01*
X170059403Y-107998530D02*
X170059403Y-108093768D01*
X170059403Y-108093768D02*
X170107022Y-108236625D01*
X170107022Y-108236625D02*
X170678450Y-108808054D01*
X170678450Y-108808054D02*
X170059403Y-108808054D01*
D14*
X139805498Y-113332225D02*
X139829307Y-113356035D01*
X139829307Y-113356035D02*
X139900736Y-113379844D01*
X139900736Y-113379844D02*
X139948355Y-113379844D01*
X139948355Y-113379844D02*
X140019783Y-113356035D01*
X140019783Y-113356035D02*
X140067402Y-113308415D01*
X140067402Y-113308415D02*
X140091212Y-113260796D01*
X140091212Y-113260796D02*
X140115021Y-113165558D01*
X140115021Y-113165558D02*
X140115021Y-113094130D01*
X140115021Y-113094130D02*
X140091212Y-112998892D01*
X140091212Y-112998892D02*
X140067402Y-112951273D01*
X140067402Y-112951273D02*
X140019783Y-112903654D01*
X140019783Y-112903654D02*
X139948355Y-112879844D01*
X139948355Y-112879844D02*
X139900736Y-112879844D01*
X139900736Y-112879844D02*
X139829307Y-112903654D01*
X139829307Y-112903654D02*
X139805498Y-112927463D01*
X139615021Y-112927463D02*
X139591212Y-112903654D01*
X139591212Y-112903654D02*
X139543593Y-112879844D01*
X139543593Y-112879844D02*
X139424545Y-112879844D01*
X139424545Y-112879844D02*
X139376926Y-112903654D01*
X139376926Y-112903654D02*
X139353117Y-112927463D01*
X139353117Y-112927463D02*
X139329307Y-112975082D01*
X139329307Y-112975082D02*
X139329307Y-113022701D01*
X139329307Y-113022701D02*
X139353117Y-113094130D01*
X139353117Y-113094130D02*
X139638831Y-113379844D01*
X139638831Y-113379844D02*
X139329307Y-113379844D01*
X138900736Y-113046511D02*
X138900736Y-113379844D01*
X139019784Y-112856035D02*
X139138831Y-113213177D01*
X139138831Y-113213177D02*
X138829308Y-113213177D01*
X120615478Y-88766463D02*
X120663097Y-88742654D01*
X120663097Y-88742654D02*
X120710716Y-88695035D01*
X120710716Y-88695035D02*
X120782144Y-88623606D01*
X120782144Y-88623606D02*
X120829763Y-88599796D01*
X120829763Y-88599796D02*
X120877382Y-88599796D01*
X120853573Y-88718844D02*
X120901192Y-88695035D01*
X120901192Y-88695035D02*
X120948811Y-88647415D01*
X120948811Y-88647415D02*
X120972620Y-88552177D01*
X120972620Y-88552177D02*
X120972620Y-88385511D01*
X120972620Y-88385511D02*
X120948811Y-88290273D01*
X120948811Y-88290273D02*
X120901192Y-88242654D01*
X120901192Y-88242654D02*
X120853573Y-88218844D01*
X120853573Y-88218844D02*
X120758335Y-88218844D01*
X120758335Y-88218844D02*
X120710716Y-88242654D01*
X120710716Y-88242654D02*
X120663097Y-88290273D01*
X120663097Y-88290273D02*
X120639287Y-88385511D01*
X120639287Y-88385511D02*
X120639287Y-88552177D01*
X120639287Y-88552177D02*
X120663097Y-88647415D01*
X120663097Y-88647415D02*
X120710716Y-88695035D01*
X120710716Y-88695035D02*
X120758335Y-88718844D01*
X120758335Y-88718844D02*
X120853573Y-88718844D01*
X120448810Y-88266463D02*
X120425001Y-88242654D01*
X120425001Y-88242654D02*
X120377382Y-88218844D01*
X120377382Y-88218844D02*
X120258334Y-88218844D01*
X120258334Y-88218844D02*
X120210715Y-88242654D01*
X120210715Y-88242654D02*
X120186906Y-88266463D01*
X120186906Y-88266463D02*
X120163096Y-88314082D01*
X120163096Y-88314082D02*
X120163096Y-88361701D01*
X120163096Y-88361701D02*
X120186906Y-88433130D01*
X120186906Y-88433130D02*
X120472620Y-88718844D01*
X120472620Y-88718844D02*
X120163096Y-88718844D01*
X164907468Y-93478025D02*
X164931277Y-93501835D01*
X164931277Y-93501835D02*
X165002706Y-93525644D01*
X165002706Y-93525644D02*
X165050325Y-93525644D01*
X165050325Y-93525644D02*
X165121753Y-93501835D01*
X165121753Y-93501835D02*
X165169372Y-93454215D01*
X165169372Y-93454215D02*
X165193182Y-93406596D01*
X165193182Y-93406596D02*
X165216991Y-93311358D01*
X165216991Y-93311358D02*
X165216991Y-93239930D01*
X165216991Y-93239930D02*
X165193182Y-93144692D01*
X165193182Y-93144692D02*
X165169372Y-93097073D01*
X165169372Y-93097073D02*
X165121753Y-93049454D01*
X165121753Y-93049454D02*
X165050325Y-93025644D01*
X165050325Y-93025644D02*
X165002706Y-93025644D01*
X165002706Y-93025644D02*
X164931277Y-93049454D01*
X164931277Y-93049454D02*
X164907468Y-93073263D01*
X164740801Y-93025644D02*
X164431277Y-93025644D01*
X164431277Y-93025644D02*
X164597944Y-93216120D01*
X164597944Y-93216120D02*
X164526515Y-93216120D01*
X164526515Y-93216120D02*
X164478896Y-93239930D01*
X164478896Y-93239930D02*
X164455087Y-93263739D01*
X164455087Y-93263739D02*
X164431277Y-93311358D01*
X164431277Y-93311358D02*
X164431277Y-93430406D01*
X164431277Y-93430406D02*
X164455087Y-93478025D01*
X164455087Y-93478025D02*
X164478896Y-93501835D01*
X164478896Y-93501835D02*
X164526515Y-93525644D01*
X164526515Y-93525644D02*
X164669372Y-93525644D01*
X164669372Y-93525644D02*
X164716991Y-93501835D01*
X164716991Y-93501835D02*
X164740801Y-93478025D01*
X164121754Y-93025644D02*
X164074135Y-93025644D01*
X164074135Y-93025644D02*
X164026516Y-93049454D01*
X164026516Y-93049454D02*
X164002706Y-93073263D01*
X164002706Y-93073263D02*
X163978897Y-93120882D01*
X163978897Y-93120882D02*
X163955087Y-93216120D01*
X163955087Y-93216120D02*
X163955087Y-93335168D01*
X163955087Y-93335168D02*
X163978897Y-93430406D01*
X163978897Y-93430406D02*
X164002706Y-93478025D01*
X164002706Y-93478025D02*
X164026516Y-93501835D01*
X164026516Y-93501835D02*
X164074135Y-93525644D01*
X164074135Y-93525644D02*
X164121754Y-93525644D01*
X164121754Y-93525644D02*
X164169373Y-93501835D01*
X164169373Y-93501835D02*
X164193182Y-93478025D01*
X164193182Y-93478025D02*
X164216992Y-93430406D01*
X164216992Y-93430406D02*
X164240801Y-93335168D01*
X164240801Y-93335168D02*
X164240801Y-93216120D01*
X164240801Y-93216120D02*
X164216992Y-93120882D01*
X164216992Y-93120882D02*
X164193182Y-93073263D01*
X164193182Y-93073263D02*
X164169373Y-93049454D01*
X164169373Y-93049454D02*
X164121754Y-93025644D01*
X146870519Y-83615844D02*
X147037185Y-83377749D01*
X147156233Y-83615844D02*
X147156233Y-83115844D01*
X147156233Y-83115844D02*
X146965757Y-83115844D01*
X146965757Y-83115844D02*
X146918138Y-83139654D01*
X146918138Y-83139654D02*
X146894328Y-83163463D01*
X146894328Y-83163463D02*
X146870519Y-83211082D01*
X146870519Y-83211082D02*
X146870519Y-83282511D01*
X146870519Y-83282511D02*
X146894328Y-83330130D01*
X146894328Y-83330130D02*
X146918138Y-83353939D01*
X146918138Y-83353939D02*
X146965757Y-83377749D01*
X146965757Y-83377749D02*
X147156233Y-83377749D01*
X146703852Y-83115844D02*
X146394328Y-83115844D01*
X146394328Y-83115844D02*
X146560995Y-83306320D01*
X146560995Y-83306320D02*
X146489566Y-83306320D01*
X146489566Y-83306320D02*
X146441947Y-83330130D01*
X146441947Y-83330130D02*
X146418138Y-83353939D01*
X146418138Y-83353939D02*
X146394328Y-83401558D01*
X146394328Y-83401558D02*
X146394328Y-83520606D01*
X146394328Y-83520606D02*
X146418138Y-83568225D01*
X146418138Y-83568225D02*
X146441947Y-83592035D01*
X146441947Y-83592035D02*
X146489566Y-83615844D01*
X146489566Y-83615844D02*
X146632423Y-83615844D01*
X146632423Y-83615844D02*
X146680042Y-83592035D01*
X146680042Y-83592035D02*
X146703852Y-83568225D01*
X145965757Y-83282511D02*
X145965757Y-83615844D01*
X146084805Y-83092035D02*
X146203852Y-83449177D01*
X146203852Y-83449177D02*
X145894329Y-83449177D01*
X116523233Y-85391844D02*
X116523233Y-84891844D01*
X116523233Y-84891844D02*
X116404185Y-84891844D01*
X116404185Y-84891844D02*
X116332757Y-84915654D01*
X116332757Y-84915654D02*
X116285138Y-84963273D01*
X116285138Y-84963273D02*
X116261328Y-85010892D01*
X116261328Y-85010892D02*
X116237519Y-85106130D01*
X116237519Y-85106130D02*
X116237519Y-85177558D01*
X116237519Y-85177558D02*
X116261328Y-85272796D01*
X116261328Y-85272796D02*
X116285138Y-85320415D01*
X116285138Y-85320415D02*
X116332757Y-85368035D01*
X116332757Y-85368035D02*
X116404185Y-85391844D01*
X116404185Y-85391844D02*
X116523233Y-85391844D01*
X116047042Y-84939463D02*
X116023233Y-84915654D01*
X116023233Y-84915654D02*
X115975614Y-84891844D01*
X115975614Y-84891844D02*
X115856566Y-84891844D01*
X115856566Y-84891844D02*
X115808947Y-84915654D01*
X115808947Y-84915654D02*
X115785138Y-84939463D01*
X115785138Y-84939463D02*
X115761328Y-84987082D01*
X115761328Y-84987082D02*
X115761328Y-85034701D01*
X115761328Y-85034701D02*
X115785138Y-85106130D01*
X115785138Y-85106130D02*
X116070852Y-85391844D01*
X116070852Y-85391844D02*
X115761328Y-85391844D01*
D15*
X165868290Y-113856054D02*
X165868290Y-114665577D01*
X165868290Y-114665577D02*
X165820671Y-114760815D01*
X165820671Y-114760815D02*
X165773052Y-114808435D01*
X165773052Y-114808435D02*
X165677814Y-114856054D01*
X165677814Y-114856054D02*
X165487338Y-114856054D01*
X165487338Y-114856054D02*
X165392100Y-114808435D01*
X165392100Y-114808435D02*
X165344481Y-114760815D01*
X165344481Y-114760815D02*
X165296862Y-114665577D01*
X165296862Y-114665577D02*
X165296862Y-113856054D01*
X164296862Y-114856054D02*
X164868290Y-114856054D01*
X164582576Y-114856054D02*
X164582576Y-113856054D01*
X164582576Y-113856054D02*
X164677814Y-113998911D01*
X164677814Y-113998911D02*
X164773052Y-114094149D01*
X164773052Y-114094149D02*
X164868290Y-114141768D01*
X163677814Y-113856054D02*
X163582576Y-113856054D01*
X163582576Y-113856054D02*
X163487338Y-113903673D01*
X163487338Y-113903673D02*
X163439719Y-113951292D01*
X163439719Y-113951292D02*
X163392100Y-114046530D01*
X163392100Y-114046530D02*
X163344481Y-114237006D01*
X163344481Y-114237006D02*
X163344481Y-114475101D01*
X163344481Y-114475101D02*
X163392100Y-114665577D01*
X163392100Y-114665577D02*
X163439719Y-114760815D01*
X163439719Y-114760815D02*
X163487338Y-114808435D01*
X163487338Y-114808435D02*
X163582576Y-114856054D01*
X163582576Y-114856054D02*
X163677814Y-114856054D01*
X163677814Y-114856054D02*
X163773052Y-114808435D01*
X163773052Y-114808435D02*
X163820671Y-114760815D01*
X163820671Y-114760815D02*
X163868290Y-114665577D01*
X163868290Y-114665577D02*
X163915909Y-114475101D01*
X163915909Y-114475101D02*
X163915909Y-114237006D01*
X163915909Y-114237006D02*
X163868290Y-114046530D01*
X163868290Y-114046530D02*
X163820671Y-113951292D01*
X163820671Y-113951292D02*
X163773052Y-113903673D01*
X163773052Y-113903673D02*
X163677814Y-113856054D01*
D14*
X131002900Y-111941463D02*
X131050519Y-111917654D01*
X131050519Y-111917654D02*
X131098138Y-111870035D01*
X131098138Y-111870035D02*
X131169566Y-111798606D01*
X131169566Y-111798606D02*
X131217185Y-111774796D01*
X131217185Y-111774796D02*
X131264804Y-111774796D01*
X131240995Y-111893844D02*
X131288614Y-111870035D01*
X131288614Y-111870035D02*
X131336233Y-111822415D01*
X131336233Y-111822415D02*
X131360042Y-111727177D01*
X131360042Y-111727177D02*
X131360042Y-111560511D01*
X131360042Y-111560511D02*
X131336233Y-111465273D01*
X131336233Y-111465273D02*
X131288614Y-111417654D01*
X131288614Y-111417654D02*
X131240995Y-111393844D01*
X131240995Y-111393844D02*
X131145757Y-111393844D01*
X131145757Y-111393844D02*
X131098138Y-111417654D01*
X131098138Y-111417654D02*
X131050519Y-111465273D01*
X131050519Y-111465273D02*
X131026709Y-111560511D01*
X131026709Y-111560511D02*
X131026709Y-111727177D01*
X131026709Y-111727177D02*
X131050519Y-111822415D01*
X131050519Y-111822415D02*
X131098138Y-111870035D01*
X131098138Y-111870035D02*
X131145757Y-111893844D01*
X131145757Y-111893844D02*
X131240995Y-111893844D01*
X130550518Y-111893844D02*
X130836232Y-111893844D01*
X130693375Y-111893844D02*
X130693375Y-111393844D01*
X130693375Y-111393844D02*
X130740994Y-111465273D01*
X130740994Y-111465273D02*
X130788613Y-111512892D01*
X130788613Y-111512892D02*
X130836232Y-111536701D01*
D15*
X178637440Y-117074274D02*
X178589820Y-116931417D01*
X178589820Y-116931417D02*
X178589820Y-116693322D01*
X178589820Y-116693322D02*
X178637440Y-116598084D01*
X178637440Y-116598084D02*
X178685059Y-116550465D01*
X178685059Y-116550465D02*
X178780297Y-116502846D01*
X178780297Y-116502846D02*
X178875535Y-116502846D01*
X178875535Y-116502846D02*
X178970773Y-116550465D01*
X178970773Y-116550465D02*
X179018392Y-116598084D01*
X179018392Y-116598084D02*
X179066011Y-116693322D01*
X179066011Y-116693322D02*
X179113630Y-116883798D01*
X179113630Y-116883798D02*
X179161249Y-116979036D01*
X179161249Y-116979036D02*
X179208868Y-117026655D01*
X179208868Y-117026655D02*
X179304106Y-117074274D01*
X179304106Y-117074274D02*
X179399344Y-117074274D01*
X179399344Y-117074274D02*
X179494582Y-117026655D01*
X179494582Y-117026655D02*
X179542201Y-116979036D01*
X179542201Y-116979036D02*
X179589820Y-116883798D01*
X179589820Y-116883798D02*
X179589820Y-116645703D01*
X179589820Y-116645703D02*
X179542201Y-116502846D01*
X179589820Y-116169512D02*
X178589820Y-115931417D01*
X178589820Y-115931417D02*
X179304106Y-115740941D01*
X179304106Y-115740941D02*
X178589820Y-115550465D01*
X178589820Y-115550465D02*
X179589820Y-115312370D01*
X178589820Y-114407608D02*
X178589820Y-114979036D01*
X178589820Y-114693322D02*
X179589820Y-114693322D01*
X179589820Y-114693322D02*
X179446963Y-114788560D01*
X179446963Y-114788560D02*
X179351725Y-114883798D01*
X179351725Y-114883798D02*
X179304106Y-114979036D01*
X179494582Y-114026655D02*
X179542201Y-113979036D01*
X179542201Y-113979036D02*
X179589820Y-113883798D01*
X179589820Y-113883798D02*
X179589820Y-113645703D01*
X179589820Y-113645703D02*
X179542201Y-113550465D01*
X179542201Y-113550465D02*
X179494582Y-113502846D01*
X179494582Y-113502846D02*
X179399344Y-113455227D01*
X179399344Y-113455227D02*
X179304106Y-113455227D01*
X179304106Y-113455227D02*
X179161249Y-113502846D01*
X179161249Y-113502846D02*
X178589820Y-114074274D01*
X178589820Y-114074274D02*
X178589820Y-113455227D01*
D14*
X165799519Y-111785725D02*
X165823328Y-111809535D01*
X165823328Y-111809535D02*
X165894757Y-111833344D01*
X165894757Y-111833344D02*
X165942376Y-111833344D01*
X165942376Y-111833344D02*
X166013804Y-111809535D01*
X166013804Y-111809535D02*
X166061423Y-111761915D01*
X166061423Y-111761915D02*
X166085233Y-111714296D01*
X166085233Y-111714296D02*
X166109042Y-111619058D01*
X166109042Y-111619058D02*
X166109042Y-111547630D01*
X166109042Y-111547630D02*
X166085233Y-111452392D01*
X166085233Y-111452392D02*
X166061423Y-111404773D01*
X166061423Y-111404773D02*
X166013804Y-111357154D01*
X166013804Y-111357154D02*
X165942376Y-111333344D01*
X165942376Y-111333344D02*
X165894757Y-111333344D01*
X165894757Y-111333344D02*
X165823328Y-111357154D01*
X165823328Y-111357154D02*
X165799519Y-111380963D01*
X165323328Y-111833344D02*
X165609042Y-111833344D01*
X165466185Y-111833344D02*
X165466185Y-111333344D01*
X165466185Y-111333344D02*
X165513804Y-111404773D01*
X165513804Y-111404773D02*
X165561423Y-111452392D01*
X165561423Y-111452392D02*
X165609042Y-111476201D01*
X165085233Y-111833344D02*
X164989995Y-111833344D01*
X164989995Y-111833344D02*
X164942376Y-111809535D01*
X164942376Y-111809535D02*
X164918567Y-111785725D01*
X164918567Y-111785725D02*
X164870948Y-111714296D01*
X164870948Y-111714296D02*
X164847138Y-111619058D01*
X164847138Y-111619058D02*
X164847138Y-111428582D01*
X164847138Y-111428582D02*
X164870948Y-111380963D01*
X164870948Y-111380963D02*
X164894757Y-111357154D01*
X164894757Y-111357154D02*
X164942376Y-111333344D01*
X164942376Y-111333344D02*
X165037614Y-111333344D01*
X165037614Y-111333344D02*
X165085233Y-111357154D01*
X165085233Y-111357154D02*
X165109043Y-111380963D01*
X165109043Y-111380963D02*
X165132852Y-111428582D01*
X165132852Y-111428582D02*
X165132852Y-111547630D01*
X165132852Y-111547630D02*
X165109043Y-111595249D01*
X165109043Y-111595249D02*
X165085233Y-111619058D01*
X165085233Y-111619058D02*
X165037614Y-111642868D01*
X165037614Y-111642868D02*
X164942376Y-111642868D01*
X164942376Y-111642868D02*
X164894757Y-111619058D01*
X164894757Y-111619058D02*
X164870948Y-111595249D01*
X164870948Y-111595249D02*
X164847138Y-111547630D01*
D15*
X128228440Y-104255568D02*
X127514155Y-104255568D01*
X127514155Y-104255568D02*
X127371298Y-104303187D01*
X127371298Y-104303187D02*
X127276060Y-104398425D01*
X127276060Y-104398425D02*
X127228440Y-104541282D01*
X127228440Y-104541282D02*
X127228440Y-104636520D01*
X127228440Y-103255568D02*
X127228440Y-103826996D01*
X127228440Y-103541282D02*
X128228440Y-103541282D01*
X128228440Y-103541282D02*
X128085583Y-103636520D01*
X128085583Y-103636520D02*
X127990345Y-103731758D01*
X127990345Y-103731758D02*
X127942726Y-103826996D01*
X131710593Y-88029435D02*
X131567736Y-88077054D01*
X131567736Y-88077054D02*
X131329641Y-88077054D01*
X131329641Y-88077054D02*
X131234403Y-88029435D01*
X131234403Y-88029435D02*
X131186784Y-87981815D01*
X131186784Y-87981815D02*
X131139165Y-87886577D01*
X131139165Y-87886577D02*
X131139165Y-87791339D01*
X131139165Y-87791339D02*
X131186784Y-87696101D01*
X131186784Y-87696101D02*
X131234403Y-87648482D01*
X131234403Y-87648482D02*
X131329641Y-87600863D01*
X131329641Y-87600863D02*
X131520117Y-87553244D01*
X131520117Y-87553244D02*
X131615355Y-87505625D01*
X131615355Y-87505625D02*
X131662974Y-87458006D01*
X131662974Y-87458006D02*
X131710593Y-87362768D01*
X131710593Y-87362768D02*
X131710593Y-87267530D01*
X131710593Y-87267530D02*
X131662974Y-87172292D01*
X131662974Y-87172292D02*
X131615355Y-87124673D01*
X131615355Y-87124673D02*
X131520117Y-87077054D01*
X131520117Y-87077054D02*
X131282022Y-87077054D01*
X131282022Y-87077054D02*
X131139165Y-87124673D01*
X130805831Y-87077054D02*
X130567736Y-88077054D01*
X130567736Y-88077054D02*
X130377260Y-87362768D01*
X130377260Y-87362768D02*
X130186784Y-88077054D01*
X130186784Y-88077054D02*
X129948689Y-87077054D01*
X129043927Y-88077054D02*
X129615355Y-88077054D01*
X129329641Y-88077054D02*
X129329641Y-87077054D01*
X129329641Y-87077054D02*
X129424879Y-87219911D01*
X129424879Y-87219911D02*
X129520117Y-87315149D01*
X129520117Y-87315149D02*
X129615355Y-87362768D01*
X128139165Y-87077054D02*
X128615355Y-87077054D01*
X128615355Y-87077054D02*
X128662974Y-87553244D01*
X128662974Y-87553244D02*
X128615355Y-87505625D01*
X128615355Y-87505625D02*
X128520117Y-87458006D01*
X128520117Y-87458006D02*
X128282022Y-87458006D01*
X128282022Y-87458006D02*
X128186784Y-87505625D01*
X128186784Y-87505625D02*
X128139165Y-87553244D01*
X128139165Y-87553244D02*
X128091546Y-87648482D01*
X128091546Y-87648482D02*
X128091546Y-87886577D01*
X128091546Y-87886577D02*
X128139165Y-87981815D01*
X128139165Y-87981815D02*
X128186784Y-88029435D01*
X128186784Y-88029435D02*
X128282022Y-88077054D01*
X128282022Y-88077054D02*
X128520117Y-88077054D01*
X128520117Y-88077054D02*
X128615355Y-88029435D01*
X128615355Y-88029435D02*
X128662974Y-87981815D01*
X159772290Y-89853054D02*
X159772290Y-90662577D01*
X159772290Y-90662577D02*
X159724671Y-90757815D01*
X159724671Y-90757815D02*
X159677052Y-90805435D01*
X159677052Y-90805435D02*
X159581814Y-90853054D01*
X159581814Y-90853054D02*
X159391338Y-90853054D01*
X159391338Y-90853054D02*
X159296100Y-90805435D01*
X159296100Y-90805435D02*
X159248481Y-90757815D01*
X159248481Y-90757815D02*
X159200862Y-90662577D01*
X159200862Y-90662577D02*
X159200862Y-89853054D01*
X158581814Y-90281625D02*
X158677052Y-90234006D01*
X158677052Y-90234006D02*
X158724671Y-90186387D01*
X158724671Y-90186387D02*
X158772290Y-90091149D01*
X158772290Y-90091149D02*
X158772290Y-90043530D01*
X158772290Y-90043530D02*
X158724671Y-89948292D01*
X158724671Y-89948292D02*
X158677052Y-89900673D01*
X158677052Y-89900673D02*
X158581814Y-89853054D01*
X158581814Y-89853054D02*
X158391338Y-89853054D01*
X158391338Y-89853054D02*
X158296100Y-89900673D01*
X158296100Y-89900673D02*
X158248481Y-89948292D01*
X158248481Y-89948292D02*
X158200862Y-90043530D01*
X158200862Y-90043530D02*
X158200862Y-90091149D01*
X158200862Y-90091149D02*
X158248481Y-90186387D01*
X158248481Y-90186387D02*
X158296100Y-90234006D01*
X158296100Y-90234006D02*
X158391338Y-90281625D01*
X158391338Y-90281625D02*
X158581814Y-90281625D01*
X158581814Y-90281625D02*
X158677052Y-90329244D01*
X158677052Y-90329244D02*
X158724671Y-90376863D01*
X158724671Y-90376863D02*
X158772290Y-90472101D01*
X158772290Y-90472101D02*
X158772290Y-90662577D01*
X158772290Y-90662577D02*
X158724671Y-90757815D01*
X158724671Y-90757815D02*
X158677052Y-90805435D01*
X158677052Y-90805435D02*
X158581814Y-90853054D01*
X158581814Y-90853054D02*
X158391338Y-90853054D01*
X158391338Y-90853054D02*
X158296100Y-90805435D01*
X158296100Y-90805435D02*
X158248481Y-90757815D01*
X158248481Y-90757815D02*
X158200862Y-90662577D01*
X158200862Y-90662577D02*
X158200862Y-90472101D01*
X158200862Y-90472101D02*
X158248481Y-90376863D01*
X158248481Y-90376863D02*
X158296100Y-90329244D01*
X158296100Y-90329244D02*
X158391338Y-90281625D01*
D14*
X159830519Y-87782725D02*
X159854328Y-87806535D01*
X159854328Y-87806535D02*
X159925757Y-87830344D01*
X159925757Y-87830344D02*
X159973376Y-87830344D01*
X159973376Y-87830344D02*
X160044804Y-87806535D01*
X160044804Y-87806535D02*
X160092423Y-87758915D01*
X160092423Y-87758915D02*
X160116233Y-87711296D01*
X160116233Y-87711296D02*
X160140042Y-87616058D01*
X160140042Y-87616058D02*
X160140042Y-87544630D01*
X160140042Y-87544630D02*
X160116233Y-87449392D01*
X160116233Y-87449392D02*
X160092423Y-87401773D01*
X160092423Y-87401773D02*
X160044804Y-87354154D01*
X160044804Y-87354154D02*
X159973376Y-87330344D01*
X159973376Y-87330344D02*
X159925757Y-87330344D01*
X159925757Y-87330344D02*
X159854328Y-87354154D01*
X159854328Y-87354154D02*
X159830519Y-87377963D01*
X159354328Y-87830344D02*
X159640042Y-87830344D01*
X159497185Y-87830344D02*
X159497185Y-87330344D01*
X159497185Y-87330344D02*
X159544804Y-87401773D01*
X159544804Y-87401773D02*
X159592423Y-87449392D01*
X159592423Y-87449392D02*
X159640042Y-87473201D01*
X159068614Y-87544630D02*
X159116233Y-87520820D01*
X159116233Y-87520820D02*
X159140043Y-87497011D01*
X159140043Y-87497011D02*
X159163852Y-87449392D01*
X159163852Y-87449392D02*
X159163852Y-87425582D01*
X159163852Y-87425582D02*
X159140043Y-87377963D01*
X159140043Y-87377963D02*
X159116233Y-87354154D01*
X159116233Y-87354154D02*
X159068614Y-87330344D01*
X159068614Y-87330344D02*
X158973376Y-87330344D01*
X158973376Y-87330344D02*
X158925757Y-87354154D01*
X158925757Y-87354154D02*
X158901948Y-87377963D01*
X158901948Y-87377963D02*
X158878138Y-87425582D01*
X158878138Y-87425582D02*
X158878138Y-87449392D01*
X158878138Y-87449392D02*
X158901948Y-87497011D01*
X158901948Y-87497011D02*
X158925757Y-87520820D01*
X158925757Y-87520820D02*
X158973376Y-87544630D01*
X158973376Y-87544630D02*
X159068614Y-87544630D01*
X159068614Y-87544630D02*
X159116233Y-87568439D01*
X159116233Y-87568439D02*
X159140043Y-87592249D01*
X159140043Y-87592249D02*
X159163852Y-87639868D01*
X159163852Y-87639868D02*
X159163852Y-87735106D01*
X159163852Y-87735106D02*
X159140043Y-87782725D01*
X159140043Y-87782725D02*
X159116233Y-87806535D01*
X159116233Y-87806535D02*
X159068614Y-87830344D01*
X159068614Y-87830344D02*
X158973376Y-87830344D01*
X158973376Y-87830344D02*
X158925757Y-87806535D01*
X158925757Y-87806535D02*
X158901948Y-87782725D01*
X158901948Y-87782725D02*
X158878138Y-87735106D01*
X158878138Y-87735106D02*
X158878138Y-87639868D01*
X158878138Y-87639868D02*
X158901948Y-87592249D01*
X158901948Y-87592249D02*
X158925757Y-87568439D01*
X158925757Y-87568439D02*
X158973376Y-87544630D01*
X167193468Y-93478025D02*
X167217277Y-93501835D01*
X167217277Y-93501835D02*
X167288706Y-93525644D01*
X167288706Y-93525644D02*
X167336325Y-93525644D01*
X167336325Y-93525644D02*
X167407753Y-93501835D01*
X167407753Y-93501835D02*
X167455372Y-93454215D01*
X167455372Y-93454215D02*
X167479182Y-93406596D01*
X167479182Y-93406596D02*
X167502991Y-93311358D01*
X167502991Y-93311358D02*
X167502991Y-93239930D01*
X167502991Y-93239930D02*
X167479182Y-93144692D01*
X167479182Y-93144692D02*
X167455372Y-93097073D01*
X167455372Y-93097073D02*
X167407753Y-93049454D01*
X167407753Y-93049454D02*
X167336325Y-93025644D01*
X167336325Y-93025644D02*
X167288706Y-93025644D01*
X167288706Y-93025644D02*
X167217277Y-93049454D01*
X167217277Y-93049454D02*
X167193468Y-93073263D01*
X167002991Y-93073263D02*
X166979182Y-93049454D01*
X166979182Y-93049454D02*
X166931563Y-93025644D01*
X166931563Y-93025644D02*
X166812515Y-93025644D01*
X166812515Y-93025644D02*
X166764896Y-93049454D01*
X166764896Y-93049454D02*
X166741087Y-93073263D01*
X166741087Y-93073263D02*
X166717277Y-93120882D01*
X166717277Y-93120882D02*
X166717277Y-93168501D01*
X166717277Y-93168501D02*
X166741087Y-93239930D01*
X166741087Y-93239930D02*
X167026801Y-93525644D01*
X167026801Y-93525644D02*
X166717277Y-93525644D01*
X166479182Y-93525644D02*
X166383944Y-93525644D01*
X166383944Y-93525644D02*
X166336325Y-93501835D01*
X166336325Y-93501835D02*
X166312516Y-93478025D01*
X166312516Y-93478025D02*
X166264897Y-93406596D01*
X166264897Y-93406596D02*
X166241087Y-93311358D01*
X166241087Y-93311358D02*
X166241087Y-93120882D01*
X166241087Y-93120882D02*
X166264897Y-93073263D01*
X166264897Y-93073263D02*
X166288706Y-93049454D01*
X166288706Y-93049454D02*
X166336325Y-93025644D01*
X166336325Y-93025644D02*
X166431563Y-93025644D01*
X166431563Y-93025644D02*
X166479182Y-93049454D01*
X166479182Y-93049454D02*
X166502992Y-93073263D01*
X166502992Y-93073263D02*
X166526801Y-93120882D01*
X166526801Y-93120882D02*
X166526801Y-93239930D01*
X166526801Y-93239930D02*
X166502992Y-93287549D01*
X166502992Y-93287549D02*
X166479182Y-93311358D01*
X166479182Y-93311358D02*
X166431563Y-93335168D01*
X166431563Y-93335168D02*
X166336325Y-93335168D01*
X166336325Y-93335168D02*
X166288706Y-93311358D01*
X166288706Y-93311358D02*
X166264897Y-93287549D01*
X166264897Y-93287549D02*
X166241087Y-93239930D01*
X174392658Y-93481225D02*
X174416467Y-93505035D01*
X174416467Y-93505035D02*
X174487896Y-93528844D01*
X174487896Y-93528844D02*
X174535515Y-93528844D01*
X174535515Y-93528844D02*
X174606943Y-93505035D01*
X174606943Y-93505035D02*
X174654562Y-93457415D01*
X174654562Y-93457415D02*
X174678372Y-93409796D01*
X174678372Y-93409796D02*
X174702181Y-93314558D01*
X174702181Y-93314558D02*
X174702181Y-93243130D01*
X174702181Y-93243130D02*
X174678372Y-93147892D01*
X174678372Y-93147892D02*
X174654562Y-93100273D01*
X174654562Y-93100273D02*
X174606943Y-93052654D01*
X174606943Y-93052654D02*
X174535515Y-93028844D01*
X174535515Y-93028844D02*
X174487896Y-93028844D01*
X174487896Y-93028844D02*
X174416467Y-93052654D01*
X174416467Y-93052654D02*
X174392658Y-93076463D01*
X174225991Y-93028844D02*
X173916467Y-93028844D01*
X173916467Y-93028844D02*
X174083134Y-93219320D01*
X174083134Y-93219320D02*
X174011705Y-93219320D01*
X174011705Y-93219320D02*
X173964086Y-93243130D01*
X173964086Y-93243130D02*
X173940277Y-93266939D01*
X173940277Y-93266939D02*
X173916467Y-93314558D01*
X173916467Y-93314558D02*
X173916467Y-93433606D01*
X173916467Y-93433606D02*
X173940277Y-93481225D01*
X173940277Y-93481225D02*
X173964086Y-93505035D01*
X173964086Y-93505035D02*
X174011705Y-93528844D01*
X174011705Y-93528844D02*
X174154562Y-93528844D01*
X174154562Y-93528844D02*
X174202181Y-93505035D01*
X174202181Y-93505035D02*
X174225991Y-93481225D01*
X173749801Y-93028844D02*
X173440277Y-93028844D01*
X173440277Y-93028844D02*
X173606944Y-93219320D01*
X173606944Y-93219320D02*
X173535515Y-93219320D01*
X173535515Y-93219320D02*
X173487896Y-93243130D01*
X173487896Y-93243130D02*
X173464087Y-93266939D01*
X173464087Y-93266939D02*
X173440277Y-93314558D01*
X173440277Y-93314558D02*
X173440277Y-93433606D01*
X173440277Y-93433606D02*
X173464087Y-93481225D01*
X173464087Y-93481225D02*
X173487896Y-93505035D01*
X173487896Y-93505035D02*
X173535515Y-93528844D01*
X173535515Y-93528844D02*
X173678372Y-93528844D01*
X173678372Y-93528844D02*
X173725991Y-93505035D01*
X173725991Y-93505035D02*
X173749801Y-93481225D01*
%TO.C,C23*%
D16*
X161220234Y-92705235D02*
X161435906Y-92705235D01*
X161220234Y-93425235D02*
X161435906Y-93425235D01*
%TO.C,J5*%
X113791070Y-113862235D02*
X121611070Y-113862235D01*
X113791070Y-114782235D02*
X113791070Y-113862235D01*
X113791070Y-119062235D02*
X115391070Y-119062235D01*
X113791070Y-119982235D02*
X113791070Y-119062235D01*
X115391070Y-113862235D02*
X115391070Y-114782235D01*
X115391070Y-114782235D02*
X113791070Y-114782235D01*
X115391070Y-115062235D02*
X114176070Y-115062235D01*
X115391070Y-115062235D02*
X115391070Y-114782235D01*
X115391070Y-119062235D02*
X115391070Y-118782235D01*
X115391070Y-119982235D02*
X115391070Y-119062235D01*
X117251070Y-116422235D02*
X117251070Y-117422235D01*
X117251070Y-117422235D02*
X121611070Y-117422235D01*
X119351070Y-115122235D02*
X121611070Y-115122235D01*
X119351070Y-115622235D02*
X121611070Y-115622235D01*
X121611070Y-113862235D02*
X121611070Y-119982235D01*
X121611070Y-116422235D02*
X117251070Y-116422235D01*
X121611070Y-119982235D02*
X113791070Y-119982235D01*
X117751070Y-114622235D02*
X119351070Y-114622235D01*
X119351070Y-115622235D01*
X117751070Y-115622235D01*
X117751070Y-114622235D01*
X117751070Y-118222235D02*
X119351070Y-118222235D01*
X119351070Y-119222235D01*
X117751070Y-119222235D01*
X117751070Y-118222235D01*
%TO.C,R1*%
X131339328Y-105750735D02*
X130864812Y-105750735D01*
X131339328Y-106795735D02*
X130864812Y-106795735D01*
%TO.C,U9*%
X135771070Y-109932235D02*
X135771070Y-109982235D01*
X135771070Y-113002235D02*
X135771070Y-113052235D01*
X135771070Y-113052235D02*
X137591070Y-113052235D01*
X137591070Y-109932235D02*
X135771070Y-109932235D01*
X137591070Y-109982235D02*
X137591070Y-109932235D01*
X137591070Y-111882235D02*
X137591070Y-111102235D01*
X137591070Y-113052235D02*
X137591070Y-113002235D01*
X135471070Y-113332235D02*
X134991070Y-113332235D01*
X135231070Y-113002235D01*
X135471070Y-113332235D01*
G36*
X135471070Y-113332235D02*
G01*
X134991070Y-113332235D01*
X135231070Y-113002235D01*
X135471070Y-113332235D01*
G37*
%TO.C,R35*%
X173318750Y-120980196D02*
X173318750Y-120672914D01*
X174078750Y-120980196D02*
X174078750Y-120672914D01*
%TO.C,D5*%
X146101070Y-80287235D02*
X148386070Y-80287235D01*
X148386070Y-80287235D02*
X148386070Y-81757235D01*
X148386070Y-81757235D02*
X146101070Y-81757235D01*
%TO.C,C20*%
X133663070Y-112223071D02*
X133663070Y-112007399D01*
X134383070Y-112223071D02*
X134383070Y-112007399D01*
%TO.C,C32*%
X170788040Y-89895783D02*
X170788040Y-91318287D01*
X172608040Y-89895783D02*
X172608040Y-91318287D01*
%TO.C,SW11*%
X173165641Y-114403435D02*
X174165640Y-114403435D01*
X174165640Y-115403434D01*
X173165641Y-115403434D01*
X173165641Y-114403435D01*
G36*
X173165641Y-114403435D02*
G01*
X174165640Y-114403435D01*
X174165640Y-115403434D01*
X173165641Y-115403434D01*
X173165641Y-114403435D01*
G37*
X173015640Y-112763435D02*
X174315640Y-112763435D01*
X174315640Y-115563434D01*
X173015640Y-115563434D01*
X173015640Y-112763435D01*
X172355640Y-111043435D02*
X174975640Y-111043435D01*
X174975640Y-117283435D01*
X172355640Y-117283435D01*
X172355640Y-111043435D01*
%TO.C,R36*%
X176620750Y-120980196D02*
X176620750Y-120672914D01*
X177380750Y-120980196D02*
X177380750Y-120672914D01*
%TO.C,D6*%
X149301070Y-80287235D02*
X151586070Y-80287235D01*
X151586070Y-80287235D02*
X151586070Y-81757235D01*
X151586070Y-81757235D02*
X149301070Y-81757235D01*
%TO.C,R16*%
X150661070Y-82931876D02*
X150661070Y-82624594D01*
X151421070Y-82931876D02*
X151421070Y-82624594D01*
%TO.C,C28*%
X168375040Y-89895783D02*
X168375040Y-91318287D01*
X170195040Y-89895783D02*
X170195040Y-91318287D01*
%TO.C,M1*%
X103501070Y-85597235D02*
X103501070Y-90397235D01*
X103501070Y-90397235D02*
X106801070Y-90397235D01*
X106801070Y-85597235D02*
X103501070Y-85597235D01*
X106801070Y-86597235D02*
X106801070Y-85597235D01*
X106801070Y-89397235D02*
X107401070Y-89397235D01*
X106801070Y-90397235D02*
X106801070Y-89397235D01*
X107401070Y-85597235D02*
X107401070Y-86597235D01*
X107401070Y-86597235D02*
X106801070Y-86597235D01*
X107401070Y-89397235D02*
X107401070Y-90397235D01*
X107401070Y-90397235D02*
X114301070Y-90397235D01*
X114301070Y-85597235D02*
X107401070Y-85597235D01*
X114301070Y-90397235D02*
X114651070Y-90397235D01*
X114651070Y-85597235D02*
X114301070Y-85597235D01*
X114651070Y-86947235D02*
X114651070Y-85597235D01*
X114651070Y-89047235D02*
X114701070Y-89047235D01*
X114651070Y-90397235D02*
X114651070Y-89047235D01*
X114701070Y-86947235D02*
X114651070Y-86947235D01*
X114701070Y-89047235D02*
X114701070Y-86947235D01*
%TO.C,C25*%
X167189234Y-116581235D02*
X167404906Y-116581235D01*
X167189234Y-117301235D02*
X167404906Y-117301235D01*
%TO.C,J2*%
X168041070Y-106308235D02*
X168041070Y-102428235D01*
X170011070Y-101258235D02*
X172511070Y-101258235D01*
X170011070Y-107478235D02*
X172511070Y-107478235D01*
X172511070Y-101258235D02*
X172511070Y-102308235D01*
X172511070Y-106428235D02*
X173501070Y-106428235D01*
X172511070Y-107478235D02*
X172511070Y-106428235D01*
%TO.C,C24*%
X139124070Y-111969071D02*
X139124070Y-111753399D01*
X139844070Y-111969071D02*
X139844070Y-111753399D01*
%TO.C,Q2*%
X116842070Y-87225235D02*
X116842070Y-88745235D01*
X116842070Y-88745235D02*
X116892070Y-88745235D01*
X117842070Y-87225235D02*
X116842070Y-87225235D01*
X118012070Y-88745235D02*
X118792070Y-88745235D01*
X119912070Y-88745235D02*
X119962070Y-88745235D01*
X119962070Y-87225235D02*
X118962070Y-87225235D01*
X119962070Y-88745235D02*
X119962070Y-87225235D01*
X118782070Y-89285235D02*
X118452070Y-89525235D01*
X118452070Y-89045235D01*
X118782070Y-89285235D01*
G36*
X118782070Y-89285235D02*
G01*
X118452070Y-89525235D01*
X118452070Y-89045235D01*
X118782070Y-89285235D01*
G37*
%TO.C,C30*%
X163676040Y-89895783D02*
X163676040Y-91318287D01*
X165496040Y-89895783D02*
X165496040Y-91318287D01*
%TO.C,R34*%
X147361070Y-82935876D02*
X147361070Y-82628594D01*
X148121070Y-82935876D02*
X148121070Y-82628594D01*
%TO.C,D2*%
X114608070Y-90218235D02*
X114608070Y-86208235D01*
X116608070Y-90218235D02*
X114608070Y-90218235D01*
X116608070Y-90218235D02*
X116608070Y-86208235D01*
%TO.C,U10*%
X166245070Y-113491235D02*
X166245070Y-115311235D01*
X166245070Y-115311235D02*
X166295070Y-115311235D01*
X166295070Y-113491235D02*
X166245070Y-113491235D01*
X167415070Y-115311235D02*
X168195070Y-115311235D01*
X169315070Y-115311235D02*
X169365070Y-115311235D01*
X169365070Y-113491235D02*
X169315070Y-113491235D01*
X169365070Y-115311235D02*
X169365070Y-113491235D01*
X166295070Y-112951235D02*
X165965070Y-113191235D01*
X165965070Y-112711235D01*
X166295070Y-112951235D01*
G36*
X166295070Y-112951235D02*
G01*
X165965070Y-113191235D01*
X165965070Y-112711235D01*
X166295070Y-112951235D01*
G37*
%TO.C,Q1*%
X129961070Y-108015235D02*
X129961070Y-108065235D01*
X129961070Y-109185235D02*
X129961070Y-109965235D01*
X129961070Y-111085235D02*
X129961070Y-111135235D01*
X129961070Y-111135235D02*
X131481070Y-111135235D01*
X131481070Y-108015235D02*
X129961070Y-108015235D01*
X131481070Y-109015235D02*
X131481070Y-108015235D01*
X131481070Y-111135235D02*
X131481070Y-110135235D01*
X129421070Y-109955235D02*
X129181070Y-109625235D01*
X129661070Y-109625235D01*
X129421070Y-109955235D01*
G36*
X129421070Y-109955235D02*
G01*
X129181070Y-109625235D01*
X129661070Y-109625235D01*
X129421070Y-109955235D01*
G37*
%TO.C,SW12*%
X176459641Y-114403435D02*
X177459640Y-114403435D01*
X177459640Y-115403434D01*
X176459641Y-115403434D01*
X176459641Y-114403435D01*
G36*
X176459641Y-114403435D02*
G01*
X177459640Y-114403435D01*
X177459640Y-115403434D01*
X176459641Y-115403434D01*
X176459641Y-114403435D01*
G37*
X176309640Y-112763435D02*
X177609640Y-112763435D01*
X177609640Y-115563434D01*
X176309640Y-115563434D01*
X176309640Y-112763435D01*
X175649640Y-111043435D02*
X178269640Y-111043435D01*
X178269640Y-117283435D01*
X175649640Y-117283435D01*
X175649640Y-111043435D01*
%TO.C,C19*%
X167062234Y-111247235D02*
X167277906Y-111247235D01*
X167062234Y-111967235D02*
X167277906Y-111967235D01*
%TO.C,J1*%
D10*
X120643260Y-98222235D02*
X122543260Y-98222235D01*
X120643260Y-109622235D02*
X120643260Y-98222235D01*
X120643260Y-109622235D02*
X122543260Y-109622235D01*
X124593260Y-98222235D02*
X125743260Y-98222235D01*
X124593260Y-109622235D02*
X126043260Y-109622235D01*
X126043260Y-98522235D02*
X125743260Y-98222235D01*
X126043260Y-98522235D02*
X126043260Y-100322235D01*
X126043260Y-109622235D02*
X126043260Y-107522235D01*
D17*
X126670260Y-107822235D02*
G75*
G02*
X126416260Y-107822235I-127000J0D01*
G01*
X126416260Y-107822235D02*
G75*
G02*
X126670260Y-107822235I127000J0D01*
G01*
%TO.C,SW15*%
D16*
X126201070Y-81722235D02*
X128401070Y-81722235D01*
X126201070Y-86322235D02*
X134801070Y-86322235D01*
X132501070Y-81722235D02*
X134801070Y-81722235D01*
%TO.C,U8*%
X160149070Y-89488235D02*
X160149070Y-91308235D01*
X160149070Y-91308235D02*
X160199070Y-91308235D01*
X160199070Y-89488235D02*
X160149070Y-89488235D01*
X161319070Y-91308235D02*
X162099070Y-91308235D01*
X163219070Y-91308235D02*
X163269070Y-91308235D01*
X163269070Y-89488235D02*
X163219070Y-89488235D01*
X163269070Y-91308235D02*
X163269070Y-89488235D01*
X160199070Y-88948235D02*
X159869070Y-89188235D01*
X159869070Y-88708235D01*
X160199070Y-88948235D01*
G36*
X160199070Y-88948235D02*
G01*
X159869070Y-89188235D01*
X159869070Y-88708235D01*
X160199070Y-88948235D01*
G37*
%TO.C,C18*%
X161093234Y-87244235D02*
X161308906Y-87244235D01*
X161093234Y-87964235D02*
X161308906Y-87964235D01*
%TO.C,C29*%
X165962040Y-89895783D02*
X165962040Y-91318287D01*
X167782040Y-89895783D02*
X167782040Y-91318287D01*
%TO.C,C33*%
X173161230Y-89898983D02*
X173161230Y-91321487D01*
X174981230Y-89898983D02*
X174981230Y-91321487D01*
%TD*%
M02*
