%TF.GenerationSoftware,KiCad,Pcbnew,10.0.0*%
%TF.CreationDate,2026-04-14T22:13:58+03:00*%
%TF.ProjectId,RADR,52414452-2e6b-4696-9361-645f70636258,rev?*%
%TF.SameCoordinates,Original*%
%TF.FileFunction,Legend,Top*%
%TF.FilePolarity,Positive*%
%FSLAX46Y46*%
G04 Gerber Fmt 4.6, Leading zero omitted, Abs format (unit mm)*
G04 Created by KiCad (PCBNEW 10.0.0) date 2026-04-14 22:13:58*
%MOMM*%
%LPD*%
G01*
G04 APERTURE LIST*
%ADD10C,0.100000*%
%ADD11C,0.130000*%
%ADD12C,0.125000*%
%ADD13C,0.180000*%
%ADD14C,0.150000*%
%ADD15C,0.120000*%
%ADD16C,0.050000*%
%ADD17C,0.254000*%
%ADD18C,0.200000*%
G04 APERTURE END LIST*
D10*
X191231070Y-93826945D02*
X196749771Y-93826945D01*
X196749771Y-95182234D01*
X191231070Y-95182234D01*
X191231070Y-93826945D01*
G36*
X191231070Y-93826945D02*
G01*
X196749771Y-93826945D01*
X196749771Y-95182234D01*
X191231070Y-95182234D01*
X191231070Y-93826945D01*
G37*
D11*
X150509453Y-104478094D02*
X151176119Y-105478094D01*
X151176119Y-104478094D02*
X150509453Y-105478094D01*
X151557072Y-105097141D02*
X152318977Y-105097141D01*
X151938024Y-105478094D02*
X151938024Y-104716189D01*
X147882022Y-102416903D02*
X147882022Y-102893094D01*
X147548689Y-101893094D02*
X147882022Y-102416903D01*
X147882022Y-102416903D02*
X148215355Y-101893094D01*
X148548689Y-102512141D02*
X149310594Y-102512141D01*
X148929641Y-102893094D02*
X148929641Y-102131189D01*
D12*
X185849020Y-90665966D02*
X186020448Y-90723109D01*
X186020448Y-90723109D02*
X186077591Y-90780252D01*
X186077591Y-90780252D02*
X186134734Y-90894537D01*
X186134734Y-90894537D02*
X186134734Y-91065966D01*
X186134734Y-91065966D02*
X186077591Y-91180252D01*
X186077591Y-91180252D02*
X186020448Y-91237395D01*
X186020448Y-91237395D02*
X185906163Y-91294537D01*
X185906163Y-91294537D02*
X185449020Y-91294537D01*
X185449020Y-91294537D02*
X185449020Y-90094537D01*
X185449020Y-90094537D02*
X185849020Y-90094537D01*
X185849020Y-90094537D02*
X185963306Y-90151680D01*
X185963306Y-90151680D02*
X186020448Y-90208823D01*
X186020448Y-90208823D02*
X186077591Y-90323109D01*
X186077591Y-90323109D02*
X186077591Y-90437395D01*
X186077591Y-90437395D02*
X186020448Y-90551680D01*
X186020448Y-90551680D02*
X185963306Y-90608823D01*
X185963306Y-90608823D02*
X185849020Y-90665966D01*
X185849020Y-90665966D02*
X185449020Y-90665966D01*
X187106163Y-91237395D02*
X186991877Y-91294537D01*
X186991877Y-91294537D02*
X186763306Y-91294537D01*
X186763306Y-91294537D02*
X186649020Y-91237395D01*
X186649020Y-91237395D02*
X186591877Y-91123109D01*
X186591877Y-91123109D02*
X186591877Y-90665966D01*
X186591877Y-90665966D02*
X186649020Y-90551680D01*
X186649020Y-90551680D02*
X186763306Y-90494537D01*
X186763306Y-90494537D02*
X186991877Y-90494537D01*
X186991877Y-90494537D02*
X187106163Y-90551680D01*
X187106163Y-90551680D02*
X187163306Y-90665966D01*
X187163306Y-90665966D02*
X187163306Y-90780252D01*
X187163306Y-90780252D02*
X186591877Y-90894537D01*
X188134734Y-91237395D02*
X188020448Y-91294537D01*
X188020448Y-91294537D02*
X187791877Y-91294537D01*
X187791877Y-91294537D02*
X187677591Y-91237395D01*
X187677591Y-91237395D02*
X187620448Y-91123109D01*
X187620448Y-91123109D02*
X187620448Y-90665966D01*
X187620448Y-90665966D02*
X187677591Y-90551680D01*
X187677591Y-90551680D02*
X187791877Y-90494537D01*
X187791877Y-90494537D02*
X188020448Y-90494537D01*
X188020448Y-90494537D02*
X188134734Y-90551680D01*
X188134734Y-90551680D02*
X188191877Y-90665966D01*
X188191877Y-90665966D02*
X188191877Y-90780252D01*
X188191877Y-90780252D02*
X187620448Y-90894537D01*
X188706162Y-90494537D02*
X188706162Y-91694537D01*
X188706162Y-90551680D02*
X188820448Y-90494537D01*
X188820448Y-90494537D02*
X189049019Y-90494537D01*
X189049019Y-90494537D02*
X189163305Y-90551680D01*
X189163305Y-90551680D02*
X189220448Y-90608823D01*
X189220448Y-90608823D02*
X189277590Y-90723109D01*
X189277590Y-90723109D02*
X189277590Y-91065966D01*
X189277590Y-91065966D02*
X189220448Y-91180252D01*
X189220448Y-91180252D02*
X189163305Y-91237395D01*
X189163305Y-91237395D02*
X189049019Y-91294537D01*
X189049019Y-91294537D02*
X188820448Y-91294537D01*
X188820448Y-91294537D02*
X188706162Y-91237395D01*
X189849019Y-91237395D02*
X189849019Y-91294537D01*
X189849019Y-91294537D02*
X189791876Y-91408823D01*
X189791876Y-91408823D02*
X189734733Y-91465966D01*
X185849020Y-92597899D02*
X186020448Y-92655042D01*
X186020448Y-92655042D02*
X186077591Y-92712185D01*
X186077591Y-92712185D02*
X186134734Y-92826470D01*
X186134734Y-92826470D02*
X186134734Y-92997899D01*
X186134734Y-92997899D02*
X186077591Y-93112185D01*
X186077591Y-93112185D02*
X186020448Y-93169328D01*
X186020448Y-93169328D02*
X185906163Y-93226470D01*
X185906163Y-93226470D02*
X185449020Y-93226470D01*
X185449020Y-93226470D02*
X185449020Y-92026470D01*
X185449020Y-92026470D02*
X185849020Y-92026470D01*
X185849020Y-92026470D02*
X185963306Y-92083613D01*
X185963306Y-92083613D02*
X186020448Y-92140756D01*
X186020448Y-92140756D02*
X186077591Y-92255042D01*
X186077591Y-92255042D02*
X186077591Y-92369328D01*
X186077591Y-92369328D02*
X186020448Y-92483613D01*
X186020448Y-92483613D02*
X185963306Y-92540756D01*
X185963306Y-92540756D02*
X185849020Y-92597899D01*
X185849020Y-92597899D02*
X185449020Y-92597899D01*
X187106163Y-93169328D02*
X186991877Y-93226470D01*
X186991877Y-93226470D02*
X186763306Y-93226470D01*
X186763306Y-93226470D02*
X186649020Y-93169328D01*
X186649020Y-93169328D02*
X186591877Y-93055042D01*
X186591877Y-93055042D02*
X186591877Y-92597899D01*
X186591877Y-92597899D02*
X186649020Y-92483613D01*
X186649020Y-92483613D02*
X186763306Y-92426470D01*
X186763306Y-92426470D02*
X186991877Y-92426470D01*
X186991877Y-92426470D02*
X187106163Y-92483613D01*
X187106163Y-92483613D02*
X187163306Y-92597899D01*
X187163306Y-92597899D02*
X187163306Y-92712185D01*
X187163306Y-92712185D02*
X186591877Y-92826470D01*
X188134734Y-93169328D02*
X188020448Y-93226470D01*
X188020448Y-93226470D02*
X187791877Y-93226470D01*
X187791877Y-93226470D02*
X187677591Y-93169328D01*
X187677591Y-93169328D02*
X187620448Y-93055042D01*
X187620448Y-93055042D02*
X187620448Y-92597899D01*
X187620448Y-92597899D02*
X187677591Y-92483613D01*
X187677591Y-92483613D02*
X187791877Y-92426470D01*
X187791877Y-92426470D02*
X188020448Y-92426470D01*
X188020448Y-92426470D02*
X188134734Y-92483613D01*
X188134734Y-92483613D02*
X188191877Y-92597899D01*
X188191877Y-92597899D02*
X188191877Y-92712185D01*
X188191877Y-92712185D02*
X187620448Y-92826470D01*
X188706162Y-92426470D02*
X188706162Y-93626470D01*
X188706162Y-92483613D02*
X188820448Y-92426470D01*
X188820448Y-92426470D02*
X189049019Y-92426470D01*
X189049019Y-92426470D02*
X189163305Y-92483613D01*
X189163305Y-92483613D02*
X189220448Y-92540756D01*
X189220448Y-92540756D02*
X189277590Y-92655042D01*
X189277590Y-92655042D02*
X189277590Y-92997899D01*
X189277590Y-92997899D02*
X189220448Y-93112185D01*
X189220448Y-93112185D02*
X189163305Y-93169328D01*
X189163305Y-93169328D02*
X189049019Y-93226470D01*
X189049019Y-93226470D02*
X188820448Y-93226470D01*
X188820448Y-93226470D02*
X188706162Y-93169328D01*
X189849019Y-93169328D02*
X189849019Y-93226470D01*
X189849019Y-93226470D02*
X189791876Y-93340756D01*
X189791876Y-93340756D02*
X189734733Y-93397899D01*
X185449020Y-95158403D02*
X185449020Y-93958403D01*
X185449020Y-93958403D02*
X185849020Y-94815546D01*
X185849020Y-94815546D02*
X186249020Y-93958403D01*
X186249020Y-93958403D02*
X186249020Y-95158403D01*
X186991877Y-95158403D02*
X186877592Y-95101261D01*
X186877592Y-95101261D02*
X186820449Y-95044118D01*
X186820449Y-95044118D02*
X186763306Y-94929832D01*
X186763306Y-94929832D02*
X186763306Y-94586975D01*
X186763306Y-94586975D02*
X186820449Y-94472689D01*
X186820449Y-94472689D02*
X186877592Y-94415546D01*
X186877592Y-94415546D02*
X186991877Y-94358403D01*
X186991877Y-94358403D02*
X187163306Y-94358403D01*
X187163306Y-94358403D02*
X187277592Y-94415546D01*
X187277592Y-94415546D02*
X187334735Y-94472689D01*
X187334735Y-94472689D02*
X187391877Y-94586975D01*
X187391877Y-94586975D02*
X187391877Y-94929832D01*
X187391877Y-94929832D02*
X187334735Y-95044118D01*
X187334735Y-95044118D02*
X187277592Y-95101261D01*
X187277592Y-95101261D02*
X187163306Y-95158403D01*
X187163306Y-95158403D02*
X186991877Y-95158403D01*
X187734734Y-94358403D02*
X188191877Y-94358403D01*
X187906163Y-93958403D02*
X187906163Y-94986975D01*
X187906163Y-94986975D02*
X187963306Y-95101261D01*
X187963306Y-95101261D02*
X188077591Y-95158403D01*
X188077591Y-95158403D02*
X188191877Y-95158403D01*
X188591877Y-95158403D02*
X188591877Y-93958403D01*
X189106163Y-95158403D02*
X189106163Y-94529832D01*
X189106163Y-94529832D02*
X189049020Y-94415546D01*
X189049020Y-94415546D02*
X188934734Y-94358403D01*
X188934734Y-94358403D02*
X188763305Y-94358403D01*
X188763305Y-94358403D02*
X188649020Y-94415546D01*
X188649020Y-94415546D02*
X188591877Y-94472689D01*
X190134734Y-95101261D02*
X190020448Y-95158403D01*
X190020448Y-95158403D02*
X189791877Y-95158403D01*
X189791877Y-95158403D02*
X189677591Y-95101261D01*
X189677591Y-95101261D02*
X189620448Y-94986975D01*
X189620448Y-94986975D02*
X189620448Y-94529832D01*
X189620448Y-94529832D02*
X189677591Y-94415546D01*
X189677591Y-94415546D02*
X189791877Y-94358403D01*
X189791877Y-94358403D02*
X190020448Y-94358403D01*
X190020448Y-94358403D02*
X190134734Y-94415546D01*
X190134734Y-94415546D02*
X190191877Y-94529832D01*
X190191877Y-94529832D02*
X190191877Y-94644118D01*
X190191877Y-94644118D02*
X189620448Y-94758403D01*
X190706162Y-95158403D02*
X190706162Y-94358403D01*
X190706162Y-94586975D02*
X190763305Y-94472689D01*
X190763305Y-94472689D02*
X190820448Y-94415546D01*
X190820448Y-94415546D02*
X190934733Y-94358403D01*
X190934733Y-94358403D02*
X191049019Y-94358403D01*
X191277590Y-94358403D02*
X191734733Y-94358403D01*
X191449019Y-95158403D02*
X191449019Y-94129832D01*
X191449019Y-94129832D02*
X191506162Y-94015546D01*
X191506162Y-94015546D02*
X191620447Y-93958403D01*
X191620447Y-93958403D02*
X191734733Y-93958403D01*
X192649019Y-94358403D02*
X192649019Y-95158403D01*
X192134733Y-94358403D02*
X192134733Y-94986975D01*
X192134733Y-94986975D02*
X192191876Y-95101261D01*
X192191876Y-95101261D02*
X192306161Y-95158403D01*
X192306161Y-95158403D02*
X192477590Y-95158403D01*
X192477590Y-95158403D02*
X192591876Y-95101261D01*
X192591876Y-95101261D02*
X192649019Y-95044118D01*
X193734733Y-95101261D02*
X193620447Y-95158403D01*
X193620447Y-95158403D02*
X193391875Y-95158403D01*
X193391875Y-95158403D02*
X193277590Y-95101261D01*
X193277590Y-95101261D02*
X193220447Y-95044118D01*
X193220447Y-95044118D02*
X193163304Y-94929832D01*
X193163304Y-94929832D02*
X193163304Y-94586975D01*
X193163304Y-94586975D02*
X193220447Y-94472689D01*
X193220447Y-94472689D02*
X193277590Y-94415546D01*
X193277590Y-94415546D02*
X193391875Y-94358403D01*
X193391875Y-94358403D02*
X193620447Y-94358403D01*
X193620447Y-94358403D02*
X193734733Y-94415546D01*
X194249018Y-95158403D02*
X194249018Y-93958403D01*
X194363304Y-94701261D02*
X194706161Y-95158403D01*
X194706161Y-94358403D02*
X194249018Y-94815546D01*
X195677590Y-95101261D02*
X195563304Y-95158403D01*
X195563304Y-95158403D02*
X195334733Y-95158403D01*
X195334733Y-95158403D02*
X195220447Y-95101261D01*
X195220447Y-95101261D02*
X195163304Y-94986975D01*
X195163304Y-94986975D02*
X195163304Y-94529832D01*
X195163304Y-94529832D02*
X195220447Y-94415546D01*
X195220447Y-94415546D02*
X195334733Y-94358403D01*
X195334733Y-94358403D02*
X195563304Y-94358403D01*
X195563304Y-94358403D02*
X195677590Y-94415546D01*
X195677590Y-94415546D02*
X195734733Y-94529832D01*
X195734733Y-94529832D02*
X195734733Y-94644118D01*
X195734733Y-94644118D02*
X195163304Y-94758403D01*
X196249018Y-95158403D02*
X196249018Y-94358403D01*
X196249018Y-94586975D02*
X196306161Y-94472689D01*
X196306161Y-94472689D02*
X196363304Y-94415546D01*
X196363304Y-94415546D02*
X196477589Y-94358403D01*
X196477589Y-94358403D02*
X196591875Y-94358403D01*
X196991875Y-95044118D02*
X197049018Y-95101261D01*
X197049018Y-95101261D02*
X196991875Y-95158403D01*
X196991875Y-95158403D02*
X196934732Y-95101261D01*
X196934732Y-95101261D02*
X196991875Y-95044118D01*
X196991875Y-95044118D02*
X196991875Y-95158403D01*
X196991875Y-94701261D02*
X196934732Y-94015546D01*
X196934732Y-94015546D02*
X196991875Y-93958403D01*
X196991875Y-93958403D02*
X197049018Y-94015546D01*
X197049018Y-94015546D02*
X196991875Y-94701261D01*
X196991875Y-94701261D02*
X196991875Y-93958403D01*
D10*
X126459239Y-87628463D02*
X126411620Y-87604654D01*
X126411620Y-87604654D02*
X126364001Y-87557035D01*
X126364001Y-87557035D02*
X126292573Y-87485606D01*
X126292573Y-87485606D02*
X126244954Y-87461796D01*
X126244954Y-87461796D02*
X126197335Y-87461796D01*
X126221144Y-87580844D02*
X126173525Y-87557035D01*
X126173525Y-87557035D02*
X126125906Y-87509415D01*
X126125906Y-87509415D02*
X126102097Y-87414177D01*
X126102097Y-87414177D02*
X126102097Y-87247511D01*
X126102097Y-87247511D02*
X126125906Y-87152273D01*
X126125906Y-87152273D02*
X126173525Y-87104654D01*
X126173525Y-87104654D02*
X126221144Y-87080844D01*
X126221144Y-87080844D02*
X126316382Y-87080844D01*
X126316382Y-87080844D02*
X126364001Y-87104654D01*
X126364001Y-87104654D02*
X126411620Y-87152273D01*
X126411620Y-87152273D02*
X126435430Y-87247511D01*
X126435430Y-87247511D02*
X126435430Y-87414177D01*
X126435430Y-87414177D02*
X126411620Y-87509415D01*
X126411620Y-87509415D02*
X126364001Y-87557035D01*
X126364001Y-87557035D02*
X126316382Y-87580844D01*
X126316382Y-87580844D02*
X126221144Y-87580844D01*
X126602097Y-87080844D02*
X126935430Y-87080844D01*
X126935430Y-87080844D02*
X126721145Y-87580844D01*
X196869620Y-99994844D02*
X196702954Y-99756749D01*
X196583906Y-99994844D02*
X196583906Y-99494844D01*
X196583906Y-99494844D02*
X196774382Y-99494844D01*
X196774382Y-99494844D02*
X196822001Y-99518654D01*
X196822001Y-99518654D02*
X196845811Y-99542463D01*
X196845811Y-99542463D02*
X196869620Y-99590082D01*
X196869620Y-99590082D02*
X196869620Y-99661511D01*
X196869620Y-99661511D02*
X196845811Y-99709130D01*
X196845811Y-99709130D02*
X196822001Y-99732939D01*
X196822001Y-99732939D02*
X196774382Y-99756749D01*
X196774382Y-99756749D02*
X196583906Y-99756749D01*
X197060097Y-99542463D02*
X197083906Y-99518654D01*
X197083906Y-99518654D02*
X197131525Y-99494844D01*
X197131525Y-99494844D02*
X197250573Y-99494844D01*
X197250573Y-99494844D02*
X197298192Y-99518654D01*
X197298192Y-99518654D02*
X197322001Y-99542463D01*
X197322001Y-99542463D02*
X197345811Y-99590082D01*
X197345811Y-99590082D02*
X197345811Y-99637701D01*
X197345811Y-99637701D02*
X197322001Y-99709130D01*
X197322001Y-99709130D02*
X197036287Y-99994844D01*
X197036287Y-99994844D02*
X197345811Y-99994844D01*
X197774382Y-99661511D02*
X197774382Y-99994844D01*
X197655334Y-99471035D02*
X197536287Y-99828177D01*
X197536287Y-99828177D02*
X197845810Y-99828177D01*
X141272662Y-84373844D02*
X141105996Y-84135749D01*
X140986948Y-84373844D02*
X140986948Y-83873844D01*
X140986948Y-83873844D02*
X141177424Y-83873844D01*
X141177424Y-83873844D02*
X141225043Y-83897654D01*
X141225043Y-83897654D02*
X141248853Y-83921463D01*
X141248853Y-83921463D02*
X141272662Y-83969082D01*
X141272662Y-83969082D02*
X141272662Y-84040511D01*
X141272662Y-84040511D02*
X141248853Y-84088130D01*
X141248853Y-84088130D02*
X141225043Y-84111939D01*
X141225043Y-84111939D02*
X141177424Y-84135749D01*
X141177424Y-84135749D02*
X140986948Y-84135749D01*
X141463139Y-83921463D02*
X141486948Y-83897654D01*
X141486948Y-83897654D02*
X141534567Y-83873844D01*
X141534567Y-83873844D02*
X141653615Y-83873844D01*
X141653615Y-83873844D02*
X141701234Y-83897654D01*
X141701234Y-83897654D02*
X141725043Y-83921463D01*
X141725043Y-83921463D02*
X141748853Y-83969082D01*
X141748853Y-83969082D02*
X141748853Y-84016701D01*
X141748853Y-84016701D02*
X141725043Y-84088130D01*
X141725043Y-84088130D02*
X141439329Y-84373844D01*
X141439329Y-84373844D02*
X141748853Y-84373844D01*
X142225043Y-84373844D02*
X141939329Y-84373844D01*
X142082186Y-84373844D02*
X142082186Y-83873844D01*
X142082186Y-83873844D02*
X142034567Y-83945273D01*
X142034567Y-83945273D02*
X141986948Y-83992892D01*
X141986948Y-83992892D02*
X141939329Y-84016701D01*
X144057662Y-105201844D02*
X143890996Y-104963749D01*
X143771948Y-105201844D02*
X143771948Y-104701844D01*
X143771948Y-104701844D02*
X143962424Y-104701844D01*
X143962424Y-104701844D02*
X144010043Y-104725654D01*
X144010043Y-104725654D02*
X144033853Y-104749463D01*
X144033853Y-104749463D02*
X144057662Y-104797082D01*
X144057662Y-104797082D02*
X144057662Y-104868511D01*
X144057662Y-104868511D02*
X144033853Y-104916130D01*
X144033853Y-104916130D02*
X144010043Y-104939939D01*
X144010043Y-104939939D02*
X143962424Y-104963749D01*
X143962424Y-104963749D02*
X143771948Y-104963749D01*
X144533853Y-105201844D02*
X144248139Y-105201844D01*
X144390996Y-105201844D02*
X144390996Y-104701844D01*
X144390996Y-104701844D02*
X144343377Y-104773273D01*
X144343377Y-104773273D02*
X144295758Y-104820892D01*
X144295758Y-104820892D02*
X144248139Y-104844701D01*
X145010043Y-105201844D02*
X144724329Y-105201844D01*
X144867186Y-105201844D02*
X144867186Y-104701844D01*
X144867186Y-104701844D02*
X144819567Y-104773273D01*
X144819567Y-104773273D02*
X144771948Y-104820892D01*
X144771948Y-104820892D02*
X144724329Y-104844701D01*
X148132022Y-127140844D02*
X148132022Y-126640844D01*
X148132022Y-126640844D02*
X148251070Y-126640844D01*
X148251070Y-126640844D02*
X148322498Y-126664654D01*
X148322498Y-126664654D02*
X148370117Y-126712273D01*
X148370117Y-126712273D02*
X148393927Y-126759892D01*
X148393927Y-126759892D02*
X148417736Y-126855130D01*
X148417736Y-126855130D02*
X148417736Y-126926558D01*
X148417736Y-126926558D02*
X148393927Y-127021796D01*
X148393927Y-127021796D02*
X148370117Y-127069415D01*
X148370117Y-127069415D02*
X148322498Y-127117035D01*
X148322498Y-127117035D02*
X148251070Y-127140844D01*
X148251070Y-127140844D02*
X148132022Y-127140844D01*
X148655832Y-127140844D02*
X148751070Y-127140844D01*
X148751070Y-127140844D02*
X148798689Y-127117035D01*
X148798689Y-127117035D02*
X148822498Y-127093225D01*
X148822498Y-127093225D02*
X148870117Y-127021796D01*
X148870117Y-127021796D02*
X148893927Y-126926558D01*
X148893927Y-126926558D02*
X148893927Y-126736082D01*
X148893927Y-126736082D02*
X148870117Y-126688463D01*
X148870117Y-126688463D02*
X148846308Y-126664654D01*
X148846308Y-126664654D02*
X148798689Y-126640844D01*
X148798689Y-126640844D02*
X148703451Y-126640844D01*
X148703451Y-126640844D02*
X148655832Y-126664654D01*
X148655832Y-126664654D02*
X148632022Y-126688463D01*
X148632022Y-126688463D02*
X148608213Y-126736082D01*
X148608213Y-126736082D02*
X148608213Y-126855130D01*
X148608213Y-126855130D02*
X148632022Y-126902749D01*
X148632022Y-126902749D02*
X148655832Y-126926558D01*
X148655832Y-126926558D02*
X148703451Y-126950368D01*
X148703451Y-126950368D02*
X148798689Y-126950368D01*
X148798689Y-126950368D02*
X148846308Y-126926558D01*
X148846308Y-126926558D02*
X148870117Y-126902749D01*
X148870117Y-126902749D02*
X148893927Y-126855130D01*
X179089620Y-106471844D02*
X178922954Y-106233749D01*
X178803906Y-106471844D02*
X178803906Y-105971844D01*
X178803906Y-105971844D02*
X178994382Y-105971844D01*
X178994382Y-105971844D02*
X179042001Y-105995654D01*
X179042001Y-105995654D02*
X179065811Y-106019463D01*
X179065811Y-106019463D02*
X179089620Y-106067082D01*
X179089620Y-106067082D02*
X179089620Y-106138511D01*
X179089620Y-106138511D02*
X179065811Y-106186130D01*
X179065811Y-106186130D02*
X179042001Y-106209939D01*
X179042001Y-106209939D02*
X178994382Y-106233749D01*
X178994382Y-106233749D02*
X178803906Y-106233749D01*
X179256287Y-105971844D02*
X179565811Y-105971844D01*
X179565811Y-105971844D02*
X179399144Y-106162320D01*
X179399144Y-106162320D02*
X179470573Y-106162320D01*
X179470573Y-106162320D02*
X179518192Y-106186130D01*
X179518192Y-106186130D02*
X179542001Y-106209939D01*
X179542001Y-106209939D02*
X179565811Y-106257558D01*
X179565811Y-106257558D02*
X179565811Y-106376606D01*
X179565811Y-106376606D02*
X179542001Y-106424225D01*
X179542001Y-106424225D02*
X179518192Y-106448035D01*
X179518192Y-106448035D02*
X179470573Y-106471844D01*
X179470573Y-106471844D02*
X179327716Y-106471844D01*
X179327716Y-106471844D02*
X179280097Y-106448035D01*
X179280097Y-106448035D02*
X179256287Y-106424225D01*
X179756287Y-106019463D02*
X179780096Y-105995654D01*
X179780096Y-105995654D02*
X179827715Y-105971844D01*
X179827715Y-105971844D02*
X179946763Y-105971844D01*
X179946763Y-105971844D02*
X179994382Y-105995654D01*
X179994382Y-105995654D02*
X180018191Y-106019463D01*
X180018191Y-106019463D02*
X180042001Y-106067082D01*
X180042001Y-106067082D02*
X180042001Y-106114701D01*
X180042001Y-106114701D02*
X180018191Y-106186130D01*
X180018191Y-106186130D02*
X179732477Y-106471844D01*
X179732477Y-106471844D02*
X180042001Y-106471844D01*
D13*
X145717067Y-116130956D02*
X145645638Y-116273814D01*
X145645638Y-116273814D02*
X145645638Y-116488099D01*
X145645638Y-116488099D02*
X145717067Y-116702385D01*
X145717067Y-116702385D02*
X145859924Y-116845242D01*
X145859924Y-116845242D02*
X146002781Y-116916671D01*
X146002781Y-116916671D02*
X146288495Y-116988099D01*
X146288495Y-116988099D02*
X146502781Y-116988099D01*
X146502781Y-116988099D02*
X146788495Y-116916671D01*
X146788495Y-116916671D02*
X146931352Y-116845242D01*
X146931352Y-116845242D02*
X147074210Y-116702385D01*
X147074210Y-116702385D02*
X147145638Y-116488099D01*
X147145638Y-116488099D02*
X147145638Y-116345242D01*
X147145638Y-116345242D02*
X147074210Y-116130956D01*
X147074210Y-116130956D02*
X147002781Y-116059528D01*
X147002781Y-116059528D02*
X146502781Y-116059528D01*
X146502781Y-116059528D02*
X146502781Y-116345242D01*
X147145638Y-115416671D02*
X145645638Y-115416671D01*
X145645638Y-115416671D02*
X147145638Y-114559528D01*
X147145638Y-114559528D02*
X145645638Y-114559528D01*
X147145638Y-113845242D02*
X145645638Y-113845242D01*
X145645638Y-113845242D02*
X145645638Y-113488099D01*
X145645638Y-113488099D02*
X145717067Y-113273813D01*
X145717067Y-113273813D02*
X145859924Y-113130956D01*
X145859924Y-113130956D02*
X146002781Y-113059527D01*
X146002781Y-113059527D02*
X146288495Y-112988099D01*
X146288495Y-112988099D02*
X146502781Y-112988099D01*
X146502781Y-112988099D02*
X146788495Y-113059527D01*
X146788495Y-113059527D02*
X146931352Y-113130956D01*
X146931352Y-113130956D02*
X147074210Y-113273813D01*
X147074210Y-113273813D02*
X147145638Y-113488099D01*
X147145638Y-113488099D02*
X147145638Y-113845242D01*
D10*
X148234403Y-87967130D02*
X148234403Y-88538558D01*
X148234403Y-88538558D02*
X148196308Y-88652844D01*
X148196308Y-88652844D02*
X148120117Y-88729035D01*
X148120117Y-88729035D02*
X148005832Y-88767130D01*
X148005832Y-88767130D02*
X147929641Y-88767130D01*
X148958213Y-88233796D02*
X148958213Y-88767130D01*
X148767737Y-87929035D02*
X148577260Y-88500463D01*
X148577260Y-88500463D02*
X149072499Y-88500463D01*
X123588138Y-91585844D02*
X123588138Y-91085844D01*
X123588138Y-91085844D02*
X123707186Y-91085844D01*
X123707186Y-91085844D02*
X123778614Y-91109654D01*
X123778614Y-91109654D02*
X123826233Y-91157273D01*
X123826233Y-91157273D02*
X123850043Y-91204892D01*
X123850043Y-91204892D02*
X123873852Y-91300130D01*
X123873852Y-91300130D02*
X123873852Y-91371558D01*
X123873852Y-91371558D02*
X123850043Y-91466796D01*
X123850043Y-91466796D02*
X123826233Y-91514415D01*
X123826233Y-91514415D02*
X123778614Y-91562035D01*
X123778614Y-91562035D02*
X123707186Y-91585844D01*
X123707186Y-91585844D02*
X123588138Y-91585844D01*
X124040519Y-91085844D02*
X124350043Y-91085844D01*
X124350043Y-91085844D02*
X124183376Y-91276320D01*
X124183376Y-91276320D02*
X124254805Y-91276320D01*
X124254805Y-91276320D02*
X124302424Y-91300130D01*
X124302424Y-91300130D02*
X124326233Y-91323939D01*
X124326233Y-91323939D02*
X124350043Y-91371558D01*
X124350043Y-91371558D02*
X124350043Y-91490606D01*
X124350043Y-91490606D02*
X124326233Y-91538225D01*
X124326233Y-91538225D02*
X124302424Y-91562035D01*
X124302424Y-91562035D02*
X124254805Y-91585844D01*
X124254805Y-91585844D02*
X124111948Y-91585844D01*
X124111948Y-91585844D02*
X124064329Y-91562035D01*
X124064329Y-91562035D02*
X124040519Y-91538225D01*
X103132022Y-123440844D02*
X103132022Y-122940844D01*
X103132022Y-122940844D02*
X103251070Y-122940844D01*
X103251070Y-122940844D02*
X103322498Y-122964654D01*
X103322498Y-122964654D02*
X103370117Y-123012273D01*
X103370117Y-123012273D02*
X103393927Y-123059892D01*
X103393927Y-123059892D02*
X103417736Y-123155130D01*
X103417736Y-123155130D02*
X103417736Y-123226558D01*
X103417736Y-123226558D02*
X103393927Y-123321796D01*
X103393927Y-123321796D02*
X103370117Y-123369415D01*
X103370117Y-123369415D02*
X103322498Y-123417035D01*
X103322498Y-123417035D02*
X103251070Y-123440844D01*
X103251070Y-123440844D02*
X103132022Y-123440844D01*
X103703451Y-123155130D02*
X103655832Y-123131320D01*
X103655832Y-123131320D02*
X103632022Y-123107511D01*
X103632022Y-123107511D02*
X103608213Y-123059892D01*
X103608213Y-123059892D02*
X103608213Y-123036082D01*
X103608213Y-123036082D02*
X103632022Y-122988463D01*
X103632022Y-122988463D02*
X103655832Y-122964654D01*
X103655832Y-122964654D02*
X103703451Y-122940844D01*
X103703451Y-122940844D02*
X103798689Y-122940844D01*
X103798689Y-122940844D02*
X103846308Y-122964654D01*
X103846308Y-122964654D02*
X103870117Y-122988463D01*
X103870117Y-122988463D02*
X103893927Y-123036082D01*
X103893927Y-123036082D02*
X103893927Y-123059892D01*
X103893927Y-123059892D02*
X103870117Y-123107511D01*
X103870117Y-123107511D02*
X103846308Y-123131320D01*
X103846308Y-123131320D02*
X103798689Y-123155130D01*
X103798689Y-123155130D02*
X103703451Y-123155130D01*
X103703451Y-123155130D02*
X103655832Y-123178939D01*
X103655832Y-123178939D02*
X103632022Y-123202749D01*
X103632022Y-123202749D02*
X103608213Y-123250368D01*
X103608213Y-123250368D02*
X103608213Y-123345606D01*
X103608213Y-123345606D02*
X103632022Y-123393225D01*
X103632022Y-123393225D02*
X103655832Y-123417035D01*
X103655832Y-123417035D02*
X103703451Y-123440844D01*
X103703451Y-123440844D02*
X103798689Y-123440844D01*
X103798689Y-123440844D02*
X103846308Y-123417035D01*
X103846308Y-123417035D02*
X103870117Y-123393225D01*
X103870117Y-123393225D02*
X103893927Y-123345606D01*
X103893927Y-123345606D02*
X103893927Y-123250368D01*
X103893927Y-123250368D02*
X103870117Y-123202749D01*
X103870117Y-123202749D02*
X103846308Y-123178939D01*
X103846308Y-123178939D02*
X103798689Y-123155130D01*
X195865906Y-92668344D02*
X195865906Y-92168344D01*
X195865906Y-92168344D02*
X195984954Y-92168344D01*
X195984954Y-92168344D02*
X196056382Y-92192154D01*
X196056382Y-92192154D02*
X196104001Y-92239773D01*
X196104001Y-92239773D02*
X196127811Y-92287392D01*
X196127811Y-92287392D02*
X196151620Y-92382630D01*
X196151620Y-92382630D02*
X196151620Y-92454058D01*
X196151620Y-92454058D02*
X196127811Y-92549296D01*
X196127811Y-92549296D02*
X196104001Y-92596915D01*
X196104001Y-92596915D02*
X196056382Y-92644535D01*
X196056382Y-92644535D02*
X195984954Y-92668344D01*
X195984954Y-92668344D02*
X195865906Y-92668344D01*
X196627811Y-92668344D02*
X196342097Y-92668344D01*
X196484954Y-92668344D02*
X196484954Y-92168344D01*
X196484954Y-92168344D02*
X196437335Y-92239773D01*
X196437335Y-92239773D02*
X196389716Y-92287392D01*
X196389716Y-92287392D02*
X196342097Y-92311201D01*
X107715620Y-122727844D02*
X107548954Y-122489749D01*
X107429906Y-122727844D02*
X107429906Y-122227844D01*
X107429906Y-122227844D02*
X107620382Y-122227844D01*
X107620382Y-122227844D02*
X107668001Y-122251654D01*
X107668001Y-122251654D02*
X107691811Y-122275463D01*
X107691811Y-122275463D02*
X107715620Y-122323082D01*
X107715620Y-122323082D02*
X107715620Y-122394511D01*
X107715620Y-122394511D02*
X107691811Y-122442130D01*
X107691811Y-122442130D02*
X107668001Y-122465939D01*
X107668001Y-122465939D02*
X107620382Y-122489749D01*
X107620382Y-122489749D02*
X107429906Y-122489749D01*
X108191811Y-122727844D02*
X107906097Y-122727844D01*
X108048954Y-122727844D02*
X108048954Y-122227844D01*
X108048954Y-122227844D02*
X108001335Y-122299273D01*
X108001335Y-122299273D02*
X107953716Y-122346892D01*
X107953716Y-122346892D02*
X107906097Y-122370701D01*
X108429906Y-122727844D02*
X108525144Y-122727844D01*
X108525144Y-122727844D02*
X108572763Y-122704035D01*
X108572763Y-122704035D02*
X108596572Y-122680225D01*
X108596572Y-122680225D02*
X108644191Y-122608796D01*
X108644191Y-122608796D02*
X108668001Y-122513558D01*
X108668001Y-122513558D02*
X108668001Y-122323082D01*
X108668001Y-122323082D02*
X108644191Y-122275463D01*
X108644191Y-122275463D02*
X108620382Y-122251654D01*
X108620382Y-122251654D02*
X108572763Y-122227844D01*
X108572763Y-122227844D02*
X108477525Y-122227844D01*
X108477525Y-122227844D02*
X108429906Y-122251654D01*
X108429906Y-122251654D02*
X108406096Y-122275463D01*
X108406096Y-122275463D02*
X108382287Y-122323082D01*
X108382287Y-122323082D02*
X108382287Y-122442130D01*
X108382287Y-122442130D02*
X108406096Y-122489749D01*
X108406096Y-122489749D02*
X108429906Y-122513558D01*
X108429906Y-122513558D02*
X108477525Y-122537368D01*
X108477525Y-122537368D02*
X108572763Y-122537368D01*
X108572763Y-122537368D02*
X108620382Y-122513558D01*
X108620382Y-122513558D02*
X108644191Y-122489749D01*
X108644191Y-122489749D02*
X108668001Y-122442130D01*
X151649620Y-93545344D02*
X151482954Y-93307249D01*
X151363906Y-93545344D02*
X151363906Y-93045344D01*
X151363906Y-93045344D02*
X151554382Y-93045344D01*
X151554382Y-93045344D02*
X151602001Y-93069154D01*
X151602001Y-93069154D02*
X151625811Y-93092963D01*
X151625811Y-93092963D02*
X151649620Y-93140582D01*
X151649620Y-93140582D02*
X151649620Y-93212011D01*
X151649620Y-93212011D02*
X151625811Y-93259630D01*
X151625811Y-93259630D02*
X151602001Y-93283439D01*
X151602001Y-93283439D02*
X151554382Y-93307249D01*
X151554382Y-93307249D02*
X151363906Y-93307249D01*
X151816287Y-93045344D02*
X152149620Y-93045344D01*
X152149620Y-93045344D02*
X151935335Y-93545344D01*
X153845662Y-88898225D02*
X153821853Y-88922035D01*
X153821853Y-88922035D02*
X153750424Y-88945844D01*
X153750424Y-88945844D02*
X153702805Y-88945844D01*
X153702805Y-88945844D02*
X153631377Y-88922035D01*
X153631377Y-88922035D02*
X153583758Y-88874415D01*
X153583758Y-88874415D02*
X153559948Y-88826796D01*
X153559948Y-88826796D02*
X153536139Y-88731558D01*
X153536139Y-88731558D02*
X153536139Y-88660130D01*
X153536139Y-88660130D02*
X153559948Y-88564892D01*
X153559948Y-88564892D02*
X153583758Y-88517273D01*
X153583758Y-88517273D02*
X153631377Y-88469654D01*
X153631377Y-88469654D02*
X153702805Y-88445844D01*
X153702805Y-88445844D02*
X153750424Y-88445844D01*
X153750424Y-88445844D02*
X153821853Y-88469654D01*
X153821853Y-88469654D02*
X153845662Y-88493463D01*
X154012329Y-88445844D02*
X154321853Y-88445844D01*
X154321853Y-88445844D02*
X154155186Y-88636320D01*
X154155186Y-88636320D02*
X154226615Y-88636320D01*
X154226615Y-88636320D02*
X154274234Y-88660130D01*
X154274234Y-88660130D02*
X154298043Y-88683939D01*
X154298043Y-88683939D02*
X154321853Y-88731558D01*
X154321853Y-88731558D02*
X154321853Y-88850606D01*
X154321853Y-88850606D02*
X154298043Y-88898225D01*
X154298043Y-88898225D02*
X154274234Y-88922035D01*
X154274234Y-88922035D02*
X154226615Y-88945844D01*
X154226615Y-88945844D02*
X154083758Y-88945844D01*
X154083758Y-88945844D02*
X154036139Y-88922035D01*
X154036139Y-88922035D02*
X154012329Y-88898225D01*
X154750424Y-88612511D02*
X154750424Y-88945844D01*
X154631376Y-88422035D02*
X154512329Y-88779177D01*
X154512329Y-88779177D02*
X154821852Y-88779177D01*
X104694641Y-120167725D02*
X104670832Y-120191535D01*
X104670832Y-120191535D02*
X104599403Y-120215344D01*
X104599403Y-120215344D02*
X104551784Y-120215344D01*
X104551784Y-120215344D02*
X104480356Y-120191535D01*
X104480356Y-120191535D02*
X104432737Y-120143915D01*
X104432737Y-120143915D02*
X104408927Y-120096296D01*
X104408927Y-120096296D02*
X104385118Y-120001058D01*
X104385118Y-120001058D02*
X104385118Y-119929630D01*
X104385118Y-119929630D02*
X104408927Y-119834392D01*
X104408927Y-119834392D02*
X104432737Y-119786773D01*
X104432737Y-119786773D02*
X104480356Y-119739154D01*
X104480356Y-119739154D02*
X104551784Y-119715344D01*
X104551784Y-119715344D02*
X104599403Y-119715344D01*
X104599403Y-119715344D02*
X104670832Y-119739154D01*
X104670832Y-119739154D02*
X104694641Y-119762963D01*
X105170832Y-120215344D02*
X104885118Y-120215344D01*
X105027975Y-120215344D02*
X105027975Y-119715344D01*
X105027975Y-119715344D02*
X104980356Y-119786773D01*
X104980356Y-119786773D02*
X104932737Y-119834392D01*
X104932737Y-119834392D02*
X104885118Y-119858201D01*
X105623212Y-119715344D02*
X105385117Y-119715344D01*
X105385117Y-119715344D02*
X105361308Y-119953439D01*
X105361308Y-119953439D02*
X105385117Y-119929630D01*
X105385117Y-119929630D02*
X105432736Y-119905820D01*
X105432736Y-119905820D02*
X105551784Y-119905820D01*
X105551784Y-119905820D02*
X105599403Y-119929630D01*
X105599403Y-119929630D02*
X105623212Y-119953439D01*
X105623212Y-119953439D02*
X105647022Y-120001058D01*
X105647022Y-120001058D02*
X105647022Y-120120106D01*
X105647022Y-120120106D02*
X105623212Y-120167725D01*
X105623212Y-120167725D02*
X105599403Y-120191535D01*
X105599403Y-120191535D02*
X105551784Y-120215344D01*
X105551784Y-120215344D02*
X105432736Y-120215344D01*
X105432736Y-120215344D02*
X105385117Y-120191535D01*
X105385117Y-120191535D02*
X105361308Y-120167725D01*
X194610641Y-120548725D02*
X194586832Y-120572535D01*
X194586832Y-120572535D02*
X194515403Y-120596344D01*
X194515403Y-120596344D02*
X194467784Y-120596344D01*
X194467784Y-120596344D02*
X194396356Y-120572535D01*
X194396356Y-120572535D02*
X194348737Y-120524915D01*
X194348737Y-120524915D02*
X194324927Y-120477296D01*
X194324927Y-120477296D02*
X194301118Y-120382058D01*
X194301118Y-120382058D02*
X194301118Y-120310630D01*
X194301118Y-120310630D02*
X194324927Y-120215392D01*
X194324927Y-120215392D02*
X194348737Y-120167773D01*
X194348737Y-120167773D02*
X194396356Y-120120154D01*
X194396356Y-120120154D02*
X194467784Y-120096344D01*
X194467784Y-120096344D02*
X194515403Y-120096344D01*
X194515403Y-120096344D02*
X194586832Y-120120154D01*
X194586832Y-120120154D02*
X194610641Y-120143963D01*
X195086832Y-120596344D02*
X194801118Y-120596344D01*
X194943975Y-120596344D02*
X194943975Y-120096344D01*
X194943975Y-120096344D02*
X194896356Y-120167773D01*
X194896356Y-120167773D02*
X194848737Y-120215392D01*
X194848737Y-120215392D02*
X194801118Y-120239201D01*
X195253498Y-120096344D02*
X195586831Y-120096344D01*
X195586831Y-120096344D02*
X195372546Y-120596344D01*
D14*
X181036666Y-103206819D02*
X181036666Y-103921104D01*
X181036666Y-103921104D02*
X180989047Y-104063961D01*
X180989047Y-104063961D02*
X180893809Y-104159200D01*
X180893809Y-104159200D02*
X180750952Y-104206819D01*
X180750952Y-104206819D02*
X180655714Y-104206819D01*
X181417619Y-103206819D02*
X182036666Y-103206819D01*
X182036666Y-103206819D02*
X181703333Y-103587771D01*
X181703333Y-103587771D02*
X181846190Y-103587771D01*
X181846190Y-103587771D02*
X181941428Y-103635390D01*
X181941428Y-103635390D02*
X181989047Y-103683009D01*
X181989047Y-103683009D02*
X182036666Y-103778247D01*
X182036666Y-103778247D02*
X182036666Y-104016342D01*
X182036666Y-104016342D02*
X181989047Y-104111580D01*
X181989047Y-104111580D02*
X181941428Y-104159200D01*
X181941428Y-104159200D02*
X181846190Y-104206819D01*
X181846190Y-104206819D02*
X181560476Y-104206819D01*
X181560476Y-104206819D02*
X181465238Y-104159200D01*
X181465238Y-104159200D02*
X181417619Y-104111580D01*
D10*
X152827736Y-92280844D02*
X152661070Y-92042749D01*
X152542022Y-92280844D02*
X152542022Y-91780844D01*
X152542022Y-91780844D02*
X152732498Y-91780844D01*
X152732498Y-91780844D02*
X152780117Y-91804654D01*
X152780117Y-91804654D02*
X152803927Y-91828463D01*
X152803927Y-91828463D02*
X152827736Y-91876082D01*
X152827736Y-91876082D02*
X152827736Y-91947511D01*
X152827736Y-91947511D02*
X152803927Y-91995130D01*
X152803927Y-91995130D02*
X152780117Y-92018939D01*
X152780117Y-92018939D02*
X152732498Y-92042749D01*
X152732498Y-92042749D02*
X152542022Y-92042749D01*
X153065832Y-92280844D02*
X153161070Y-92280844D01*
X153161070Y-92280844D02*
X153208689Y-92257035D01*
X153208689Y-92257035D02*
X153232498Y-92233225D01*
X153232498Y-92233225D02*
X153280117Y-92161796D01*
X153280117Y-92161796D02*
X153303927Y-92066558D01*
X153303927Y-92066558D02*
X153303927Y-91876082D01*
X153303927Y-91876082D02*
X153280117Y-91828463D01*
X153280117Y-91828463D02*
X153256308Y-91804654D01*
X153256308Y-91804654D02*
X153208689Y-91780844D01*
X153208689Y-91780844D02*
X153113451Y-91780844D01*
X153113451Y-91780844D02*
X153065832Y-91804654D01*
X153065832Y-91804654D02*
X153042022Y-91828463D01*
X153042022Y-91828463D02*
X153018213Y-91876082D01*
X153018213Y-91876082D02*
X153018213Y-91995130D01*
X153018213Y-91995130D02*
X153042022Y-92042749D01*
X153042022Y-92042749D02*
X153065832Y-92066558D01*
X153065832Y-92066558D02*
X153113451Y-92090368D01*
X153113451Y-92090368D02*
X153208689Y-92090368D01*
X153208689Y-92090368D02*
X153256308Y-92066558D01*
X153256308Y-92066558D02*
X153280117Y-92042749D01*
X153280117Y-92042749D02*
X153303927Y-91995130D01*
D14*
X192167737Y-85189435D02*
X192310594Y-85237054D01*
X192310594Y-85237054D02*
X192548689Y-85237054D01*
X192548689Y-85237054D02*
X192643927Y-85189435D01*
X192643927Y-85189435D02*
X192691546Y-85141815D01*
X192691546Y-85141815D02*
X192739165Y-85046577D01*
X192739165Y-85046577D02*
X192739165Y-84951339D01*
X192739165Y-84951339D02*
X192691546Y-84856101D01*
X192691546Y-84856101D02*
X192643927Y-84808482D01*
X192643927Y-84808482D02*
X192548689Y-84760863D01*
X192548689Y-84760863D02*
X192358213Y-84713244D01*
X192358213Y-84713244D02*
X192262975Y-84665625D01*
X192262975Y-84665625D02*
X192215356Y-84618006D01*
X192215356Y-84618006D02*
X192167737Y-84522768D01*
X192167737Y-84522768D02*
X192167737Y-84427530D01*
X192167737Y-84427530D02*
X192215356Y-84332292D01*
X192215356Y-84332292D02*
X192262975Y-84284673D01*
X192262975Y-84284673D02*
X192358213Y-84237054D01*
X192358213Y-84237054D02*
X192596308Y-84237054D01*
X192596308Y-84237054D02*
X192739165Y-84284673D01*
X193072499Y-84237054D02*
X193310594Y-85237054D01*
X193310594Y-85237054D02*
X193501070Y-84522768D01*
X193501070Y-84522768D02*
X193691546Y-85237054D01*
X193691546Y-85237054D02*
X193929642Y-84237054D01*
X194739165Y-84237054D02*
X194548689Y-84237054D01*
X194548689Y-84237054D02*
X194453451Y-84284673D01*
X194453451Y-84284673D02*
X194405832Y-84332292D01*
X194405832Y-84332292D02*
X194310594Y-84475149D01*
X194310594Y-84475149D02*
X194262975Y-84665625D01*
X194262975Y-84665625D02*
X194262975Y-85046577D01*
X194262975Y-85046577D02*
X194310594Y-85141815D01*
X194310594Y-85141815D02*
X194358213Y-85189435D01*
X194358213Y-85189435D02*
X194453451Y-85237054D01*
X194453451Y-85237054D02*
X194643927Y-85237054D01*
X194643927Y-85237054D02*
X194739165Y-85189435D01*
X194739165Y-85189435D02*
X194786784Y-85141815D01*
X194786784Y-85141815D02*
X194834403Y-85046577D01*
X194834403Y-85046577D02*
X194834403Y-84808482D01*
X194834403Y-84808482D02*
X194786784Y-84713244D01*
X194786784Y-84713244D02*
X194739165Y-84665625D01*
X194739165Y-84665625D02*
X194643927Y-84618006D01*
X194643927Y-84618006D02*
X194453451Y-84618006D01*
X194453451Y-84618006D02*
X194358213Y-84665625D01*
X194358213Y-84665625D02*
X194310594Y-84713244D01*
X194310594Y-84713244D02*
X194262975Y-84808482D01*
D10*
X147891546Y-106655130D02*
X147891546Y-107302749D01*
X147891546Y-107302749D02*
X147929641Y-107378939D01*
X147929641Y-107378939D02*
X147967736Y-107417035D01*
X147967736Y-107417035D02*
X148043927Y-107455130D01*
X148043927Y-107455130D02*
X148196308Y-107455130D01*
X148196308Y-107455130D02*
X148272498Y-107417035D01*
X148272498Y-107417035D02*
X148310593Y-107378939D01*
X148310593Y-107378939D02*
X148348689Y-107302749D01*
X148348689Y-107302749D02*
X148348689Y-106655130D01*
X148653450Y-106655130D02*
X149148688Y-106655130D01*
X149148688Y-106655130D02*
X148882022Y-106959892D01*
X148882022Y-106959892D02*
X148996307Y-106959892D01*
X148996307Y-106959892D02*
X149072498Y-106997987D01*
X149072498Y-106997987D02*
X149110593Y-107036082D01*
X149110593Y-107036082D02*
X149148688Y-107112273D01*
X149148688Y-107112273D02*
X149148688Y-107302749D01*
X149148688Y-107302749D02*
X149110593Y-107378939D01*
X149110593Y-107378939D02*
X149072498Y-107417035D01*
X149072498Y-107417035D02*
X148996307Y-107455130D01*
X148996307Y-107455130D02*
X148767736Y-107455130D01*
X148767736Y-107455130D02*
X148691545Y-107417035D01*
X148691545Y-107417035D02*
X148653450Y-107378939D01*
D14*
X182167737Y-85189435D02*
X182310594Y-85237054D01*
X182310594Y-85237054D02*
X182548689Y-85237054D01*
X182548689Y-85237054D02*
X182643927Y-85189435D01*
X182643927Y-85189435D02*
X182691546Y-85141815D01*
X182691546Y-85141815D02*
X182739165Y-85046577D01*
X182739165Y-85046577D02*
X182739165Y-84951339D01*
X182739165Y-84951339D02*
X182691546Y-84856101D01*
X182691546Y-84856101D02*
X182643927Y-84808482D01*
X182643927Y-84808482D02*
X182548689Y-84760863D01*
X182548689Y-84760863D02*
X182358213Y-84713244D01*
X182358213Y-84713244D02*
X182262975Y-84665625D01*
X182262975Y-84665625D02*
X182215356Y-84618006D01*
X182215356Y-84618006D02*
X182167737Y-84522768D01*
X182167737Y-84522768D02*
X182167737Y-84427530D01*
X182167737Y-84427530D02*
X182215356Y-84332292D01*
X182215356Y-84332292D02*
X182262975Y-84284673D01*
X182262975Y-84284673D02*
X182358213Y-84237054D01*
X182358213Y-84237054D02*
X182596308Y-84237054D01*
X182596308Y-84237054D02*
X182739165Y-84284673D01*
X183072499Y-84237054D02*
X183310594Y-85237054D01*
X183310594Y-85237054D02*
X183501070Y-84522768D01*
X183501070Y-84522768D02*
X183691546Y-85237054D01*
X183691546Y-85237054D02*
X183929642Y-84237054D01*
X184786784Y-84237054D02*
X184310594Y-84237054D01*
X184310594Y-84237054D02*
X184262975Y-84713244D01*
X184262975Y-84713244D02*
X184310594Y-84665625D01*
X184310594Y-84665625D02*
X184405832Y-84618006D01*
X184405832Y-84618006D02*
X184643927Y-84618006D01*
X184643927Y-84618006D02*
X184739165Y-84665625D01*
X184739165Y-84665625D02*
X184786784Y-84713244D01*
X184786784Y-84713244D02*
X184834403Y-84808482D01*
X184834403Y-84808482D02*
X184834403Y-85046577D01*
X184834403Y-85046577D02*
X184786784Y-85141815D01*
X184786784Y-85141815D02*
X184739165Y-85189435D01*
X184739165Y-85189435D02*
X184643927Y-85237054D01*
X184643927Y-85237054D02*
X184405832Y-85237054D01*
X184405832Y-85237054D02*
X184310594Y-85189435D01*
X184310594Y-85189435D02*
X184262975Y-85141815D01*
X131737165Y-91364054D02*
X131737165Y-92173577D01*
X131737165Y-92173577D02*
X131784784Y-92268815D01*
X131784784Y-92268815D02*
X131832403Y-92316435D01*
X131832403Y-92316435D02*
X131927641Y-92364054D01*
X131927641Y-92364054D02*
X132118117Y-92364054D01*
X132118117Y-92364054D02*
X132213355Y-92316435D01*
X132213355Y-92316435D02*
X132260974Y-92268815D01*
X132260974Y-92268815D02*
X132308593Y-92173577D01*
X132308593Y-92173577D02*
X132308593Y-91364054D01*
X132689546Y-91364054D02*
X133356212Y-91364054D01*
X133356212Y-91364054D02*
X132927641Y-92364054D01*
D10*
X150195736Y-99009844D02*
X150029070Y-98771749D01*
X149910022Y-99009844D02*
X149910022Y-98509844D01*
X149910022Y-98509844D02*
X150100498Y-98509844D01*
X150100498Y-98509844D02*
X150148117Y-98533654D01*
X150148117Y-98533654D02*
X150171927Y-98557463D01*
X150171927Y-98557463D02*
X150195736Y-98605082D01*
X150195736Y-98605082D02*
X150195736Y-98676511D01*
X150195736Y-98676511D02*
X150171927Y-98724130D01*
X150171927Y-98724130D02*
X150148117Y-98747939D01*
X150148117Y-98747939D02*
X150100498Y-98771749D01*
X150100498Y-98771749D02*
X149910022Y-98771749D01*
X150481451Y-98724130D02*
X150433832Y-98700320D01*
X150433832Y-98700320D02*
X150410022Y-98676511D01*
X150410022Y-98676511D02*
X150386213Y-98628892D01*
X150386213Y-98628892D02*
X150386213Y-98605082D01*
X150386213Y-98605082D02*
X150410022Y-98557463D01*
X150410022Y-98557463D02*
X150433832Y-98533654D01*
X150433832Y-98533654D02*
X150481451Y-98509844D01*
X150481451Y-98509844D02*
X150576689Y-98509844D01*
X150576689Y-98509844D02*
X150624308Y-98533654D01*
X150624308Y-98533654D02*
X150648117Y-98557463D01*
X150648117Y-98557463D02*
X150671927Y-98605082D01*
X150671927Y-98605082D02*
X150671927Y-98628892D01*
X150671927Y-98628892D02*
X150648117Y-98676511D01*
X150648117Y-98676511D02*
X150624308Y-98700320D01*
X150624308Y-98700320D02*
X150576689Y-98724130D01*
X150576689Y-98724130D02*
X150481451Y-98724130D01*
X150481451Y-98724130D02*
X150433832Y-98747939D01*
X150433832Y-98747939D02*
X150410022Y-98771749D01*
X150410022Y-98771749D02*
X150386213Y-98819368D01*
X150386213Y-98819368D02*
X150386213Y-98914606D01*
X150386213Y-98914606D02*
X150410022Y-98962225D01*
X150410022Y-98962225D02*
X150433832Y-98986035D01*
X150433832Y-98986035D02*
X150481451Y-99009844D01*
X150481451Y-99009844D02*
X150576689Y-99009844D01*
X150576689Y-99009844D02*
X150624308Y-98986035D01*
X150624308Y-98986035D02*
X150648117Y-98962225D01*
X150648117Y-98962225D02*
X150671927Y-98914606D01*
X150671927Y-98914606D02*
X150671927Y-98819368D01*
X150671927Y-98819368D02*
X150648117Y-98771749D01*
X150648117Y-98771749D02*
X150624308Y-98747939D01*
X150624308Y-98747939D02*
X150576689Y-98724130D01*
D14*
X132439165Y-97827054D02*
X132439165Y-98636577D01*
X132439165Y-98636577D02*
X132486784Y-98731815D01*
X132486784Y-98731815D02*
X132534403Y-98779435D01*
X132534403Y-98779435D02*
X132629641Y-98827054D01*
X132629641Y-98827054D02*
X132820117Y-98827054D01*
X132820117Y-98827054D02*
X132915355Y-98779435D01*
X132915355Y-98779435D02*
X132962974Y-98731815D01*
X132962974Y-98731815D02*
X133010593Y-98636577D01*
X133010593Y-98636577D02*
X133010593Y-97827054D01*
X133915355Y-97827054D02*
X133724879Y-97827054D01*
X133724879Y-97827054D02*
X133629641Y-97874673D01*
X133629641Y-97874673D02*
X133582022Y-97922292D01*
X133582022Y-97922292D02*
X133486784Y-98065149D01*
X133486784Y-98065149D02*
X133439165Y-98255625D01*
X133439165Y-98255625D02*
X133439165Y-98636577D01*
X133439165Y-98636577D02*
X133486784Y-98731815D01*
X133486784Y-98731815D02*
X133534403Y-98779435D01*
X133534403Y-98779435D02*
X133629641Y-98827054D01*
X133629641Y-98827054D02*
X133820117Y-98827054D01*
X133820117Y-98827054D02*
X133915355Y-98779435D01*
X133915355Y-98779435D02*
X133962974Y-98731815D01*
X133962974Y-98731815D02*
X134010593Y-98636577D01*
X134010593Y-98636577D02*
X134010593Y-98398482D01*
X134010593Y-98398482D02*
X133962974Y-98303244D01*
X133962974Y-98303244D02*
X133915355Y-98255625D01*
X133915355Y-98255625D02*
X133820117Y-98208006D01*
X133820117Y-98208006D02*
X133629641Y-98208006D01*
X133629641Y-98208006D02*
X133534403Y-98255625D01*
X133534403Y-98255625D02*
X133486784Y-98303244D01*
X133486784Y-98303244D02*
X133439165Y-98398482D01*
D10*
X148647661Y-92573463D02*
X148600042Y-92549654D01*
X148600042Y-92549654D02*
X148552423Y-92502035D01*
X148552423Y-92502035D02*
X148480995Y-92430606D01*
X148480995Y-92430606D02*
X148433376Y-92406796D01*
X148433376Y-92406796D02*
X148385757Y-92406796D01*
X148409566Y-92525844D02*
X148361947Y-92502035D01*
X148361947Y-92502035D02*
X148314328Y-92454415D01*
X148314328Y-92454415D02*
X148290519Y-92359177D01*
X148290519Y-92359177D02*
X148290519Y-92192511D01*
X148290519Y-92192511D02*
X148314328Y-92097273D01*
X148314328Y-92097273D02*
X148361947Y-92049654D01*
X148361947Y-92049654D02*
X148409566Y-92025844D01*
X148409566Y-92025844D02*
X148504804Y-92025844D01*
X148504804Y-92025844D02*
X148552423Y-92049654D01*
X148552423Y-92049654D02*
X148600042Y-92097273D01*
X148600042Y-92097273D02*
X148623852Y-92192511D01*
X148623852Y-92192511D02*
X148623852Y-92359177D01*
X148623852Y-92359177D02*
X148600042Y-92454415D01*
X148600042Y-92454415D02*
X148552423Y-92502035D01*
X148552423Y-92502035D02*
X148504804Y-92525844D01*
X148504804Y-92525844D02*
X148409566Y-92525844D01*
X149076233Y-92025844D02*
X148838138Y-92025844D01*
X148838138Y-92025844D02*
X148814329Y-92263939D01*
X148814329Y-92263939D02*
X148838138Y-92240130D01*
X148838138Y-92240130D02*
X148885757Y-92216320D01*
X148885757Y-92216320D02*
X149004805Y-92216320D01*
X149004805Y-92216320D02*
X149052424Y-92240130D01*
X149052424Y-92240130D02*
X149076233Y-92263939D01*
X149076233Y-92263939D02*
X149100043Y-92311558D01*
X149100043Y-92311558D02*
X149100043Y-92430606D01*
X149100043Y-92430606D02*
X149076233Y-92478225D01*
X149076233Y-92478225D02*
X149052424Y-92502035D01*
X149052424Y-92502035D02*
X149004805Y-92525844D01*
X149004805Y-92525844D02*
X148885757Y-92525844D01*
X148885757Y-92525844D02*
X148838138Y-92502035D01*
X148838138Y-92502035D02*
X148814329Y-92478225D01*
X139797641Y-91869225D02*
X139773832Y-91893035D01*
X139773832Y-91893035D02*
X139702403Y-91916844D01*
X139702403Y-91916844D02*
X139654784Y-91916844D01*
X139654784Y-91916844D02*
X139583356Y-91893035D01*
X139583356Y-91893035D02*
X139535737Y-91845415D01*
X139535737Y-91845415D02*
X139511927Y-91797796D01*
X139511927Y-91797796D02*
X139488118Y-91702558D01*
X139488118Y-91702558D02*
X139488118Y-91631130D01*
X139488118Y-91631130D02*
X139511927Y-91535892D01*
X139511927Y-91535892D02*
X139535737Y-91488273D01*
X139535737Y-91488273D02*
X139583356Y-91440654D01*
X139583356Y-91440654D02*
X139654784Y-91416844D01*
X139654784Y-91416844D02*
X139702403Y-91416844D01*
X139702403Y-91416844D02*
X139773832Y-91440654D01*
X139773832Y-91440654D02*
X139797641Y-91464463D01*
X140273832Y-91916844D02*
X139988118Y-91916844D01*
X140130975Y-91916844D02*
X140130975Y-91416844D01*
X140130975Y-91416844D02*
X140083356Y-91488273D01*
X140083356Y-91488273D02*
X140035737Y-91535892D01*
X140035737Y-91535892D02*
X139988118Y-91559701D01*
X140583355Y-91416844D02*
X140630974Y-91416844D01*
X140630974Y-91416844D02*
X140678593Y-91440654D01*
X140678593Y-91440654D02*
X140702403Y-91464463D01*
X140702403Y-91464463D02*
X140726212Y-91512082D01*
X140726212Y-91512082D02*
X140750022Y-91607320D01*
X140750022Y-91607320D02*
X140750022Y-91726368D01*
X140750022Y-91726368D02*
X140726212Y-91821606D01*
X140726212Y-91821606D02*
X140702403Y-91869225D01*
X140702403Y-91869225D02*
X140678593Y-91893035D01*
X140678593Y-91893035D02*
X140630974Y-91916844D01*
X140630974Y-91916844D02*
X140583355Y-91916844D01*
X140583355Y-91916844D02*
X140535736Y-91893035D01*
X140535736Y-91893035D02*
X140511927Y-91869225D01*
X140511927Y-91869225D02*
X140488117Y-91821606D01*
X140488117Y-91821606D02*
X140464308Y-91726368D01*
X140464308Y-91726368D02*
X140464308Y-91607320D01*
X140464308Y-91607320D02*
X140488117Y-91512082D01*
X140488117Y-91512082D02*
X140511927Y-91464463D01*
X140511927Y-91464463D02*
X140535736Y-91440654D01*
X140535736Y-91440654D02*
X140583355Y-91416844D01*
X156483620Y-104058844D02*
X156316954Y-103820749D01*
X156197906Y-104058844D02*
X156197906Y-103558844D01*
X156197906Y-103558844D02*
X156388382Y-103558844D01*
X156388382Y-103558844D02*
X156436001Y-103582654D01*
X156436001Y-103582654D02*
X156459811Y-103606463D01*
X156459811Y-103606463D02*
X156483620Y-103654082D01*
X156483620Y-103654082D02*
X156483620Y-103725511D01*
X156483620Y-103725511D02*
X156459811Y-103773130D01*
X156459811Y-103773130D02*
X156436001Y-103796939D01*
X156436001Y-103796939D02*
X156388382Y-103820749D01*
X156388382Y-103820749D02*
X156197906Y-103820749D01*
X156912192Y-103725511D02*
X156912192Y-104058844D01*
X156793144Y-103535035D02*
X156674097Y-103892177D01*
X156674097Y-103892177D02*
X156983620Y-103892177D01*
X157269334Y-103558844D02*
X157316953Y-103558844D01*
X157316953Y-103558844D02*
X157364572Y-103582654D01*
X157364572Y-103582654D02*
X157388382Y-103606463D01*
X157388382Y-103606463D02*
X157412191Y-103654082D01*
X157412191Y-103654082D02*
X157436001Y-103749320D01*
X157436001Y-103749320D02*
X157436001Y-103868368D01*
X157436001Y-103868368D02*
X157412191Y-103963606D01*
X157412191Y-103963606D02*
X157388382Y-104011225D01*
X157388382Y-104011225D02*
X157364572Y-104035035D01*
X157364572Y-104035035D02*
X157316953Y-104058844D01*
X157316953Y-104058844D02*
X157269334Y-104058844D01*
X157269334Y-104058844D02*
X157221715Y-104035035D01*
X157221715Y-104035035D02*
X157197906Y-104011225D01*
X157197906Y-104011225D02*
X157174096Y-103963606D01*
X157174096Y-103963606D02*
X157150287Y-103868368D01*
X157150287Y-103868368D02*
X157150287Y-103749320D01*
X157150287Y-103749320D02*
X157174096Y-103654082D01*
X157174096Y-103654082D02*
X157197906Y-103606463D01*
X157197906Y-103606463D02*
X157221715Y-103582654D01*
X157221715Y-103582654D02*
X157269334Y-103558844D01*
D14*
X133690481Y-103967054D02*
X133690481Y-104776577D01*
X133690481Y-104776577D02*
X133738100Y-104871815D01*
X133738100Y-104871815D02*
X133785719Y-104919435D01*
X133785719Y-104919435D02*
X133880957Y-104967054D01*
X133880957Y-104967054D02*
X134071433Y-104967054D01*
X134071433Y-104967054D02*
X134166671Y-104919435D01*
X134166671Y-104919435D02*
X134214290Y-104871815D01*
X134214290Y-104871815D02*
X134261909Y-104776577D01*
X134261909Y-104776577D02*
X134261909Y-103967054D01*
X134690481Y-104062292D02*
X134738100Y-104014673D01*
X134738100Y-104014673D02*
X134833338Y-103967054D01*
X134833338Y-103967054D02*
X135071433Y-103967054D01*
X135071433Y-103967054D02*
X135166671Y-104014673D01*
X135166671Y-104014673D02*
X135214290Y-104062292D01*
X135214290Y-104062292D02*
X135261909Y-104157530D01*
X135261909Y-104157530D02*
X135261909Y-104252768D01*
X135261909Y-104252768D02*
X135214290Y-104395625D01*
X135214290Y-104395625D02*
X134642862Y-104967054D01*
X134642862Y-104967054D02*
X135261909Y-104967054D01*
X143039165Y-95799554D02*
X143039165Y-96609077D01*
X143039165Y-96609077D02*
X143086784Y-96704315D01*
X143086784Y-96704315D02*
X143134403Y-96751935D01*
X143134403Y-96751935D02*
X143229641Y-96799554D01*
X143229641Y-96799554D02*
X143420117Y-96799554D01*
X143420117Y-96799554D02*
X143515355Y-96751935D01*
X143515355Y-96751935D02*
X143562974Y-96704315D01*
X143562974Y-96704315D02*
X143610593Y-96609077D01*
X143610593Y-96609077D02*
X143610593Y-95799554D01*
X144515355Y-96132887D02*
X144515355Y-96799554D01*
X144277260Y-95751935D02*
X144039165Y-96466220D01*
X144039165Y-96466220D02*
X144658212Y-96466220D01*
D10*
X197501852Y-92708225D02*
X197478043Y-92732035D01*
X197478043Y-92732035D02*
X197406614Y-92755844D01*
X197406614Y-92755844D02*
X197358995Y-92755844D01*
X197358995Y-92755844D02*
X197287567Y-92732035D01*
X197287567Y-92732035D02*
X197239948Y-92684415D01*
X197239948Y-92684415D02*
X197216138Y-92636796D01*
X197216138Y-92636796D02*
X197192329Y-92541558D01*
X197192329Y-92541558D02*
X197192329Y-92470130D01*
X197192329Y-92470130D02*
X197216138Y-92374892D01*
X197216138Y-92374892D02*
X197239948Y-92327273D01*
X197239948Y-92327273D02*
X197287567Y-92279654D01*
X197287567Y-92279654D02*
X197358995Y-92255844D01*
X197358995Y-92255844D02*
X197406614Y-92255844D01*
X197406614Y-92255844D02*
X197478043Y-92279654D01*
X197478043Y-92279654D02*
X197501852Y-92303463D01*
X197930424Y-92255844D02*
X197835186Y-92255844D01*
X197835186Y-92255844D02*
X197787567Y-92279654D01*
X197787567Y-92279654D02*
X197763757Y-92303463D01*
X197763757Y-92303463D02*
X197716138Y-92374892D01*
X197716138Y-92374892D02*
X197692329Y-92470130D01*
X197692329Y-92470130D02*
X197692329Y-92660606D01*
X197692329Y-92660606D02*
X197716138Y-92708225D01*
X197716138Y-92708225D02*
X197739948Y-92732035D01*
X197739948Y-92732035D02*
X197787567Y-92755844D01*
X197787567Y-92755844D02*
X197882805Y-92755844D01*
X197882805Y-92755844D02*
X197930424Y-92732035D01*
X197930424Y-92732035D02*
X197954233Y-92708225D01*
X197954233Y-92708225D02*
X197978043Y-92660606D01*
X197978043Y-92660606D02*
X197978043Y-92541558D01*
X197978043Y-92541558D02*
X197954233Y-92493939D01*
X197954233Y-92493939D02*
X197930424Y-92470130D01*
X197930424Y-92470130D02*
X197882805Y-92446320D01*
X197882805Y-92446320D02*
X197787567Y-92446320D01*
X197787567Y-92446320D02*
X197739948Y-92470130D01*
X197739948Y-92470130D02*
X197716138Y-92493939D01*
X197716138Y-92493939D02*
X197692329Y-92541558D01*
D14*
X152167737Y-122179435D02*
X152310594Y-122227054D01*
X152310594Y-122227054D02*
X152548689Y-122227054D01*
X152548689Y-122227054D02*
X152643927Y-122179435D01*
X152643927Y-122179435D02*
X152691546Y-122131815D01*
X152691546Y-122131815D02*
X152739165Y-122036577D01*
X152739165Y-122036577D02*
X152739165Y-121941339D01*
X152739165Y-121941339D02*
X152691546Y-121846101D01*
X152691546Y-121846101D02*
X152643927Y-121798482D01*
X152643927Y-121798482D02*
X152548689Y-121750863D01*
X152548689Y-121750863D02*
X152358213Y-121703244D01*
X152358213Y-121703244D02*
X152262975Y-121655625D01*
X152262975Y-121655625D02*
X152215356Y-121608006D01*
X152215356Y-121608006D02*
X152167737Y-121512768D01*
X152167737Y-121512768D02*
X152167737Y-121417530D01*
X152167737Y-121417530D02*
X152215356Y-121322292D01*
X152215356Y-121322292D02*
X152262975Y-121274673D01*
X152262975Y-121274673D02*
X152358213Y-121227054D01*
X152358213Y-121227054D02*
X152596308Y-121227054D01*
X152596308Y-121227054D02*
X152739165Y-121274673D01*
X153072499Y-121227054D02*
X153310594Y-122227054D01*
X153310594Y-122227054D02*
X153501070Y-121512768D01*
X153501070Y-121512768D02*
X153691546Y-122227054D01*
X153691546Y-122227054D02*
X153929642Y-121227054D01*
X154358213Y-122227054D02*
X154548689Y-122227054D01*
X154548689Y-122227054D02*
X154643927Y-122179435D01*
X154643927Y-122179435D02*
X154691546Y-122131815D01*
X154691546Y-122131815D02*
X154786784Y-121988958D01*
X154786784Y-121988958D02*
X154834403Y-121798482D01*
X154834403Y-121798482D02*
X154834403Y-121417530D01*
X154834403Y-121417530D02*
X154786784Y-121322292D01*
X154786784Y-121322292D02*
X154739165Y-121274673D01*
X154739165Y-121274673D02*
X154643927Y-121227054D01*
X154643927Y-121227054D02*
X154453451Y-121227054D01*
X154453451Y-121227054D02*
X154358213Y-121274673D01*
X154358213Y-121274673D02*
X154310594Y-121322292D01*
X154310594Y-121322292D02*
X154262975Y-121417530D01*
X154262975Y-121417530D02*
X154262975Y-121655625D01*
X154262975Y-121655625D02*
X154310594Y-121750863D01*
X154310594Y-121750863D02*
X154358213Y-121798482D01*
X154358213Y-121798482D02*
X154453451Y-121846101D01*
X154453451Y-121846101D02*
X154643927Y-121846101D01*
X154643927Y-121846101D02*
X154739165Y-121798482D01*
X154739165Y-121798482D02*
X154786784Y-121750863D01*
X154786784Y-121750863D02*
X154834403Y-121655625D01*
D10*
X148647661Y-97143463D02*
X148600042Y-97119654D01*
X148600042Y-97119654D02*
X148552423Y-97072035D01*
X148552423Y-97072035D02*
X148480995Y-97000606D01*
X148480995Y-97000606D02*
X148433376Y-96976796D01*
X148433376Y-96976796D02*
X148385757Y-96976796D01*
X148409566Y-97095844D02*
X148361947Y-97072035D01*
X148361947Y-97072035D02*
X148314328Y-97024415D01*
X148314328Y-97024415D02*
X148290519Y-96929177D01*
X148290519Y-96929177D02*
X148290519Y-96762511D01*
X148290519Y-96762511D02*
X148314328Y-96667273D01*
X148314328Y-96667273D02*
X148361947Y-96619654D01*
X148361947Y-96619654D02*
X148409566Y-96595844D01*
X148409566Y-96595844D02*
X148504804Y-96595844D01*
X148504804Y-96595844D02*
X148552423Y-96619654D01*
X148552423Y-96619654D02*
X148600042Y-96667273D01*
X148600042Y-96667273D02*
X148623852Y-96762511D01*
X148623852Y-96762511D02*
X148623852Y-96929177D01*
X148623852Y-96929177D02*
X148600042Y-97024415D01*
X148600042Y-97024415D02*
X148552423Y-97072035D01*
X148552423Y-97072035D02*
X148504804Y-97095844D01*
X148504804Y-97095844D02*
X148409566Y-97095844D01*
X149052424Y-96595844D02*
X148957186Y-96595844D01*
X148957186Y-96595844D02*
X148909567Y-96619654D01*
X148909567Y-96619654D02*
X148885757Y-96643463D01*
X148885757Y-96643463D02*
X148838138Y-96714892D01*
X148838138Y-96714892D02*
X148814329Y-96810130D01*
X148814329Y-96810130D02*
X148814329Y-97000606D01*
X148814329Y-97000606D02*
X148838138Y-97048225D01*
X148838138Y-97048225D02*
X148861948Y-97072035D01*
X148861948Y-97072035D02*
X148909567Y-97095844D01*
X148909567Y-97095844D02*
X149004805Y-97095844D01*
X149004805Y-97095844D02*
X149052424Y-97072035D01*
X149052424Y-97072035D02*
X149076233Y-97048225D01*
X149076233Y-97048225D02*
X149100043Y-97000606D01*
X149100043Y-97000606D02*
X149100043Y-96881558D01*
X149100043Y-96881558D02*
X149076233Y-96833939D01*
X149076233Y-96833939D02*
X149052424Y-96810130D01*
X149052424Y-96810130D02*
X149004805Y-96786320D01*
X149004805Y-96786320D02*
X148909567Y-96786320D01*
X148909567Y-96786320D02*
X148861948Y-96810130D01*
X148861948Y-96810130D02*
X148838138Y-96833939D01*
X148838138Y-96833939D02*
X148814329Y-96881558D01*
X156545736Y-89583225D02*
X156521927Y-89607035D01*
X156521927Y-89607035D02*
X156450498Y-89630844D01*
X156450498Y-89630844D02*
X156402879Y-89630844D01*
X156402879Y-89630844D02*
X156331451Y-89607035D01*
X156331451Y-89607035D02*
X156283832Y-89559415D01*
X156283832Y-89559415D02*
X156260022Y-89511796D01*
X156260022Y-89511796D02*
X156236213Y-89416558D01*
X156236213Y-89416558D02*
X156236213Y-89345130D01*
X156236213Y-89345130D02*
X156260022Y-89249892D01*
X156260022Y-89249892D02*
X156283832Y-89202273D01*
X156283832Y-89202273D02*
X156331451Y-89154654D01*
X156331451Y-89154654D02*
X156402879Y-89130844D01*
X156402879Y-89130844D02*
X156450498Y-89130844D01*
X156450498Y-89130844D02*
X156521927Y-89154654D01*
X156521927Y-89154654D02*
X156545736Y-89178463D01*
X156831451Y-89345130D02*
X156783832Y-89321320D01*
X156783832Y-89321320D02*
X156760022Y-89297511D01*
X156760022Y-89297511D02*
X156736213Y-89249892D01*
X156736213Y-89249892D02*
X156736213Y-89226082D01*
X156736213Y-89226082D02*
X156760022Y-89178463D01*
X156760022Y-89178463D02*
X156783832Y-89154654D01*
X156783832Y-89154654D02*
X156831451Y-89130844D01*
X156831451Y-89130844D02*
X156926689Y-89130844D01*
X156926689Y-89130844D02*
X156974308Y-89154654D01*
X156974308Y-89154654D02*
X156998117Y-89178463D01*
X156998117Y-89178463D02*
X157021927Y-89226082D01*
X157021927Y-89226082D02*
X157021927Y-89249892D01*
X157021927Y-89249892D02*
X156998117Y-89297511D01*
X156998117Y-89297511D02*
X156974308Y-89321320D01*
X156974308Y-89321320D02*
X156926689Y-89345130D01*
X156926689Y-89345130D02*
X156831451Y-89345130D01*
X156831451Y-89345130D02*
X156783832Y-89368939D01*
X156783832Y-89368939D02*
X156760022Y-89392749D01*
X156760022Y-89392749D02*
X156736213Y-89440368D01*
X156736213Y-89440368D02*
X156736213Y-89535606D01*
X156736213Y-89535606D02*
X156760022Y-89583225D01*
X156760022Y-89583225D02*
X156783832Y-89607035D01*
X156783832Y-89607035D02*
X156831451Y-89630844D01*
X156831451Y-89630844D02*
X156926689Y-89630844D01*
X156926689Y-89630844D02*
X156974308Y-89607035D01*
X156974308Y-89607035D02*
X156998117Y-89583225D01*
X156998117Y-89583225D02*
X157021927Y-89535606D01*
X157021927Y-89535606D02*
X157021927Y-89440368D01*
X157021927Y-89440368D02*
X156998117Y-89392749D01*
X156998117Y-89392749D02*
X156974308Y-89368939D01*
X156974308Y-89368939D02*
X156926689Y-89345130D01*
X135098641Y-87184344D02*
X134931975Y-86946249D01*
X134812927Y-87184344D02*
X134812927Y-86684344D01*
X134812927Y-86684344D02*
X135003403Y-86684344D01*
X135003403Y-86684344D02*
X135051022Y-86708154D01*
X135051022Y-86708154D02*
X135074832Y-86731963D01*
X135074832Y-86731963D02*
X135098641Y-86779582D01*
X135098641Y-86779582D02*
X135098641Y-86851011D01*
X135098641Y-86851011D02*
X135074832Y-86898630D01*
X135074832Y-86898630D02*
X135051022Y-86922439D01*
X135051022Y-86922439D02*
X135003403Y-86946249D01*
X135003403Y-86946249D02*
X134812927Y-86946249D01*
X135574832Y-87184344D02*
X135289118Y-87184344D01*
X135431975Y-87184344D02*
X135431975Y-86684344D01*
X135431975Y-86684344D02*
X135384356Y-86755773D01*
X135384356Y-86755773D02*
X135336737Y-86803392D01*
X135336737Y-86803392D02*
X135289118Y-86827201D01*
X135860546Y-86898630D02*
X135812927Y-86874820D01*
X135812927Y-86874820D02*
X135789117Y-86851011D01*
X135789117Y-86851011D02*
X135765308Y-86803392D01*
X135765308Y-86803392D02*
X135765308Y-86779582D01*
X135765308Y-86779582D02*
X135789117Y-86731963D01*
X135789117Y-86731963D02*
X135812927Y-86708154D01*
X135812927Y-86708154D02*
X135860546Y-86684344D01*
X135860546Y-86684344D02*
X135955784Y-86684344D01*
X135955784Y-86684344D02*
X136003403Y-86708154D01*
X136003403Y-86708154D02*
X136027212Y-86731963D01*
X136027212Y-86731963D02*
X136051022Y-86779582D01*
X136051022Y-86779582D02*
X136051022Y-86803392D01*
X136051022Y-86803392D02*
X136027212Y-86851011D01*
X136027212Y-86851011D02*
X136003403Y-86874820D01*
X136003403Y-86874820D02*
X135955784Y-86898630D01*
X135955784Y-86898630D02*
X135860546Y-86898630D01*
X135860546Y-86898630D02*
X135812927Y-86922439D01*
X135812927Y-86922439D02*
X135789117Y-86946249D01*
X135789117Y-86946249D02*
X135765308Y-86993868D01*
X135765308Y-86993868D02*
X135765308Y-87089106D01*
X135765308Y-87089106D02*
X135789117Y-87136725D01*
X135789117Y-87136725D02*
X135812927Y-87160535D01*
X135812927Y-87160535D02*
X135860546Y-87184344D01*
X135860546Y-87184344D02*
X135955784Y-87184344D01*
X135955784Y-87184344D02*
X136003403Y-87160535D01*
X136003403Y-87160535D02*
X136027212Y-87136725D01*
X136027212Y-87136725D02*
X136051022Y-87089106D01*
X136051022Y-87089106D02*
X136051022Y-86993868D01*
X136051022Y-86993868D02*
X136027212Y-86946249D01*
X136027212Y-86946249D02*
X136003403Y-86922439D01*
X136003403Y-86922439D02*
X135955784Y-86898630D01*
D14*
X198592862Y-88984435D02*
X198735719Y-89032054D01*
X198735719Y-89032054D02*
X198973814Y-89032054D01*
X198973814Y-89032054D02*
X199069052Y-88984435D01*
X199069052Y-88984435D02*
X199116671Y-88936815D01*
X199116671Y-88936815D02*
X199164290Y-88841577D01*
X199164290Y-88841577D02*
X199164290Y-88746339D01*
X199164290Y-88746339D02*
X199116671Y-88651101D01*
X199116671Y-88651101D02*
X199069052Y-88603482D01*
X199069052Y-88603482D02*
X198973814Y-88555863D01*
X198973814Y-88555863D02*
X198783338Y-88508244D01*
X198783338Y-88508244D02*
X198688100Y-88460625D01*
X198688100Y-88460625D02*
X198640481Y-88413006D01*
X198640481Y-88413006D02*
X198592862Y-88317768D01*
X198592862Y-88317768D02*
X198592862Y-88222530D01*
X198592862Y-88222530D02*
X198640481Y-88127292D01*
X198640481Y-88127292D02*
X198688100Y-88079673D01*
X198688100Y-88079673D02*
X198783338Y-88032054D01*
X198783338Y-88032054D02*
X199021433Y-88032054D01*
X199021433Y-88032054D02*
X199164290Y-88079673D01*
X199497624Y-88032054D02*
X199735719Y-89032054D01*
X199735719Y-89032054D02*
X199926195Y-88317768D01*
X199926195Y-88317768D02*
X200116671Y-89032054D01*
X200116671Y-89032054D02*
X200354767Y-88032054D01*
X201259528Y-89032054D02*
X200688100Y-89032054D01*
X200973814Y-89032054D02*
X200973814Y-88032054D01*
X200973814Y-88032054D02*
X200878576Y-88174911D01*
X200878576Y-88174911D02*
X200783338Y-88270149D01*
X200783338Y-88270149D02*
X200688100Y-88317768D01*
X201592862Y-88032054D02*
X202211909Y-88032054D01*
X202211909Y-88032054D02*
X201878576Y-88413006D01*
X201878576Y-88413006D02*
X202021433Y-88413006D01*
X202021433Y-88413006D02*
X202116671Y-88460625D01*
X202116671Y-88460625D02*
X202164290Y-88508244D01*
X202164290Y-88508244D02*
X202211909Y-88603482D01*
X202211909Y-88603482D02*
X202211909Y-88841577D01*
X202211909Y-88841577D02*
X202164290Y-88936815D01*
X202164290Y-88936815D02*
X202116671Y-88984435D01*
X202116671Y-88984435D02*
X202021433Y-89032054D01*
X202021433Y-89032054D02*
X201735719Y-89032054D01*
X201735719Y-89032054D02*
X201640481Y-88984435D01*
X201640481Y-88984435D02*
X201592862Y-88936815D01*
X111083270Y-105430567D02*
X111130889Y-105287710D01*
X111130889Y-105287710D02*
X111130889Y-105049615D01*
X111130889Y-105049615D02*
X111083270Y-104954377D01*
X111083270Y-104954377D02*
X111035650Y-104906758D01*
X111035650Y-104906758D02*
X110940412Y-104859139D01*
X110940412Y-104859139D02*
X110845174Y-104859139D01*
X110845174Y-104859139D02*
X110749936Y-104906758D01*
X110749936Y-104906758D02*
X110702317Y-104954377D01*
X110702317Y-104954377D02*
X110654698Y-105049615D01*
X110654698Y-105049615D02*
X110607079Y-105240091D01*
X110607079Y-105240091D02*
X110559460Y-105335329D01*
X110559460Y-105335329D02*
X110511841Y-105382948D01*
X110511841Y-105382948D02*
X110416603Y-105430567D01*
X110416603Y-105430567D02*
X110321365Y-105430567D01*
X110321365Y-105430567D02*
X110226127Y-105382948D01*
X110226127Y-105382948D02*
X110178508Y-105335329D01*
X110178508Y-105335329D02*
X110130889Y-105240091D01*
X110130889Y-105240091D02*
X110130889Y-105001996D01*
X110130889Y-105001996D02*
X110178508Y-104859139D01*
X110130889Y-104525805D02*
X111130889Y-104287710D01*
X111130889Y-104287710D02*
X110416603Y-104097234D01*
X110416603Y-104097234D02*
X111130889Y-103906758D01*
X111130889Y-103906758D02*
X110130889Y-103668663D01*
X111130889Y-102763901D02*
X111130889Y-103335329D01*
X111130889Y-103049615D02*
X110130889Y-103049615D01*
X110130889Y-103049615D02*
X110273746Y-103144853D01*
X110273746Y-103144853D02*
X110368984Y-103240091D01*
X110368984Y-103240091D02*
X110416603Y-103335329D01*
D10*
X193060594Y-86386439D02*
X193132022Y-86410249D01*
X193132022Y-86410249D02*
X193155832Y-86434058D01*
X193155832Y-86434058D02*
X193179641Y-86481677D01*
X193179641Y-86481677D02*
X193179641Y-86553106D01*
X193179641Y-86553106D02*
X193155832Y-86600725D01*
X193155832Y-86600725D02*
X193132022Y-86624535D01*
X193132022Y-86624535D02*
X193084403Y-86648344D01*
X193084403Y-86648344D02*
X192893927Y-86648344D01*
X192893927Y-86648344D02*
X192893927Y-86148344D01*
X192893927Y-86148344D02*
X193060594Y-86148344D01*
X193060594Y-86148344D02*
X193108213Y-86172154D01*
X193108213Y-86172154D02*
X193132022Y-86195963D01*
X193132022Y-86195963D02*
X193155832Y-86243582D01*
X193155832Y-86243582D02*
X193155832Y-86291201D01*
X193155832Y-86291201D02*
X193132022Y-86338820D01*
X193132022Y-86338820D02*
X193108213Y-86362630D01*
X193108213Y-86362630D02*
X193060594Y-86386439D01*
X193060594Y-86386439D02*
X192893927Y-86386439D01*
X193346308Y-86148344D02*
X193679641Y-86148344D01*
X193679641Y-86148344D02*
X193346308Y-86648344D01*
X193346308Y-86648344D02*
X193679641Y-86648344D01*
X194132022Y-86648344D02*
X193846308Y-86648344D01*
X193989165Y-86648344D02*
X193989165Y-86148344D01*
X193989165Y-86148344D02*
X193941546Y-86219773D01*
X193941546Y-86219773D02*
X193893927Y-86267392D01*
X193893927Y-86267392D02*
X193846308Y-86291201D01*
X155213620Y-84500844D02*
X155046954Y-84262749D01*
X154927906Y-84500844D02*
X154927906Y-84000844D01*
X154927906Y-84000844D02*
X155118382Y-84000844D01*
X155118382Y-84000844D02*
X155166001Y-84024654D01*
X155166001Y-84024654D02*
X155189811Y-84048463D01*
X155189811Y-84048463D02*
X155213620Y-84096082D01*
X155213620Y-84096082D02*
X155213620Y-84167511D01*
X155213620Y-84167511D02*
X155189811Y-84215130D01*
X155189811Y-84215130D02*
X155166001Y-84238939D01*
X155166001Y-84238939D02*
X155118382Y-84262749D01*
X155118382Y-84262749D02*
X154927906Y-84262749D01*
X155404097Y-84048463D02*
X155427906Y-84024654D01*
X155427906Y-84024654D02*
X155475525Y-84000844D01*
X155475525Y-84000844D02*
X155594573Y-84000844D01*
X155594573Y-84000844D02*
X155642192Y-84024654D01*
X155642192Y-84024654D02*
X155666001Y-84048463D01*
X155666001Y-84048463D02*
X155689811Y-84096082D01*
X155689811Y-84096082D02*
X155689811Y-84143701D01*
X155689811Y-84143701D02*
X155666001Y-84215130D01*
X155666001Y-84215130D02*
X155380287Y-84500844D01*
X155380287Y-84500844D02*
X155689811Y-84500844D01*
X155999334Y-84000844D02*
X156046953Y-84000844D01*
X156046953Y-84000844D02*
X156094572Y-84024654D01*
X156094572Y-84024654D02*
X156118382Y-84048463D01*
X156118382Y-84048463D02*
X156142191Y-84096082D01*
X156142191Y-84096082D02*
X156166001Y-84191320D01*
X156166001Y-84191320D02*
X156166001Y-84310368D01*
X156166001Y-84310368D02*
X156142191Y-84405606D01*
X156142191Y-84405606D02*
X156118382Y-84453225D01*
X156118382Y-84453225D02*
X156094572Y-84477035D01*
X156094572Y-84477035D02*
X156046953Y-84500844D01*
X156046953Y-84500844D02*
X155999334Y-84500844D01*
X155999334Y-84500844D02*
X155951715Y-84477035D01*
X155951715Y-84477035D02*
X155927906Y-84453225D01*
X155927906Y-84453225D02*
X155904096Y-84405606D01*
X155904096Y-84405606D02*
X155880287Y-84310368D01*
X155880287Y-84310368D02*
X155880287Y-84191320D01*
X155880287Y-84191320D02*
X155904096Y-84096082D01*
X155904096Y-84096082D02*
X155927906Y-84048463D01*
X155927906Y-84048463D02*
X155951715Y-84024654D01*
X155951715Y-84024654D02*
X155999334Y-84000844D01*
X188963450Y-85225963D02*
X188915831Y-85202154D01*
X188915831Y-85202154D02*
X188868212Y-85154535D01*
X188868212Y-85154535D02*
X188796784Y-85083106D01*
X188796784Y-85083106D02*
X188749165Y-85059296D01*
X188749165Y-85059296D02*
X188701546Y-85059296D01*
X188725355Y-85178344D02*
X188677736Y-85154535D01*
X188677736Y-85154535D02*
X188630117Y-85106915D01*
X188630117Y-85106915D02*
X188606308Y-85011677D01*
X188606308Y-85011677D02*
X188606308Y-84845011D01*
X188606308Y-84845011D02*
X188630117Y-84749773D01*
X188630117Y-84749773D02*
X188677736Y-84702154D01*
X188677736Y-84702154D02*
X188725355Y-84678344D01*
X188725355Y-84678344D02*
X188820593Y-84678344D01*
X188820593Y-84678344D02*
X188868212Y-84702154D01*
X188868212Y-84702154D02*
X188915831Y-84749773D01*
X188915831Y-84749773D02*
X188939641Y-84845011D01*
X188939641Y-84845011D02*
X188939641Y-85011677D01*
X188939641Y-85011677D02*
X188915831Y-85106915D01*
X188915831Y-85106915D02*
X188868212Y-85154535D01*
X188868212Y-85154535D02*
X188820593Y-85178344D01*
X188820593Y-85178344D02*
X188725355Y-85178344D01*
X189106308Y-84678344D02*
X189415832Y-84678344D01*
X189415832Y-84678344D02*
X189249165Y-84868820D01*
X189249165Y-84868820D02*
X189320594Y-84868820D01*
X189320594Y-84868820D02*
X189368213Y-84892630D01*
X189368213Y-84892630D02*
X189392022Y-84916439D01*
X189392022Y-84916439D02*
X189415832Y-84964058D01*
X189415832Y-84964058D02*
X189415832Y-85083106D01*
X189415832Y-85083106D02*
X189392022Y-85130725D01*
X189392022Y-85130725D02*
X189368213Y-85154535D01*
X189368213Y-85154535D02*
X189320594Y-85178344D01*
X189320594Y-85178344D02*
X189177737Y-85178344D01*
X189177737Y-85178344D02*
X189130118Y-85154535D01*
X189130118Y-85154535D02*
X189106308Y-85130725D01*
D14*
X142167737Y-122179435D02*
X142310594Y-122227054D01*
X142310594Y-122227054D02*
X142548689Y-122227054D01*
X142548689Y-122227054D02*
X142643927Y-122179435D01*
X142643927Y-122179435D02*
X142691546Y-122131815D01*
X142691546Y-122131815D02*
X142739165Y-122036577D01*
X142739165Y-122036577D02*
X142739165Y-121941339D01*
X142739165Y-121941339D02*
X142691546Y-121846101D01*
X142691546Y-121846101D02*
X142643927Y-121798482D01*
X142643927Y-121798482D02*
X142548689Y-121750863D01*
X142548689Y-121750863D02*
X142358213Y-121703244D01*
X142358213Y-121703244D02*
X142262975Y-121655625D01*
X142262975Y-121655625D02*
X142215356Y-121608006D01*
X142215356Y-121608006D02*
X142167737Y-121512768D01*
X142167737Y-121512768D02*
X142167737Y-121417530D01*
X142167737Y-121417530D02*
X142215356Y-121322292D01*
X142215356Y-121322292D02*
X142262975Y-121274673D01*
X142262975Y-121274673D02*
X142358213Y-121227054D01*
X142358213Y-121227054D02*
X142596308Y-121227054D01*
X142596308Y-121227054D02*
X142739165Y-121274673D01*
X143072499Y-121227054D02*
X143310594Y-122227054D01*
X143310594Y-122227054D02*
X143501070Y-121512768D01*
X143501070Y-121512768D02*
X143691546Y-122227054D01*
X143691546Y-122227054D02*
X143929642Y-121227054D01*
X144453451Y-121655625D02*
X144358213Y-121608006D01*
X144358213Y-121608006D02*
X144310594Y-121560387D01*
X144310594Y-121560387D02*
X144262975Y-121465149D01*
X144262975Y-121465149D02*
X144262975Y-121417530D01*
X144262975Y-121417530D02*
X144310594Y-121322292D01*
X144310594Y-121322292D02*
X144358213Y-121274673D01*
X144358213Y-121274673D02*
X144453451Y-121227054D01*
X144453451Y-121227054D02*
X144643927Y-121227054D01*
X144643927Y-121227054D02*
X144739165Y-121274673D01*
X144739165Y-121274673D02*
X144786784Y-121322292D01*
X144786784Y-121322292D02*
X144834403Y-121417530D01*
X144834403Y-121417530D02*
X144834403Y-121465149D01*
X144834403Y-121465149D02*
X144786784Y-121560387D01*
X144786784Y-121560387D02*
X144739165Y-121608006D01*
X144739165Y-121608006D02*
X144643927Y-121655625D01*
X144643927Y-121655625D02*
X144453451Y-121655625D01*
X144453451Y-121655625D02*
X144358213Y-121703244D01*
X144358213Y-121703244D02*
X144310594Y-121750863D01*
X144310594Y-121750863D02*
X144262975Y-121846101D01*
X144262975Y-121846101D02*
X144262975Y-122036577D01*
X144262975Y-122036577D02*
X144310594Y-122131815D01*
X144310594Y-122131815D02*
X144358213Y-122179435D01*
X144358213Y-122179435D02*
X144453451Y-122227054D01*
X144453451Y-122227054D02*
X144643927Y-122227054D01*
X144643927Y-122227054D02*
X144739165Y-122179435D01*
X144739165Y-122179435D02*
X144786784Y-122131815D01*
X144786784Y-122131815D02*
X144834403Y-122036577D01*
X144834403Y-122036577D02*
X144834403Y-121846101D01*
X144834403Y-121846101D02*
X144786784Y-121750863D01*
X144786784Y-121750863D02*
X144739165Y-121703244D01*
X144739165Y-121703244D02*
X144643927Y-121655625D01*
D10*
X198217641Y-95985344D02*
X198050975Y-95747249D01*
X197931927Y-95985344D02*
X197931927Y-95485344D01*
X197931927Y-95485344D02*
X198122403Y-95485344D01*
X198122403Y-95485344D02*
X198170022Y-95509154D01*
X198170022Y-95509154D02*
X198193832Y-95532963D01*
X198193832Y-95532963D02*
X198217641Y-95580582D01*
X198217641Y-95580582D02*
X198217641Y-95652011D01*
X198217641Y-95652011D02*
X198193832Y-95699630D01*
X198193832Y-95699630D02*
X198170022Y-95723439D01*
X198170022Y-95723439D02*
X198122403Y-95747249D01*
X198122403Y-95747249D02*
X197931927Y-95747249D01*
X198408118Y-95532963D02*
X198431927Y-95509154D01*
X198431927Y-95509154D02*
X198479546Y-95485344D01*
X198479546Y-95485344D02*
X198598594Y-95485344D01*
X198598594Y-95485344D02*
X198646213Y-95509154D01*
X198646213Y-95509154D02*
X198670022Y-95532963D01*
X198670022Y-95532963D02*
X198693832Y-95580582D01*
X198693832Y-95580582D02*
X198693832Y-95628201D01*
X198693832Y-95628201D02*
X198670022Y-95699630D01*
X198670022Y-95699630D02*
X198384308Y-95985344D01*
X198384308Y-95985344D02*
X198693832Y-95985344D01*
X199122403Y-95485344D02*
X199027165Y-95485344D01*
X199027165Y-95485344D02*
X198979546Y-95509154D01*
X198979546Y-95509154D02*
X198955736Y-95532963D01*
X198955736Y-95532963D02*
X198908117Y-95604392D01*
X198908117Y-95604392D02*
X198884308Y-95699630D01*
X198884308Y-95699630D02*
X198884308Y-95890106D01*
X198884308Y-95890106D02*
X198908117Y-95937725D01*
X198908117Y-95937725D02*
X198931927Y-95961535D01*
X198931927Y-95961535D02*
X198979546Y-95985344D01*
X198979546Y-95985344D02*
X199074784Y-95985344D01*
X199074784Y-95985344D02*
X199122403Y-95961535D01*
X199122403Y-95961535D02*
X199146212Y-95937725D01*
X199146212Y-95937725D02*
X199170022Y-95890106D01*
X199170022Y-95890106D02*
X199170022Y-95771058D01*
X199170022Y-95771058D02*
X199146212Y-95723439D01*
X199146212Y-95723439D02*
X199122403Y-95699630D01*
X199122403Y-95699630D02*
X199074784Y-95675820D01*
X199074784Y-95675820D02*
X198979546Y-95675820D01*
X198979546Y-95675820D02*
X198931927Y-95699630D01*
X198931927Y-95699630D02*
X198908117Y-95723439D01*
X198908117Y-95723439D02*
X198884308Y-95771058D01*
D14*
X201108270Y-105430567D02*
X201155889Y-105287710D01*
X201155889Y-105287710D02*
X201155889Y-105049615D01*
X201155889Y-105049615D02*
X201108270Y-104954377D01*
X201108270Y-104954377D02*
X201060650Y-104906758D01*
X201060650Y-104906758D02*
X200965412Y-104859139D01*
X200965412Y-104859139D02*
X200870174Y-104859139D01*
X200870174Y-104859139D02*
X200774936Y-104906758D01*
X200774936Y-104906758D02*
X200727317Y-104954377D01*
X200727317Y-104954377D02*
X200679698Y-105049615D01*
X200679698Y-105049615D02*
X200632079Y-105240091D01*
X200632079Y-105240091D02*
X200584460Y-105335329D01*
X200584460Y-105335329D02*
X200536841Y-105382948D01*
X200536841Y-105382948D02*
X200441603Y-105430567D01*
X200441603Y-105430567D02*
X200346365Y-105430567D01*
X200346365Y-105430567D02*
X200251127Y-105382948D01*
X200251127Y-105382948D02*
X200203508Y-105335329D01*
X200203508Y-105335329D02*
X200155889Y-105240091D01*
X200155889Y-105240091D02*
X200155889Y-105001996D01*
X200155889Y-105001996D02*
X200203508Y-104859139D01*
X200155889Y-104525805D02*
X201155889Y-104287710D01*
X201155889Y-104287710D02*
X200441603Y-104097234D01*
X200441603Y-104097234D02*
X201155889Y-103906758D01*
X201155889Y-103906758D02*
X200155889Y-103668663D01*
X200251127Y-103335329D02*
X200203508Y-103287710D01*
X200203508Y-103287710D02*
X200155889Y-103192472D01*
X200155889Y-103192472D02*
X200155889Y-102954377D01*
X200155889Y-102954377D02*
X200203508Y-102859139D01*
X200203508Y-102859139D02*
X200251127Y-102811520D01*
X200251127Y-102811520D02*
X200346365Y-102763901D01*
X200346365Y-102763901D02*
X200441603Y-102763901D01*
X200441603Y-102763901D02*
X200584460Y-102811520D01*
X200584460Y-102811520D02*
X201155889Y-103382948D01*
X201155889Y-103382948D02*
X201155889Y-102763901D01*
D10*
X149779641Y-122453725D02*
X149755832Y-122477535D01*
X149755832Y-122477535D02*
X149684403Y-122501344D01*
X149684403Y-122501344D02*
X149636784Y-122501344D01*
X149636784Y-122501344D02*
X149565356Y-122477535D01*
X149565356Y-122477535D02*
X149517737Y-122429915D01*
X149517737Y-122429915D02*
X149493927Y-122382296D01*
X149493927Y-122382296D02*
X149470118Y-122287058D01*
X149470118Y-122287058D02*
X149470118Y-122215630D01*
X149470118Y-122215630D02*
X149493927Y-122120392D01*
X149493927Y-122120392D02*
X149517737Y-122072773D01*
X149517737Y-122072773D02*
X149565356Y-122025154D01*
X149565356Y-122025154D02*
X149636784Y-122001344D01*
X149636784Y-122001344D02*
X149684403Y-122001344D01*
X149684403Y-122001344D02*
X149755832Y-122025154D01*
X149755832Y-122025154D02*
X149779641Y-122048963D01*
X150255832Y-122501344D02*
X149970118Y-122501344D01*
X150112975Y-122501344D02*
X150112975Y-122001344D01*
X150112975Y-122001344D02*
X150065356Y-122072773D01*
X150065356Y-122072773D02*
X150017737Y-122120392D01*
X150017737Y-122120392D02*
X149970118Y-122144201D01*
X150684403Y-122001344D02*
X150589165Y-122001344D01*
X150589165Y-122001344D02*
X150541546Y-122025154D01*
X150541546Y-122025154D02*
X150517736Y-122048963D01*
X150517736Y-122048963D02*
X150470117Y-122120392D01*
X150470117Y-122120392D02*
X150446308Y-122215630D01*
X150446308Y-122215630D02*
X150446308Y-122406106D01*
X150446308Y-122406106D02*
X150470117Y-122453725D01*
X150470117Y-122453725D02*
X150493927Y-122477535D01*
X150493927Y-122477535D02*
X150541546Y-122501344D01*
X150541546Y-122501344D02*
X150636784Y-122501344D01*
X150636784Y-122501344D02*
X150684403Y-122477535D01*
X150684403Y-122477535D02*
X150708212Y-122453725D01*
X150708212Y-122453725D02*
X150732022Y-122406106D01*
X150732022Y-122406106D02*
X150732022Y-122287058D01*
X150732022Y-122287058D02*
X150708212Y-122239439D01*
X150708212Y-122239439D02*
X150684403Y-122215630D01*
X150684403Y-122215630D02*
X150636784Y-122191820D01*
X150636784Y-122191820D02*
X150541546Y-122191820D01*
X150541546Y-122191820D02*
X150493927Y-122215630D01*
X150493927Y-122215630D02*
X150470117Y-122239439D01*
X150470117Y-122239439D02*
X150446308Y-122287058D01*
D14*
X127167737Y-122159435D02*
X127310594Y-122207054D01*
X127310594Y-122207054D02*
X127548689Y-122207054D01*
X127548689Y-122207054D02*
X127643927Y-122159435D01*
X127643927Y-122159435D02*
X127691546Y-122111815D01*
X127691546Y-122111815D02*
X127739165Y-122016577D01*
X127739165Y-122016577D02*
X127739165Y-121921339D01*
X127739165Y-121921339D02*
X127691546Y-121826101D01*
X127691546Y-121826101D02*
X127643927Y-121778482D01*
X127643927Y-121778482D02*
X127548689Y-121730863D01*
X127548689Y-121730863D02*
X127358213Y-121683244D01*
X127358213Y-121683244D02*
X127262975Y-121635625D01*
X127262975Y-121635625D02*
X127215356Y-121588006D01*
X127215356Y-121588006D02*
X127167737Y-121492768D01*
X127167737Y-121492768D02*
X127167737Y-121397530D01*
X127167737Y-121397530D02*
X127215356Y-121302292D01*
X127215356Y-121302292D02*
X127262975Y-121254673D01*
X127262975Y-121254673D02*
X127358213Y-121207054D01*
X127358213Y-121207054D02*
X127596308Y-121207054D01*
X127596308Y-121207054D02*
X127739165Y-121254673D01*
X128072499Y-121207054D02*
X128310594Y-122207054D01*
X128310594Y-122207054D02*
X128501070Y-121492768D01*
X128501070Y-121492768D02*
X128691546Y-122207054D01*
X128691546Y-122207054D02*
X128929642Y-121207054D01*
X129215356Y-121207054D02*
X129882022Y-121207054D01*
X129882022Y-121207054D02*
X129453451Y-122207054D01*
D10*
X153308620Y-96819844D02*
X153141954Y-96581749D01*
X153022906Y-96819844D02*
X153022906Y-96319844D01*
X153022906Y-96319844D02*
X153213382Y-96319844D01*
X153213382Y-96319844D02*
X153261001Y-96343654D01*
X153261001Y-96343654D02*
X153284811Y-96367463D01*
X153284811Y-96367463D02*
X153308620Y-96415082D01*
X153308620Y-96415082D02*
X153308620Y-96486511D01*
X153308620Y-96486511D02*
X153284811Y-96534130D01*
X153284811Y-96534130D02*
X153261001Y-96557939D01*
X153261001Y-96557939D02*
X153213382Y-96581749D01*
X153213382Y-96581749D02*
X153022906Y-96581749D01*
X153784811Y-96819844D02*
X153499097Y-96819844D01*
X153641954Y-96819844D02*
X153641954Y-96319844D01*
X153641954Y-96319844D02*
X153594335Y-96391273D01*
X153594335Y-96391273D02*
X153546716Y-96438892D01*
X153546716Y-96438892D02*
X153499097Y-96462701D01*
X154094334Y-96319844D02*
X154141953Y-96319844D01*
X154141953Y-96319844D02*
X154189572Y-96343654D01*
X154189572Y-96343654D02*
X154213382Y-96367463D01*
X154213382Y-96367463D02*
X154237191Y-96415082D01*
X154237191Y-96415082D02*
X154261001Y-96510320D01*
X154261001Y-96510320D02*
X154261001Y-96629368D01*
X154261001Y-96629368D02*
X154237191Y-96724606D01*
X154237191Y-96724606D02*
X154213382Y-96772225D01*
X154213382Y-96772225D02*
X154189572Y-96796035D01*
X154189572Y-96796035D02*
X154141953Y-96819844D01*
X154141953Y-96819844D02*
X154094334Y-96819844D01*
X154094334Y-96819844D02*
X154046715Y-96796035D01*
X154046715Y-96796035D02*
X154022906Y-96772225D01*
X154022906Y-96772225D02*
X153999096Y-96724606D01*
X153999096Y-96724606D02*
X153975287Y-96629368D01*
X153975287Y-96629368D02*
X153975287Y-96510320D01*
X153975287Y-96510320D02*
X153999096Y-96415082D01*
X153999096Y-96415082D02*
X154022906Y-96367463D01*
X154022906Y-96367463D02*
X154046715Y-96343654D01*
X154046715Y-96343654D02*
X154094334Y-96319844D01*
D14*
X154644736Y-89167054D02*
X154644736Y-89881339D01*
X154644736Y-89881339D02*
X154597117Y-90024196D01*
X154597117Y-90024196D02*
X154501879Y-90119435D01*
X154501879Y-90119435D02*
X154359022Y-90167054D01*
X154359022Y-90167054D02*
X154263784Y-90167054D01*
X155263784Y-89595625D02*
X155168546Y-89548006D01*
X155168546Y-89548006D02*
X155120927Y-89500387D01*
X155120927Y-89500387D02*
X155073308Y-89405149D01*
X155073308Y-89405149D02*
X155073308Y-89357530D01*
X155073308Y-89357530D02*
X155120927Y-89262292D01*
X155120927Y-89262292D02*
X155168546Y-89214673D01*
X155168546Y-89214673D02*
X155263784Y-89167054D01*
X155263784Y-89167054D02*
X155454260Y-89167054D01*
X155454260Y-89167054D02*
X155549498Y-89214673D01*
X155549498Y-89214673D02*
X155597117Y-89262292D01*
X155597117Y-89262292D02*
X155644736Y-89357530D01*
X155644736Y-89357530D02*
X155644736Y-89405149D01*
X155644736Y-89405149D02*
X155597117Y-89500387D01*
X155597117Y-89500387D02*
X155549498Y-89548006D01*
X155549498Y-89548006D02*
X155454260Y-89595625D01*
X155454260Y-89595625D02*
X155263784Y-89595625D01*
X155263784Y-89595625D02*
X155168546Y-89643244D01*
X155168546Y-89643244D02*
X155120927Y-89690863D01*
X155120927Y-89690863D02*
X155073308Y-89786101D01*
X155073308Y-89786101D02*
X155073308Y-89976577D01*
X155073308Y-89976577D02*
X155120927Y-90071815D01*
X155120927Y-90071815D02*
X155168546Y-90119435D01*
X155168546Y-90119435D02*
X155263784Y-90167054D01*
X155263784Y-90167054D02*
X155454260Y-90167054D01*
X155454260Y-90167054D02*
X155549498Y-90119435D01*
X155549498Y-90119435D02*
X155597117Y-90071815D01*
X155597117Y-90071815D02*
X155644736Y-89976577D01*
X155644736Y-89976577D02*
X155644736Y-89786101D01*
X155644736Y-89786101D02*
X155597117Y-89690863D01*
X155597117Y-89690863D02*
X155549498Y-89643244D01*
X155549498Y-89643244D02*
X155454260Y-89595625D01*
D10*
X136798620Y-89334225D02*
X136774811Y-89358035D01*
X136774811Y-89358035D02*
X136703382Y-89381844D01*
X136703382Y-89381844D02*
X136655763Y-89381844D01*
X136655763Y-89381844D02*
X136584335Y-89358035D01*
X136584335Y-89358035D02*
X136536716Y-89310415D01*
X136536716Y-89310415D02*
X136512906Y-89262796D01*
X136512906Y-89262796D02*
X136489097Y-89167558D01*
X136489097Y-89167558D02*
X136489097Y-89096130D01*
X136489097Y-89096130D02*
X136512906Y-89000892D01*
X136512906Y-89000892D02*
X136536716Y-88953273D01*
X136536716Y-88953273D02*
X136584335Y-88905654D01*
X136584335Y-88905654D02*
X136655763Y-88881844D01*
X136655763Y-88881844D02*
X136703382Y-88881844D01*
X136703382Y-88881844D02*
X136774811Y-88905654D01*
X136774811Y-88905654D02*
X136798620Y-88929463D01*
X137274811Y-89381844D02*
X136989097Y-89381844D01*
X137131954Y-89381844D02*
X137131954Y-88881844D01*
X137131954Y-88881844D02*
X137084335Y-88953273D01*
X137084335Y-88953273D02*
X137036716Y-89000892D01*
X137036716Y-89000892D02*
X136989097Y-89024701D01*
X137703382Y-89048511D02*
X137703382Y-89381844D01*
X137584334Y-88858035D02*
X137465287Y-89215177D01*
X137465287Y-89215177D02*
X137774810Y-89215177D01*
D14*
X158387849Y-106097054D02*
X158387849Y-106906577D01*
X158387849Y-106906577D02*
X158435468Y-107001815D01*
X158435468Y-107001815D02*
X158483087Y-107049435D01*
X158483087Y-107049435D02*
X158578325Y-107097054D01*
X158578325Y-107097054D02*
X158768801Y-107097054D01*
X158768801Y-107097054D02*
X158864039Y-107049435D01*
X158864039Y-107049435D02*
X158911658Y-107001815D01*
X158911658Y-107001815D02*
X158959277Y-106906577D01*
X158959277Y-106906577D02*
X158959277Y-106097054D01*
X159959277Y-107097054D02*
X159387849Y-107097054D01*
X159673563Y-107097054D02*
X159673563Y-106097054D01*
X159673563Y-106097054D02*
X159578325Y-106239911D01*
X159578325Y-106239911D02*
X159483087Y-106335149D01*
X159483087Y-106335149D02*
X159387849Y-106382768D01*
X102167737Y-85189435D02*
X102310594Y-85237054D01*
X102310594Y-85237054D02*
X102548689Y-85237054D01*
X102548689Y-85237054D02*
X102643927Y-85189435D01*
X102643927Y-85189435D02*
X102691546Y-85141815D01*
X102691546Y-85141815D02*
X102739165Y-85046577D01*
X102739165Y-85046577D02*
X102739165Y-84951339D01*
X102739165Y-84951339D02*
X102691546Y-84856101D01*
X102691546Y-84856101D02*
X102643927Y-84808482D01*
X102643927Y-84808482D02*
X102548689Y-84760863D01*
X102548689Y-84760863D02*
X102358213Y-84713244D01*
X102358213Y-84713244D02*
X102262975Y-84665625D01*
X102262975Y-84665625D02*
X102215356Y-84618006D01*
X102215356Y-84618006D02*
X102167737Y-84522768D01*
X102167737Y-84522768D02*
X102167737Y-84427530D01*
X102167737Y-84427530D02*
X102215356Y-84332292D01*
X102215356Y-84332292D02*
X102262975Y-84284673D01*
X102262975Y-84284673D02*
X102358213Y-84237054D01*
X102358213Y-84237054D02*
X102596308Y-84237054D01*
X102596308Y-84237054D02*
X102739165Y-84284673D01*
X103072499Y-84237054D02*
X103310594Y-85237054D01*
X103310594Y-85237054D02*
X103501070Y-84522768D01*
X103501070Y-84522768D02*
X103691546Y-85237054D01*
X103691546Y-85237054D02*
X103929642Y-84237054D01*
X104739165Y-84570387D02*
X104739165Y-85237054D01*
X104501070Y-84189435D02*
X104262975Y-84903720D01*
X104262975Y-84903720D02*
X104882022Y-84903720D01*
D13*
X142735638Y-117059528D02*
X142735638Y-116130956D01*
X142735638Y-116130956D02*
X143307067Y-116630956D01*
X143307067Y-116630956D02*
X143307067Y-116416671D01*
X143307067Y-116416671D02*
X143378495Y-116273814D01*
X143378495Y-116273814D02*
X143449924Y-116202385D01*
X143449924Y-116202385D02*
X143592781Y-116130956D01*
X143592781Y-116130956D02*
X143949924Y-116130956D01*
X143949924Y-116130956D02*
X144092781Y-116202385D01*
X144092781Y-116202385D02*
X144164210Y-116273814D01*
X144164210Y-116273814D02*
X144235638Y-116416671D01*
X144235638Y-116416671D02*
X144235638Y-116845242D01*
X144235638Y-116845242D02*
X144164210Y-116988099D01*
X144164210Y-116988099D02*
X144092781Y-117059528D01*
X144092781Y-115488100D02*
X144164210Y-115416671D01*
X144164210Y-115416671D02*
X144235638Y-115488100D01*
X144235638Y-115488100D02*
X144164210Y-115559528D01*
X144164210Y-115559528D02*
X144092781Y-115488100D01*
X144092781Y-115488100D02*
X144235638Y-115488100D01*
X142735638Y-114916671D02*
X142735638Y-113988099D01*
X142735638Y-113988099D02*
X143307067Y-114488099D01*
X143307067Y-114488099D02*
X143307067Y-114273814D01*
X143307067Y-114273814D02*
X143378495Y-114130957D01*
X143378495Y-114130957D02*
X143449924Y-114059528D01*
X143449924Y-114059528D02*
X143592781Y-113988099D01*
X143592781Y-113988099D02*
X143949924Y-113988099D01*
X143949924Y-113988099D02*
X144092781Y-114059528D01*
X144092781Y-114059528D02*
X144164210Y-114130957D01*
X144164210Y-114130957D02*
X144235638Y-114273814D01*
X144235638Y-114273814D02*
X144235638Y-114702385D01*
X144235638Y-114702385D02*
X144164210Y-114845242D01*
X144164210Y-114845242D02*
X144092781Y-114916671D01*
X142735638Y-113559528D02*
X144235638Y-113059528D01*
X144235638Y-113059528D02*
X142735638Y-112559528D01*
X144235638Y-110916672D02*
X142735638Y-110916672D01*
X144235638Y-110202386D02*
X142735638Y-110202386D01*
X142735638Y-110202386D02*
X144235638Y-109345243D01*
X144235638Y-109345243D02*
X142735638Y-109345243D01*
X142735638Y-108845242D02*
X142735638Y-107988100D01*
X144235638Y-108416671D02*
X142735638Y-108416671D01*
D10*
X133525662Y-102106225D02*
X133501853Y-102130035D01*
X133501853Y-102130035D02*
X133430424Y-102153844D01*
X133430424Y-102153844D02*
X133382805Y-102153844D01*
X133382805Y-102153844D02*
X133311377Y-102130035D01*
X133311377Y-102130035D02*
X133263758Y-102082415D01*
X133263758Y-102082415D02*
X133239948Y-102034796D01*
X133239948Y-102034796D02*
X133216139Y-101939558D01*
X133216139Y-101939558D02*
X133216139Y-101868130D01*
X133216139Y-101868130D02*
X133239948Y-101772892D01*
X133239948Y-101772892D02*
X133263758Y-101725273D01*
X133263758Y-101725273D02*
X133311377Y-101677654D01*
X133311377Y-101677654D02*
X133382805Y-101653844D01*
X133382805Y-101653844D02*
X133430424Y-101653844D01*
X133430424Y-101653844D02*
X133501853Y-101677654D01*
X133501853Y-101677654D02*
X133525662Y-101701463D01*
X133692329Y-101653844D02*
X134001853Y-101653844D01*
X134001853Y-101653844D02*
X133835186Y-101844320D01*
X133835186Y-101844320D02*
X133906615Y-101844320D01*
X133906615Y-101844320D02*
X133954234Y-101868130D01*
X133954234Y-101868130D02*
X133978043Y-101891939D01*
X133978043Y-101891939D02*
X134001853Y-101939558D01*
X134001853Y-101939558D02*
X134001853Y-102058606D01*
X134001853Y-102058606D02*
X133978043Y-102106225D01*
X133978043Y-102106225D02*
X133954234Y-102130035D01*
X133954234Y-102130035D02*
X133906615Y-102153844D01*
X133906615Y-102153844D02*
X133763758Y-102153844D01*
X133763758Y-102153844D02*
X133716139Y-102130035D01*
X133716139Y-102130035D02*
X133692329Y-102106225D01*
X134454233Y-101653844D02*
X134216138Y-101653844D01*
X134216138Y-101653844D02*
X134192329Y-101891939D01*
X134192329Y-101891939D02*
X134216138Y-101868130D01*
X134216138Y-101868130D02*
X134263757Y-101844320D01*
X134263757Y-101844320D02*
X134382805Y-101844320D01*
X134382805Y-101844320D02*
X134430424Y-101868130D01*
X134430424Y-101868130D02*
X134454233Y-101891939D01*
X134454233Y-101891939D02*
X134478043Y-101939558D01*
X134478043Y-101939558D02*
X134478043Y-102058606D01*
X134478043Y-102058606D02*
X134454233Y-102106225D01*
X134454233Y-102106225D02*
X134430424Y-102130035D01*
X134430424Y-102130035D02*
X134382805Y-102153844D01*
X134382805Y-102153844D02*
X134263757Y-102153844D01*
X134263757Y-102153844D02*
X134216138Y-102130035D01*
X134216138Y-102130035D02*
X134192329Y-102106225D01*
D14*
X166691546Y-122179435D02*
X166834403Y-122227054D01*
X166834403Y-122227054D02*
X167072498Y-122227054D01*
X167072498Y-122227054D02*
X167167736Y-122179435D01*
X167167736Y-122179435D02*
X167215355Y-122131815D01*
X167215355Y-122131815D02*
X167262974Y-122036577D01*
X167262974Y-122036577D02*
X167262974Y-121941339D01*
X167262974Y-121941339D02*
X167215355Y-121846101D01*
X167215355Y-121846101D02*
X167167736Y-121798482D01*
X167167736Y-121798482D02*
X167072498Y-121750863D01*
X167072498Y-121750863D02*
X166882022Y-121703244D01*
X166882022Y-121703244D02*
X166786784Y-121655625D01*
X166786784Y-121655625D02*
X166739165Y-121608006D01*
X166739165Y-121608006D02*
X166691546Y-121512768D01*
X166691546Y-121512768D02*
X166691546Y-121417530D01*
X166691546Y-121417530D02*
X166739165Y-121322292D01*
X166739165Y-121322292D02*
X166786784Y-121274673D01*
X166786784Y-121274673D02*
X166882022Y-121227054D01*
X166882022Y-121227054D02*
X167120117Y-121227054D01*
X167120117Y-121227054D02*
X167262974Y-121274673D01*
X167596308Y-121227054D02*
X167834403Y-122227054D01*
X167834403Y-122227054D02*
X168024879Y-121512768D01*
X168024879Y-121512768D02*
X168215355Y-122227054D01*
X168215355Y-122227054D02*
X168453451Y-121227054D01*
X169358212Y-122227054D02*
X168786784Y-122227054D01*
X169072498Y-122227054D02*
X169072498Y-121227054D01*
X169072498Y-121227054D02*
X168977260Y-121369911D01*
X168977260Y-121369911D02*
X168882022Y-121465149D01*
X168882022Y-121465149D02*
X168786784Y-121512768D01*
X169977260Y-121227054D02*
X170072498Y-121227054D01*
X170072498Y-121227054D02*
X170167736Y-121274673D01*
X170167736Y-121274673D02*
X170215355Y-121322292D01*
X170215355Y-121322292D02*
X170262974Y-121417530D01*
X170262974Y-121417530D02*
X170310593Y-121608006D01*
X170310593Y-121608006D02*
X170310593Y-121846101D01*
X170310593Y-121846101D02*
X170262974Y-122036577D01*
X170262974Y-122036577D02*
X170215355Y-122131815D01*
X170215355Y-122131815D02*
X170167736Y-122179435D01*
X170167736Y-122179435D02*
X170072498Y-122227054D01*
X170072498Y-122227054D02*
X169977260Y-122227054D01*
X169977260Y-122227054D02*
X169882022Y-122179435D01*
X169882022Y-122179435D02*
X169834403Y-122131815D01*
X169834403Y-122131815D02*
X169786784Y-122036577D01*
X169786784Y-122036577D02*
X169739165Y-121846101D01*
X169739165Y-121846101D02*
X169739165Y-121608006D01*
X169739165Y-121608006D02*
X169786784Y-121417530D01*
X169786784Y-121417530D02*
X169834403Y-121322292D01*
X169834403Y-121322292D02*
X169882022Y-121274673D01*
X169882022Y-121274673D02*
X169977260Y-121227054D01*
D10*
X129087662Y-97118225D02*
X129063853Y-97142035D01*
X129063853Y-97142035D02*
X128992424Y-97165844D01*
X128992424Y-97165844D02*
X128944805Y-97165844D01*
X128944805Y-97165844D02*
X128873377Y-97142035D01*
X128873377Y-97142035D02*
X128825758Y-97094415D01*
X128825758Y-97094415D02*
X128801948Y-97046796D01*
X128801948Y-97046796D02*
X128778139Y-96951558D01*
X128778139Y-96951558D02*
X128778139Y-96880130D01*
X128778139Y-96880130D02*
X128801948Y-96784892D01*
X128801948Y-96784892D02*
X128825758Y-96737273D01*
X128825758Y-96737273D02*
X128873377Y-96689654D01*
X128873377Y-96689654D02*
X128944805Y-96665844D01*
X128944805Y-96665844D02*
X128992424Y-96665844D01*
X128992424Y-96665844D02*
X129063853Y-96689654D01*
X129063853Y-96689654D02*
X129087662Y-96713463D01*
X129278139Y-96713463D02*
X129301948Y-96689654D01*
X129301948Y-96689654D02*
X129349567Y-96665844D01*
X129349567Y-96665844D02*
X129468615Y-96665844D01*
X129468615Y-96665844D02*
X129516234Y-96689654D01*
X129516234Y-96689654D02*
X129540043Y-96713463D01*
X129540043Y-96713463D02*
X129563853Y-96761082D01*
X129563853Y-96761082D02*
X129563853Y-96808701D01*
X129563853Y-96808701D02*
X129540043Y-96880130D01*
X129540043Y-96880130D02*
X129254329Y-97165844D01*
X129254329Y-97165844D02*
X129563853Y-97165844D01*
X129730519Y-96665844D02*
X130063852Y-96665844D01*
X130063852Y-96665844D02*
X129849567Y-97165844D01*
X120317662Y-88691844D02*
X120150996Y-88453749D01*
X120031948Y-88691844D02*
X120031948Y-88191844D01*
X120031948Y-88191844D02*
X120222424Y-88191844D01*
X120222424Y-88191844D02*
X120270043Y-88215654D01*
X120270043Y-88215654D02*
X120293853Y-88239463D01*
X120293853Y-88239463D02*
X120317662Y-88287082D01*
X120317662Y-88287082D02*
X120317662Y-88358511D01*
X120317662Y-88358511D02*
X120293853Y-88406130D01*
X120293853Y-88406130D02*
X120270043Y-88429939D01*
X120270043Y-88429939D02*
X120222424Y-88453749D01*
X120222424Y-88453749D02*
X120031948Y-88453749D01*
X120484329Y-88191844D02*
X120793853Y-88191844D01*
X120793853Y-88191844D02*
X120627186Y-88382320D01*
X120627186Y-88382320D02*
X120698615Y-88382320D01*
X120698615Y-88382320D02*
X120746234Y-88406130D01*
X120746234Y-88406130D02*
X120770043Y-88429939D01*
X120770043Y-88429939D02*
X120793853Y-88477558D01*
X120793853Y-88477558D02*
X120793853Y-88596606D01*
X120793853Y-88596606D02*
X120770043Y-88644225D01*
X120770043Y-88644225D02*
X120746234Y-88668035D01*
X120746234Y-88668035D02*
X120698615Y-88691844D01*
X120698615Y-88691844D02*
X120555758Y-88691844D01*
X120555758Y-88691844D02*
X120508139Y-88668035D01*
X120508139Y-88668035D02*
X120484329Y-88644225D01*
X121031948Y-88691844D02*
X121127186Y-88691844D01*
X121127186Y-88691844D02*
X121174805Y-88668035D01*
X121174805Y-88668035D02*
X121198614Y-88644225D01*
X121198614Y-88644225D02*
X121246233Y-88572796D01*
X121246233Y-88572796D02*
X121270043Y-88477558D01*
X121270043Y-88477558D02*
X121270043Y-88287082D01*
X121270043Y-88287082D02*
X121246233Y-88239463D01*
X121246233Y-88239463D02*
X121222424Y-88215654D01*
X121222424Y-88215654D02*
X121174805Y-88191844D01*
X121174805Y-88191844D02*
X121079567Y-88191844D01*
X121079567Y-88191844D02*
X121031948Y-88215654D01*
X121031948Y-88215654D02*
X121008138Y-88239463D01*
X121008138Y-88239463D02*
X120984329Y-88287082D01*
X120984329Y-88287082D02*
X120984329Y-88406130D01*
X120984329Y-88406130D02*
X121008138Y-88453749D01*
X121008138Y-88453749D02*
X121031948Y-88477558D01*
X121031948Y-88477558D02*
X121079567Y-88501368D01*
X121079567Y-88501368D02*
X121174805Y-88501368D01*
X121174805Y-88501368D02*
X121222424Y-88477558D01*
X121222424Y-88477558D02*
X121246233Y-88453749D01*
X121246233Y-88453749D02*
X121270043Y-88406130D01*
X191789620Y-99994844D02*
X191622954Y-99756749D01*
X191503906Y-99994844D02*
X191503906Y-99494844D01*
X191503906Y-99494844D02*
X191694382Y-99494844D01*
X191694382Y-99494844D02*
X191742001Y-99518654D01*
X191742001Y-99518654D02*
X191765811Y-99542463D01*
X191765811Y-99542463D02*
X191789620Y-99590082D01*
X191789620Y-99590082D02*
X191789620Y-99661511D01*
X191789620Y-99661511D02*
X191765811Y-99709130D01*
X191765811Y-99709130D02*
X191742001Y-99732939D01*
X191742001Y-99732939D02*
X191694382Y-99756749D01*
X191694382Y-99756749D02*
X191503906Y-99756749D01*
X191980097Y-99542463D02*
X192003906Y-99518654D01*
X192003906Y-99518654D02*
X192051525Y-99494844D01*
X192051525Y-99494844D02*
X192170573Y-99494844D01*
X192170573Y-99494844D02*
X192218192Y-99518654D01*
X192218192Y-99518654D02*
X192242001Y-99542463D01*
X192242001Y-99542463D02*
X192265811Y-99590082D01*
X192265811Y-99590082D02*
X192265811Y-99637701D01*
X192265811Y-99637701D02*
X192242001Y-99709130D01*
X192242001Y-99709130D02*
X191956287Y-99994844D01*
X191956287Y-99994844D02*
X192265811Y-99994844D01*
X192718191Y-99494844D02*
X192480096Y-99494844D01*
X192480096Y-99494844D02*
X192456287Y-99732939D01*
X192456287Y-99732939D02*
X192480096Y-99709130D01*
X192480096Y-99709130D02*
X192527715Y-99685320D01*
X192527715Y-99685320D02*
X192646763Y-99685320D01*
X192646763Y-99685320D02*
X192694382Y-99709130D01*
X192694382Y-99709130D02*
X192718191Y-99732939D01*
X192718191Y-99732939D02*
X192742001Y-99780558D01*
X192742001Y-99780558D02*
X192742001Y-99899606D01*
X192742001Y-99899606D02*
X192718191Y-99947225D01*
X192718191Y-99947225D02*
X192694382Y-99971035D01*
X192694382Y-99971035D02*
X192646763Y-99994844D01*
X192646763Y-99994844D02*
X192527715Y-99994844D01*
X192527715Y-99994844D02*
X192480096Y-99971035D01*
X192480096Y-99971035D02*
X192456287Y-99947225D01*
X100554641Y-98233344D02*
X100387975Y-97995249D01*
X100268927Y-98233344D02*
X100268927Y-97733344D01*
X100268927Y-97733344D02*
X100459403Y-97733344D01*
X100459403Y-97733344D02*
X100507022Y-97757154D01*
X100507022Y-97757154D02*
X100530832Y-97780963D01*
X100530832Y-97780963D02*
X100554641Y-97828582D01*
X100554641Y-97828582D02*
X100554641Y-97900011D01*
X100554641Y-97900011D02*
X100530832Y-97947630D01*
X100530832Y-97947630D02*
X100507022Y-97971439D01*
X100507022Y-97971439D02*
X100459403Y-97995249D01*
X100459403Y-97995249D02*
X100268927Y-97995249D01*
X100745118Y-97780963D02*
X100768927Y-97757154D01*
X100768927Y-97757154D02*
X100816546Y-97733344D01*
X100816546Y-97733344D02*
X100935594Y-97733344D01*
X100935594Y-97733344D02*
X100983213Y-97757154D01*
X100983213Y-97757154D02*
X101007022Y-97780963D01*
X101007022Y-97780963D02*
X101030832Y-97828582D01*
X101030832Y-97828582D02*
X101030832Y-97876201D01*
X101030832Y-97876201D02*
X101007022Y-97947630D01*
X101007022Y-97947630D02*
X100721308Y-98233344D01*
X100721308Y-98233344D02*
X101030832Y-98233344D01*
X101197498Y-97733344D02*
X101507022Y-97733344D01*
X101507022Y-97733344D02*
X101340355Y-97923820D01*
X101340355Y-97923820D02*
X101411784Y-97923820D01*
X101411784Y-97923820D02*
X101459403Y-97947630D01*
X101459403Y-97947630D02*
X101483212Y-97971439D01*
X101483212Y-97971439D02*
X101507022Y-98019058D01*
X101507022Y-98019058D02*
X101507022Y-98138106D01*
X101507022Y-98138106D02*
X101483212Y-98185725D01*
X101483212Y-98185725D02*
X101459403Y-98209535D01*
X101459403Y-98209535D02*
X101411784Y-98233344D01*
X101411784Y-98233344D02*
X101268927Y-98233344D01*
X101268927Y-98233344D02*
X101221308Y-98209535D01*
X101221308Y-98209535D02*
X101197498Y-98185725D01*
X156483620Y-106344844D02*
X156316954Y-106106749D01*
X156197906Y-106344844D02*
X156197906Y-105844844D01*
X156197906Y-105844844D02*
X156388382Y-105844844D01*
X156388382Y-105844844D02*
X156436001Y-105868654D01*
X156436001Y-105868654D02*
X156459811Y-105892463D01*
X156459811Y-105892463D02*
X156483620Y-105940082D01*
X156483620Y-105940082D02*
X156483620Y-106011511D01*
X156483620Y-106011511D02*
X156459811Y-106059130D01*
X156459811Y-106059130D02*
X156436001Y-106082939D01*
X156436001Y-106082939D02*
X156388382Y-106106749D01*
X156388382Y-106106749D02*
X156197906Y-106106749D01*
X156912192Y-106011511D02*
X156912192Y-106344844D01*
X156793144Y-105821035D02*
X156674097Y-106178177D01*
X156674097Y-106178177D02*
X156983620Y-106178177D01*
X157436001Y-106344844D02*
X157150287Y-106344844D01*
X157293144Y-106344844D02*
X157293144Y-105844844D01*
X157293144Y-105844844D02*
X157245525Y-105916273D01*
X157245525Y-105916273D02*
X157197906Y-105963892D01*
X157197906Y-105963892D02*
X157150287Y-105987701D01*
D14*
X112167737Y-85189435D02*
X112310594Y-85237054D01*
X112310594Y-85237054D02*
X112548689Y-85237054D01*
X112548689Y-85237054D02*
X112643927Y-85189435D01*
X112643927Y-85189435D02*
X112691546Y-85141815D01*
X112691546Y-85141815D02*
X112739165Y-85046577D01*
X112739165Y-85046577D02*
X112739165Y-84951339D01*
X112739165Y-84951339D02*
X112691546Y-84856101D01*
X112691546Y-84856101D02*
X112643927Y-84808482D01*
X112643927Y-84808482D02*
X112548689Y-84760863D01*
X112548689Y-84760863D02*
X112358213Y-84713244D01*
X112358213Y-84713244D02*
X112262975Y-84665625D01*
X112262975Y-84665625D02*
X112215356Y-84618006D01*
X112215356Y-84618006D02*
X112167737Y-84522768D01*
X112167737Y-84522768D02*
X112167737Y-84427530D01*
X112167737Y-84427530D02*
X112215356Y-84332292D01*
X112215356Y-84332292D02*
X112262975Y-84284673D01*
X112262975Y-84284673D02*
X112358213Y-84237054D01*
X112358213Y-84237054D02*
X112596308Y-84237054D01*
X112596308Y-84237054D02*
X112739165Y-84284673D01*
X113072499Y-84237054D02*
X113310594Y-85237054D01*
X113310594Y-85237054D02*
X113501070Y-84522768D01*
X113501070Y-84522768D02*
X113691546Y-85237054D01*
X113691546Y-85237054D02*
X113929642Y-84237054D01*
X114215356Y-84237054D02*
X114834403Y-84237054D01*
X114834403Y-84237054D02*
X114501070Y-84618006D01*
X114501070Y-84618006D02*
X114643927Y-84618006D01*
X114643927Y-84618006D02*
X114739165Y-84665625D01*
X114739165Y-84665625D02*
X114786784Y-84713244D01*
X114786784Y-84713244D02*
X114834403Y-84808482D01*
X114834403Y-84808482D02*
X114834403Y-85046577D01*
X114834403Y-85046577D02*
X114786784Y-85141815D01*
X114786784Y-85141815D02*
X114739165Y-85189435D01*
X114739165Y-85189435D02*
X114643927Y-85237054D01*
X114643927Y-85237054D02*
X114358213Y-85237054D01*
X114358213Y-85237054D02*
X114262975Y-85189435D01*
X114262975Y-85189435D02*
X114215356Y-85141815D01*
D10*
X137456592Y-91175990D02*
X137432783Y-91199800D01*
X137432783Y-91199800D02*
X137361354Y-91223609D01*
X137361354Y-91223609D02*
X137313735Y-91223609D01*
X137313735Y-91223609D02*
X137242307Y-91199800D01*
X137242307Y-91199800D02*
X137194688Y-91152180D01*
X137194688Y-91152180D02*
X137170878Y-91104561D01*
X137170878Y-91104561D02*
X137147069Y-91009323D01*
X137147069Y-91009323D02*
X137147069Y-90937895D01*
X137147069Y-90937895D02*
X137170878Y-90842657D01*
X137170878Y-90842657D02*
X137194688Y-90795038D01*
X137194688Y-90795038D02*
X137242307Y-90747419D01*
X137242307Y-90747419D02*
X137313735Y-90723609D01*
X137313735Y-90723609D02*
X137361354Y-90723609D01*
X137361354Y-90723609D02*
X137432783Y-90747419D01*
X137432783Y-90747419D02*
X137456592Y-90771228D01*
X137932783Y-91223609D02*
X137647069Y-91223609D01*
X137789926Y-91223609D02*
X137789926Y-90723609D01*
X137789926Y-90723609D02*
X137742307Y-90795038D01*
X137742307Y-90795038D02*
X137694688Y-90842657D01*
X137694688Y-90842657D02*
X137647069Y-90866466D01*
X138408973Y-91223609D02*
X138123259Y-91223609D01*
X138266116Y-91223609D02*
X138266116Y-90723609D01*
X138266116Y-90723609D02*
X138218497Y-90795038D01*
X138218497Y-90795038D02*
X138170878Y-90842657D01*
X138170878Y-90842657D02*
X138123259Y-90866466D01*
X143267620Y-89052725D02*
X143243811Y-89076535D01*
X143243811Y-89076535D02*
X143172382Y-89100344D01*
X143172382Y-89100344D02*
X143124763Y-89100344D01*
X143124763Y-89100344D02*
X143053335Y-89076535D01*
X143053335Y-89076535D02*
X143005716Y-89028915D01*
X143005716Y-89028915D02*
X142981906Y-88981296D01*
X142981906Y-88981296D02*
X142958097Y-88886058D01*
X142958097Y-88886058D02*
X142958097Y-88814630D01*
X142958097Y-88814630D02*
X142981906Y-88719392D01*
X142981906Y-88719392D02*
X143005716Y-88671773D01*
X143005716Y-88671773D02*
X143053335Y-88624154D01*
X143053335Y-88624154D02*
X143124763Y-88600344D01*
X143124763Y-88600344D02*
X143172382Y-88600344D01*
X143172382Y-88600344D02*
X143243811Y-88624154D01*
X143243811Y-88624154D02*
X143267620Y-88647963D01*
X143505716Y-89100344D02*
X143600954Y-89100344D01*
X143600954Y-89100344D02*
X143648573Y-89076535D01*
X143648573Y-89076535D02*
X143672382Y-89052725D01*
X143672382Y-89052725D02*
X143720001Y-88981296D01*
X143720001Y-88981296D02*
X143743811Y-88886058D01*
X143743811Y-88886058D02*
X143743811Y-88695582D01*
X143743811Y-88695582D02*
X143720001Y-88647963D01*
X143720001Y-88647963D02*
X143696192Y-88624154D01*
X143696192Y-88624154D02*
X143648573Y-88600344D01*
X143648573Y-88600344D02*
X143553335Y-88600344D01*
X143553335Y-88600344D02*
X143505716Y-88624154D01*
X143505716Y-88624154D02*
X143481906Y-88647963D01*
X143481906Y-88647963D02*
X143458097Y-88695582D01*
X143458097Y-88695582D02*
X143458097Y-88814630D01*
X143458097Y-88814630D02*
X143481906Y-88862249D01*
X143481906Y-88862249D02*
X143505716Y-88886058D01*
X143505716Y-88886058D02*
X143553335Y-88909868D01*
X143553335Y-88909868D02*
X143648573Y-88909868D01*
X143648573Y-88909868D02*
X143696192Y-88886058D01*
X143696192Y-88886058D02*
X143720001Y-88862249D01*
X143720001Y-88862249D02*
X143743811Y-88814630D01*
X105888641Y-98233344D02*
X105721975Y-97995249D01*
X105602927Y-98233344D02*
X105602927Y-97733344D01*
X105602927Y-97733344D02*
X105793403Y-97733344D01*
X105793403Y-97733344D02*
X105841022Y-97757154D01*
X105841022Y-97757154D02*
X105864832Y-97780963D01*
X105864832Y-97780963D02*
X105888641Y-97828582D01*
X105888641Y-97828582D02*
X105888641Y-97900011D01*
X105888641Y-97900011D02*
X105864832Y-97947630D01*
X105864832Y-97947630D02*
X105841022Y-97971439D01*
X105841022Y-97971439D02*
X105793403Y-97995249D01*
X105793403Y-97995249D02*
X105602927Y-97995249D01*
X106079118Y-97780963D02*
X106102927Y-97757154D01*
X106102927Y-97757154D02*
X106150546Y-97733344D01*
X106150546Y-97733344D02*
X106269594Y-97733344D01*
X106269594Y-97733344D02*
X106317213Y-97757154D01*
X106317213Y-97757154D02*
X106341022Y-97780963D01*
X106341022Y-97780963D02*
X106364832Y-97828582D01*
X106364832Y-97828582D02*
X106364832Y-97876201D01*
X106364832Y-97876201D02*
X106341022Y-97947630D01*
X106341022Y-97947630D02*
X106055308Y-98233344D01*
X106055308Y-98233344D02*
X106364832Y-98233344D01*
X106555308Y-97780963D02*
X106579117Y-97757154D01*
X106579117Y-97757154D02*
X106626736Y-97733344D01*
X106626736Y-97733344D02*
X106745784Y-97733344D01*
X106745784Y-97733344D02*
X106793403Y-97757154D01*
X106793403Y-97757154D02*
X106817212Y-97780963D01*
X106817212Y-97780963D02*
X106841022Y-97828582D01*
X106841022Y-97828582D02*
X106841022Y-97876201D01*
X106841022Y-97876201D02*
X106817212Y-97947630D01*
X106817212Y-97947630D02*
X106531498Y-98233344D01*
X106531498Y-98233344D02*
X106841022Y-98233344D01*
X151641620Y-107532725D02*
X151617811Y-107556535D01*
X151617811Y-107556535D02*
X151546382Y-107580344D01*
X151546382Y-107580344D02*
X151498763Y-107580344D01*
X151498763Y-107580344D02*
X151427335Y-107556535D01*
X151427335Y-107556535D02*
X151379716Y-107508915D01*
X151379716Y-107508915D02*
X151355906Y-107461296D01*
X151355906Y-107461296D02*
X151332097Y-107366058D01*
X151332097Y-107366058D02*
X151332097Y-107294630D01*
X151332097Y-107294630D02*
X151355906Y-107199392D01*
X151355906Y-107199392D02*
X151379716Y-107151773D01*
X151379716Y-107151773D02*
X151427335Y-107104154D01*
X151427335Y-107104154D02*
X151498763Y-107080344D01*
X151498763Y-107080344D02*
X151546382Y-107080344D01*
X151546382Y-107080344D02*
X151617811Y-107104154D01*
X151617811Y-107104154D02*
X151641620Y-107127963D01*
X151832097Y-107127963D02*
X151855906Y-107104154D01*
X151855906Y-107104154D02*
X151903525Y-107080344D01*
X151903525Y-107080344D02*
X152022573Y-107080344D01*
X152022573Y-107080344D02*
X152070192Y-107104154D01*
X152070192Y-107104154D02*
X152094001Y-107127963D01*
X152094001Y-107127963D02*
X152117811Y-107175582D01*
X152117811Y-107175582D02*
X152117811Y-107223201D01*
X152117811Y-107223201D02*
X152094001Y-107294630D01*
X152094001Y-107294630D02*
X151808287Y-107580344D01*
X151808287Y-107580344D02*
X152117811Y-107580344D01*
X152546382Y-107080344D02*
X152451144Y-107080344D01*
X152451144Y-107080344D02*
X152403525Y-107104154D01*
X152403525Y-107104154D02*
X152379715Y-107127963D01*
X152379715Y-107127963D02*
X152332096Y-107199392D01*
X152332096Y-107199392D02*
X152308287Y-107294630D01*
X152308287Y-107294630D02*
X152308287Y-107485106D01*
X152308287Y-107485106D02*
X152332096Y-107532725D01*
X152332096Y-107532725D02*
X152355906Y-107556535D01*
X152355906Y-107556535D02*
X152403525Y-107580344D01*
X152403525Y-107580344D02*
X152498763Y-107580344D01*
X152498763Y-107580344D02*
X152546382Y-107556535D01*
X152546382Y-107556535D02*
X152570191Y-107532725D01*
X152570191Y-107532725D02*
X152594001Y-107485106D01*
X152594001Y-107485106D02*
X152594001Y-107366058D01*
X152594001Y-107366058D02*
X152570191Y-107318439D01*
X152570191Y-107318439D02*
X152546382Y-107294630D01*
X152546382Y-107294630D02*
X152498763Y-107270820D01*
X152498763Y-107270820D02*
X152403525Y-107270820D01*
X152403525Y-107270820D02*
X152355906Y-107294630D01*
X152355906Y-107294630D02*
X152332096Y-107318439D01*
X152332096Y-107318439D02*
X152308287Y-107366058D01*
X192893927Y-123440844D02*
X192893927Y-122940844D01*
X192893927Y-122940844D02*
X193012975Y-122940844D01*
X193012975Y-122940844D02*
X193084403Y-122964654D01*
X193084403Y-122964654D02*
X193132022Y-123012273D01*
X193132022Y-123012273D02*
X193155832Y-123059892D01*
X193155832Y-123059892D02*
X193179641Y-123155130D01*
X193179641Y-123155130D02*
X193179641Y-123226558D01*
X193179641Y-123226558D02*
X193155832Y-123321796D01*
X193155832Y-123321796D02*
X193132022Y-123369415D01*
X193132022Y-123369415D02*
X193084403Y-123417035D01*
X193084403Y-123417035D02*
X193012975Y-123440844D01*
X193012975Y-123440844D02*
X192893927Y-123440844D01*
X193655832Y-123440844D02*
X193370118Y-123440844D01*
X193512975Y-123440844D02*
X193512975Y-122940844D01*
X193512975Y-122940844D02*
X193465356Y-123012273D01*
X193465356Y-123012273D02*
X193417737Y-123059892D01*
X193417737Y-123059892D02*
X193370118Y-123083701D01*
X193965355Y-122940844D02*
X194012974Y-122940844D01*
X194012974Y-122940844D02*
X194060593Y-122964654D01*
X194060593Y-122964654D02*
X194084403Y-122988463D01*
X194084403Y-122988463D02*
X194108212Y-123036082D01*
X194108212Y-123036082D02*
X194132022Y-123131320D01*
X194132022Y-123131320D02*
X194132022Y-123250368D01*
X194132022Y-123250368D02*
X194108212Y-123345606D01*
X194108212Y-123345606D02*
X194084403Y-123393225D01*
X194084403Y-123393225D02*
X194060593Y-123417035D01*
X194060593Y-123417035D02*
X194012974Y-123440844D01*
X194012974Y-123440844D02*
X193965355Y-123440844D01*
X193965355Y-123440844D02*
X193917736Y-123417035D01*
X193917736Y-123417035D02*
X193893927Y-123393225D01*
X193893927Y-123393225D02*
X193870117Y-123345606D01*
X193870117Y-123345606D02*
X193846308Y-123250368D01*
X193846308Y-123250368D02*
X193846308Y-123131320D01*
X193846308Y-123131320D02*
X193870117Y-123036082D01*
X193870117Y-123036082D02*
X193893927Y-122988463D01*
X193893927Y-122988463D02*
X193917736Y-122964654D01*
X193917736Y-122964654D02*
X193965355Y-122940844D01*
%TO.C,Q7*%
D15*
X122681070Y-87102235D02*
X123681070Y-87102235D01*
X122681070Y-88622235D02*
X122681070Y-87102235D01*
X122731070Y-88622235D02*
X122681070Y-88622235D01*
X124631070Y-88622235D02*
X123851070Y-88622235D01*
X124801070Y-87102235D02*
X125801070Y-87102235D01*
X125801070Y-87102235D02*
X125801070Y-88622235D01*
X125801070Y-88622235D02*
X125751070Y-88622235D01*
X124191070Y-89402235D02*
X123861070Y-89162235D01*
X124191070Y-88922235D01*
X124191070Y-89402235D01*
G36*
X124191070Y-89402235D02*
G01*
X123861070Y-89162235D01*
X124191070Y-88922235D01*
X124191070Y-89402235D01*
G37*
%TO.C,R24*%
X195619070Y-99007594D02*
X195619070Y-99314876D01*
X196379070Y-99007594D02*
X196379070Y-99314876D01*
%TO.C,R21*%
X142406070Y-83693876D02*
X142406070Y-83386594D01*
X143166070Y-83693876D02*
X143166070Y-83386594D01*
%TO.C,R11*%
X145191070Y-104521876D02*
X145191070Y-104214594D01*
X145951070Y-104521876D02*
X145951070Y-104214594D01*
%TO.C,D9*%
D16*
X147801070Y-125022235D02*
X147801070Y-126422235D01*
X148701070Y-126422235D02*
X149201070Y-126422235D01*
X149201070Y-125022235D02*
X147801070Y-125022235D01*
X149201070Y-126422235D02*
X149201070Y-125922235D01*
%TO.C,R32*%
D15*
X177839070Y-105484594D02*
X177839070Y-105791876D01*
X178599070Y-105484594D02*
X178599070Y-105791876D01*
%TO.C,J7*%
X145261070Y-117392235D02*
X147661070Y-117392235D01*
X145261070Y-119792235D02*
X145261070Y-117392235D01*
X147661070Y-117392235D02*
X147661070Y-119792235D01*
X147661070Y-119792235D02*
X145261070Y-119792235D01*
%TO.C,J4*%
X143801070Y-80587235D02*
X143801070Y-78687235D01*
X143801070Y-84487235D02*
X143801070Y-82487235D01*
X153201070Y-78687235D02*
X143801070Y-78687235D01*
X153201070Y-80587235D02*
X153201070Y-78687235D01*
X153201070Y-84487235D02*
X153201070Y-82487235D01*
%TO.C,D3*%
X124551070Y-89652235D02*
X124551070Y-91652235D01*
X124551070Y-89652235D02*
X128561070Y-89652235D01*
X124551070Y-91652235D02*
X128561070Y-91652235D01*
%TO.C,D8*%
D16*
X102801070Y-121322235D02*
X102801070Y-121822235D01*
X102801070Y-122722235D02*
X104201070Y-122722235D01*
X103301070Y-121322235D02*
X102801070Y-121322235D01*
X104201070Y-122722235D02*
X104201070Y-121322235D01*
%TO.C,D1*%
D15*
X191221070Y-91442235D02*
X191221070Y-93442235D01*
X191221070Y-91442235D02*
X195231070Y-91442235D01*
X191221070Y-93442235D02*
X195231070Y-93442235D01*
%TO.C,R19*%
X106465070Y-122047876D02*
X106465070Y-121740594D01*
X107225070Y-122047876D02*
X107225070Y-121740594D01*
%TO.C,R7*%
X150432711Y-92939235D02*
X150125429Y-92939235D01*
X150432711Y-93699235D02*
X150125429Y-93699235D01*
%TO.C,C34*%
X154999070Y-88220071D02*
X154999070Y-88004399D01*
X155719070Y-88220071D02*
X155719070Y-88004399D01*
%TO.C,C15*%
X103308234Y-119629235D02*
X103523906Y-119629235D01*
X103308234Y-120349235D02*
X103523906Y-120349235D01*
%TO.C,C17*%
X193224234Y-120010235D02*
X193439906Y-120010235D01*
X193224234Y-120730235D02*
X193439906Y-120730235D01*
%TO.C,J3*%
X182070000Y-105200000D02*
G75*
G02*
X180670000Y-105200000I-700000J0D01*
G01*
X180670000Y-105200000D02*
G75*
G02*
X182070000Y-105200000I700000J0D01*
G01*
%TO.C,R9*%
X153064711Y-90782235D02*
X152757429Y-90782235D01*
X153064711Y-91542235D02*
X152757429Y-91542235D01*
%TO.C,SW6*%
D17*
X191201070Y-83097235D02*
X191201070Y-81897235D01*
X192301070Y-83197235D02*
X194701070Y-83197235D01*
X192501080Y-79687235D02*
X194501070Y-79687235D01*
X192501080Y-80797135D02*
X192501080Y-79687235D01*
X194501070Y-80797135D02*
X194501070Y-79687235D01*
X195801070Y-83097235D02*
X195801070Y-81897235D01*
%TO.C,U3*%
D15*
X146891070Y-103662235D02*
X147566070Y-103662235D01*
X146891070Y-103837235D02*
X146891070Y-103662235D01*
X146891070Y-106382235D02*
X146891070Y-106207235D01*
X147566070Y-106382235D02*
X146891070Y-106382235D01*
X149436070Y-103662235D02*
X150111070Y-103662235D01*
X150111070Y-103662235D02*
X150111070Y-103837235D01*
X150111070Y-106207235D02*
X150111070Y-106382235D01*
X150111070Y-106382235D02*
X149436070Y-106382235D01*
X146761070Y-104272235D02*
X146431070Y-104512235D01*
X146431070Y-104032235D01*
X146761070Y-104272235D01*
G36*
X146761070Y-104272235D02*
G01*
X146431070Y-104512235D01*
X146431070Y-104032235D01*
X146761070Y-104272235D01*
G37*
%TO.C,SW5*%
D17*
X181201070Y-83097235D02*
X181201070Y-81897235D01*
X182301070Y-83197235D02*
X184701070Y-83197235D01*
X182501080Y-79687235D02*
X184501070Y-79687235D01*
X182501080Y-80797135D02*
X182501080Y-79687235D01*
X184501070Y-80797135D02*
X184501070Y-79687235D01*
X185801070Y-83097235D02*
X185801070Y-81897235D01*
%TO.C,U7*%
D15*
X131589070Y-87949235D02*
X133409070Y-87949235D01*
X131589070Y-87999235D02*
X131589070Y-87949235D01*
X131589070Y-91069235D02*
X131589070Y-91019235D01*
X133409070Y-87949235D02*
X133409070Y-87999235D01*
X133409070Y-89119235D02*
X133409070Y-89899235D01*
X133409070Y-91019235D02*
X133409070Y-91069235D01*
X133409070Y-91069235D02*
X131589070Y-91069235D01*
X131049070Y-87999235D02*
X130809070Y-87669235D01*
X131289070Y-87669235D01*
X131049070Y-87999235D01*
G36*
X131049070Y-87999235D02*
G01*
X130809070Y-87669235D01*
X131289070Y-87669235D01*
X131049070Y-87999235D01*
G37*
%TO.C,R8*%
X150432711Y-97511235D02*
X150125429Y-97511235D01*
X150432711Y-98271235D02*
X150125429Y-98271235D01*
%TO.C,U6*%
X132495502Y-95237235D02*
X134311070Y-95237235D01*
X134311070Y-97507235D02*
X132091070Y-97507235D01*
X132201070Y-95232235D02*
X132061070Y-95042235D01*
X132341070Y-95042235D01*
X132201070Y-95232235D01*
G36*
X132201070Y-95232235D02*
G01*
X132061070Y-95042235D01*
X132341070Y-95042235D01*
X132201070Y-95232235D01*
G37*
%TO.C,Q5*%
X149261070Y-89472235D02*
X150781070Y-89472235D01*
X149261070Y-90472235D02*
X149261070Y-89472235D01*
X149261070Y-92592235D02*
X149261070Y-91592235D01*
X150781070Y-89472235D02*
X150781070Y-89522235D01*
X150781070Y-90642235D02*
X150781070Y-91422235D01*
X150781070Y-92542235D02*
X150781070Y-92592235D01*
X150781070Y-92592235D02*
X149261070Y-92592235D01*
X151321070Y-91412235D02*
X151081070Y-91082235D01*
X151561070Y-91082235D01*
X151321070Y-91412235D01*
G36*
X151321070Y-91412235D02*
G01*
X151081070Y-91082235D01*
X151561070Y-91082235D01*
X151321070Y-91412235D01*
G37*
%TO.C,C10*%
X139759070Y-90506071D02*
X139759070Y-90290399D01*
X140479070Y-90506071D02*
X140479070Y-90290399D01*
%TO.C,R40*%
X155233070Y-103378876D02*
X155233070Y-103071594D01*
X155993070Y-103378876D02*
X155993070Y-103071594D01*
%TO.C,U2*%
X135791070Y-101037235D02*
X135886070Y-101037235D01*
X135791070Y-105157235D02*
X135791070Y-101037235D01*
X135886070Y-105157235D02*
X135791070Y-105157235D01*
X140816070Y-101037235D02*
X140911070Y-101037235D01*
X140911070Y-101037235D02*
X140911070Y-105157235D01*
X140911070Y-105157235D02*
X140816070Y-105157235D01*
X135881070Y-105697235D02*
X135551070Y-105937235D01*
X135551070Y-105457235D01*
X135881070Y-105697235D01*
G36*
X135881070Y-105697235D02*
G01*
X135551070Y-105937235D01*
X135551070Y-105457235D01*
X135881070Y-105697235D01*
G37*
%TO.C,U4*%
X141191070Y-89949735D02*
X141916070Y-89949735D01*
X141191070Y-90674735D02*
X141191070Y-89949735D01*
X141191070Y-95169735D02*
X141191070Y-94444735D01*
X141916070Y-95169735D02*
X141191070Y-95169735D01*
X145686070Y-89949735D02*
X146411070Y-89949735D01*
X146411070Y-89949735D02*
X146411070Y-90674735D01*
X146411070Y-94444735D02*
X146411070Y-95169735D01*
X146411070Y-95169735D02*
X145686070Y-95169735D01*
X145301070Y-89449735D02*
X145061070Y-89119735D01*
X145541070Y-89119735D01*
X145301070Y-89449735D01*
G36*
X145301070Y-89449735D02*
G01*
X145061070Y-89119735D01*
X145541070Y-89119735D01*
X145301070Y-89449735D01*
G37*
%TO.C,C6*%
X198179070Y-92030071D02*
X198179070Y-91814399D01*
X198899070Y-92030071D02*
X198899070Y-91814399D01*
%TO.C,SW9*%
X150001070Y-125272235D02*
X150001070Y-126772235D01*
X151251070Y-129272235D02*
X155751070Y-129272235D01*
X155751070Y-122772235D02*
X151251070Y-122772235D01*
X157001070Y-126772235D02*
X157001070Y-125272235D01*
%TO.C,Q6*%
X149261070Y-94042235D02*
X150781070Y-94042235D01*
X149261070Y-95042235D02*
X149261070Y-94042235D01*
X149261070Y-97162235D02*
X149261070Y-96162235D01*
X150781070Y-94042235D02*
X150781070Y-94092235D01*
X150781070Y-95212235D02*
X150781070Y-95992235D01*
X150781070Y-97112235D02*
X150781070Y-97162235D01*
X150781070Y-97162235D02*
X149261070Y-97162235D01*
X151321070Y-95982235D02*
X151081070Y-95652235D01*
X151561070Y-95652235D01*
X151321070Y-95982235D01*
G36*
X151321070Y-95982235D02*
G01*
X151081070Y-95652235D01*
X151561070Y-95652235D01*
X151321070Y-95982235D01*
G37*
%TO.C,C8*%
X156269070Y-88220071D02*
X156269070Y-88004399D01*
X156989070Y-88220071D02*
X156989070Y-88004399D01*
%TO.C,R18*%
X135266429Y-87478235D02*
X135573711Y-87478235D01*
X135266429Y-88238235D02*
X135573711Y-88238235D01*
%TO.C,SW13*%
D17*
X199651070Y-90722235D02*
X199651070Y-93122235D01*
X199751070Y-89622235D02*
X200951070Y-89622235D01*
X199751070Y-94222235D02*
X200951070Y-94222235D01*
X202051170Y-90922245D02*
X203161070Y-90922245D01*
X202051170Y-92922235D02*
X203161070Y-92922235D01*
X203161070Y-90922245D02*
X203161070Y-92922235D01*
%TO.C,SW1*%
D15*
X97176070Y-102097235D02*
X99976070Y-102097235D01*
X97176070Y-106997235D02*
X97176070Y-102097235D01*
X97176070Y-115497235D02*
X97176070Y-110597235D01*
X103476070Y-108297235D02*
X103476070Y-109297235D01*
X103976070Y-108797235D02*
X102976070Y-108797235D01*
X107276070Y-101297235D02*
X107576070Y-100997235D01*
X107576070Y-100997235D02*
X107576070Y-101597235D01*
X107576070Y-101597235D02*
X107276070Y-101297235D01*
X109776070Y-102097235D02*
X107276070Y-102097235D01*
X109776070Y-106897235D02*
X109776070Y-102097235D01*
X109776070Y-110597235D02*
X109776070Y-115497235D01*
X109776070Y-115497235D02*
X97176070Y-115497235D01*
X106476070Y-108797235D02*
G75*
G02*
X100476070Y-108797235I-3000000J0D01*
G01*
X100476070Y-108797235D02*
G75*
G02*
X106476070Y-108797235I3000000J0D01*
G01*
%TO.C,BZ1*%
D18*
X191501070Y-87022235D02*
X191501070Y-87772235D01*
X191501070Y-91022235D02*
X191501070Y-90272235D01*
X191501070Y-91022235D02*
X195501070Y-91022235D01*
X192601070Y-89022235D02*
X193201070Y-89022235D01*
X192901070Y-89322235D02*
X192901070Y-88722235D01*
X195501070Y-87022235D02*
X191501070Y-87022235D01*
X195501070Y-87022235D02*
X195501070Y-87772235D01*
X195501070Y-91022235D02*
X195501070Y-90272235D01*
%TO.C,R20*%
D15*
X153963070Y-83513594D02*
X153963070Y-83820876D01*
X154723070Y-83513594D02*
X154723070Y-83820876D01*
%TO.C,Q3*%
X188251070Y-85792235D02*
X189771070Y-85792235D01*
X188251070Y-85842235D02*
X188251070Y-85792235D01*
X188251070Y-87742235D02*
X188251070Y-86962235D01*
X188251070Y-88912235D02*
X188251070Y-88862235D01*
X189771070Y-85792235D02*
X189771070Y-86792235D01*
X189771070Y-87912235D02*
X189771070Y-88912235D01*
X189771070Y-88912235D02*
X188251070Y-88912235D01*
X187951070Y-87302235D02*
X187471070Y-87302235D01*
X187711070Y-86972235D01*
X187951070Y-87302235D01*
G36*
X187951070Y-87302235D02*
G01*
X187471070Y-87302235D01*
X187711070Y-86972235D01*
X187951070Y-87302235D01*
G37*
%TO.C,SW8*%
X140001070Y-125272235D02*
X140001070Y-126772235D01*
X141251070Y-129272235D02*
X145751070Y-129272235D01*
X145751070Y-122772235D02*
X141251070Y-122772235D01*
X147001070Y-126772235D02*
X147001070Y-125272235D01*
%TO.C,R26*%
X198692711Y-94209235D02*
X198385429Y-94209235D01*
X198692711Y-94969235D02*
X198385429Y-94969235D01*
%TO.C,SW2*%
X187201070Y-102097235D02*
X190001070Y-102097235D01*
X187201070Y-106997235D02*
X187201070Y-102097235D01*
X187201070Y-115497235D02*
X187201070Y-110597235D01*
X193501070Y-108297235D02*
X193501070Y-109297235D01*
X194001070Y-108797235D02*
X193001070Y-108797235D01*
X197301070Y-101297235D02*
X197601070Y-100997235D01*
X197601070Y-100997235D02*
X197601070Y-101597235D01*
X197601070Y-101597235D02*
X197301070Y-101297235D01*
X199801070Y-102097235D02*
X197301070Y-102097235D01*
X199801070Y-106897235D02*
X199801070Y-102097235D01*
X199801070Y-110597235D02*
X199801070Y-115497235D01*
X199801070Y-115497235D02*
X187201070Y-115497235D01*
X196501070Y-108797235D02*
G75*
G02*
X190501070Y-108797235I-3000000J0D01*
G01*
X190501070Y-108797235D02*
G75*
G02*
X196501070Y-108797235I3000000J0D01*
G01*
%TO.C,C16*%
X148393234Y-121915235D02*
X148608906Y-121915235D01*
X148393234Y-122635235D02*
X148608906Y-122635235D01*
%TO.C,SW7*%
X125001070Y-125272235D02*
X125001070Y-126772235D01*
X126251070Y-129272235D02*
X130751070Y-129272235D01*
X130751070Y-122772235D02*
X126251070Y-122772235D01*
X132001070Y-126772235D02*
X132001070Y-125272235D01*
%TO.C,R10*%
X152058070Y-96139876D02*
X152058070Y-95832594D01*
X152818070Y-96139876D02*
X152818070Y-95832594D01*
%TO.C,J8*%
X155678070Y-91160235D02*
G75*
G02*
X154278070Y-91160235I-700000J0D01*
G01*
X154278070Y-91160235D02*
G75*
G02*
X155678070Y-91160235I700000J0D01*
G01*
%TO.C,C14*%
X135568070Y-89871071D02*
X135568070Y-89655399D01*
X136288070Y-89871071D02*
X136288070Y-89655399D01*
%TO.C,U1*%
X158351070Y-79957235D02*
X158351070Y-86157235D01*
X158351070Y-79957235D02*
X176751070Y-79957235D01*
X158351070Y-104807235D02*
X158351070Y-105807235D01*
X158351070Y-105807235D02*
X159851070Y-105807235D01*
X176751070Y-79957235D02*
X176751070Y-86157235D01*
X176751070Y-105807235D02*
X175251070Y-105807235D01*
X176751070Y-105807235D02*
X176751070Y-104807235D01*
X158351070Y-86832235D02*
X157851070Y-86832235D01*
X158351070Y-86332235D01*
X158351070Y-86832235D01*
G36*
X158351070Y-86832235D02*
G01*
X157851070Y-86832235D01*
X158351070Y-86332235D01*
X158351070Y-86832235D01*
G37*
%TO.C,SW4*%
D17*
X101201070Y-83097235D02*
X101201070Y-81897235D01*
X102301070Y-83197235D02*
X104701070Y-83197235D01*
X102501080Y-79687235D02*
X104501070Y-79687235D01*
X102501080Y-80797135D02*
X102501080Y-79687235D01*
X104501070Y-80797135D02*
X104501070Y-79687235D01*
X105801070Y-83097235D02*
X105801070Y-81897235D01*
%TO.C,J6*%
D15*
X142351070Y-117392235D02*
X144751070Y-117392235D01*
X142351070Y-119792235D02*
X142351070Y-117392235D01*
X144751070Y-117392235D02*
X144751070Y-119792235D01*
X144751070Y-119792235D02*
X142351070Y-119792235D01*
%TO.C,C35*%
X134679070Y-101212399D02*
X134679070Y-101428071D01*
X135399070Y-101212399D02*
X135399070Y-101428071D01*
%TO.C,SW10*%
X165001070Y-125272235D02*
X165001070Y-126772235D01*
X166251070Y-129272235D02*
X170751070Y-129272235D01*
X170751070Y-122772235D02*
X166251070Y-122772235D01*
X172001070Y-126772235D02*
X172001070Y-125272235D01*
%TO.C,C27*%
X130241070Y-96440071D02*
X130241070Y-96224399D01*
X130961070Y-96440071D02*
X130961070Y-96224399D01*
%TO.C,R39*%
X121451070Y-87704594D02*
X121451070Y-88011876D01*
X122211070Y-87704594D02*
X122211070Y-88011876D01*
%TO.C,R25*%
X190539070Y-99007594D02*
X190539070Y-99314876D01*
X191299070Y-99007594D02*
X191299070Y-99314876D01*
%TO.C,R23*%
X101029711Y-98527235D02*
X100722429Y-98527235D01*
X101029711Y-99287235D02*
X100722429Y-99287235D01*
%TO.C,R41*%
X155233070Y-105357594D02*
X155233070Y-105664876D01*
X155993070Y-105357594D02*
X155993070Y-105664876D01*
%TO.C,SW3*%
D17*
X111201070Y-83097235D02*
X111201070Y-81897235D01*
X112301070Y-83197235D02*
X114701070Y-83197235D01*
X112501080Y-79687235D02*
X114501070Y-79687235D01*
X112501080Y-80797135D02*
X112501080Y-79687235D01*
X114501070Y-80797135D02*
X114501070Y-79687235D01*
X115801070Y-83097235D02*
X115801070Y-81897235D01*
%TO.C,C11*%
D15*
X138610000Y-90497836D02*
X138610000Y-90282164D01*
X139330000Y-90497836D02*
X139330000Y-90282164D01*
%TO.C,C9*%
X142004906Y-88514235D02*
X141789234Y-88514235D01*
X142004906Y-89234235D02*
X141789234Y-89234235D01*
%TO.C,R22*%
X106056429Y-98527235D02*
X106363711Y-98527235D01*
X106056429Y-99287235D02*
X106363711Y-99287235D01*
%TO.C,C26*%
X150411070Y-106546399D02*
X150411070Y-106762071D01*
X151131070Y-106546399D02*
X151131070Y-106762071D01*
%TO.C,D10*%
D16*
X192801070Y-121322235D02*
X192801070Y-121822235D01*
X192801070Y-122722235D02*
X194201070Y-122722235D01*
X193301070Y-121322235D02*
X192801070Y-121322235D01*
X194201070Y-122722235D02*
X194201070Y-121322235D01*
%TD*%
M02*
