%TF.GenerationSoftware,KiCad,Pcbnew,10.0.0*%
%TF.CreationDate,2026-04-14T22:13:58+03:00*%
%TF.ProjectId,RADR,52414452-2e6b-4696-9361-645f70636258,rev?*%
%TF.SameCoordinates,Original*%
%TF.FileFunction,Profile,NP*%
%FSLAX46Y46*%
G04 Gerber Fmt 4.6, Leading zero omitted, Abs format (unit mm)*
G04 Created by KiCad (PCBNEW 10.0.0) date 2026-04-14 22:13:58*
%MOMM*%
%LPD*%
G01*
G04 APERTURE LIST*
%TA.AperFunction,Profile*%
%ADD10C,0.050000*%
%TD*%
G04 APERTURE END LIST*
D10*
X93583136Y-84334515D02*
G75*
G02*
X97564142Y-80253761I3999164J80815D01*
G01*
X93583420Y-125904980D02*
X94001070Y-105022235D01*
X94001070Y-105022235D02*
X93583136Y-84334515D01*
X97564142Y-80253766D02*
X148501070Y-80022235D01*
X97618979Y-129984800D02*
G75*
G02*
X93583435Y-125904980I-36379J3999800D01*
G01*
X103000990Y-81697245D02*
G75*
G02*
X102300970Y-81697245I-350010J0D01*
G01*
X102300970Y-81697245D02*
G75*
G02*
X103000990Y-81697245I350010J0D01*
G01*
X104701020Y-81697245D02*
G75*
G02*
X104001000Y-81697245I-350010J0D01*
G01*
X104001000Y-81697245D02*
G75*
G02*
X104701020Y-81697245I350010J0D01*
G01*
X113000990Y-81697245D02*
G75*
G02*
X112300970Y-81697245I-350010J0D01*
G01*
X112300970Y-81697245D02*
G75*
G02*
X113000990Y-81697245I350010J0D01*
G01*
X112814070Y-97383235D02*
G75*
G02*
X114592070Y-95605170I1778030J35D01*
G01*
X112814070Y-111480235D02*
X112814070Y-97383235D01*
X114701010Y-81697245D02*
G75*
G02*
X114000990Y-81697245I-350010J0D01*
G01*
X114000990Y-81697245D02*
G75*
G02*
X114701010Y-81697245I350010J0D01*
G01*
X114592070Y-95605235D02*
G75*
G02*
X116370065Y-97383235I30J-1777965D01*
G01*
X114592070Y-113258235D02*
G75*
G02*
X112814065Y-111480235I30J1778035D01*
G01*
X116370070Y-97383235D02*
X116370070Y-111480235D01*
X116370070Y-111480235D02*
G75*
G02*
X114592070Y-113258170I-1777970J35D01*
G01*
X148501070Y-80022235D02*
X199437997Y-80253766D01*
X148501070Y-129522235D02*
X97618979Y-129984800D01*
X183000990Y-81697245D02*
G75*
G02*
X182300970Y-81697245I-350010J0D01*
G01*
X182300970Y-81697245D02*
G75*
G02*
X183000990Y-81697245I350010J0D01*
G01*
X184701020Y-81697245D02*
G75*
G02*
X184001000Y-81697245I-350010J0D01*
G01*
X184001000Y-81697245D02*
G75*
G02*
X184701020Y-81697245I350010J0D01*
G01*
X193000990Y-81697245D02*
G75*
G02*
X192300970Y-81697245I-350010J0D01*
G01*
X192300970Y-81697245D02*
G75*
G02*
X193000990Y-81697245I350010J0D01*
G01*
X194701020Y-81697245D02*
G75*
G02*
X194000980Y-81697245I-350020J0D01*
G01*
X194000980Y-81697245D02*
G75*
G02*
X194701020Y-81697245I350020J0D01*
G01*
X199383170Y-129984795D02*
X148501070Y-129522235D01*
X199437997Y-80253766D02*
G75*
G02*
X203418959Y-84334519I-18197J-3999934D01*
G01*
X201500080Y-91072145D02*
G75*
G02*
X200800040Y-91072145I-350020J0D01*
G01*
X200800040Y-91072145D02*
G75*
G02*
X201500080Y-91072145I350020J0D01*
G01*
X201500080Y-92772165D02*
G75*
G02*
X200800040Y-92772165I-350020J0D01*
G01*
X200800040Y-92772165D02*
G75*
G02*
X201500080Y-92772165I350020J0D01*
G01*
X203001070Y-105022235D02*
X203418730Y-125904987D01*
X203418730Y-125904987D02*
G75*
G02*
X199383167Y-129984865I-3999230J-80013D01*
G01*
X203419000Y-84334515D02*
X203001070Y-105022235D01*
%TO.C,SW6*%
X192951070Y-81697235D02*
G75*
G02*
X192351070Y-81697235I-300000J0D01*
G01*
X192351070Y-81697235D02*
G75*
G02*
X192951070Y-81697235I300000J0D01*
G01*
X194651070Y-81697235D02*
G75*
G02*
X194051070Y-81697235I-300000J0D01*
G01*
X194051070Y-81697235D02*
G75*
G02*
X194651070Y-81697235I300000J0D01*
G01*
%TO.C,SW5*%
X182951070Y-81697235D02*
G75*
G02*
X182351070Y-81697235I-300000J0D01*
G01*
X182351070Y-81697235D02*
G75*
G02*
X182951070Y-81697235I300000J0D01*
G01*
X184651070Y-81697235D02*
G75*
G02*
X184051070Y-81697235I-300000J0D01*
G01*
X184051070Y-81697235D02*
G75*
G02*
X184651070Y-81697235I300000J0D01*
G01*
%TO.C,SW13*%
X201451070Y-91072235D02*
G75*
G02*
X200851070Y-91072235I-300000J0D01*
G01*
X200851070Y-91072235D02*
G75*
G02*
X201451070Y-91072235I300000J0D01*
G01*
X201451070Y-92772235D02*
G75*
G02*
X200851070Y-92772235I-300000J0D01*
G01*
X200851070Y-92772235D02*
G75*
G02*
X201451070Y-92772235I300000J0D01*
G01*
%TO.C,SW4*%
X102951070Y-81697235D02*
G75*
G02*
X102351070Y-81697235I-300000J0D01*
G01*
X102351070Y-81697235D02*
G75*
G02*
X102951070Y-81697235I300000J0D01*
G01*
X104651070Y-81697235D02*
G75*
G02*
X104051070Y-81697235I-300000J0D01*
G01*
X104051070Y-81697235D02*
G75*
G02*
X104651070Y-81697235I300000J0D01*
G01*
%TO.C,SW3*%
X112951070Y-81697235D02*
G75*
G02*
X112351070Y-81697235I-300000J0D01*
G01*
X112351070Y-81697235D02*
G75*
G02*
X112951070Y-81697235I300000J0D01*
G01*
X114651070Y-81697235D02*
G75*
G02*
X114051070Y-81697235I-300000J0D01*
G01*
X114051070Y-81697235D02*
G75*
G02*
X114651070Y-81697235I300000J0D01*
G01*
%TD*%
M02*
