%TF.GenerationSoftware,KiCad,Pcbnew,10.0.0*%
%TF.CreationDate,2026-04-14T22:13:58+03:00*%
%TF.ProjectId,RADR,52414452-2e6b-4696-9361-645f70636258,rev?*%
%TF.SameCoordinates,Original*%
%TF.FileFunction,Paste,Top*%
%TF.FilePolarity,Positive*%
%FSLAX46Y46*%
G04 Gerber Fmt 4.6, Leading zero omitted, Abs format (unit mm)*
G04 Created by KiCad (PCBNEW 10.0.0) date 2026-04-14 22:13:58*
%MOMM*%
%LPD*%
G01*
G04 APERTURE LIST*
G04 Aperture macros list*
%AMRoundRect*
0 Rectangle with rounded corners*
0 $1 Rounding radius*
0 $2 $3 $4 $5 $6 $7 $8 $9 X,Y pos of 4 corners*
0 Add a 4 corners polygon primitive as box body*
4,1,4,$2,$3,$4,$5,$6,$7,$8,$9,$2,$3,0*
0 Add four circle primitives for the rounded corners*
1,1,$1+$1,$2,$3*
1,1,$1+$1,$4,$5*
1,1,$1+$1,$6,$7*
1,1,$1+$1,$8,$9*
0 Add four rect primitives between the rounded corners*
20,1,$1+$1,$2,$3,$4,$5,0*
20,1,$1+$1,$4,$5,$6,$7,0*
20,1,$1+$1,$6,$7,$8,$9,0*
20,1,$1+$1,$8,$9,$2,$3,0*%
%AMFreePoly0*
4,1,5,0.325000,-0.650000,-0.325000,-0.650000,-0.325000,0.650000,0.325000,0.650000,0.325000,-0.650000,0.325000,-0.650000,$1*%
%AMFreePoly1*
4,1,5,0.200000,-0.325000,-0.200000,-0.325000,-0.200000,0.325000,0.200000,0.325000,0.200000,-0.325000,0.200000,-0.325000,$1*%
G04 Aperture macros list end*
%ADD10RoundRect,0.150000X0.150000X-0.587500X0.150000X0.587500X-0.150000X0.587500X-0.150000X-0.587500X0*%
%ADD11RoundRect,0.135000X-0.185000X0.135000X-0.185000X-0.135000X0.185000X-0.135000X0.185000X0.135000X0*%
%ADD12RoundRect,0.135000X0.185000X-0.135000X0.185000X0.135000X-0.185000X0.135000X-0.185000X-0.135000X0*%
%ADD13R,0.450000X0.450000*%
%ADD14RoundRect,0.150000X0.150000X0.575000X-0.150000X0.575000X-0.150000X-0.575000X0.150000X-0.575000X0*%
%ADD15RoundRect,0.075000X0.075000X0.650000X-0.075000X0.650000X-0.075000X-0.650000X0.075000X-0.650000X0*%
%ADD16RoundRect,0.225000X-0.225000X-0.375000X0.225000X-0.375000X0.225000X0.375000X-0.225000X0.375000X0*%
%ADD17RoundRect,0.135000X0.135000X0.185000X-0.135000X0.185000X-0.135000X-0.185000X0.135000X-0.185000X0*%
%ADD18RoundRect,0.140000X0.170000X-0.140000X0.170000X0.140000X-0.170000X0.140000X-0.170000X-0.140000X0*%
%ADD19RoundRect,0.140000X-0.140000X-0.170000X0.140000X-0.170000X0.140000X0.170000X-0.140000X0.170000X0*%
%ADD20FreePoly0,180.000000*%
%ADD21FreePoly1,180.000000*%
%ADD22R,0.600000X1.200000*%
%ADD23RoundRect,0.087500X-0.225000X-0.087500X0.225000X-0.087500X0.225000X0.087500X-0.225000X0.087500X0*%
%ADD24RoundRect,0.087500X-0.087500X-0.225000X0.087500X-0.225000X0.087500X0.225000X-0.087500X0.225000X0*%
%ADD25RoundRect,0.150000X-0.512500X-0.150000X0.512500X-0.150000X0.512500X0.150000X-0.512500X0.150000X0*%
%ADD26RoundRect,0.090000X-0.090000X-0.210000X0.090000X-0.210000X0.090000X0.210000X-0.090000X0.210000X0*%
%ADD27RoundRect,0.062500X-0.287500X-0.062500X0.287500X-0.062500X0.287500X0.062500X-0.287500X0.062500X0*%
%ADD28RoundRect,0.150000X0.587500X0.150000X-0.587500X0.150000X-0.587500X-0.150000X0.587500X-0.150000X0*%
%ADD29RoundRect,0.150000X0.150000X-0.825000X0.150000X0.825000X-0.150000X0.825000X-0.150000X-0.825000X0*%
%ADD30RoundRect,0.225000X-0.225000X0.225000X-0.225000X-0.225000X0.225000X-0.225000X0.225000X0.225000X0*%
%ADD31RoundRect,0.062500X-0.062500X0.337500X-0.062500X-0.337500X0.062500X-0.337500X0.062500X0.337500X0*%
%ADD32RoundRect,0.062500X-0.337500X0.062500X-0.337500X-0.062500X0.337500X-0.062500X0.337500X0.062500X0*%
%ADD33RoundRect,0.135000X-0.135000X-0.185000X0.135000X-0.185000X0.135000X0.185000X-0.135000X0.185000X0*%
%ADD34FreePoly0,90.000000*%
%ADD35FreePoly1,90.000000*%
%ADD36R,1.200000X0.600000*%
%ADD37R,0.900000X1.800000*%
%ADD38RoundRect,0.150000X-0.587500X-0.150000X0.587500X-0.150000X0.587500X0.150000X-0.587500X0.150000X0*%
%ADD39R,0.900000X0.900000*%
%ADD40R,1.500000X0.900000*%
%ADD41R,0.900000X1.500000*%
%ADD42RoundRect,0.140000X-0.170000X0.140000X-0.170000X-0.140000X0.170000X-0.140000X0.170000X0.140000X0*%
%ADD43RoundRect,0.140000X0.140000X0.170000X-0.140000X0.170000X-0.140000X-0.170000X0.140000X-0.170000X0*%
G04 APERTURE END LIST*
D10*
%TO.C,Q7*%
X123291070Y-88799735D03*
X125191070Y-88799735D03*
X124241070Y-86924735D03*
%TD*%
D11*
%TO.C,R24*%
X195999070Y-98651235D03*
X195999070Y-99671235D03*
%TD*%
D12*
%TO.C,R21*%
X142786070Y-84050235D03*
X142786070Y-83030235D03*
%TD*%
%TO.C,R11*%
X145571070Y-104878235D03*
X145571070Y-103858235D03*
%TD*%
D13*
%TO.C,D9*%
X148926070Y-126147235D03*
X148076070Y-126147235D03*
X148926070Y-125297235D03*
X148076070Y-125297235D03*
%TD*%
D11*
%TO.C,R32*%
X178219070Y-105128235D03*
X178219070Y-106148235D03*
%TD*%
D14*
%TO.C,J4*%
X151751070Y-86632235D03*
X150951070Y-86632235D03*
D15*
X149751070Y-86632235D03*
X148751070Y-86632235D03*
X148251070Y-86632235D03*
X147251070Y-86632235D03*
D14*
X146051070Y-86632235D03*
X145251070Y-86632235D03*
X145251070Y-86632235D03*
X146051070Y-86632235D03*
D15*
X146751070Y-86632235D03*
X147751070Y-86632235D03*
X149251070Y-86632235D03*
X150251070Y-86632235D03*
D14*
X150951070Y-86632235D03*
X151751070Y-86632235D03*
%TD*%
D16*
%TO.C,D3*%
X125261070Y-90652235D03*
X128561070Y-90652235D03*
%TD*%
D13*
%TO.C,D8*%
X103076070Y-121597235D03*
X103926070Y-121597235D03*
X103076070Y-122447235D03*
X103926070Y-122447235D03*
%TD*%
D16*
%TO.C,D1*%
X191931070Y-92442235D03*
X195231070Y-92442235D03*
%TD*%
D12*
%TO.C,R19*%
X106845070Y-122404235D03*
X106845070Y-121384235D03*
%TD*%
D17*
%TO.C,R7*%
X150789070Y-93319235D03*
X149769070Y-93319235D03*
%TD*%
D18*
%TO.C,C34*%
X155359070Y-88592235D03*
X155359070Y-87632235D03*
%TD*%
D19*
%TO.C,C15*%
X102936070Y-119989235D03*
X103896070Y-119989235D03*
%TD*%
%TO.C,C17*%
X192852070Y-120370235D03*
X193812070Y-120370235D03*
%TD*%
D17*
%TO.C,R9*%
X153421070Y-91162235D03*
X152401070Y-91162235D03*
%TD*%
D20*
%TO.C,SW6*%
X191176070Y-81047235D03*
D21*
X191701070Y-80722235D03*
X195301070Y-80722235D03*
D20*
X195826070Y-81047235D03*
D22*
X191801070Y-82997235D03*
X195201070Y-82997235D03*
%TD*%
D23*
%TO.C,U3*%
X147338570Y-104272235D03*
X147338570Y-104772235D03*
X147338570Y-105272235D03*
X147338570Y-105772235D03*
D24*
X148001070Y-105934735D03*
X148501070Y-105934735D03*
X149001070Y-105934735D03*
D23*
X149663570Y-105772235D03*
X149663570Y-105272235D03*
X149663570Y-104772235D03*
X149663570Y-104272235D03*
D24*
X149001070Y-104109735D03*
X148501070Y-104109735D03*
X148001070Y-104109735D03*
%TD*%
D20*
%TO.C,SW5*%
X181176070Y-81047235D03*
D21*
X181701070Y-80722235D03*
X185301070Y-80722235D03*
D20*
X185826070Y-81047235D03*
D22*
X181801070Y-82997235D03*
X185201070Y-82997235D03*
%TD*%
D25*
%TO.C,U7*%
X131361570Y-88559235D03*
X131361570Y-89509235D03*
X131361570Y-90459235D03*
X133636570Y-90459235D03*
X133636570Y-88559235D03*
%TD*%
D17*
%TO.C,R8*%
X150789070Y-97891235D03*
X149769070Y-97891235D03*
%TD*%
D26*
%TO.C,U6*%
X132976070Y-95997235D03*
X132976070Y-96747235D03*
X133426070Y-95997235D03*
X133426070Y-96747235D03*
D27*
X132201070Y-95622235D03*
X132201070Y-96122235D03*
X132201070Y-96622235D03*
X132201070Y-97122235D03*
X134201070Y-97122235D03*
X134201070Y-96622235D03*
X134201070Y-96122235D03*
X134201070Y-95622235D03*
%TD*%
D28*
%TO.C,Q5*%
X150958570Y-91982235D03*
X150958570Y-90082235D03*
X149083570Y-91032235D03*
%TD*%
D18*
%TO.C,C10*%
X140119070Y-90878235D03*
X140119070Y-89918235D03*
%TD*%
D12*
%TO.C,R40*%
X155613070Y-103735235D03*
X155613070Y-102715235D03*
%TD*%
D29*
%TO.C,U2*%
X136446070Y-105572235D03*
X137716070Y-105572235D03*
X138986070Y-105572235D03*
X140256070Y-105572235D03*
X140256070Y-100622235D03*
X138986070Y-100622235D03*
X137716070Y-100622235D03*
X136446070Y-100622235D03*
%TD*%
D30*
%TO.C,U4*%
X144921070Y-91439735D03*
X143801070Y-91439735D03*
X142681070Y-91439735D03*
X144921070Y-92559735D03*
X143801070Y-92559735D03*
X142681070Y-92559735D03*
X144921070Y-93679735D03*
X143801070Y-93679735D03*
X142681070Y-93679735D03*
D31*
X145301070Y-90109735D03*
X144801070Y-90109735D03*
X144301070Y-90109735D03*
X143801070Y-90109735D03*
X143301070Y-90109735D03*
X142801070Y-90109735D03*
X142301070Y-90109735D03*
D32*
X141351070Y-91059735D03*
X141351070Y-91559735D03*
X141351070Y-92059735D03*
X141351070Y-92559735D03*
X141351070Y-93059735D03*
X141351070Y-93559735D03*
X141351070Y-94059735D03*
D31*
X142301070Y-95009735D03*
X142801070Y-95009735D03*
X143301070Y-95009735D03*
X143801070Y-95009735D03*
X144301070Y-95009735D03*
X144801070Y-95009735D03*
X145301070Y-95009735D03*
D32*
X146251070Y-94059735D03*
X146251070Y-93559735D03*
X146251070Y-93059735D03*
X146251070Y-92559735D03*
X146251070Y-92059735D03*
X146251070Y-91559735D03*
X146251070Y-91059735D03*
%TD*%
D18*
%TO.C,C6*%
X198539070Y-92402235D03*
X198539070Y-91442235D03*
%TD*%
D28*
%TO.C,Q6*%
X150958570Y-96552235D03*
X150958570Y-94652235D03*
X149083570Y-95602235D03*
%TD*%
D18*
%TO.C,C8*%
X156629070Y-88592235D03*
X156629070Y-87632235D03*
%TD*%
D33*
%TO.C,R18*%
X134910070Y-87858235D03*
X135930070Y-87858235D03*
%TD*%
D34*
%TO.C,SW13*%
X201801070Y-89597235D03*
D35*
X202126070Y-90122235D03*
X202126070Y-93722235D03*
D34*
X201801070Y-94247235D03*
D36*
X199851070Y-90222235D03*
X199851070Y-93622235D03*
%TD*%
D37*
%TO.C,BZ1*%
X191751070Y-89022235D03*
X195251070Y-89022235D03*
%TD*%
D11*
%TO.C,R20*%
X154343070Y-83157235D03*
X154343070Y-84177235D03*
%TD*%
D38*
%TO.C,Q3*%
X188073570Y-86402235D03*
X188073570Y-88302235D03*
X189948570Y-87352235D03*
%TD*%
D17*
%TO.C,R26*%
X199049070Y-94589235D03*
X198029070Y-94589235D03*
%TD*%
D19*
%TO.C,C16*%
X148021070Y-122275235D03*
X148981070Y-122275235D03*
%TD*%
D12*
%TO.C,R10*%
X152438070Y-96496235D03*
X152438070Y-95476235D03*
%TD*%
D18*
%TO.C,C14*%
X135928070Y-90243235D03*
X135928070Y-89283235D03*
%TD*%
D39*
%TO.C,U1*%
X164651070Y-93917235D03*
X164651070Y-95317235D03*
X164651070Y-96717235D03*
X166051070Y-93917235D03*
X166051070Y-95317235D03*
X166051070Y-96717235D03*
X167451070Y-93917235D03*
X167451070Y-95317235D03*
X167451070Y-96717235D03*
D40*
X158801070Y-87597235D03*
X158801070Y-88867235D03*
X158801070Y-90137235D03*
X158801070Y-91407235D03*
X158801070Y-92677235D03*
X158801070Y-93947235D03*
X158801070Y-95217235D03*
X158801070Y-96487235D03*
X158801070Y-97757235D03*
X158801070Y-99027235D03*
X158801070Y-100297235D03*
X158801070Y-101567235D03*
X158801070Y-102837235D03*
X158801070Y-104107235D03*
D41*
X160566070Y-105357235D03*
X161836070Y-105357235D03*
X163106070Y-105357235D03*
X164376070Y-105357235D03*
X165646070Y-105357235D03*
X166916070Y-105357235D03*
X168186070Y-105357235D03*
X169456070Y-105357235D03*
X170726070Y-105357235D03*
X171996070Y-105357235D03*
X173266070Y-105357235D03*
X174536070Y-105357235D03*
D40*
X176301070Y-104107235D03*
X176301070Y-102837235D03*
X176301070Y-101567235D03*
X176301070Y-100297235D03*
X176301070Y-99027235D03*
X176301070Y-97757235D03*
X176301070Y-96487235D03*
X176301070Y-95217235D03*
X176301070Y-93947235D03*
X176301070Y-92677235D03*
X176301070Y-91407235D03*
X176301070Y-90137235D03*
X176301070Y-88867235D03*
X176301070Y-87597235D03*
%TD*%
D20*
%TO.C,SW4*%
X101176070Y-81047235D03*
D21*
X101701070Y-80722235D03*
X105301070Y-80722235D03*
D20*
X105826070Y-81047235D03*
D22*
X101801070Y-82997235D03*
X105201070Y-82997235D03*
%TD*%
D42*
%TO.C,C35*%
X135039070Y-100840235D03*
X135039070Y-101800235D03*
%TD*%
D18*
%TO.C,C27*%
X130601070Y-96812235D03*
X130601070Y-95852235D03*
%TD*%
D11*
%TO.C,R39*%
X121831070Y-87348235D03*
X121831070Y-88368235D03*
%TD*%
%TO.C,R25*%
X190919070Y-98651235D03*
X190919070Y-99671235D03*
%TD*%
D17*
%TO.C,R23*%
X101386070Y-98907235D03*
X100366070Y-98907235D03*
%TD*%
D11*
%TO.C,R41*%
X155613070Y-105001235D03*
X155613070Y-106021235D03*
%TD*%
D20*
%TO.C,SW3*%
X111176070Y-81047235D03*
D21*
X111701070Y-80722235D03*
X115301070Y-80722235D03*
D20*
X115826070Y-81047235D03*
D22*
X111801070Y-82997235D03*
X115201070Y-82997235D03*
%TD*%
D18*
%TO.C,C11*%
X138970000Y-90870000D03*
X138970000Y-89910000D03*
%TD*%
D43*
%TO.C,C9*%
X142377070Y-88874235D03*
X141417070Y-88874235D03*
%TD*%
D33*
%TO.C,R22*%
X105700070Y-98907235D03*
X106720070Y-98907235D03*
%TD*%
D42*
%TO.C,C26*%
X150771070Y-106174235D03*
X150771070Y-107134235D03*
%TD*%
D13*
%TO.C,D10*%
X193076070Y-121597235D03*
X193926070Y-121597235D03*
X193076070Y-122447235D03*
X193926070Y-122447235D03*
%TD*%
M02*
