M48
; DRILL file KiCad 10.0.0 date 2026-04-14T22:14:05
; FORMAT={-:-/ absolute / metric / decimal}
; #@! TF.CreationDate,2026-04-14T22:14:05+03:00
; #@! TF.GenerationSoftware,Kicad,Pcbnew,10.0.0
; #@! TF.FileFunction,Plated,1,4,PTH
FMAT,2
METRIC
; #@! TA.AperFunction,Plated,PTH,ComponentDrill
T1C0.200
; #@! TA.AperFunction,Plated,PTH,ViaDrill
T2C0.300
; #@! TA.AperFunction,Plated,PTH,ViaDrill
T3C0.400
; #@! TA.AperFunction,Plated,PTH,ComponentDrill
T4C0.500
; #@! TA.AperFunction,Plated,PTH,ViaDrill
T5C0.600
; #@! TA.AperFunction,Plated,PTH,ComponentDrill
T6C0.600
; #@! TA.AperFunction,Plated,PTH,ComponentDrill
T7C0.750
; #@! TA.AperFunction,Plated,PTH,ViaDrill
T8C0.800
; #@! TA.AperFunction,Plated,PTH,ComponentDrill
T9C0.900
; #@! TA.AperFunction,Plated,PTH,ComponentDrill
T10C1.000
; #@! TA.AperFunction,Plated,PTH,ComponentDrill
T11C1.100
; #@! TA.AperFunction,Plated,PTH,ComponentDrill
T12C1.500
; #@! TA.AperFunction,Plated,PTH,ComponentDrill
T13C2.000
%
G90
G05
T1
X164.651Y-94.617
X164.651Y-96.017
X165.351Y-93.917
X165.351Y-95.317
X165.351Y-96.717
X166.051Y-94.617
X166.051Y-96.017
X166.751Y-93.917
X166.751Y-95.317
X166.751Y-96.717
X167.451Y-94.617
X167.451Y-96.017
T2
X101.638Y-119.989
X102.421Y-123.102
X103.961Y-118.846
X119.291Y-87.858
X121.831Y-86.461
X123.703Y-100.525
X123.703Y-108.87
X123.863Y-102.59
X123.863Y-105.638
X124.154Y-107.016
X124.662Y-102.172
X124.838Y-105.672
X124.943Y-101.172
X128.054Y-105.13
X128.054Y-109.956
X128.41Y-108.625
X130.599Y-94.589
X131.483Y-116.941
X132.388Y-88.623
X132.563Y-89.89
X133.201Y-94.843
X133.201Y-97.891
X133.896Y-91.414
X134.531Y-109.829
X135.039Y-105.704
X135.039Y-107.289
X136.537Y-111.48
X136.944Y-87.858
X137.67Y-107.416
X137.844Y-113.138
X137.844Y-113.963
X137.844Y-114.899
X138.613Y-111.48
X138.849Y-88.747
X138.976Y-107.387
X139.782Y-88.747
X140.292Y-112.43
X140.484Y-111.316
X141.387Y-112.43
X142.519Y-112.43
X142.659Y-91.414
X142.676Y-92.557
X143.294Y-86.969
X143.548Y-112.43
X143.802Y-91.414
X143.802Y-92.557
X145.003Y-91.414
X145.026Y-92.557
X146.511Y-84.592
X146.954Y-122.275
X147.195Y-102.844
X147.231Y-126.147
X147.511Y-91.482
X148.226Y-87.581
X148.251Y-92.662
X148.281Y-91.962
X148.374Y-94.081
X148.46Y-105.272
X148.501Y-124.434
X149.136Y-103.225
X149.24Y-87.581
X149.711Y-107.05
X149.898Y-125.297
X150.152Y-102.971
X150.771Y-108.272
X151.761Y-106.174
X153.052Y-92.557
X154.47Y-93.192
X155.359Y-94.081
X155.361Y-89.682
X155.74Y-98.399
X156.883Y-93.954
X156.883Y-97.759
X157.01Y-95.224
X157.01Y-104.622
X162.725Y-88.366
X162.852Y-87.604
X163.046Y-93.907
X163.046Y-95.313
X163.046Y-96.719
X164.586Y-92.2
X166.872Y-92.2
X166.916Y-90.525
X167.805Y-110.718
X167.842Y-114.273
X167.842Y-116.049
X168.948Y-95.351
X168.948Y-96.748
X168.975Y-93.919
X169.285Y-92.2
X170.091Y-113.258
X171.107Y-103.86
X171.234Y-102.971
X171.698Y-92.2
X173.647Y-101.955
X174.071Y-92.203
X177.584Y-92.684
X178.219Y-91.541
X178.219Y-107.289
X181.347Y-90.525
X182.283Y-122.402
X192.189Y-121.724
X193.491Y-98.728
X194.561Y-123.082
T3
X103.533Y-98.907
X108.496Y-83.032
X109.893Y-98.78
X127.419Y-88.366
X131.483Y-98.907
X137.753Y-96.701
X141.389Y-99.94
X161.201Y-121.053
X161.836Y-121.767
X162.382Y-122.567
X164.376Y-107.67
X165.646Y-107.67
X166.916Y-107.67
X173.774Y-107.924
X193.877Y-118.973
T4
X154.978Y-91.16
X181.37Y-105.2
T5
X115.608Y-91.287
X122.297Y-90.525
X128.169Y-94.728
X129.832Y-92.303
X146.071Y-88.002
X150.951Y-88.142
X166.361Y-110.672
X191.851Y-90.844
T7
X115.251Y-115.922
X115.251Y-117.922
T8
X117.386Y-90.906
X178.039Y-87.599
X181.775Y-85.026
X187.871Y-84.937
T9
X128.501Y-84.022
X130.501Y-84.022
X132.501Y-84.022
T10
X100.976Y-101.297
X103.476Y-101.297
X105.976Y-101.297
X143.551Y-118.592
X146.461Y-118.592
X191.001Y-101.297
X193.501Y-101.297
X196.001Y-101.297
T11
X125.251Y-123.772
X125.251Y-128.272
X131.751Y-123.772
X131.751Y-128.272
X140.251Y-123.772
X140.251Y-128.272
X146.751Y-123.772
X146.751Y-128.272
X150.251Y-123.772
X150.251Y-128.272
X156.751Y-123.772
X156.751Y-128.272
X165.251Y-123.772
X165.251Y-128.272
X171.751Y-123.772
X171.751Y-128.272
T12
X126.401Y-84.022
X134.601Y-84.022
T6
G00X144.181Y-81.837
M15
G01X144.181Y-81.237
M16
G05
G00X144.181Y-86.267
M15
G01X144.181Y-85.167
M16
G05
G00X152.821Y-81.837
M15
G01X152.821Y-81.237
M16
G05
G00X152.821Y-86.267
M15
G01X152.821Y-85.167
M16
G05
T13
G00X97.876Y-108.547
M15
G01X97.876Y-109.047
M16
G05
G00X109.076Y-108.547
M15
G01X109.076Y-109.047
M16
G05
G00X187.901Y-108.547
M15
G01X187.901Y-109.047
M16
G05
G00X199.101Y-108.547
M15
G01X199.101Y-109.047
M16
G05
M30
