%TF.GenerationSoftware,KiCad,Pcbnew,10.0.0*%
%TF.CreationDate,2026-04-14T22:13:58+03:00*%
%TF.ProjectId,RADR,52414452-2e6b-4696-9361-645f70636258,rev?*%
%TF.SameCoordinates,Original*%
%TF.FileFunction,Soldermask,Bot*%
%TF.FilePolarity,Negative*%
%FSLAX46Y46*%
G04 Gerber Fmt 4.6, Leading zero omitted, Abs format (unit mm)*
G04 Created by KiCad (PCBNEW 10.0.0) date 2026-04-14 22:13:58*
%MOMM*%
%LPD*%
G01*
G04 APERTURE LIST*
G04 Aperture macros list*
%AMRoundRect*
0 Rectangle with rounded corners*
0 $1 Rounding radius*
0 $2 $3 $4 $5 $6 $7 $8 $9 X,Y pos of 4 corners*
0 Add a 4 corners polygon primitive as box body*
4,1,4,$2,$3,$4,$5,$6,$7,$8,$9,$2,$3,0*
0 Add four circle primitives for the rounded corners*
1,1,$1+$1,$2,$3*
1,1,$1+$1,$4,$5*
1,1,$1+$1,$6,$7*
1,1,$1+$1,$8,$9*
0 Add four rect primitives between the rounded corners*
20,1,$1+$1,$2,$3,$4,$5,0*
20,1,$1+$1,$4,$5,$6,$7,0*
20,1,$1+$1,$6,$7,$8,$9,0*
20,1,$1+$1,$8,$9,$2,$3,0*%
G04 Aperture macros list end*
%ADD10R,2.000000X2.000000*%
%ADD11C,0.650000*%
%ADD12O,1.000000X2.100000*%
%ADD13O,1.000000X1.600000*%
%ADD14C,1.000000*%
%ADD15C,3.500000*%
%ADD16C,2.000000*%
%ADD17R,2.500000X3.000000*%
%ADD18RoundRect,0.140000X-0.140000X-0.170000X0.140000X-0.170000X0.140000X0.170000X-0.140000X0.170000X0*%
%ADD19RoundRect,0.250000X-0.625000X0.350000X-0.625000X-0.350000X0.625000X-0.350000X0.625000X0.350000X0*%
%ADD20O,1.750000X1.200000*%
%ADD21RoundRect,0.200000X0.200000X0.275000X-0.200000X0.275000X-0.200000X-0.275000X0.200000X-0.275000X0*%
%ADD22RoundRect,0.150000X-0.512500X-0.150000X0.512500X-0.150000X0.512500X0.150000X-0.512500X0.150000X0*%
%ADD23RoundRect,0.135000X0.185000X-0.135000X0.185000X0.135000X-0.185000X0.135000X-0.185000X-0.135000X0*%
%ADD24RoundRect,0.218750X0.218750X0.256250X-0.218750X0.256250X-0.218750X-0.256250X0.218750X-0.256250X0*%
%ADD25RoundRect,0.140000X0.170000X-0.140000X0.170000X0.140000X-0.170000X0.140000X-0.170000X-0.140000X0*%
%ADD26RoundRect,0.250000X-0.650000X0.325000X-0.650000X-0.325000X0.650000X-0.325000X0.650000X0.325000X0*%
%ADD27R,1.100000X2.200000*%
%ADD28R,1.300000X1.100000*%
%ADD29R,0.650000X1.000000*%
%ADD30R,4.300000X3.400000*%
%ADD31R,1.500000X1.000000*%
%ADD32RoundRect,0.150000X0.625000X-0.150000X0.625000X0.150000X-0.625000X0.150000X-0.625000X-0.150000X0*%
%ADD33RoundRect,0.250000X0.650000X-0.350000X0.650000X0.350000X-0.650000X0.350000X-0.650000X-0.350000X0*%
%ADD34RoundRect,0.150000X0.150000X-0.587500X0.150000X0.587500X-0.150000X0.587500X-0.150000X-0.587500X0*%
%ADD35RoundRect,0.225000X0.375000X-0.225000X0.375000X0.225000X-0.375000X0.225000X-0.375000X-0.225000X0*%
%ADD36RoundRect,0.150000X-0.150000X0.512500X-0.150000X-0.512500X0.150000X-0.512500X0.150000X0.512500X0*%
%ADD37RoundRect,0.150000X-0.587500X-0.150000X0.587500X-0.150000X0.587500X0.150000X-0.587500X0.150000X0*%
%ADD38R,1.300000X0.300000*%
%ADD39R,1.600000X2.000000*%
%ADD40O,2.200000X3.500000*%
%ADD41R,1.500000X2.500000*%
%ADD42O,1.500000X2.500000*%
G04 APERTURE END LIST*
D10*
%TO.C,J7*%
X146461070Y-118592235D03*
%TD*%
D11*
%TO.C,J4*%
X151391070Y-85187235D03*
X145611070Y-85187235D03*
D12*
X152821070Y-85717235D03*
D13*
X152821070Y-81537235D03*
D12*
X144181070Y-85717235D03*
D13*
X144181070Y-81537235D03*
%TD*%
D14*
%TO.C,J3*%
X181370000Y-105200000D03*
%TD*%
D15*
%TO.C,H3*%
X97501070Y-125022235D03*
%TD*%
D16*
%TO.C,SW9*%
X150251070Y-123772235D03*
X156751070Y-123772235D03*
X150251070Y-128272235D03*
X156751070Y-128272235D03*
%TD*%
D10*
%TO.C,SW1*%
X105976070Y-101297235D03*
D16*
X100976070Y-101297235D03*
X103476070Y-101297235D03*
D17*
X109076070Y-108797235D03*
X97876070Y-108797235D03*
%TD*%
D16*
%TO.C,SW8*%
X140251070Y-123772235D03*
X146751070Y-123772235D03*
X140251070Y-128272235D03*
X146751070Y-128272235D03*
%TD*%
D10*
%TO.C,SW2*%
X196001070Y-101297235D03*
D16*
X191001070Y-101297235D03*
X193501070Y-101297235D03*
D17*
X199101070Y-108797235D03*
X187901070Y-108797235D03*
%TD*%
D15*
%TO.C,H1*%
X97501070Y-85022235D03*
%TD*%
%TO.C,H2*%
X199501070Y-85022235D03*
%TD*%
D16*
%TO.C,SW7*%
X131751070Y-128272235D03*
X125251070Y-128272235D03*
X131751070Y-123772235D03*
X125251070Y-123772235D03*
%TD*%
D14*
%TO.C,J8*%
X154978070Y-91160235D03*
%TD*%
D10*
%TO.C,J6*%
X143551070Y-118592235D03*
%TD*%
D16*
%TO.C,SW10*%
X165251070Y-123772235D03*
X171751070Y-123772235D03*
X165251070Y-128272235D03*
X171751070Y-128272235D03*
%TD*%
D15*
%TO.C,H4*%
X199501070Y-125022235D03*
%TD*%
D18*
%TO.C,C23*%
X160848070Y-93065235D03*
X161808070Y-93065235D03*
%TD*%
D19*
%TO.C,J5*%
X115251070Y-115922235D03*
D20*
X115251070Y-117922235D03*
%TD*%
D21*
%TO.C,R1*%
X131927070Y-106273235D03*
X130277070Y-106273235D03*
%TD*%
D22*
%TO.C,U9*%
X135543570Y-112442235D03*
X135543570Y-111492235D03*
X135543570Y-110542235D03*
X137818570Y-110542235D03*
X137818570Y-112442235D03*
%TD*%
D23*
%TO.C,R35*%
X173698750Y-121336555D03*
X173698750Y-120316555D03*
%TD*%
D24*
%TO.C,D5*%
X147688570Y-81022235D03*
X146113570Y-81022235D03*
%TD*%
D25*
%TO.C,C20*%
X134023070Y-112595235D03*
X134023070Y-111635235D03*
%TD*%
D26*
%TO.C,C32*%
X171698040Y-89132035D03*
X171698040Y-92082035D03*
%TD*%
D27*
%TO.C,SW11*%
X173665640Y-118563435D03*
X173665640Y-109763435D03*
%TD*%
D23*
%TO.C,R36*%
X177000750Y-121336555D03*
X177000750Y-120316555D03*
%TD*%
D24*
%TO.C,D6*%
X150888570Y-81022235D03*
X149313570Y-81022235D03*
%TD*%
D23*
%TO.C,R16*%
X151041070Y-83288235D03*
X151041070Y-82268235D03*
%TD*%
D26*
%TO.C,C28*%
X169285040Y-89132035D03*
X169285040Y-92082035D03*
%TD*%
D28*
%TO.C,M1*%
X113451070Y-89647235D03*
X113451070Y-86347235D03*
D29*
X107576070Y-88797235D03*
D30*
X110051070Y-87997235D03*
D31*
X112951070Y-87997235D03*
D29*
X107576070Y-87197235D03*
%TD*%
D18*
%TO.C,C25*%
X166817070Y-116941235D03*
X167777070Y-116941235D03*
%TD*%
D32*
%TO.C,J2*%
X172726070Y-105868235D03*
X172726070Y-104868235D03*
X172726070Y-103868235D03*
X172726070Y-102868235D03*
D33*
X168851070Y-107168235D03*
X168851070Y-101568235D03*
%TD*%
D25*
%TO.C,C24*%
X139484070Y-112341235D03*
X139484070Y-111381235D03*
%TD*%
D34*
%TO.C,Q2*%
X119352070Y-88922735D03*
X117452070Y-88922735D03*
X118402070Y-87047735D03*
%TD*%
D26*
%TO.C,C30*%
X164586040Y-89132035D03*
X164586040Y-92082035D03*
%TD*%
D23*
%TO.C,R34*%
X147741070Y-83292235D03*
X147741070Y-82272235D03*
%TD*%
D35*
%TO.C,D2*%
X115608070Y-89508235D03*
X115608070Y-86208235D03*
%TD*%
D36*
%TO.C,U10*%
X166855070Y-113263735D03*
X167805070Y-113263735D03*
X168755070Y-113263735D03*
X168755070Y-115538735D03*
X166855070Y-115538735D03*
%TD*%
D37*
%TO.C,Q1*%
X129783570Y-110525235D03*
X129783570Y-108625235D03*
X131658570Y-109575235D03*
%TD*%
D27*
%TO.C,SW12*%
X176959640Y-118563435D03*
X176959640Y-109763435D03*
%TD*%
D18*
%TO.C,C19*%
X166690070Y-111607235D03*
X167650070Y-111607235D03*
%TD*%
D38*
%TO.C,J1*%
X126293260Y-107172235D03*
X126293260Y-106672235D03*
X126293260Y-106172235D03*
X126293260Y-105672235D03*
X126293260Y-105172235D03*
X126293260Y-104672235D03*
X126293260Y-104172235D03*
X126293260Y-103672235D03*
X126293260Y-103172235D03*
X126293260Y-102672235D03*
X126293260Y-102172235D03*
X126293260Y-101672235D03*
X126293260Y-101172235D03*
X126293260Y-100672235D03*
D39*
X123613260Y-108872235D03*
X123613260Y-98972235D03*
%TD*%
D40*
%TO.C,SW15*%
X126401070Y-84022235D03*
X134601070Y-84022235D03*
D41*
X128501070Y-84022235D03*
D42*
X130501070Y-84022235D03*
X132501070Y-84022235D03*
%TD*%
D36*
%TO.C,U8*%
X160759070Y-89260735D03*
X161709070Y-89260735D03*
X162659070Y-89260735D03*
X162659070Y-91535735D03*
X160759070Y-91535735D03*
%TD*%
D18*
%TO.C,C18*%
X160721070Y-87604235D03*
X161681070Y-87604235D03*
%TD*%
D26*
%TO.C,C29*%
X166872040Y-89132035D03*
X166872040Y-92082035D03*
%TD*%
%TO.C,C33*%
X174071230Y-89135235D03*
X174071230Y-92085235D03*
%TD*%
M02*
