%TF.GenerationSoftware,KiCad,Pcbnew,10.0.0*%
%TF.CreationDate,2026-04-14T22:13:58+03:00*%
%TF.ProjectId,RADR,52414452-2e6b-4696-9361-645f70636258,rev?*%
%TF.SameCoordinates,Original*%
%TF.FileFunction,Copper,L4,Bot*%
%TF.FilePolarity,Positive*%
%FSLAX46Y46*%
G04 Gerber Fmt 4.6, Leading zero omitted, Abs format (unit mm)*
G04 Created by KiCad (PCBNEW 10.0.0) date 2026-04-14 22:13:58*
%MOMM*%
%LPD*%
G01*
G04 APERTURE LIST*
G04 Aperture macros list*
%AMRoundRect*
0 Rectangle with rounded corners*
0 $1 Rounding radius*
0 $2 $3 $4 $5 $6 $7 $8 $9 X,Y pos of 4 corners*
0 Add a 4 corners polygon primitive as box body*
4,1,4,$2,$3,$4,$5,$6,$7,$8,$9,$2,$3,0*
0 Add four circle primitives for the rounded corners*
1,1,$1+$1,$2,$3*
1,1,$1+$1,$4,$5*
1,1,$1+$1,$6,$7*
1,1,$1+$1,$8,$9*
0 Add four rect primitives between the rounded corners*
20,1,$1+$1,$2,$3,$4,$5,0*
20,1,$1+$1,$4,$5,$6,$7,0*
20,1,$1+$1,$6,$7,$8,$9,0*
20,1,$1+$1,$8,$9,$2,$3,0*%
G04 Aperture macros list end*
%TA.AperFunction,ComponentPad*%
%ADD10R,2.000000X2.000000*%
%TD*%
%TA.AperFunction,ComponentPad*%
%ADD11O,1.000000X2.100000*%
%TD*%
%TA.AperFunction,ComponentPad*%
%ADD12O,1.000000X1.600000*%
%TD*%
%TA.AperFunction,ComponentPad*%
%ADD13C,1.000000*%
%TD*%
%TA.AperFunction,ComponentPad*%
%ADD14C,2.000000*%
%TD*%
%TA.AperFunction,ComponentPad*%
%ADD15R,2.500000X3.000000*%
%TD*%
%TA.AperFunction,HeatsinkPad*%
%ADD16C,0.600000*%
%TD*%
%TA.AperFunction,SMDPad,CuDef*%
%ADD17RoundRect,0.140000X-0.140000X-0.170000X0.140000X-0.170000X0.140000X0.170000X-0.140000X0.170000X0*%
%TD*%
%TA.AperFunction,ComponentPad*%
%ADD18RoundRect,0.250000X-0.625000X0.350000X-0.625000X-0.350000X0.625000X-0.350000X0.625000X0.350000X0*%
%TD*%
%TA.AperFunction,ComponentPad*%
%ADD19O,1.750000X1.200000*%
%TD*%
%TA.AperFunction,SMDPad,CuDef*%
%ADD20RoundRect,0.200000X0.200000X0.275000X-0.200000X0.275000X-0.200000X-0.275000X0.200000X-0.275000X0*%
%TD*%
%TA.AperFunction,SMDPad,CuDef*%
%ADD21RoundRect,0.150000X-0.512500X-0.150000X0.512500X-0.150000X0.512500X0.150000X-0.512500X0.150000X0*%
%TD*%
%TA.AperFunction,SMDPad,CuDef*%
%ADD22RoundRect,0.135000X0.185000X-0.135000X0.185000X0.135000X-0.185000X0.135000X-0.185000X-0.135000X0*%
%TD*%
%TA.AperFunction,SMDPad,CuDef*%
%ADD23RoundRect,0.218750X0.218750X0.256250X-0.218750X0.256250X-0.218750X-0.256250X0.218750X-0.256250X0*%
%TD*%
%TA.AperFunction,SMDPad,CuDef*%
%ADD24RoundRect,0.140000X0.170000X-0.140000X0.170000X0.140000X-0.170000X0.140000X-0.170000X-0.140000X0*%
%TD*%
%TA.AperFunction,SMDPad,CuDef*%
%ADD25RoundRect,0.250000X-0.650000X0.325000X-0.650000X-0.325000X0.650000X-0.325000X0.650000X0.325000X0*%
%TD*%
%TA.AperFunction,SMDPad,CuDef*%
%ADD26R,1.100000X2.200000*%
%TD*%
%TA.AperFunction,SMDPad,CuDef*%
%ADD27R,1.300000X1.100000*%
%TD*%
%TA.AperFunction,SMDPad,CuDef*%
%ADD28R,0.650000X1.000000*%
%TD*%
%TA.AperFunction,SMDPad,CuDef*%
%ADD29R,4.300000X3.400000*%
%TD*%
%TA.AperFunction,SMDPad,CuDef*%
%ADD30R,1.500000X1.000000*%
%TD*%
%TA.AperFunction,SMDPad,CuDef*%
%ADD31RoundRect,0.150000X0.625000X-0.150000X0.625000X0.150000X-0.625000X0.150000X-0.625000X-0.150000X0*%
%TD*%
%TA.AperFunction,SMDPad,CuDef*%
%ADD32RoundRect,0.250000X0.650000X-0.350000X0.650000X0.350000X-0.650000X0.350000X-0.650000X-0.350000X0*%
%TD*%
%TA.AperFunction,SMDPad,CuDef*%
%ADD33RoundRect,0.150000X0.150000X-0.587500X0.150000X0.587500X-0.150000X0.587500X-0.150000X-0.587500X0*%
%TD*%
%TA.AperFunction,SMDPad,CuDef*%
%ADD34RoundRect,0.225000X0.375000X-0.225000X0.375000X0.225000X-0.375000X0.225000X-0.375000X-0.225000X0*%
%TD*%
%TA.AperFunction,SMDPad,CuDef*%
%ADD35RoundRect,0.150000X-0.150000X0.512500X-0.150000X-0.512500X0.150000X-0.512500X0.150000X0.512500X0*%
%TD*%
%TA.AperFunction,SMDPad,CuDef*%
%ADD36RoundRect,0.150000X-0.587500X-0.150000X0.587500X-0.150000X0.587500X0.150000X-0.587500X0.150000X0*%
%TD*%
%TA.AperFunction,SMDPad,CuDef*%
%ADD37R,1.300000X0.300000*%
%TD*%
%TA.AperFunction,SMDPad,CuDef*%
%ADD38R,1.600000X2.000000*%
%TD*%
%TA.AperFunction,ComponentPad*%
%ADD39O,2.200000X3.500000*%
%TD*%
%TA.AperFunction,ComponentPad*%
%ADD40R,1.500000X2.500000*%
%TD*%
%TA.AperFunction,ComponentPad*%
%ADD41O,1.500000X2.500000*%
%TD*%
%TA.AperFunction,ViaPad*%
%ADD42C,1.000000*%
%TD*%
%TA.AperFunction,ViaPad*%
%ADD43C,0.500000*%
%TD*%
%TA.AperFunction,ViaPad*%
%ADD44C,1.200000*%
%TD*%
%TA.AperFunction,ViaPad*%
%ADD45C,0.800000*%
%TD*%
%TA.AperFunction,ViaPad*%
%ADD46C,0.600000*%
%TD*%
%TA.AperFunction,Conductor*%
%ADD47C,0.200000*%
%TD*%
%TA.AperFunction,Conductor*%
%ADD48C,0.600000*%
%TD*%
%TA.AperFunction,Conductor*%
%ADD49C,0.400000*%
%TD*%
%TA.AperFunction,Conductor*%
%ADD50C,0.150000*%
%TD*%
G04 APERTURE END LIST*
D10*
%TO.P,J7,1,Pin_1_1*%
%TO.N,GND*%
X146461070Y-118592235D03*
%TD*%
D11*
%TO.P,J4,SH,SHIELD_SH*%
%TO.N,GND*%
X152821070Y-85717235D03*
D12*
X152821070Y-81537235D03*
D11*
X144181070Y-85717235D03*
D12*
X144181070Y-81537235D03*
%TD*%
D13*
%TO.P,J3,1,Pin_1_1*%
%TO.N,ESP_IO0*%
X181370000Y-105200000D03*
%TD*%
D14*
%TO.P,SW9,1,A_1*%
%TO.N,GND*%
X150251070Y-123772235D03*
X156751070Y-123772235D03*
%TO.P,SW9,2,B_2*%
%TO.N,BUTTON_MIDDLE*%
X150251070Y-128272235D03*
X156751070Y-128272235D03*
%TD*%
D10*
%TO.P,SW1,A,A_A*%
%TO.N,ENC_L_B*%
X105976070Y-101297235D03*
D14*
%TO.P,SW1,B,B_B*%
%TO.N,ENC_L_A*%
X100976070Y-101297235D03*
%TO.P,SW1,C,C_C*%
%TO.N,GND*%
X103476070Y-101297235D03*
D15*
%TO.P,SW1,MP,MP_MP*%
%TO.N,unconnected-(SW1-PadMP)_1*%
X109076070Y-108797235D03*
%TO.N,unconnected-(SW1-PadMP)*%
X97876070Y-108797235D03*
%TD*%
D14*
%TO.P,SW8,1,A_1*%
%TO.N,GND*%
X140251070Y-123772235D03*
X146751070Y-123772235D03*
%TO.P,SW8,2,B_2*%
%TO.N,BUTTON_MIDDLE*%
X140251070Y-128272235D03*
X146751070Y-128272235D03*
%TD*%
D10*
%TO.P,SW2,A,A_A*%
%TO.N,ENC_R_B*%
X196001070Y-101297235D03*
D14*
%TO.P,SW2,B,B_B*%
%TO.N,ENC_R_A*%
X191001070Y-101297235D03*
%TO.P,SW2,C,C_C*%
%TO.N,GND*%
X193501070Y-101297235D03*
D15*
%TO.P,SW2,MP,MP_MP*%
%TO.N,unconnected-(SW2-PadMP)*%
X199101070Y-108797235D03*
%TO.N,unconnected-(SW2-PadMP)_1*%
X187901070Y-108797235D03*
%TD*%
D14*
%TO.P,SW7,1,A_1*%
%TO.N,BUTTON_LEFT*%
X131751070Y-128272235D03*
X125251070Y-128272235D03*
%TO.P,SW7,2,B_2*%
%TO.N,GND*%
X131751070Y-123772235D03*
X125251070Y-123772235D03*
%TD*%
D13*
%TO.P,J8,1,Pin_1_1*%
%TO.N,ESP_EN*%
X154978070Y-91160235D03*
%TD*%
D16*
%TO.P,U1,41,GND_41*%
%TO.N,GND*%
X164651070Y-94617235D03*
X164651070Y-96017235D03*
X165351070Y-93917235D03*
X165351070Y-95317235D03*
X165351070Y-96717235D03*
X166051070Y-94617235D03*
X166051070Y-96017235D03*
X166751070Y-93917235D03*
X166751070Y-95317235D03*
X166751070Y-96717235D03*
X167451070Y-94617235D03*
X167451070Y-96017235D03*
%TD*%
D10*
%TO.P,J6,1,Pin_1_1*%
%TO.N,3V3_INTERNAL*%
X143551070Y-118592235D03*
%TD*%
D14*
%TO.P,SW10,1,A_1*%
%TO.N,GND*%
X165251070Y-123772235D03*
X171751070Y-123772235D03*
%TO.P,SW10,2,B_2*%
%TO.N,BUTTON_RIGHT*%
X165251070Y-128272235D03*
X171751070Y-128272235D03*
%TD*%
D17*
%TO.P,C23,1*%
%TO.N,+3.3V*%
X160848070Y-93065235D03*
%TO.P,C23,2*%
%TO.N,GND*%
X161808070Y-93065235D03*
%TD*%
D18*
%TO.P,J5,1,Pin_1_1*%
%TO.N,V_BAT_IN*%
X115251070Y-115922235D03*
D19*
%TO.P,J5,2,Pin_2_2*%
%TO.N,GND*%
X115251070Y-117922235D03*
%TD*%
D20*
%TO.P,R1,1*%
%TO.N,Net-(Q1-D)*%
X131927070Y-106273235D03*
%TO.P,R1,2*%
%TO.N,Net-(J1-Pin_3)*%
X130277070Y-106273235D03*
%TD*%
D21*
%TO.P,U9,1,V_{IN}_1*%
%TO.N,V_BAT_SWITCHED*%
X135543570Y-112442235D03*
%TO.P,U9,2,V_{SS}_2*%
%TO.N,GND*%
X135543570Y-111492235D03*
%TO.P,U9,3,CE_3*%
%TO.N,V_BAT_SWITCHED*%
X135543570Y-110542235D03*
%TO.P,U9,4,NC_4*%
%TO.N,unconnected-(U9-NC-Pad4)*%
X137818570Y-110542235D03*
%TO.P,U9,5,V_{OUT}_5*%
%TO.N,3V3_INTERNAL*%
X137818570Y-112442235D03*
%TD*%
D22*
%TO.P,R35,1*%
%TO.N,+3.3V*%
X173698750Y-121336555D03*
%TO.P,R35,2*%
%TO.N,Net-(R35-Pad2)*%
X173698750Y-120316555D03*
%TD*%
D23*
%TO.P,D5,1,K_1*%
%TO.N,Net-(D5-K)*%
X147688570Y-81022235D03*
%TO.P,D5,2,A_2*%
%TO.N,+3.3V*%
X146113570Y-81022235D03*
%TD*%
D24*
%TO.P,C20,1*%
%TO.N,V_BAT_SWITCHED*%
X134023070Y-112595235D03*
%TO.P,C20,2*%
%TO.N,GND*%
X134023070Y-111635235D03*
%TD*%
D25*
%TO.P,C32,1*%
%TO.N,+3.3V*%
X171698040Y-89132035D03*
%TO.P,C32,2*%
%TO.N,GND*%
X171698040Y-92082035D03*
%TD*%
D26*
%TO.P,SW11,1*%
%TO.N,Net-(R35-Pad2)*%
X173665640Y-118563435D03*
%TO.P,SW11,2*%
%TO.N,EXT_1*%
X173665640Y-109763435D03*
%TD*%
D22*
%TO.P,R36,1*%
%TO.N,+3.3V*%
X177000750Y-121336555D03*
%TO.P,R36,2*%
%TO.N,Net-(R36-Pad2)*%
X177000750Y-120316555D03*
%TD*%
D23*
%TO.P,D6,1,K_1*%
%TO.N,CHARGE_LED*%
X150888570Y-81022235D03*
%TO.P,D6,2,A_2*%
%TO.N,V_USB*%
X149313570Y-81022235D03*
%TD*%
D22*
%TO.P,R16,1*%
%TO.N,CHARGE_TO_MCU*%
X151041070Y-83288235D03*
%TO.P,R16,2*%
%TO.N,CHARGE_LED*%
X151041070Y-82268235D03*
%TD*%
D25*
%TO.P,C28,1*%
%TO.N,+3.3V*%
X169285040Y-89132035D03*
%TO.P,C28,2*%
%TO.N,GND*%
X169285040Y-92082035D03*
%TD*%
D27*
%TO.P,M1,1,+_1*%
%TO.N,V_BAT_SWITCHED*%
X113451070Y-89647235D03*
%TO.P,M1,2,-_2*%
%TO.N,Net-(D2-A)*%
X113451070Y-86347235D03*
D28*
%TO.P,M1,SH*%
%TO.N,N/C*%
X107576070Y-88797235D03*
D29*
X110051070Y-87997235D03*
D30*
X112951070Y-87997235D03*
D28*
X107576070Y-87197235D03*
%TD*%
D17*
%TO.P,C25,1*%
%TO.N,3V3_EXTERNAL*%
X166817070Y-116941235D03*
%TO.P,C25,2*%
%TO.N,GND*%
X167777070Y-116941235D03*
%TD*%
D31*
%TO.P,J2,1,Pin_1_1*%
%TO.N,GND*%
X172726070Y-105868235D03*
%TO.P,J2,2,Pin_2_2*%
%TO.N,3V3_EXTERNAL*%
X172726070Y-104868235D03*
%TO.P,J2,3,Pin_3_3*%
%TO.N,EXT_1*%
X172726070Y-103868235D03*
%TO.P,J2,4,Pin_4_4*%
%TO.N,EXT_2*%
X172726070Y-102868235D03*
D32*
%TO.P,J2,MP,MountPin_MP*%
%TO.N,unconnected-(J2-MountPin-PadMP)_1*%
X168851070Y-107168235D03*
%TO.N,unconnected-(J2-MountPin-PadMP)*%
X168851070Y-101568235D03*
%TD*%
D24*
%TO.P,C24,1*%
%TO.N,3V3_INTERNAL*%
X139484070Y-112341235D03*
%TO.P,C24,2*%
%TO.N,GND*%
X139484070Y-111381235D03*
%TD*%
D33*
%TO.P,Q2,1,G_1*%
%TO.N,VIBRATOR*%
X119352070Y-88922735D03*
%TO.P,Q2,2,S_2*%
%TO.N,GND*%
X117452070Y-88922735D03*
%TO.P,Q2,3,D_3*%
%TO.N,Net-(D2-A)*%
X118402070Y-87047735D03*
%TD*%
D25*
%TO.P,C30,1*%
%TO.N,+3.3V*%
X164586040Y-89132035D03*
%TO.P,C30,2*%
%TO.N,GND*%
X164586040Y-92082035D03*
%TD*%
D22*
%TO.P,R34,1*%
%TO.N,GND*%
X147741070Y-83292235D03*
%TO.P,R34,2*%
%TO.N,Net-(D5-K)*%
X147741070Y-82272235D03*
%TD*%
D34*
%TO.P,D2,1,K_1*%
%TO.N,V_BAT_SWITCHED*%
X115608070Y-89508235D03*
%TO.P,D2,2,A_2*%
%TO.N,Net-(D2-A)*%
X115608070Y-86208235D03*
%TD*%
D35*
%TO.P,U10,1,V_{IN}_1*%
%TO.N,V_BAT_SWITCHED*%
X166855070Y-113263735D03*
%TO.P,U10,2,V_{SS}_2*%
%TO.N,GND*%
X167805070Y-113263735D03*
%TO.P,U10,3,CE_3*%
%TO.N,3V3_EXTERNAL_CE*%
X168755070Y-113263735D03*
%TO.P,U10,4,NC_4*%
%TO.N,unconnected-(U10-NC-Pad4)*%
X168755070Y-115538735D03*
%TO.P,U10,5,V_{OUT}_5*%
%TO.N,3V3_EXTERNAL*%
X166855070Y-115538735D03*
%TD*%
D36*
%TO.P,Q1,1,G_1*%
%TO.N,S_BACKLIGHT*%
X129783570Y-110525235D03*
%TO.P,Q1,2,S_2*%
%TO.N,GND*%
X129783570Y-108625235D03*
%TO.P,Q1,3,D_3*%
%TO.N,Net-(Q1-D)*%
X131658570Y-109575235D03*
%TD*%
D26*
%TO.P,SW12,1*%
%TO.N,Net-(R36-Pad2)*%
X176959640Y-118563435D03*
%TO.P,SW12,2*%
%TO.N,EXT_2*%
X176959640Y-109763435D03*
%TD*%
D17*
%TO.P,C19,1*%
%TO.N,V_BAT_SWITCHED*%
X166690070Y-111607235D03*
%TO.P,C19,2*%
%TO.N,GND*%
X167650070Y-111607235D03*
%TD*%
D37*
%TO.P,J1,1,Pin_1_1*%
%TO.N,unconnected-(J1-Pin_1-Pad1)*%
X126293260Y-107172235D03*
%TO.P,J1,2,Pin_2_2*%
%TO.N,GND*%
X126293260Y-106672235D03*
%TO.P,J1,3,Pin_3_3*%
%TO.N,Net-(J1-Pin_3)*%
X126293260Y-106172235D03*
%TO.P,J1,4,Pin_4_4*%
%TO.N,3V3_INTERNAL*%
X126293260Y-105672235D03*
%TO.P,J1,5,Pin_5_5*%
%TO.N,GND*%
X126293260Y-105172235D03*
%TO.P,J1,6,Pin_6_6*%
%TO.N,S_RES*%
X126293260Y-104672235D03*
%TO.P,J1,7,Pin_7_7*%
%TO.N,S_A0*%
X126293260Y-104172235D03*
%TO.P,J1,8,Pin_8_8*%
%TO.N,S_SDA*%
X126293260Y-103672235D03*
%TO.P,J1,9,Pin_9_9*%
%TO.N,S_SCK*%
X126293260Y-103172235D03*
%TO.P,J1,10,Pin_10_10*%
%TO.N,3V3_INTERNAL*%
X126293260Y-102672235D03*
%TO.P,J1,11,Pin_11_11*%
X126293260Y-102172235D03*
%TO.P,J1,12,Pin_12_12*%
%TO.N,S_CS*%
X126293260Y-101672235D03*
%TO.P,J1,13,Pin_13_13*%
%TO.N,GND*%
X126293260Y-101172235D03*
%TO.P,J1,14,Pin_14_14*%
%TO.N,unconnected-(J1-Pin_14-Pad14)*%
X126293260Y-100672235D03*
D38*
%TO.P,J1,MP,MountPin_MP*%
%TO.N,GND*%
X123613260Y-108872235D03*
X123613260Y-98972235D03*
%TD*%
D39*
%TO.P,SW15,*%
%TO.N,*%
X126401070Y-84022235D03*
X134601070Y-84022235D03*
D40*
%TO.P,SW15,1,C_1*%
%TO.N,unconnected-(SW15-C-Pad1)*%
X128501070Y-84022235D03*
D41*
%TO.P,SW15,2,B_2*%
%TO.N,Net-(D3-K)*%
X130501070Y-84022235D03*
%TO.P,SW15,3,A_3*%
%TO.N,V_BAT_SWITCHED*%
X132501070Y-84022235D03*
%TD*%
D35*
%TO.P,U8,1,V_{IN}_1*%
%TO.N,V_BAT_SWITCHED*%
X160759070Y-89260735D03*
%TO.P,U8,2,V_{SS}_2*%
%TO.N,GND*%
X161709070Y-89260735D03*
%TO.P,U8,3,CE_3*%
%TO.N,V_BAT_SWITCHED*%
X162659070Y-89260735D03*
%TO.P,U8,4,NC_4*%
%TO.N,unconnected-(U8-NC-Pad4)*%
X162659070Y-91535735D03*
%TO.P,U8,5,V_{OUT}_5*%
%TO.N,+3.3V*%
X160759070Y-91535735D03*
%TD*%
D17*
%TO.P,C18,1*%
%TO.N,V_BAT_SWITCHED*%
X160721070Y-87604235D03*
%TO.P,C18,2*%
%TO.N,GND*%
X161681070Y-87604235D03*
%TD*%
D25*
%TO.P,C29,1*%
%TO.N,+3.3V*%
X166872040Y-89132035D03*
%TO.P,C29,2*%
%TO.N,GND*%
X166872040Y-92082035D03*
%TD*%
%TO.P,C33,1*%
%TO.N,+3.3V*%
X174071230Y-89135235D03*
%TO.P,C33,2*%
%TO.N,GND*%
X174071230Y-92085235D03*
%TD*%
D42*
%TO.N,V_USB*%
X150951070Y-88142235D03*
X146071070Y-88002235D03*
D43*
X146511070Y-84592235D03*
D42*
%TO.N,Net-(D3-K)*%
X127419070Y-88366235D03*
D44*
%TO.N,V_BAT_IN*%
X129832070Y-92303235D03*
X128169270Y-94728035D03*
D43*
%TO.N,+3.3V*%
X155361070Y-89682235D03*
D45*
X103533120Y-98907235D03*
D46*
X193491180Y-98728415D03*
X131483070Y-116941235D03*
X157010070Y-104622235D03*
D45*
X109893070Y-98780235D03*
D46*
X178219070Y-107289235D03*
D45*
X131483070Y-98907235D03*
D46*
%TO.N,GND*%
X133200850Y-97891235D03*
D43*
X138849070Y-88747235D03*
X164586040Y-92199615D03*
X168948070Y-96748235D03*
D46*
X135039070Y-105703545D03*
X124154260Y-107016105D03*
X130598970Y-94589235D03*
D43*
X121831070Y-86461235D03*
D46*
X138976070Y-107386735D03*
D44*
X181775070Y-85025755D03*
D46*
X167842150Y-116049195D03*
X135039070Y-107289235D03*
D43*
X132562570Y-89890235D03*
D46*
X192189070Y-121724285D03*
D43*
X163045690Y-96719405D03*
D46*
X140483920Y-111316155D03*
D43*
X143802070Y-91414235D03*
X168974990Y-93919305D03*
D46*
X101638070Y-119989235D03*
X124942560Y-101172175D03*
D45*
X173774070Y-107924235D03*
D43*
X171698040Y-92199615D03*
D46*
X123703150Y-100525315D03*
D43*
X142659070Y-91414235D03*
D46*
X150771070Y-108272235D03*
X138613210Y-111480235D03*
X133200850Y-94843235D03*
X167842150Y-114272645D03*
X137669920Y-107416235D03*
D43*
X162852070Y-87604235D03*
X143802200Y-92557105D03*
D46*
X128410170Y-108625225D03*
D43*
X174071230Y-92202815D03*
D46*
X136536810Y-111480235D03*
D43*
X166872040Y-92199615D03*
X145025820Y-92557105D03*
X168948070Y-95351235D03*
D46*
X149898070Y-125297295D03*
D43*
X163045690Y-95312605D03*
D46*
X148459680Y-105272165D03*
D44*
X178038560Y-87599285D03*
D43*
X163045690Y-93907095D03*
D46*
X123703150Y-108870155D03*
D43*
X145003330Y-91414235D03*
X139782310Y-88747235D03*
X142675820Y-92557105D03*
X169285040Y-92199615D03*
D44*
X117386070Y-90906235D03*
D46*
X146954330Y-122275235D03*
D45*
X108496070Y-83032235D03*
D44*
X187871070Y-84937235D03*
D46*
X167805070Y-110718235D03*
D43*
X136944070Y-87858235D03*
D46*
X102421070Y-123102235D03*
%TO.N,Net-(D10-DIN)*%
X194561070Y-123082235D03*
X182283070Y-122402235D03*
D44*
%TO.N,3V3_INTERNAL*%
X191851120Y-90844465D03*
D45*
X193877150Y-118973235D03*
D46*
X103961150Y-118846235D03*
X140292320Y-112430195D03*
X143548070Y-112430195D03*
X123863070Y-105638235D03*
X123863070Y-102590235D03*
X124662130Y-102172175D03*
X149136070Y-103225235D03*
X137843740Y-113137935D03*
X124838050Y-105672295D03*
X147231070Y-126147175D03*
X137843740Y-114898565D03*
X148501070Y-124434235D03*
X141386740Y-112430195D03*
X142518640Y-112430195D03*
X149711070Y-107049655D03*
X151761070Y-106174255D03*
X137843740Y-113962505D03*
D43*
%TO.N,ESP_IO0*%
X153052140Y-92557235D03*
X173647070Y-101955235D03*
%TO.N,USB-*%
X149239710Y-87580875D03*
X148226140Y-87580875D03*
D45*
%TO.N,LED_PIXELS*%
X162382240Y-122567405D03*
X166916070Y-107670235D03*
D46*
%TO.N,CP_DTR*%
X148374070Y-94081235D03*
X147511070Y-91482235D03*
%TO.N,ESP_EN*%
X181347500Y-90525235D03*
X166916070Y-90525235D03*
%TO.N,SCL*%
X150152070Y-102971235D03*
D45*
X141389070Y-99940235D03*
X137753030Y-96701265D03*
D46*
X147195070Y-102844235D03*
D43*
%TO.N,CHARGE_TO_MCU*%
X143294070Y-86969235D03*
D46*
X133896070Y-91414235D03*
D43*
X132388360Y-88623465D03*
%TO.N,ESP_TXD*%
X148251070Y-92662235D03*
X178219070Y-91541235D03*
%TO.N,ESP_RXD*%
X177584070Y-92684235D03*
X148281070Y-91962235D03*
D45*
%TO.N,ENC_L_B*%
X164376070Y-107670235D03*
X161201070Y-121053235D03*
%TO.N,ENC_L_A*%
X161836070Y-121767235D03*
X165646070Y-107670235D03*
D46*
%TO.N,S_CS*%
X154470070Y-93192235D03*
%TO.N,S_SCK*%
X155359070Y-94081235D03*
%TO.N,S_SDA*%
X156883070Y-93954235D03*
%TO.N,S_A0*%
X157010070Y-95224235D03*
%TO.N,S_BACKLIGHT*%
X155740070Y-98399235D03*
X128054070Y-109956235D03*
X128054070Y-105130235D03*
%TO.N,S_RES*%
X156883070Y-97759285D03*
%TO.N,EXT_2*%
X171234070Y-102971235D03*
%TO.N,EXT_1*%
X171107070Y-103860235D03*
%TO.N,3V3_EXTERNAL_CE*%
X170091070Y-113258235D03*
%TO.N,VIBRATOR*%
X119291070Y-87858235D03*
D44*
%TO.N,V_BAT_SWITCHED*%
X115608070Y-91287235D03*
X122296960Y-90525235D03*
D46*
X134531070Y-109829235D03*
X162725070Y-88366235D03*
D44*
X166361360Y-110671525D03*
%TD*%
%TO.N,V_USB*%
D47*
X149321070Y-81142285D02*
X149201020Y-81022235D01*
X149321070Y-83442235D02*
X149321070Y-81142285D01*
X146511070Y-84592235D02*
X148171070Y-84592235D01*
D48*
X150951070Y-88142235D02*
X150812430Y-88280875D01*
X146349710Y-88280875D02*
X146071070Y-88002235D01*
X150812430Y-88280875D02*
X146349710Y-88280875D01*
D47*
X148171070Y-84592235D02*
X149321070Y-83442235D01*
%TO.N,Net-(D3-K)*%
D48*
X130467070Y-84056235D02*
X130501070Y-84022235D01*
D49*
X127419070Y-88366235D02*
X130501070Y-85284235D01*
X130501070Y-85284235D02*
X130501070Y-84022235D01*
%TO.N,V_BAT_IN*%
D48*
X127292070Y-95605235D02*
X128169270Y-94728035D01*
X128169270Y-93966035D02*
X129832070Y-92303235D01*
X118148070Y-113020235D02*
X118148070Y-96367235D01*
X118910070Y-95605235D02*
X127292070Y-95605235D01*
X128169270Y-94728035D02*
X128169270Y-93966035D01*
X118148070Y-96367235D02*
X118910070Y-95605235D01*
X115227070Y-115941235D02*
X118148070Y-113020235D01*
%TO.N,+3.3V*%
D47*
X183298930Y-121259375D02*
X184315070Y-120243235D01*
X184315070Y-89636235D02*
X193459070Y-98780235D01*
D48*
X155361070Y-89682235D02*
X156341070Y-89682235D01*
D49*
X131483070Y-98907235D02*
X131483070Y-94970235D01*
D47*
X160759110Y-91551905D02*
X160782990Y-91575775D01*
X177000750Y-121259375D02*
X183298930Y-121259375D01*
X184315070Y-91797915D02*
X184315070Y-89636235D01*
D48*
X156341070Y-89682235D02*
X157057070Y-90398235D01*
D47*
X142659070Y-85191235D02*
X146001020Y-81849285D01*
D49*
X103660120Y-98780235D02*
X109893070Y-98780235D01*
D47*
X178219070Y-107289235D02*
X178219070Y-97893915D01*
D48*
X157057070Y-90398235D02*
X160774390Y-90398235D01*
D47*
X142659070Y-89509235D02*
X143421070Y-90271235D01*
D49*
X136182070Y-90271235D02*
X143421070Y-90271235D01*
D47*
X160759110Y-91551905D02*
X160759110Y-90413515D01*
X173698750Y-121259375D02*
X177000750Y-121259375D01*
D48*
X165248650Y-89017655D02*
X174071230Y-89017655D01*
D47*
X144691070Y-116941235D02*
X157010070Y-104622235D01*
D49*
X153408070Y-89682235D02*
X152819070Y-90271235D01*
D47*
X171698040Y-89014455D02*
X183693290Y-89014455D01*
D48*
X163868070Y-90398235D02*
X165248650Y-89017655D01*
X160774390Y-90398235D02*
X163868070Y-90398235D01*
D47*
X184315070Y-120243235D02*
X184315070Y-91797915D01*
X178219070Y-97893915D02*
X184315070Y-91797915D01*
X146001020Y-81849285D02*
X146001020Y-81022235D01*
D49*
X155361070Y-89682235D02*
X153408070Y-89682235D01*
X152819070Y-90271235D02*
X143421070Y-90271235D01*
D47*
X160759110Y-90413515D02*
X160774390Y-90398235D01*
D49*
X131483070Y-94970235D02*
X136182070Y-90271235D01*
D47*
X142659070Y-89509235D02*
X142659070Y-85191235D01*
X160782990Y-93065235D02*
X160782990Y-91575775D01*
D49*
X103533120Y-98907235D02*
X103660120Y-98780235D01*
D47*
X131483070Y-116941235D02*
X144691070Y-116941235D01*
X183693290Y-89014455D02*
X184315070Y-89636235D01*
%TO.N,GND*%
X161873150Y-93065235D02*
X162203830Y-93065235D01*
X125260070Y-105130235D02*
X126341430Y-105130235D01*
X128410170Y-108625225D02*
X129571060Y-108625225D01*
X124371070Y-104241235D02*
X125260070Y-105130235D01*
D48*
X171698040Y-92199615D02*
X174068030Y-92199615D01*
D47*
X124350010Y-101172175D02*
X124942560Y-101172175D01*
X124942560Y-101172175D02*
X126383360Y-101172175D01*
X161746150Y-87604235D02*
X162852070Y-87604235D01*
X144181070Y-85467235D02*
X144181070Y-85717235D01*
D49*
X139484070Y-111316155D02*
X140483920Y-111316155D01*
D47*
X123482070Y-104241235D02*
X124371070Y-104241235D01*
X123703150Y-100525315D02*
X123703150Y-98974315D01*
X167805070Y-113247565D02*
X167842150Y-113284655D01*
X126341430Y-105130235D02*
X126383360Y-105172165D01*
X161709070Y-87641315D02*
X161746150Y-87604235D01*
X167715150Y-111607235D02*
X167805070Y-111697155D01*
X167805070Y-111517315D02*
X167805070Y-110718235D01*
X123948080Y-108625225D02*
X128410170Y-108625225D01*
D49*
X135446490Y-111570155D02*
X135536400Y-111480235D01*
D47*
X122974070Y-105835915D02*
X122974070Y-104749235D01*
X122974070Y-105835915D02*
X124154260Y-107016105D01*
X124498070Y-106672295D02*
X126381840Y-106672295D01*
X167715150Y-111607235D02*
X167805070Y-111517315D01*
D49*
X172664090Y-106814255D02*
X172664090Y-105868105D01*
D47*
X123703150Y-107467205D02*
X124154260Y-107016105D01*
X167842150Y-116049195D02*
X167842150Y-114272645D01*
X167842150Y-114272645D02*
X167842150Y-113284655D01*
D49*
X134023070Y-111570155D02*
X135446490Y-111570155D01*
D47*
X162203830Y-93065235D02*
X163045690Y-93907095D01*
X123703150Y-100525315D02*
X124350010Y-101172175D01*
X167805070Y-113247565D02*
X167805070Y-111697155D01*
X146356070Y-83292235D02*
X144181070Y-85467235D01*
D48*
X166872040Y-92199615D02*
X169285040Y-92199615D01*
X174068030Y-92199615D02*
X174071230Y-92202815D01*
D49*
X136536810Y-111480235D02*
X138613210Y-111480235D01*
D48*
X169285040Y-92199615D02*
X171698040Y-92199615D01*
X117386070Y-89201235D02*
X117452060Y-89135245D01*
D47*
X167842150Y-116941235D02*
X167842150Y-116049195D01*
D48*
X117386070Y-90906235D02*
X117386070Y-89201235D01*
D47*
X161709070Y-89244565D02*
X161709070Y-87641315D01*
D49*
X135536400Y-111480235D02*
X136536810Y-111480235D01*
D47*
X122974070Y-104749235D02*
X123482070Y-104241235D01*
D48*
X164586040Y-92199615D02*
X166872040Y-92199615D01*
D47*
X123703150Y-108870155D02*
X123948080Y-108625225D01*
X123703150Y-108870155D02*
X123703150Y-107467205D01*
D49*
X172664090Y-106814255D02*
X173774070Y-107924235D01*
X139319990Y-111480235D02*
X139484070Y-111316155D01*
X138613210Y-111480235D02*
X139319990Y-111480235D01*
D47*
X147741070Y-83292235D02*
X146356070Y-83292235D01*
D49*
X140483920Y-111316155D02*
X140500070Y-111332295D01*
D47*
X146751000Y-123772305D02*
X150251140Y-123772305D01*
X124154260Y-107016105D02*
X124498070Y-106672295D01*
%TO.N,Net-(D10-DIN)*%
X191681070Y-122402235D02*
X182283070Y-122402235D01*
X194479070Y-123164235D02*
X192443070Y-123164235D01*
X194561070Y-123082235D02*
X194479070Y-123164235D01*
X192443070Y-123164235D02*
X191681070Y-122402235D01*
%TO.N,3V3_INTERNAL*%
X124079940Y-102590235D02*
X124162010Y-102672295D01*
X123863070Y-105638235D02*
X123897130Y-105672295D01*
D49*
X140292320Y-112430195D02*
X141386740Y-112430195D01*
X137843740Y-114898565D02*
X137843740Y-113962505D01*
D47*
X148501070Y-124877175D02*
X148501070Y-124434235D01*
D49*
X137833070Y-114909235D02*
X137843740Y-114898565D01*
X141386740Y-112430195D02*
X142518640Y-112430195D01*
D47*
X124162010Y-102672295D02*
X124662130Y-102172175D01*
X123897130Y-105672295D02*
X124838050Y-105672295D01*
X124838050Y-105672295D02*
X126383360Y-105672295D01*
D49*
X137843740Y-113137935D02*
X137843740Y-112430195D01*
D47*
X124662130Y-102172175D02*
X126383360Y-102172175D01*
D49*
X137843740Y-112430195D02*
X139460190Y-112430195D01*
X139460190Y-112430195D02*
X140292320Y-112430195D01*
D47*
X147231070Y-126147175D02*
X148501070Y-124877175D01*
D49*
X142518640Y-112430195D02*
X143548070Y-112430195D01*
X139460190Y-112430195D02*
X139484070Y-112406315D01*
D47*
X123863070Y-102590235D02*
X124079940Y-102590235D01*
D49*
X137843740Y-113962505D02*
X137843740Y-113137935D01*
D47*
X124162010Y-102672295D02*
X126383360Y-102672295D01*
%TO.N,ESP_IO0*%
D50*
X163868070Y-100431235D02*
X172123070Y-100431235D01*
X160820070Y-98476995D02*
X160820070Y-96240235D01*
X162772310Y-100429235D02*
X163866070Y-100429235D01*
X160820070Y-98476995D02*
X162772310Y-100429235D01*
X163866070Y-100429235D02*
X163868070Y-100431235D01*
X157137070Y-92557235D02*
X160820070Y-96240235D01*
X153052140Y-92557235D02*
X157137070Y-92557235D01*
X172123070Y-100431235D02*
X173647070Y-101955235D01*
%TO.N,USB-*%
X149239710Y-87580875D02*
X149263070Y-87604235D01*
X148226140Y-87580875D02*
X149239710Y-87580875D01*
%TO.N,LED_PIXELS*%
D47*
X162488070Y-112098235D02*
X166916070Y-107670235D01*
X162488070Y-122461565D02*
X162488070Y-112098235D01*
X162382240Y-122567405D02*
X162488070Y-122461565D01*
%TO.N,CP_DTR*%
X147980070Y-94081235D02*
X147511070Y-93612235D01*
X148374070Y-94081235D02*
X147980070Y-94081235D01*
X147511070Y-93612235D02*
X147511070Y-91482235D01*
%TO.N,ESP_EN*%
X166916070Y-90525235D02*
X181347500Y-90525235D01*
%TO.N,SCL*%
X137753030Y-96701265D02*
X138150100Y-96701265D01*
X147195070Y-102844235D02*
X147449070Y-102590235D01*
X147449070Y-102590235D02*
X149771070Y-102590235D01*
X149771070Y-102590235D02*
X150152070Y-102971235D01*
X138150100Y-96701265D02*
X141389070Y-99940235D01*
%TO.N,CHARGE_TO_MCU*%
X133896070Y-91414235D02*
X133896070Y-90131175D01*
X147002520Y-87249605D02*
X151041070Y-83211055D01*
X143574440Y-87249605D02*
X147002520Y-87249605D01*
X143294070Y-86969235D02*
X143574440Y-87249605D01*
X132388360Y-88623465D02*
X133896070Y-90131175D01*
%TO.N,ESP_TXD*%
D50*
X162876690Y-100177235D02*
X169431450Y-100177235D01*
X161076070Y-96090615D02*
X161076070Y-98376615D01*
X148251070Y-92662235D02*
X149061070Y-92662235D01*
X161076070Y-98376615D02*
X162876690Y-100177235D01*
X169431450Y-100177235D02*
X176289450Y-93319235D01*
X177711070Y-93319235D02*
X178219070Y-92811235D01*
X157034690Y-92049235D02*
X161076070Y-96090615D01*
X178219070Y-92811235D02*
X178219070Y-91541235D01*
X176289450Y-93319235D02*
X177711070Y-93319235D01*
X149061070Y-92662235D02*
X149674070Y-92049235D01*
X149674070Y-92049235D02*
X157034690Y-92049235D01*
%TO.N,ESP_RXD*%
X169327070Y-99925235D02*
X176568070Y-92684235D01*
X161328070Y-95986235D02*
X161328070Y-98272235D01*
X148581070Y-91962235D02*
X148748070Y-91795235D01*
X176568070Y-92684235D02*
X177584070Y-92684235D01*
X148748070Y-91795235D02*
X157137070Y-91795235D01*
X161328070Y-98272235D02*
X162981070Y-99925235D01*
X157137070Y-91795235D02*
X161328070Y-95986235D01*
X148281070Y-91962235D02*
X148581070Y-91962235D01*
X162981070Y-99925235D02*
X169327070Y-99925235D01*
%TO.N,BUTTON_MIDDLE*%
D47*
X146751000Y-128272165D02*
X150251140Y-128272165D01*
%TO.N,ENC_L_B*%
X161201070Y-110845235D02*
X164376070Y-107670235D01*
X161201070Y-121053235D02*
X161201070Y-110845235D01*
%TO.N,ENC_L_A*%
X161836070Y-121767235D02*
X161836070Y-121340305D01*
X161836070Y-120766165D02*
X161836070Y-111480235D01*
X161853070Y-121323305D02*
X161853070Y-120783165D01*
X161836070Y-120766165D02*
X161853070Y-120783165D01*
X161836070Y-121340305D02*
X161853070Y-121323305D01*
X161836070Y-111480235D02*
X165646070Y-107670235D01*
%TO.N,S_CS*%
X126383360Y-101672305D02*
X145101000Y-101672305D01*
X145101000Y-101672305D02*
X153581070Y-93192235D01*
X153581070Y-93192235D02*
X154470070Y-93192235D01*
%TO.N,S_SCK*%
X126383360Y-103172175D02*
X144028220Y-103172175D01*
X144028220Y-103172175D02*
X153119160Y-94081235D01*
X153119160Y-94081235D02*
X155359070Y-94081235D01*
%TO.N,S_SDA*%
X143955190Y-103672295D02*
X152420660Y-95206825D01*
X152420660Y-95206825D02*
X155630480Y-95206825D01*
X155630480Y-95206825D02*
X156883070Y-93954235D01*
X126383360Y-103672295D02*
X143955190Y-103672295D01*
%TO.N,S_A0*%
X143980280Y-104074295D02*
X151745210Y-96309375D01*
X151745210Y-96309375D02*
X155924930Y-96309375D01*
X126481230Y-104074295D02*
X143980280Y-104074295D01*
X155924930Y-96309375D02*
X157010070Y-95224235D01*
X126383360Y-104172165D02*
X126481230Y-104074295D01*
%TO.N,S_BACKLIGHT*%
X144032590Y-104876165D02*
X150509520Y-98399235D01*
X128054070Y-105130235D02*
X128308140Y-104876165D01*
X128623080Y-110525245D02*
X129571060Y-110525245D01*
X128308140Y-104876165D02*
X144032590Y-104876165D01*
X128054070Y-109956235D02*
X128623080Y-110525245D01*
X150509520Y-98399235D02*
X155740070Y-98399235D01*
%TO.N,S_RES*%
X150722390Y-97759285D02*
X156883070Y-97759285D01*
X143907500Y-104574165D02*
X150722390Y-97759285D01*
X126481480Y-104574165D02*
X143907500Y-104574165D01*
X126383360Y-104672295D02*
X126481480Y-104574165D01*
%TO.N,EXT_2*%
X171234070Y-102971235D02*
X171337070Y-102868235D01*
X176822070Y-109525875D02*
X176959640Y-109663445D01*
X176821070Y-104762235D02*
X176821070Y-106145235D01*
X174927070Y-102868235D02*
X176821070Y-104762235D01*
X171337070Y-102868235D02*
X174927070Y-102868235D01*
X176822070Y-106146235D02*
X176822070Y-109525875D01*
X176821070Y-106145235D02*
X176822070Y-106146235D01*
%TO.N,EXT_1*%
X172663580Y-103867855D02*
X172671200Y-103860235D01*
X173665640Y-109663445D02*
X175933070Y-107396015D01*
X172671200Y-103860235D02*
X174108980Y-103860235D01*
X174108980Y-103860235D02*
X175933070Y-105684325D01*
X171107070Y-103860235D02*
X172655960Y-103860235D01*
X172655960Y-103860235D02*
X172663580Y-103867855D01*
X175933070Y-107396015D02*
X175933070Y-105684325D01*
%TO.N,3V3_EXTERNAL_CE*%
X168755030Y-113247565D02*
X168765700Y-113258235D01*
X168765700Y-113258235D02*
X170091070Y-113258235D01*
%TO.N,VIBRATOR*%
X119291070Y-89074235D02*
X119352080Y-89135245D01*
X119291070Y-89074235D02*
X119291070Y-87858235D01*
%TO.N,Net-(Q1-D)*%
X131871080Y-109575185D02*
X131871080Y-106288885D01*
X131855430Y-106273235D02*
X131871080Y-106288885D01*
%TO.N,Net-(J1-Pin_3)*%
X126383360Y-106172165D02*
X130247640Y-106172165D01*
X130247640Y-106172165D02*
X130348710Y-106273235D01*
%TO.N,V_BAT_SWITCHED*%
D49*
X135306280Y-112660315D02*
X135536400Y-112430195D01*
X133289910Y-112652075D02*
X134014830Y-112652075D01*
D47*
X163212650Y-86827815D02*
X163354070Y-86969235D01*
D48*
X132501070Y-86459235D02*
X132501070Y-84022235D01*
D47*
X160834490Y-86827815D02*
X163212650Y-86827815D01*
D49*
X133007070Y-111038275D02*
X133515070Y-110530275D01*
D48*
X115600070Y-89585185D02*
X115608070Y-89593185D01*
D47*
X160693070Y-89178525D02*
X160759110Y-89244565D01*
D49*
X162725070Y-89178525D02*
X162725070Y-88366235D01*
D47*
X166624990Y-111607235D02*
X166855110Y-111837355D01*
X163354070Y-88549525D02*
X163354070Y-86969235D01*
D49*
X134531070Y-109829235D02*
X135232110Y-110530275D01*
D48*
X122931960Y-91160235D02*
X127800070Y-91160235D01*
D47*
X160693070Y-86969235D02*
X160834490Y-86827815D01*
D48*
X122296960Y-90525235D02*
X122931960Y-91160235D01*
D47*
X166855110Y-113247565D02*
X166855110Y-111837355D01*
X162725070Y-89178525D02*
X163354070Y-88549525D01*
D49*
X133515070Y-110530275D02*
X135232110Y-110530275D01*
X134014830Y-112652075D02*
X134023070Y-112660315D01*
X133007070Y-112369235D02*
X133289910Y-112652075D01*
D47*
X160693070Y-89178525D02*
X160693070Y-86969235D01*
D49*
X133007070Y-112369235D02*
X133007070Y-111038275D01*
D48*
X166624990Y-111607235D02*
X166624990Y-110935155D01*
X115608070Y-91287235D02*
X115608070Y-89593185D01*
X113450090Y-89585185D02*
X115600070Y-89585185D01*
D49*
X135232110Y-110530275D02*
X135536400Y-110530275D01*
D48*
X166361360Y-110671525D02*
X166624990Y-110935155D01*
D49*
X134023070Y-112660315D02*
X135306280Y-112660315D01*
D48*
X127800070Y-91160235D02*
X132501070Y-86459235D01*
%TO.N,Net-(R35-Pad2)*%
D47*
X173665640Y-118663425D02*
X173698750Y-118696535D01*
X173698750Y-120393745D02*
X173698750Y-118696535D01*
%TO.N,Net-(D5-K)*%
X147739070Y-82218415D02*
X147739070Y-81084285D01*
X147739070Y-81084285D02*
X147801120Y-81022235D01*
%TO.N,Net-(R36-Pad2)*%
X176959640Y-118663425D02*
X177000750Y-118704535D01*
X177000750Y-120393745D02*
X177000750Y-118704535D01*
%TO.N,CHARGE_LED*%
X151041070Y-82345415D02*
X151041070Y-81062185D01*
X151001120Y-81022235D02*
X151041070Y-81062185D01*
%TO.N,Net-(D2-A)*%
D48*
X115608070Y-86123285D02*
X117690080Y-86123285D01*
X117690080Y-86123285D02*
X118402020Y-86835225D01*
X113450090Y-86385285D02*
X113712090Y-86123285D01*
X113712090Y-86123285D02*
X115608070Y-86123285D01*
%TO.N,3V3_EXTERNAL*%
D49*
X167678070Y-118084235D02*
X170599070Y-118084235D01*
D47*
X166855110Y-116838115D02*
X166855110Y-115554905D01*
D49*
X166751990Y-117158155D02*
X166751990Y-116941235D01*
X171369200Y-104868105D02*
X172664090Y-104868105D01*
X171107070Y-117576235D02*
X171107070Y-105130235D01*
X166751990Y-117158155D02*
X167678070Y-118084235D01*
X171107070Y-105130235D02*
X171369200Y-104868105D01*
D47*
X166751990Y-116941235D02*
X166855110Y-116838115D01*
D49*
X170599070Y-118084235D02*
X171107070Y-117576235D01*
%TD*%
M02*
